<svg xmlns="http://www.w3.org/2000/svg" preserveAspectRatio="xMinYMin" viewBox="0 0 24 24"><desc>Construction Brick Streamline Icon: https://streamlinehq.com</desc><path fill="none" stroke="#000" stroke-linecap="round" stroke-linejoin="round" d="M10 13.426H.5v5.5"/><path fill="none" stroke="#000" stroke-linecap="round" stroke-linejoin="round" d="M.5 13.926v-5.5H13m-12.5 0v-5h11v5m-7-5v5m4 0v5m-4 0v5m12 .5v4.5M17 6.571a1.5 1.5 0 0 0 2.117.133L22.981 3.2A1.5 1.5 0 0 0 21 .949l-3.86 3.505A1.5 1.5 0 0 0 17 6.571"/><path fill="none" stroke="#000" stroke-linecap="round" stroke-linejoin="round" d="M17.016 6.582 19.891 9.9a.51.51 0 0 1-.047.709l-3.375 2.977"/><path fill="none" stroke="#000" stroke-linecap="round" stroke-linejoin="round" d="M14.031 10.3a1.459 1.459 0 0 1 2.5-.5l3.5 3.5a1.451 1.451 0 0 1-.5 2.5L11 19.115c-.256.1-.384-.028-.284-.285Z"/><path fill="none" stroke="#000" stroke-linecap="round" stroke-linejoin="round" d="M18.516 18.426H23.5v5H.5v-5h8v5"/></svg>