<svg xmlns="http://www.w3.org/2000/svg" fill="none" preserveAspectRatio="xMinYMin" viewBox="0 0 24 24"><desc>Car Streamline Icon: https://streamlinehq.com</desc><path stroke="#000" stroke-linecap="round" stroke-linejoin="round" d="M4.59 9.59h14.82a4 4 0 0 1 4 4v1.94a2 2 0 0 1-2 2H2.6a2 2 0 0 1-2-2v-1.94a4 4 0 0 1 3.99-4"/><path stroke="#000" stroke-linecap="round" stroke-linejoin="round" d="M4.07 15.55a1.49 1.49 0 1 0 0-2.98 1.49 1.49 0 0 0 0 2.98m15.86 0a1.49 1.49 0 1 0 0-2.98 1.49 1.49 0 0 0 0 2.98M4.06 9.63l.72-4.957a2 2 0 0 1 2-1.66h10.48a2 2 0 0 1 2 1.66l.72 4.957m-14.42 7.9V19a1.5 1.5 0 0 1-3 0v-1.47m18.86 0V19a1.5 1.5 0 1 1-3 0v-1.47m1.225-10.285 1.625-.935a1.494 1.494 0 1 1 1.49 2.59L21 9.91M4.36 7.256 2.73 6.31A1.494 1.494 0 0 0 1.24 8.9L3 9.91"/></svg>