<svg xmlns="http://www.w3.org/2000/svg" viewBox="0 0 24 24" preserveAspectRatio="xMinYMin"><desc>E Commerce Apparel Streamline Icon: https://streamlinehq.com</desc><path fill="none" stroke="#000" stroke-linecap="round" stroke-linejoin="round" d="M14.862 22.453H9.138l.24-.386a7.23 7.23 0 0 0 1.191-3.614h2.862a7.23 7.23 0 0 0 1.191 3.614ZM7.5 22.453h9M.5 15.453h23M1.5 1.453h21s1 0 1 1v15s0 1-1 1h-21s-1 0-1-1v-15s0-1 1-1"/><path fill="none" stroke="#000" stroke-linecap="round" stroke-linejoin="round" d="m17.5 8.453-.811-3.242a1 1 0 0 0-.97-.758H13.5a1.5 1.5 0 0 1-3 0H8.281a1 1 0 0 0-.97.758L6.5 8.453h2v4h7v-4Z"/></svg>