<svg xmlns="http://www.w3.org/2000/svg" fill="none" viewBox="0 0 24 24" preserveAspectRatio="xMinYMin"><desc>Study Owl Streamline Icon: https://streamlinehq.com</desc><path stroke="#000" stroke-linecap="round" stroke-linejoin="round" d="m12.39 5.76 6.09-2.33a.28.28 0 0 0 0-.52L12.39.57a1.16 1.16 0 0 0-.78 0l-6.75 2.6 6.75 2.59c.25.1.53.1.78 0M16.95 7.56V4.01M7.05 4.01v3.55M4.86 3.17v3.85M15.3 12.51a2.75 2.75 0 1 0 0-5.5 2.75 2.75 0 0 0 0 5.5M8.7 12.51a2.75 2.75 0 1 0 0-5.5 2.75 2.75 0 0 0 0 5.5"/><path stroke="#000" stroke-linecap="round" stroke-linejoin="round" d="M9.64 12.35 12 14.71l2.36-2.36"/><path stroke="#000" stroke-linecap="round" stroke-linejoin="round" d="M18 13.88v3.58a6 6 0 1 1-12 0v-3.58"/><path stroke="#000" stroke-linecap="round" stroke-linejoin="round" d="M17.49 11.41H18a3.3 3.3 0 0 1 3.3 3.3v2.2a5.49 5.49 0 0 1-5.49 5.49h-.38M6.51 11.41H6a3.3 3.3 0 0 0-3.3 3.3v2.2a5.49 5.49 0 0 0 5.45 5.49h.38"/><g stroke="#000"><path d="M8.7 10.229a.469.469 0 0 1 0-.938M8.7 10.229a.469.469 0 0 0 0-.938"/></g><g stroke="#000"><path d="M15.3 10.229a.469.469 0 0 1 0-.938M15.3 10.229a.469.469 0 0 0 0-.938"/></g></svg>