<svg xmlns="http://www.w3.org/2000/svg" preserveAspectRatio="xMinYMin" viewBox="0 0 24 24"><desc>Chess Knight Streamline Icon: https://streamlinehq.com</desc><path fill="none" stroke="#000" stroke-linecap="round" stroke-linejoin="round" d="M4.5 20.5h15s1 0 1 1v1s0 1-1 1h-15s-1 0-1-1v-1s0-1 1-1m15 0a2 2 0 0 0-2-2h-11a2 2 0 0 0-2 2ZM9.967.684A10.5 10.5 0 0 1 18.5 11v5.5"/><path fill="none" stroke="#000" stroke-linecap="round" stroke-linejoin="round" d="M6.5 18.5h11a9.5 9.5 0 0 1-1-4.236V11a8.5 8.5 0 0 0-7.728-8.465A3.48 3.48 0 0 0 6 .5a.5.5 0 0 0-.5.5v2.258A4.5 4.5 0 0 0 3.5 7v4.5a1 1 0 0 0 1 1h1a1.33 1.33 0 0 0 1.28-.96l.42-1.44a.834.834 0 0 1 .8-.6A1.5 1.5 0 0 0 9.5 8a9.9 9.9 0 0 1-1.493 5.219A9.95 9.95 0 0 0 6.5 18.5"/></svg>