<svg xmlns="http://www.w3.org/2000/svg" preserveAspectRatio="xMinYMin" viewBox="0 0 24 24"><desc>Hospital House Streamline Icon: https://streamlinehq.com</desc><path fill="none" stroke="#000" stroke-linecap="round" stroke-linejoin="round" d="M16.5 13a.5.5 0 0 0-.5-.5h-2.5V10a.5.5 0 0 0-.5-.5h-2a.5.5 0 0 0-.5.5v2.5H8a.5.5 0 0 0-.5.5v2a.5.5 0 0 0 .5.5h2.5V18a.5.5 0 0 0 .5.5h2a.5.5 0 0 0 .5-.5v-2.5H16a.5.5 0 0 0 .5-.5Z"/><path fill="none" stroke="#000" stroke-linecap="round" stroke-linejoin="round" d="M3.5 11.5v11a1 1 0 0 0 1 1h15a1 1 0 0 0 1-1v-11M.5 11 12 .5 23.5 11"/></svg>