<svg xmlns="http://www.w3.org/2000/svg" viewBox="0 0 24 24" preserveAspectRatio="xMinYMin"><desc>Advertising Megaphone Streamline Icon: https://streamlinehq.com</desc><path fill="none" stroke="#000" stroke-linecap="round" stroke-linejoin="round" d="m.594 19.532 1.679 2.53M9.879 8.265l6.381 9.613M15.925 17.372 1.937 21.556.93 20.038l9.284-11.267z"/><path fill="none" stroke="#000" stroke-linecap="round" stroke-linejoin="round" d="M9.216 19.378a2.125 2.125 0 1 1-3.368 2.578l-.877-1.321M3.588 12.46l-.671-.711a.5.5 0 0 1 0-.686l1.8-1.9-.6-2.546a.5.5 0 0 1 .344-.594l2.508-.747.747-2.508a.5.5 0 0 1 .584-.347l2.545.605 1.9-1.8a.5.5 0 0 1 .686 0l1.9 1.8 2.546-.6a.5.5 0 0 1 .594.344l.747 2.508 2.508.747a.5.5 0 0 1 .344.6l-.596 2.535 1.8 1.9a.5.5 0 0 1 0 .686l-1.8 1.9.605 2.545a.5.5 0 0 1-.344.595l-2.508.747-.747 2.508a.5.5 0 0 1-.595.343l-2.545-.6-1.9 1.8a.5.5 0 0 1-.686 0l-.361-.341"/></svg>