<svg xmlns="http://www.w3.org/2000/svg" fill="none" viewBox="0 0 24 24" preserveAspectRatio="xMinYMin"><desc>Phone Hand Typing Streamline Icon: https://streamlinehq.com</desc><path stroke="#000" stroke-linecap="round" stroke-linejoin="round" d="M21.5 10v11.5a2 2 0 0 1-2 2h-9a2 2 0 0 1-2-2V16M8.5 12V4.5a2 2 0 0 1 1.22-1.84M21.5 19.5h-13"/><path stroke="#000" stroke-linecap="round" stroke-linejoin="round" d="M8.5 16h3a2 2 0 0 0 0-4H6M6.5 19a3.22 3.22 0 0 0 2-3"/><path stroke="#000" stroke-linecap="round" stroke-linejoin="round" d="M8.5 7h-2a6 6 0 0 0-6 6v5.55c0 1.51.67 2.23 2 2.95v2M19.75.5h-4.5a3.76 3.76 0 0 0-3.75 3.75c0 2.14 1.35 3.75 5 3.75v2l3-2c.68 0 4-.35 4-3.75A3.76 3.76 0 0 0 19.75.5"/><g stroke="#000"><path d="M15 4.75a.25.25 0 1 1 0-.5M15 4.75a.25.25 0 1 0 0-.5"/></g><g stroke="#000"><path d="M18 4.75a.25.25 0 1 1 0-.5M18 4.75a.25.25 0 1 0 0-.5"/></g><g stroke="#000"><path d="M15 21.75a.25.25 0 1 1 0-.5M15 21.75a.25.25 0 1 0 0-.5"/></g><g stroke="#000"><path d="M21 4.75a.25.25 0 1 1 0-.5M21 4.75a.25.25 0 1 0 0-.5"/></g></svg>