<svg xmlns="http://www.w3.org/2000/svg" preserveAspectRatio="xMinYMin" viewBox="0 0 24 24"><desc>Network Streamline Icon: https://streamlinehq.com</desc><path fill="none" stroke="#000" stroke-linecap="round" stroke-linejoin="round" d="M.536 11.998a11.5 11.5 0 1 0 23 0 11.5 11.5 0 1 0-23 0"/><path fill="none" stroke="#000" stroke-linecap="round" stroke-linejoin="round" d="M6.536 7.748a2.25 2.25 0 1 0 4.5 0 2.25 2.25 0 1 0-4.5 0m6.5 10a1.25 1.25 0 1 0 2.5 0 1.25 1.25 0 1 0-2.5 0m4-7.5a1.75 1.75 0 1 0 3.5 0 1.75 1.75 0 1 0-3.5 0m-6-2.748a9.3 9.3 0 0 1 6 2.5"/><path fill="none" stroke="#000" stroke-linecap="round" stroke-linejoin="round" d="m19.135 11.964.4.534s1.5 2 1.5 6.5M16.859 1.555l.177.445a19.2 19.2 0 0 1 1 6.662m-.5 2.838a10.3 10.3 0 0 1-2.136 5.681m-1.712 1.665-.152.154s-2.5 2.5-8 2.5m6.5-21a17.1 17.1 0 0 0-3.25 5"/><path fill="none" stroke="#000" stroke-linecap="round" stroke-linejoin="round" d="M7.618 9.672 7.536 10a12.7 12.7 0 0 0 1 8c1.7 3.406 6 5 6 5l.373.139M6.536 7.748S2.7 8.023.761 9.721"/><path fill="none" stroke="#000" stroke-linecap="round" stroke-linejoin="round" d="m.816 14.532.22-.034s6.881-1.058 12.474 2.27"/></svg>