<svg xmlns="http://www.w3.org/2000/svg" fill="none" preserveAspectRatio="xMinYMin" viewBox="0 0 24 24"><desc>Software Notebook Cog 1 Streamline Icon: https://streamlinehq.com</desc><path stroke="#000" stroke-linecap="round" stroke-linejoin="round" stroke-miterlimit="10" d="M2.963 16.5.87 21.074c-.2.398-.2.995.1 1.392.299.398.797.696 1.295.696h19.432c.598 0 .997-.298 1.296-.696s.299-.895.1-1.392L20.9 16.5m-17.937 0H20.9m-17.937 0v-2.188M20.9 16.5V6.754c0-.796-.697-1.492-1.495-1.492h-5.78M10.487 20.18h2.989m.448-11.04h3.987m-3.987 3.481h2.492m-6.446.042h1M6.88 1.625l.4 1.2c.1.4.6.7 1 .6l1.2-.3c1.1-.2 1.8 1 1.1 1.8l-.9.9c-.3.3-.3.8 0 1.1l.9.9c.7.8 0 2.1-1.1 1.8l-1.2-.3c-.4-.1-.9.1-1 .6l-.4 1.2c-.3 1.1-1.8 1.1-2.1 0l-.4-1.2c-.1-.4-.6-.7-1-.6l-1.2.3c-1.1.2-1.8-1-1.1-1.8l.9-.9c.3-.3.3-.8 0-1.1l-.9-.9c-.7-.8 0-2.1 1.1-1.8l1.2.3c.4.1.9-.1 1-.6l.4-1.2c.3-1.1 1.8-1.1 2.1 0"/><path stroke="#000" d="M4.331 6.375a1.5 1.5 0 1 0 3 0 1.5 1.5 0 1 0-3 0"/></svg>