<svg xmlns="http://www.w3.org/2000/svg" fill="none" preserveAspectRatio="xMinYMin" viewBox="0 0 24 24"><desc>Radio Antenna 1 Streamline Icon: https://streamlinehq.com</desc><path stroke="#000" stroke-linecap="round" stroke-linejoin="round" d="M20.5 8.5h-17a3 3 0 0 0-3 3v9a3 3 0 0 0 3 3h17a3 3 0 0 0 3-3v-9a3 3 0 0 0-3-3"/><path stroke="#000" stroke-linecap="round" stroke-linejoin="round" d="M7.996 21.492a5.496 5.496 0 1 0 0-10.992 5.496 5.496 0 0 0 0 10.992m-.611-8.549h1.221m0 6.106H7.385m-2.339-4.051.611-1.058m5.288 3.053-.611 1.058m-4.677 0-.611-1.058m5.288-3.053.611 1.058M20.5 8.5.5.5m20 19.991h-4m4-2h-4m4-2h-4m2-2.5a1.5 1.5 0 1 0 0-3 1.5 1.5 0 0 0 0 3"/><path stroke="#000" d="M8 16.25a.25.25 0 1 1 0-.5m0 .5a.25.25 0 1 0 0-.5"/></svg>