<svg xmlns="http://www.w3.org/2000/svg" preserveAspectRatio="xMinYMin" viewBox="0 0 24 24"><desc>Robot Streamline Icon: https://streamlinehq.com</desc><g fill="none" stroke="#000" stroke-linecap="round" stroke-linejoin="round"><path d="M6 .5h12s1.5 0 1.5 1.5v6s0 1.5-1.5 1.5H6S4.5 9.5 4.5 8V2S4.5.5 6 .5"/><path d="M6.5 5a1.5 1.5 0 1 0 3 0 1.5 1.5 0 1 0-3 0m8 0a1.5 1.5 0 1 0 3 0 1.5 1.5 0 1 0-3 0m-4 6.5h3m-3 2h3m1.84 2H8.66a3.66 3.66 0 0 0-3.58 4.43l.47 3.17a.49.49 0 0 0 .49.4H18a.49.49 0 0 0 .49-.4l.47-3.17a3.66 3.66 0 0 0-3.62-4.43"/><path d="m19 18.78 1.71-1.61A3.64 3.64 0 0 0 22 13.5v-.19"/><path d="M23 9.5a2.5 2.5 0 0 1-2 4 2.49 2.49 0 0 1-2-1M5 18.78l-1.69-1.61A3.64 3.64 0 0 1 2 13.5v-.2"/><path d="M1 9.5a2.5 2.5 0 0 0 2 4 2.49 2.49 0 0 0 2-1m11 11V19a.5.5 0 0 0-.5-.5h-7a.5.5 0 0 0-.5.5v4.5"/></g></svg>