<svg xmlns="http://www.w3.org/2000/svg" viewBox="0 0 24 24" preserveAspectRatio="xMinYMin"><desc>Shop 1 Streamline Icon: https://streamlinehq.com</desc><path fill="none" stroke="#000" stroke-linecap="round" stroke-linejoin="round" d="M3.689 2a1 1 0 0 0-.934.644L1.174 6.792a2 2 0 0 0-.014 1.385A2.751 2.751 0 0 0 6.5 7.25a2.75 2.75 0 0 0 5.5 0 2.75 2.75 0 0 0 5.5 0 2.751 2.751 0 0 0 5.34.927 2 2 0 0 0-.015-1.385l-1.58-4.148A1 1 0 0 0 20.311 2ZM4.957 13h7v6h-7ZM13.957 22v-8.5a.5.5 0 0 1 .5-.5h4a.5.5 0 0 1 .5.5V22"/><path fill="none" stroke="#000" stroke-linecap="round" stroke-linejoin="round" d="M20.957 9.908V21a1 1 0 0 1-1 1h-16a1 1 0 0 1-1-1V9.884"/></svg>