<svg xmlns="http://www.w3.org/2000/svg" fill="none" viewBox="0 0 24 24" preserveAspectRatio="xMinYMin"><desc>Railroad Train Streamline Icon: https://streamlinehq.com</desc><path stroke="#000" stroke-linecap="round" stroke-linejoin="round" d="M19.5 19.5a1 1 0 0 1-1 1h-13a1 1 0 0 1-1-1v-7l.5-6a2 2 0 0 1 2-2h10a2 2 0 0 1 2 2l.5 6zM19.5 12.5h-15M10 4.5v-4M14 4.5v-4M7.5.5h9"/><path stroke="#000" stroke-linecap="round" stroke-linejoin="round" d="M8.5 18a1.5 1.5 0 1 0 0-3 1.5 1.5 0 0 0 0 3M15.5 18a1.5 1.5 0 1 0 0-3 1.5 1.5 0 0 0 0 3M6.5 20.5l-5 3M17.5 20.5l5 3"/></svg>