<svg xmlns="http://www.w3.org/2000/svg" fill="none" preserveAspectRatio="xMinYMin" viewBox="0 0 24 24"><desc>Railroad Train Streamline Icon: https://streamlinehq.com</desc><path stroke="#000" stroke-linecap="round" stroke-linejoin="round" d="M19.5 19.5a1 1 0 0 1-1 1h-13a1 1 0 0 1-1-1v-7l.5-6a2 2 0 0 1 2-2h10a2 2 0 0 1 2 2l.5 6zm0-7h-15m5.5-8v-4m4 4v-4M7.5.5h9"/><path stroke="#000" stroke-linecap="round" stroke-linejoin="round" d="M8.5 18a1.5 1.5 0 1 0 0-3 1.5 1.5 0 0 0 0 3m7 0a1.5 1.5 0 1 0 0-3 1.5 1.5 0 0 0 0 3m-9 2.5-5 3m16-3 5 3"/></svg>