<svg xmlns="http://www.w3.org/2000/svg" preserveAspectRatio="xMinYMin" viewBox="0 0 24 24"><desc>Delivery Truck 4 Streamline Icon: https://streamlinehq.com</desc><path fill="none" stroke="#000" stroke-linecap="round" stroke-linejoin="round" d="M12.5 6.5v6m-3-6v6m-3-6v6m-3-6v6m10 5.5a2.5 2.5 0 1 0 5 0 2.5 2.5 0 1 0-5 0m-11 0a2.5 2.5 0 1 0 5 0 2.5 2.5 0 1 0-5 0"/><path fill="none" stroke="#000" stroke-linecap="round" stroke-linejoin="round" d="M15.5 13.641V4.5a1 1 0 0 0-1-1h-13a1 1 0 0 0-1 1v12.906m11 .094h-2m11 1h2a1 1 0 0 0 1-1v-5.859a4.136 4.136 0 0 0-4-4.141h-4m8 9H22"/><path fill="none" stroke="#000" stroke-linecap="round" stroke-linejoin="round" d="M23.5 12.5h-4a.985.985 0 0 1-1-1.059V7.5m-3 5H.5"/></svg>