<svg xmlns="http://www.w3.org/2000/svg" viewBox="0 0 2500 638" stroke-miterlimit="2" stroke-linejoin="round" fill-rule="evenodd" clip-rule="evenodd"><g fill-rule="nonzero"><path fill="#0f0fad" d="m1604.86 280.196c-2.724 3.959-5.883 8.509-9.478 13.648-44.445 63.688-113.998 108.211-192.818 102.609-24.827-1.77-45.639-9.239-62.433-22.409-37.789-29.612-39.979-88.246-30.501-132.853 7.415-34.961 20.025-68.378 37.831-100.25 4.55-8.116 8.074-13.999 10.574-17.649 2.724-3.931 5.884-8.467 9.479-13.605 44.444-63.689 113.997-108.212 192.818-102.609 24.827 1.769 45.638 9.238 62.433 22.408 37.788 29.612 39.979 88.246 30.5 132.853-7.414 34.961-20.025 68.378-37.83 100.25-4.55 8.116-8.075 13.985-10.575 17.607zm-208.573-117.983c-15.953 33.697-25.979 69.164-30.079 106.4-3.539 32.139-1.096 68.953 35.682 80.874 13.228 4.268 26.498 5.686 39.81 4.254 60.959-6.571 100.812-61.33 124.951-112.255 15.952-33.726 25.978-69.206 30.079-106.442 3.539-32.139 1.095-68.954-35.682-80.874-13.228-4.269-26.498-5.687-39.811-4.254-60.958 6.571-100.811 61.329-124.95 112.297z"></path><path fill="#0f0fad" d="m2372.47 247.552h-64.624c-1.264 0-1.699-.604-1.306-1.812l13.312-40.016c.201-.625.8-1.053 1.475-1.053h117.704c2.977 0 4.002 1.419 3.075 4.255l-55.734 167.476c-.606 1.809-2.083 3.19-3.918 3.665-32.972 8.593-67.222 13.928-102.749 16.006-23.143 1.348-44.262-.617-63.36-5.897-80.422-22.24-104.73-97.428-82.233-172.236 26.245-87.193 87.92-162.507 173.565-194.477 48.25-18.028 99.646-21.805 154.187-11.331 16.683 3.201 28.619 6.262 35.809 9.183 2.078.842 2.766 2.33 2.064 4.465l-14.997 45.07c-.149.473-.59.797-1.086.797-.179 0-.356-.042-.515-.123-20.25-9.744-42.395-16.484-66.435-20.218-31.652-4.943-60.454-2.43-86.404 7.539-32.804 12.553-60.524 32.266-83.16 59.14-36.23 42.964-70.311 113.687-48.994 170.172 22.706 60.277 83.96 65.373 140.495 59.729 1.914-.174 3.544-1.471 4.129-3.286l31.469-94.605c.064-.19.096-.39.096-.59 0-1.017-.836-1.853-1.853-1.853-.004 0-.008 0-.012 0z"></path><path fill="#0f0fad" d="m808.943 295.191-168.511.043c-.696-.004-1.354.325-1.769.884l-66.562 90.941c-.415.559-1.073.888-1.769.885l-39.642-.042c-1.194-.011-2.171-.996-2.171-2.19 0-.453.14-.895.401-1.264l267.595-368.609c.415-.559 1.073-.888 1.769-.885l53.587-.21c1.155-.002 2.124.91 2.19 2.064l20.179 368.903c.003.043.004.085.004.127 0 1.201-.989 2.19-2.191 2.19-.001 0-.002 0-.003 0l-54.598-.379c-1.139-.02-2.082-.926-2.148-2.064l-4.171-88.287c-.045-1.17-1.02-2.107-2.19-2.107zm-6.656-218.107c-.043-.708-.637-1.268-1.346-1.268-.411 0-.8.188-1.056.51l-127.394 173.711c-.171.231-.263.512-.263.8 0 .74.609 1.348 1.348 1.348h.011l134.008-.042c.74 0 1.348-.609 1.348-1.348 0-.014 0-.028 0-.042z"></path><path fill="#0f0fad" d="m1195.13 326.488c-44.486 38.921-97.202 59.237-158.147 60.95-31.68.871-69.637.899-113.871.085-1.372-.021-2.489-1.155-2.489-2.527 0-.272.044-.543.13-.801l121.833-366.208c.655-2.007 2.516-3.372 4.592-3.37 42.886-.224 84.101-.126 123.645.295 12.161.141 29.545 3.286 52.154 9.436 26.203 7.118 51.395 21.692 63.823 46.965 12.512 25.442 9.858 54.717 3.749 82.265-14.955 67.395-43.939 127.84-95.419 172.91zm-109.236-267.348-97.863 283.27c-.449 1.236-.014 1.896 1.306 1.98 28.478 1.629 51.059 1.671 67.741.126 66.73-6.178 114.531-38.078 143.403-95.701 14.548-29.008 24.251-60.346 29.11-94.016 4.802-33.445 8.889-66.721-27.72-84.623-17.89-8.761-37.578-13.03-59.063-12.805-17.272.14-26.077.211-26.414.211-8.032-.141-17.511-.127-28.436.042-.936.021-1.764.629-2.064 1.516z"></path><path fill="#0f0fad" d="m1983.38 295.276-168.51.084c-.763-.003-1.483.357-1.938.969l-66.098 90.646c-.455.612-1.176.972-1.938.969l-39.305.042c-.004 0-.007 0-.011 0-1.317 0-2.401-1.084-2.401-2.401 0-.516.166-1.018.474-1.432l267.299-368.272c.455-.612 1.176-.972 1.938-.969l53.46-.421c1.271-.002 2.335 1.006 2.401 2.275l19.674 368.524c.002.042.003.084.003.127 0 1.317-1.084 2.401-2.401 2.401-.001 0-.002 0-.003 0l-53.629.042c-1.271.001-2.334-1.006-2.401-2.275l-4.213-88.035c-.067-1.269-1.13-2.276-2.401-2.274zm-136.199-45.366c-.171.232-.263.513-.263.801 0 .728.589 1.331 1.317 1.348l133.671.252c.74 0 1.348-.608 1.348-1.348 0-.014 0-.028 0-.042l-6.362-176.322c-.014-.729-.618-1.321-1.347-1.321-.435 0-.843.21-1.096.563z"></path><path fill="#05fd06" d="m371.911 289.336c.73 1.882 2.71 2.977 5.94 3.286 16.458 1.573 32.873 6.346 49.247 14.321 41.243 20.093 55.44 57.202 45.414 101.978-17.231 76.998-74.524 133.989-143.318 173.331-57.35 32.799-117.845 50.87-181.486 54.211-30.332 1.601-54.696 1.348-73.092-.758-27.003-3.075-64.581-16.428-73.47-44.439-1.91-6.009-1.432-14.195 1.432-24.557 4.747-17.045 14.787-31.352 30.121-42.922 12.976-9.828 25.53-17.382 37.663-22.661.202-.09.414-.159.631-.206 1.739-.376 3.476.728 3.847 2.444.047.219.071.443.071.668.085 11.176.688 25.315 1.812 42.417 1.306 20.134 11.374 33.908 26.751 45.197 11.065 8.115 24.687 12.51 40.864 13.184 29.461 1.263 55.454-2.598 77.978-11.584 59.315-23.63 107.383-78.641 128.194-139.129 5.982-17.354 9.1-33.894 9.352-49.619.632-38.668-15.545-63.857-52.828-75.398-18.536-5.757-38.406-8.509-59.61-8.256-.004 0-.008 0-.011 0-1.225 0-2.233-1.008-2.233-2.233 0-.367.091-.729.264-1.053 5.94-11.373 10.363-23.167 21.19-26.537 1.938-.589 12.975-2.92 33.112-6.992 66.309-13.395 137.252-54.969 171.712-115.582 18.663-32.771 31.343-63.057 21.738-99.661-1.966-7.413-6.895-15.08-14.787-22.998-17.44-17.523-57.588-16.26-77.009-9.52-46.2 15.978-77.458 46.868-93.776 92.668-5.111 14.35-8.861 25.652-11.248 33.908-1.151 4.016-4.353 6.052-9.605 6.108-3.848.028-5.898.042-6.151.042-15.208.169-31.637-2.106-35.85-18.533-7.078-27.801 12.006-55.812 31.848-74.641 24.294-22.97 53.348-40.956 87.162-53.958 9.072-3.482 23.156-7.933 42.254-13.352 16.177-4.606 30.627-7.147 43.35-7.624 53.67-1.98 97.651-3.328 135.566 27.21 18.452 14.869 23.802 37.278 20.98 61.288-3.595 30.693-15.559 58.03-35.893 82.011-49.711 58.507-120.99 94.016-196.357 114.487-1.14.304-1.94 1.344-1.94 2.524 0 .318.058.633.171.93z"></path><g fill="#030203"><path d="m1207.43 550.45c-6.123 9.829-12.723 17.635-19.8 23.42-19.253 15.754-49.458 25.652-71.701 13.858-32.102-17.059-14.197-70.68.547-94.437 6.123-9.829 12.723-17.635 19.8-23.42 19.252-15.754 49.458-25.652 71.701-13.858 32.102 17.059 14.197 70.681-.547 94.437zm-74.768 26.3c16.635 8.882 43.366-8.232 59.215-37.911 15.849-29.678 15.202-61.408-1.433-70.29h-.001c-16.635-8.881-43.366 8.233-59.215 37.911-15.849 29.679-15.202 61.409 1.434 70.29z"></path><path d="m1350.87 498.598c4.044 4.24 7.064 6.74 9.058 7.498 11.964 4.577 23.001 9.323 33.112 14.237 10.335 5.055 15.053 12.244 14.155 21.567-1.643 17.438-7.162 28.937-22.412 38.752-24.476 15.711-53.46 14.448-81.728 8.298-1.753-.363-3.023-1.922-3.023-3.713 0-.413.068-.824.201-1.216l4.592-13.816c.898-2.695 2.584-3.341 5.055-1.937 19.154 10.952 39.445 12.089 60.874 3.412 11.585-4.718 20.896-20.682 12.512-31.213-2.359-2.976-7.47-5.967-15.334-8.972-22.286-8.424-44.192-13.226-38.126-41.827 8.931-42.206 58.473-43.217 92.049-32.518 2.247.702 3.216 2.219 2.907 4.549-.337 2.78-1.137 5.589-2.401 8.425-.983 2.19-2.64 2.99-4.971 2.401-26.485-6.796-44.74-7.049-54.766-.758-8.454 5.335-12.849 13.029-13.186 23.082-.028 1.461.449 2.71 1.432 3.749z"></path><path d="m1450.71 495.692c16.303-28.18 41.453-44.986 74.102-43.596 54.808 2.316 34.292 68.406 17.441 97.47-16.346 28.137-41.496 44.944-74.145 43.554-54.808-2.317-34.292-68.406-17.398-97.428zm16.151 81.401c16.318 8.933 43.089-8.084 59.303-37.696 16.215-29.613 16.129-61.33-.189-70.264-16.318-8.932-43.089 8.084-59.303 37.697-16.215 29.612-16.129 61.33.189 70.263z"></path><path d="m572.691 471.43-42.928.21c-.008 0-.016 0-.025 0-1.479 0-2.696-1.217-2.696-2.696 0-.256.037-.512.109-.758l2.991-10.32c.334-1.139 1.383-1.93 2.57-1.937l119.053-.379h.001c1.479 0 2.696 1.217 2.696 2.695 0 .228-.029.454-.086.674l-2.696 10.489c-.302 1.172-1.359 2.003-2.569 2.022l-50.638.337c-1.138.008-2.154.736-2.527 1.811l-39.685 116.214c-.364 1.106-1.405 1.857-2.569 1.854l-12.175-.127c-1.467-.018-2.663-1.229-2.663-2.695 0-.287.045-.571.135-.843l36.272-113.013c.089-.272.135-.556.135-.843 0-1.479-1.217-2.695-2.696-2.695-.003 0-.006 0-.009 0z"></path><path d="m830.933 459.888-43.138 129.567c-.445 1.356-1.734 2.267-3.16 2.233l-13.944-.295c-1.761-.027-3.195-1.482-3.195-3.243 0-.344.054-.685.162-1.012l43.054-129.398c.44-1.341 1.706-2.248 3.117-2.233l14.029.127c1.777.004 3.237 1.467 3.237 3.243 0 .344-.055.685-.162 1.011z"></path><path d="m914.388 557.4h-57.209c-1.93.004-3.748.928-4.887 2.486l-20.727 28.6c-1.915 2.618-5.132 3.966-8.341 3.496l-1.938-.252c-3.735-.562-4.494-2.359-2.275-5.392 33.562-46.081 63.178-87.291 88.847-123.628 3.37-4.745 6.348-7.188 8.931-7.329 3.483-.196 7.429-.14 11.838.169 2.281.184 4.093 2.032 4.213 4.296l7.12 129.736c.056 1.263-.534 1.895-1.77 1.895h-16.472c-1.488 0-2.275-.758-2.359-2.275l-1.559-28.558c-.089-1.808-1.602-3.246-3.412-3.244zm.969-77.967c-.049-.726-.66-1.297-1.387-1.297-.429 0-.835.199-1.099.539l-45.666 61.076c-.184.242-.284.538-.284.843 0 .758.621 1.384 1.379 1.39l47.099-.169h.001c.762 0 1.39-.627 1.39-1.39 0-.014 0-.028-.001-.042z"></path><path d="m958.664 589.539 43.602-131.125c.702-2.134 2.177-3.187 4.424-3.159 22.608.168 38.153.547 46.635 1.137 18.957 1.306 40.99 15.206 39.642 36.688-2.078 32.603-15.826 59.139-41.243 79.611-15.306 12.299-31.511 18.505-48.615 18.618-19.913.168-34.292.182-43.139.042-.073-.001-.146-.008-.219-.02-.752-.126-1.27-.829-1.148-1.559.013-.079.034-.157.061-.233zm56.241-113.518-33.45 96.712c-.59 1.685.014 2.583 1.812 2.696 29.615 1.895 55.819-3.96 71.954-30.834 7.498-12.552 22.285-48.65 12.048-62.424-9.605-12.89-31.848-11.5-46.467-10.615-2.686.147-5.027 1.919-5.897 4.465z"></path><path d="m1613.83 519.28 56.535-.337h.019c1.363 0 2.485 1.122 2.485 2.485 0 .184-.02.368-.061.548l-2.443 10.699c-.253 1.121-1.252 1.927-2.401 1.937l-62.265.295c-1.075.004-2.031.704-2.359 1.727l-17.188 53.074c-.328 1.023-1.284 1.723-2.359 1.727h-12.512c-.002 0-.004 0-.006 0-1.364 0-2.486-1.122-2.486-2.485 0-.273.045-.543.133-.801l43.475-130.83c.343-1.007 1.296-1.688 2.359-1.685l89.311-.042c1.361.003 2.479 1.124 2.479 2.485 0 .141-.012.282-.036.421l-1.895 11.036c-.204 1.185-1.241 2.061-2.444 2.064h-74.06c-1.048.015-1.98.692-2.317 1.685l-14.323 42.712c-.088.257-.133.528-.133.8 0 1.363 1.122 2.485 2.486 2.485z"></path><path d="m1761.28 471.724h-42.97c-3.061 0-4.114-1.46-3.159-4.38l2.527-7.582c.831-2.482 3.18-4.166 5.814-4.17h115.008c3.651 0 4.901 1.741 3.75 5.223l-2.317 6.95c-.843 2.499-2.584 3.749-5.224 3.749h-47.225c-1.93-.005-3.655 1.241-4.255 3.075l-37.662 113.181c-.927 2.808-2.879 4.212-5.856 4.212h-9.1c-2.64 0-3.665-1.277-3.075-3.833 1.348-5.784 3.216-12.299 5.603-19.544 8.454-25.891 18.424-57.384 29.911-94.48.505-1.6-.085-2.401-1.77-2.401z"></path><path d="m1847.01 557.358c-1.882 8.986-.534 9.492 4.044 1.517 23.592-41.083 36.188-63.352 37.789-66.806 1.797-3.959 4.086-6.22 6.866-6.781 4.775-.983 8.257-1.306 10.448-.969 2.694.428 4.632 2.883 4.424 5.602l-5.646 72.155c-.196 2.499.267 2.626 1.391.379l50.974-101.935c1.753-3.531 5.516-5.655 9.479-5.35l1.264.085c4.24.337 5.406 2.401 3.496 6.192l-64.16 128.303c-.562 1.151-1.489 1.755-2.781 1.811l-13.944.506c-.031 0-.062.001-.093.001-2.103 0-3.833-1.73-3.833-3.833 0-.085.003-.17.008-.254l5.561-70.807c.253-3.454-.477-3.665-2.191-.632-12.385 21.707-25.641 44.102-39.768 67.185-3.37 5.518-4.255 8.34-11.122 8.213-4.072-.084-8.552-.224-13.438-.421-1.854-.084-2.598-1.039-2.233-2.864l25.276-126.745c.813-3.979 4.503-6.759 8.552-6.445l2.57.211c3.707.281 5.252 2.246 4.634 5.897-5.982 36.562-11.838 68.49-17.567 95.785z"></path><path d="m2035.36 557.485h-58.725c-1.545 0-2.767.617-3.666 1.853l-18.704 25.779c-2.022 2.752-4.606 4.858-7.752 6.318-1.741.786-3.791 1.179-6.15 1.179-.312-.007-.621-.061-.917-.158-1.623-.537-2.523-2.297-1.994-3.899.098-.296.242-.576.425-.829l94.661-130.367c.927-1.292 2.191-1.938 3.791-1.938h13.481c2.022 0 3.09 1.011 3.202 3.033l7.204 131.168c.056 1.235-.52 1.853-1.727 1.853h-17.483c-.955 0-1.461-.477-1.517-1.432l-1.643-30.244c-.084-1.544-.913-2.316-2.486-2.316zm-48.151-17.734c-.171.232-.264.513-.264.801 0 .739.609 1.348 1.348 1.348h.011s47.689.042 47.689.042c.74 0 1.348-.609 1.348-1.348 0-.014 0-.028-.001-.042l-1.474-63.689c-.015-.729-.619-1.32-1.348-1.32-.434 0-.842.209-1.095.562z"></path><path d="m2121.43 536.129-16.219 48.777c-1.432 4.325-4.423 6.613-8.973 6.866l-5.14.295c-4.212.224-5.645-1.657-4.297-5.645l42.886-128.935c.45-1.404 1.418-2.106 2.907-2.106 22.384.084 37.367.225 44.95.421 12.161.337 21.794 4.844 28.9 13.521 2.471 3.033 2.977 7.653 1.516 13.859-5.139 22.071-18.634 36.421-40.484 43.048-.041.012-.082.025-.122.039-1.73.585-2.665 2.508-2.072 4.259.014.042.029.083.045.125l21.696 56.612c1.011 2.668.084 4.058-2.781 4.17l-13.48.505c-2.865.085-4.873-1.179-6.025-3.791l-21.738-49.619c-.87-1.994-2.401-3.089-4.591-3.286l-13.987-1.095c-1.516-.112-2.513.548-2.991 1.98zm8.173-18.239c1.264 2.162 5.196 2.724 11.796 1.685 5.982-.927 9.366-1.432 10.152-1.516 14.998-1.475 32.06-17.186 34.629-32.729.816-4.855-2.225-9.599-6.993-10.91-10.841-2.976-22.145-3.791-33.913-2.443-1.276.149-2.349 1.024-2.738 2.233l-13.312 39.973c-.422 1.292-.295 2.528.379 3.707z"></path><path d="m2266.3 512.583 52.575-.169c1.17.013 2.125.979 2.125 2.148 0 .171-.02.34-.061.506l-2.654 11.373c-.23.952-1.084 1.632-2.064 1.643l-55.608.084c-.897-.005-1.706.551-2.022 1.39l-16.641 43.301c-.091.243-.138.499-.138.759 0 1.167.951 2.131 2.118 2.148l70.353.126c1.176.005 2.14.973 2.14 2.148 0 .127-.011.254-.033.379l-2.065 11.163c-.182 1.016-1.073 1.765-2.106 1.769l-91.08.168c-1.172-.01-2.13-.976-2.13-2.148 0-.229.036-.457.108-.674l44.066-131.589c.292-.886 1.131-1.485 2.064-1.474h84.929.02c1.179 0 2.149.969 2.149 2.148 0 .099-.007.197-.02.295l-1.643 11.415c-.146 1.049-1.047 1.843-2.107 1.853h-70.395c-.918.008-1.734.603-2.022 1.475l-11.88 36.94c-.072.218-.109.446-.109.675 0 1.171.959 2.138 2.131 2.148z"></path><path d="m715.293 530.442 21.991 57.455c.983 2.499.126 3.749-2.57 3.749h-15.25c-2.2.005-4.186-1.358-4.971-3.412l-19.674-51.347c-.59-1.544-1.727-2.317-3.412-2.317h-17.947c-1.235 0-2.05.59-2.443 1.769l-16.851 50.589c-1.124 3.398-3.469 4.956-7.035 4.675l-7.373-.547c-3.005-.253-4.03-1.811-3.075-4.676l42.717-128.429c.45-1.348 1.376-2.05 2.781-2.107 26.821-.982 46.761-.154 59.821 2.486 9.015 1.797 14.506 6.262 16.472 13.394 1.264 4.521.337 10.503-2.781 17.944-7.105 16.961-20.094 29.415-38.968 37.362-1.572.674-2.05 1.812-1.432 3.412zm-37.199-12.468c-.365 1.095.042 1.643 1.222 1.643 6.74 0 13.916-.674 21.527-2.022 17.399-3.117 31.343-17.312 35.219-34.076.136-.602.205-1.218.205-1.835 0-3.885-2.729-7.275-6.524-8.106-11.038-2.415-22.496-2.963-34.376-1.643-1.348.168-2.247.899-2.697 2.19z"></path></g></g></svg>