<svg xmlns="http://www.w3.org/2000/svg" fill-rule="evenodd" stroke-linejoin="round" stroke-miterlimit="2" clip-rule="evenodd" preserveAspectRatio="xMinYMin" viewBox="0 0 2500 638"><g fill-rule="nonzero"><path fill="#0f0fad" d="M1604.86 280.196a2165 2165 0 0 1-9.478 13.648c-44.445 63.688-113.998 108.211-192.818 102.609q-37.241-2.654-62.433-22.409c-37.789-29.612-39.979-88.246-30.501-132.853q11.122-52.442 37.831-100.25 6.825-12.174 10.574-17.649 4.086-5.897 9.479-13.605c44.444-63.689 113.997-108.212 192.818-102.609q37.24 2.653 62.433 22.408c37.788 29.612 39.979 88.246 30.5 132.853q-11.122 52.442-37.83 100.25-6.825 12.174-10.575 17.607m-208.573-117.983q-23.93 50.546-30.079 106.4c-3.539 32.139-1.096 68.953 35.682 80.874q19.842 6.402 39.81 4.254c60.959-6.571 100.812-61.33 124.951-112.255q23.928-50.589 30.079-106.442c3.539-32.139 1.095-68.954-35.682-80.874q-19.842-6.404-39.811-4.254c-60.958 6.571-100.811 61.329-124.95 112.297m976.183 85.339h-64.624q-1.896 0-1.306-1.812l13.312-40.016c.201-.625.8-1.053 1.475-1.053h117.704q4.466 0 3.075 4.255l-55.734 167.476a5.63 5.63 0 0 1-3.918 3.665q-49.458 12.89-102.749 16.006-34.714 2.022-63.36-5.897c-80.422-22.24-104.73-97.428-82.233-172.236 26.245-87.193 87.92-162.507 173.565-194.477q72.375-27.042 154.187-11.331 25.024 4.802 35.809 9.183 3.117 1.263 2.064 4.465l-14.997 45.07a1.14 1.14 0 0 1-1.601.674q-30.375-14.617-66.435-20.218-47.479-7.415-86.404 7.539-49.206 18.83-83.16 59.14c-36.23 42.964-70.311 113.687-48.994 170.172 22.706 60.277 83.96 65.373 140.495 59.729a4.79 4.79 0 0 0 4.129-3.286l31.469-94.605c.064-.19.096-.39.096-.59a1.86 1.86 0 0 0-1.853-1.853zM808.943 295.191l-168.511.043a2.19 2.19 0 0 0-1.769.884l-66.562 90.941a2.2 2.2 0 0 1-1.769.885l-39.642-.042a2.2 2.2 0 0 1-2.171-2.19c0-.453.14-.895.401-1.264L796.515 15.839a2.2 2.2 0 0 1 1.769-.885l53.587-.21a2.2 2.2 0 0 1 2.19 2.064l20.179 368.903a2.2 2.2 0 0 1-2.187 2.317h-.003l-54.598-.379a2.2 2.2 0 0 1-2.148-2.064l-4.171-88.287a2.2 2.2 0 0 0-2.19-2.107m-6.656-218.107a1.355 1.355 0 0 0-1.346-1.268c-.411 0-.8.188-1.056.51L672.491 250.037a1.35 1.35 0 0 0-.263.8c0 .74.609 1.348 1.348 1.348h.011l134.008-.042c.74 0 1.348-.609 1.348-1.348v-.042zm392.843 249.404q-66.73 58.381-158.147 60.95-47.52 1.306-113.871.085a2.54 2.54 0 0 1-2.489-2.527c0-.272.044-.543.13-.801l121.833-366.208c.655-2.007 2.516-3.372 4.592-3.37q64.329-.336 123.645.295 18.241.211 52.154 9.436c26.203 7.118 51.395 21.692 63.823 46.965 12.512 25.442 9.858 54.717 3.749 82.265-14.955 67.395-43.939 127.84-95.419 172.91M1085.894 59.14l-97.863 283.27q-.674 1.854 1.306 1.98 42.717 2.444 67.741.126 100.095-9.267 143.403-95.701 21.822-43.512 29.11-94.016c4.802-33.445 8.889-66.721-27.72-84.623q-26.835-13.142-59.063-12.805-25.908.21-26.414.211-12.048-.212-28.436.042a2.24 2.24 0 0 0-2.064 1.516m897.486 236.136-168.51.084a2.4 2.4 0 0 0-1.938.969l-66.098 90.646a2.4 2.4 0 0 1-1.938.969l-39.305.042h-.011a2.413 2.413 0 0 1-2.401-2.401c0-.516.166-1.018.474-1.432l267.299-368.272a2.4 2.4 0 0 1 1.938-.969l53.46-.421a2.41 2.41 0 0 1 2.401 2.275l19.674 368.524a2.413 2.413 0 0 1-2.398 2.528h-.003l-53.629.042a2.41 2.41 0 0 1-2.401-2.275l-4.213-88.035a2.41 2.41 0 0 0-2.401-2.274m-136.199-45.366a1.35 1.35 0 0 0-.263.801c0 .728.589 1.331 1.317 1.348l133.671.252c.74 0 1.348-.608 1.348-1.348v-.042l-6.362-176.322a1.353 1.353 0 0 0-1.347-1.321c-.435 0-.843.21-1.096.563z"/><path fill="#05fd06" d="M371.911 289.336q1.095 2.823 5.94 3.286 24.687 2.359 49.247 14.321c41.243 20.093 55.44 57.202 45.414 101.978-17.231 76.998-74.524 133.989-143.318 173.331q-86.025 49.199-181.486 54.211-45.498 2.401-73.092-.758c-27.003-3.075-64.581-16.428-73.47-44.439q-2.864-9.014 1.432-24.557 7.12-25.567 30.121-42.922 19.464-14.742 37.663-22.661.304-.135.631-.206c1.739-.376 3.476.728 3.847 2.444q.07.33.071.668.127 16.764 1.812 42.417c1.306 20.134 11.374 33.908 26.751 45.197q16.598 12.173 40.864 13.184 44.192 1.895 77.978-11.584c59.315-23.63 107.383-78.641 128.194-139.129q8.974-26.031 9.352-49.619c.632-38.668-15.545-63.857-52.828-75.398q-27.804-8.636-59.61-8.256h-.011a2.244 2.244 0 0 1-2.233-2.233c0-.367.091-.729.264-1.053 5.94-11.373 10.363-23.167 21.19-26.537q2.907-.884 33.112-6.992c66.309-13.395 137.252-54.969 171.712-115.582 18.663-32.771 31.343-63.057 21.738-99.661q-2.949-11.12-14.787-22.998c-17.44-17.523-57.588-16.26-77.009-9.52q-69.3 23.967-93.776 92.668-7.667 21.525-11.248 33.908-1.727 6.024-9.605 6.108-5.772.042-6.151.042c-15.208.169-31.637-2.106-35.85-18.533-7.078-27.801 12.006-55.812 31.848-74.641q36.441-34.455 87.162-53.958 13.608-5.223 42.254-13.352 24.265-6.909 43.35-7.624c53.67-1.98 97.651-3.328 135.566 27.21 18.452 14.869 23.802 37.278 20.98 61.288q-5.392 46.04-35.893 82.011c-49.711 58.507-120.99 94.016-196.357 114.487a2.62 2.62 0 0 0-1.769 3.454"/><path fill="#030203" d="M1207.43 550.45q-9.185 14.743-19.8 23.42c-19.253 15.754-49.458 25.652-71.701 13.858-32.102-17.059-14.197-70.68.547-94.437q9.184-14.743 19.8-23.42c19.252-15.754 49.458-25.652 71.701-13.858 32.102 17.059 14.197 70.681-.547 94.437m-74.768 26.3c16.635 8.882 43.366-8.232 59.215-37.911 15.849-29.678 15.202-61.408-1.433-70.29h-.001c-16.635-8.881-43.366 8.233-59.215 37.911s-15.202 61.409 1.434 70.29m218.208-78.152q6.067 6.36 9.058 7.498 17.946 6.866 33.112 14.237 15.502 7.582 14.155 21.567c-1.643 17.438-7.162 28.937-22.412 38.752-24.476 15.711-53.46 14.448-81.728 8.298a3.804 3.804 0 0 1-3.023-3.713c0-.413.068-.824.201-1.216l4.592-13.816q1.348-4.043 5.055-1.937 28.73 16.428 60.874 3.412c11.585-4.718 20.896-20.682 12.512-31.213q-3.538-4.464-15.334-8.972c-22.286-8.424-44.192-13.226-38.126-41.827 8.931-42.206 58.473-43.217 92.049-32.518q3.37 1.054 2.907 4.549-.505 4.17-2.401 8.425-1.475 3.285-4.971 2.401-39.727-10.194-54.766-.758-12.68 8.002-13.186 23.082-.042 2.191 1.432 3.749m99.84-2.906c16.303-28.18 41.453-44.986 74.102-43.596 54.808 2.316 34.292 68.406 17.441 97.47-16.346 28.137-41.496 44.944-74.145 43.554-54.808-2.317-34.292-68.406-17.398-97.428m16.151 81.401c16.318 8.933 43.089-8.084 59.303-37.696 16.215-29.613 16.129-61.33-.189-70.264-16.318-8.932-43.089 8.084-59.303 37.697-16.215 29.612-16.129 61.33.189 70.263M572.691 471.43l-42.928.21h-.025a2.71 2.71 0 0 1-2.696-2.696c0-.256.037-.512.109-.758l2.991-10.32a2.7 2.7 0 0 1 2.57-1.937l119.053-.379h.001a2.71 2.71 0 0 1 2.696 2.695q0 .343-.086.674l-2.696 10.489a2.7 2.7 0 0 1-2.569 2.022l-50.638.337a2.7 2.7 0 0 0-2.527 1.811l-39.685 116.214a2.7 2.7 0 0 1-2.569 1.854l-12.175-.127a2.71 2.71 0 0 1-2.663-2.695c0-.287.045-.571.135-.843l36.272-113.013c.089-.272.135-.556.135-.843a2.71 2.71 0 0 0-2.696-2.695zm258.242-11.542-43.138 129.567a3.25 3.25 0 0 1-3.16 2.233l-13.944-.295a3.26 3.26 0 0 1-3.195-3.243c0-.344.054-.685.162-1.012l43.054-129.398a3.25 3.25 0 0 1 3.117-2.233l14.029.127a3.26 3.26 0 0 1 3.237 3.243c0 .344-.055.685-.162 1.011m83.455 97.512h-57.209a6.07 6.07 0 0 0-4.887 2.486l-20.727 28.6a8.77 8.77 0 0 1-8.341 3.496l-1.938-.252q-5.603-.843-2.275-5.392 50.343-69.122 88.847-123.628 5.056-7.118 8.931-7.329 5.225-.294 11.838.169c2.281.184 4.093 2.032 4.213 4.296l7.12 129.736q.084 1.895-1.77 1.895h-16.472q-2.232 0-2.359-2.275l-1.559-28.558a3.427 3.427 0 0 0-3.412-3.244m.969-77.967a1.396 1.396 0 0 0-1.387-1.297c-.429 0-.835.199-1.099.539l-45.666 61.076a1.4 1.4 0 0 0-.284.843c0 .758.621 1.384 1.379 1.39l47.099-.169h.001c.762 0 1.39-.627 1.39-1.39l-.001-.042zm43.307 110.106 43.602-131.125q1.053-3.201 4.424-3.159 33.912.252 46.635 1.137c18.957 1.306 40.99 15.206 39.642 36.688q-3.117 48.904-41.243 79.611-22.959 18.448-48.615 18.618-29.869.252-43.139.042a1.5 1.5 0 0 1-.219-.02c-.752-.126-1.27-.829-1.148-1.559q.02-.119.061-.233m56.241-113.518-33.45 96.712q-.885 2.527 1.812 2.696c29.615 1.895 55.819-3.96 71.954-30.834 7.498-12.552 22.285-48.65 12.048-62.424-9.605-12.89-31.848-11.5-46.467-10.615a6.625 6.625 0 0 0-5.897 4.465m598.925 43.259 56.535-.337h.019a2.497 2.497 0 0 1 2.485 2.485q0 .277-.061.548l-2.443 10.699a2.49 2.49 0 0 1-2.401 1.937l-62.265.295a2.49 2.49 0 0 0-2.359 1.727l-17.188 53.074a2.49 2.49 0 0 1-2.359 1.727h-12.518a2.497 2.497 0 0 1-2.486-2.485c0-.273.045-.543.133-.801l43.475-130.83a2.49 2.49 0 0 1 2.359-1.685l89.311-.042a2.497 2.497 0 0 1 2.443 2.906l-1.895 11.036a2.494 2.494 0 0 1-2.444 2.064h-74.06a2.49 2.49 0 0 0-2.317 1.685l-14.323 42.712a2.5 2.5 0 0 0-.133.8 2.497 2.497 0 0 0 2.486 2.485zm147.45-47.556h-42.97q-4.591 0-3.159-4.38l2.527-7.582c.831-2.482 3.18-4.166 5.814-4.17H1838.5q5.477 0 3.75 5.223l-2.317 6.95q-1.264 3.749-5.224 3.749h-47.225a4.47 4.47 0 0 0-4.255 3.075l-37.662 113.181q-1.39 4.212-5.856 4.212h-9.1q-3.96 0-3.075-3.833 2.022-8.676 5.603-19.544 12.68-38.836 29.911-94.48.758-2.4-1.77-2.401m85.73 85.634q-2.823 13.48 4.044 1.517 35.388-61.625 37.789-66.806 2.696-5.939 6.866-6.781 7.162-1.475 10.448-.969a5.287 5.287 0 0 1 4.424 5.602l-5.646 72.155q-.294 3.749 1.391.379L1957.3 460.52c1.753-3.531 5.516-5.655 9.479-5.35l1.264.085q6.36.506 3.496 6.192l-64.16 128.303q-.843 1.727-2.781 1.811l-13.944.506-.093.001a3.85 3.85 0 0 1-3.825-4.087l5.561-70.807q.38-5.181-2.191-.632-18.578 32.56-39.768 67.185c-3.37 5.518-4.255 8.34-11.122 8.213a688 688 0 0 1-13.438-.421q-2.78-.126-2.233-2.864l25.276-126.745c.813-3.979 4.503-6.759 8.552-6.445l2.57.211q5.56.421 4.634 5.897-8.973 54.843-17.567 95.785m188.35.127h-58.725q-2.318 0-3.666 1.853l-18.704 25.779q-3.033 4.128-7.752 6.318-2.611 1.179-6.15 1.179a3.2 3.2 0 0 1-.917-.158c-1.623-.537-2.523-2.297-1.994-3.899.098-.296.242-.576.425-.829l94.661-130.367q1.39-1.938 3.791-1.938h13.481q3.034 0 3.202 3.033l7.204 131.168q.084 1.853-1.727 1.853h-17.483q-1.433 0-1.517-1.432l-1.643-30.244q-.126-2.316-2.486-2.316m-48.151-17.734a1.35 1.35 0 0 0-.264.801c0 .739.609 1.348 1.348 1.348h.011l47.689.042c.74 0 1.348-.609 1.348-1.348l-.001-.042-1.474-63.689a1.347 1.347 0 1 0-2.443-.758zm134.221-3.622-16.219 48.777q-2.148 6.487-8.973 6.866l-5.14.295q-6.318.337-4.297-5.645l42.886-128.935q.674-2.106 2.907-2.106 33.576.127 44.95.421 18.241.505 28.9 13.521 3.707 4.55 1.516 13.859-7.709 33.107-40.484 43.048l-.122.039c-1.73.585-2.665 2.508-2.072 4.259q.021.063.045.125l21.696 56.612q1.516 4.002-2.781 4.17l-13.48.505q-4.297.127-6.025-3.791l-21.738-49.619q-1.305-2.99-4.591-3.286l-13.987-1.095q-2.274-.168-2.991 1.98m8.173-18.239q1.896 3.243 11.796 1.685 8.973-1.39 10.152-1.516c14.998-1.475 32.06-17.186 34.629-32.729.816-4.855-2.225-9.599-6.993-10.91q-16.261-4.464-33.913-2.443a3.27 3.27 0 0 0-2.738 2.233l-13.312 39.973q-.633 1.938.379 3.707m136.697-5.307 52.575-.169a2.16 2.16 0 0 1 2.125 2.148q0 .257-.061.506l-2.654 11.373a2.15 2.15 0 0 1-2.064 1.643l-55.608.084a2.15 2.15 0 0 0-2.022 1.39l-16.641 43.301a2.2 2.2 0 0 0-.138.759c0 1.167.951 2.131 2.118 2.148l70.353.126a2.158 2.158 0 0 1 2.107 2.527l-2.065 11.163a2.155 2.155 0 0 1-2.106 1.769l-91.08.168a2.16 2.16 0 0 1-2.13-2.148c0-.229.036-.457.108-.674l44.066-131.589a2.15 2.15 0 0 1 2.064-1.474h84.949a2.158 2.158 0 0 1 2.129 2.443l-1.643 11.415a2.156 2.156 0 0 1-2.107 1.853h-70.395a2.15 2.15 0 0 0-2.022 1.475l-11.88 36.94a2.2 2.2 0 0 0-.109.675 2.16 2.16 0 0 0 2.131 2.148M715.293 530.442l21.991 57.455q1.474 3.749-2.57 3.749h-15.25a5.32 5.32 0 0 1-4.971-3.412l-19.674-51.347q-.885-2.317-3.412-2.317H673.46q-1.853 0-2.443 1.769l-16.851 50.589q-1.686 5.097-7.035 4.675l-7.373-.547q-4.507-.379-3.075-4.676L679.4 457.951q.674-2.022 2.781-2.107 40.231-1.474 59.821 2.486 13.523 2.696 16.472 13.394 1.896 6.782-2.781 17.944-10.657 25.442-38.968 37.362-2.359 1.011-1.432 3.412m-37.199-12.468q-.548 1.643 1.222 1.643 10.11 0 21.527-2.022c17.399-3.117 31.343-17.312 35.219-34.076a8.3 8.3 0 0 0 .205-1.835 8.32 8.32 0 0 0-6.524-8.106q-16.557-3.623-34.376-1.643-2.022.253-2.697 2.19z"/></g></svg>