<svg viewBox="0.00 0.00 830.00 140.00" version="1.1" xmlns="http://www.w3.org/2000/svg">
<g stroke-linecap="butt" fill="none" stroke-width="2.00">
<path d="M 164.25 0.00
  Q 158.16 0.19 152.42 1.83
  Q 151.42 2.12 151.27 2.89
  A 0.79 0.78 4.2 0 0 152.07 3.81
  Q 164.32 3.39 177.70 0.56
  Q 177.77 0.54 177.77 0.47
  L 177.77 0.17
  A 0.03 0.03 0.0 0 0 177.73 0.14
  Q 176.03 0.55 174.38 0.00" stroke="#acd4ec"></path>
<path d="M 130.28 140.00
  Q 133.40 138.90 132.71 134.72
  C 131.16 125.24 116.95 114.61 107.65 114.56
  Q 104.51 114.54 102.96 115.41
  Q 100.67 116.70 100.44 120.12
  Q 100.26 122.84 101.61 125.14
  Q 108.22 136.37 120.24 140.00" stroke="#acd4ec"></path>
<path d="M 104.83 49.16
  Q 109.93 39.22 116.56 31.86
  Q 133.27 13.29 157.26 10.23
  Q 160.67 9.80 163.99 10.85
  Q 171.59 13.27 177.99 18.40
  Q 185.15 24.14 185.46 24.34
  C 191.59 28.31 199.25 31.80 206.57 31.58
  C 213.94 31.36 217.38 24.28 215.79 17.75
  C 213.96 10.19 204.40 6.40 197.04 4.21
  Q 193.67 3.20 189.39 3.53
  Q 183.24 4.00 181.66 4.35
  Q 172.20 6.45 162.63 8.01
  Q 157.43 8.86 153.97 8.86
  Q 148.02 8.86 145.29 8.92
  Q 136.92 9.11 130.15 13.37
  Q 120.51 19.45 113.85 28.61
  Q 111.69 31.60 107.28 40.82
  C 103.58 48.58 100.67 54.57 96.73 61.68
  C 93.37 67.72 90.85 72.31 89.98 77.99
  Q 88.54 87.35 90.44 97.55
  Q 90.97 100.43 93.65 104.01
  A 1.52 1.51 -37.5 0 0 95.81 104.29
  Q 97.14 103.23 99.44 101.92
  Q 110.76 95.46 121.57 101.92
  Q 128.45 106.03 133.86 112.07
  Q 138.95 117.76 142.76 121.80
  C 150.49 129.99 161.96 131.33 172.39 127.64
  C 184.25 123.45 194.60 114.01 197.28 101.56
  C 199.16 92.78 196.69 83.52 187.83 80.24
  Q 180.66 77.60 173.00 78.81
  Q 163.33 80.33 158.03 83.25
  Q 153.07 85.97 141.80 92.53
  Q 133.48 97.37 123.50 96.49
  Q 108.37 95.17 104.11 80.69
  Q 101.37 71.38 102.30 57.70
  Q 102.58 53.55 104.83 49.16" stroke="#acd4ec"></path>
<path d="M 442.76 39.13
  L 466.00 39.13
  Q 470.15 39.13 470.15 43.28
  L 470.15 97.15
  A 0.52 0.52 0.0 0 0 470.67 97.67
  L 481.87 97.67
  A 0.68 0.68 0.0 0 0 482.55 96.99
  Q 482.58 66.82 482.61 51.00
  C 482.63 43.40 481.72 36.63 473.60 34.11
  Q 470.81 33.24 468.51 33.14
  Q 456.74 32.61 442.78 32.87
  A 0.60 0.60 0.0 0 1 442.16 32.27
  L 442.16 11.57
  A 0.59 0.59 0.0 0 0 441.57 10.98
  L 430.37 10.98
  A 0.63 0.62 -0.0 0 0 429.74 11.60
  L 429.74 97.19
  A 0.48 0.48 0.0 0 0 430.22 97.67
  L 441.74 97.67
  A 0.43 0.43 0.0 0 0 442.17 97.24
  L 442.17 39.72
  Q 442.17 39.13 442.76 39.13" stroke="#acd4ec"></path>
<path d="M 498.67 32.84
  L 491.77 32.84
  Q 490.86 32.84 490.86 33.75
  L 490.86 38.21
  Q 490.86 39.11 491.75 39.11
  L 498.33 39.11
  Q 499.19 39.11 499.19 39.97
  Q 499.18 69.98 499.23 82.25
  C 499.25 88.16 501.11 93.75 507.21 95.85
  Q 512.47 97.67 519.51 97.38
  Q 519.94 97.37 519.94 96.93
  L 519.94 91.53
  A 0.55 0.55 0.0 0 0 519.39 90.98
  L 514.08 90.98
  A 2.48 2.47 90.0 0 1 511.61 88.50
  L 511.61 39.61
  A 0.52 0.52 0.0 0 1 512.13 39.09
  L 519.09 39.09
  Q 520.00 39.09 520.00 38.18
  L 520.00 33.66
  Q 520.00 32.82 519.16 32.82
  L 512.20 32.82
  A 0.61 0.61 0.0 0 1 511.59 32.21
  L 511.59 11.44
  A 0.41 0.41 0.0 0 0 511.18 11.03
  L 499.82 11.03
  Q 499.18 11.03 499.18 11.67
  L 499.18 32.33
  Q 499.18 32.84 498.67 32.84" stroke="#acd4ec"></path>
<path d="M 205.74 66.23
  C 209.41 71.26 211.80 78.33 213.97 82.80
  C 217.03 89.10 222.34 87.63 226.37 83.57
  C 234.14 75.76 236.00 64.45 234.87 53.37
  C 234.21 46.90 231.03 37.73 222.89 40.38
  Q 220.77 41.07 216.23 44.45
  C 208.58 50.14 198.63 52.39 189.63 49.61
  Q 180.51 46.78 173.34 39.65
  Q 167.92 34.27 165.57 30.86
  C 162.90 27.02 161.39 24.12 158.29 22.65
  C 146.53 17.10 132.54 24.79 123.81 33.04
  C 116.20 40.22 111.15 49.31 111.67 59.86
  C 112.27 71.79 125.29 75.94 134.90 72.82
  Q 141.69 70.61 146.81 67.54
  Q 159.26 60.10 167.41 56.51
  C 182.36 49.94 196.43 53.46 205.74 66.23" stroke="#acd4ec"></path>
<path d="M 297.04 62.81
  Q 292.35 62.86 278.26 62.80
  Q 271.71 62.77 267.10 63.85
  Q 258.48 65.87 257.50 75.37
  Q 256.96 80.54 257.48 85.25
  C 258.03 90.24 260.21 94.22 265.10 96.10
  Q 268.76 97.50 272.02 97.57
  Q 284.61 97.84 309.51 97.60
  Q 310.03 97.60 310.03 97.08
  Q 310.19 55.51 310.20 50.50
  Q 310.22 45.85 309.11 41.91
  Q 307.64 36.67 302.96 34.80
  Q 299.35 33.36 296.25 33.17
  Q 288.49 32.70 277.29 32.85
  C 269.45 32.96 259.92 33.44 257.90 43.13
  Q 256.96 47.62 257.30 51.59
  Q 257.36 52.19 257.95 52.19
  L 269.32 52.19
  A 0.39 0.38 90.0 0 0 269.70 51.80
  L 269.70 42.42
  Q 269.70 39.49 272.63 39.37
  Q 282.07 38.97 294.00 39.23
  C 297.54 39.31 297.57 41.75 297.62 44.55
  Q 297.84 56.24 297.56 62.30
  Q 297.54 62.80 297.04 62.81" stroke="#acd4ec"></path>
<path d="M 334.39 39.13
  L 348.38 39.13
  Q 351.47 39.13 351.68 42.26
  Q 352.00 47.02 351.86 51.60
  A 0.72 0.72 0.0 0 0 352.58 52.34
  L 363.75 52.34
  A 0.54 0.54 0.0 0 0 364.29 51.81
  C 364.53 44.77 363.62 36.88 356.51 34.47
  Q 352.56 33.14 348.25 33.01
  Q 337.85 32.69 322.44 32.90
  Q 321.15 32.92 321.15 34.22
  L 321.15 96.67
  Q 321.15 97.67 322.15 97.67
  L 333.00 97.67
  Q 333.69 97.67 333.69 96.98
  L 333.69 39.83
  Q 333.69 39.13 334.39 39.13" stroke="#acd4ec"></path>
<path d="M 384.83 39.75
  Q 388.40 39.11 393.08 39.13
  Q 400.62 39.16 407.26 39.17
  Q 411.11 39.18 411.11 43.04
  L 411.11 51.51
  Q 411.11 52.18 411.78 52.18
  L 422.96 52.18
  Q 423.43 52.18 423.49 51.72
  C 424.18 47.08 423.00 39.57 419.02 36.30
  C 416.59 34.32 412.41 33.30 409.33 33.11
  Q 402.83 32.71 390.57 32.87
  C 383.27 32.96 375.52 33.42 372.18 40.53
  Q 370.88 43.30 370.80 50.67
  Q 370.56 73.75 370.88 83.93
  C 371.21 94.52 378.87 97.66 388.07 97.72
  Q 393.52 97.76 407.08 97.59
  C 414.02 97.50 420.05 96.05 422.54 88.80
  Q 423.50 85.99 423.41 82.77
  A 0.68 0.68 0.0 0 0 422.73 82.11
  L 411.75 82.11
  A 0.63 0.62 -0.4 0 0 411.12 82.74
  Q 411.20 86.15 410.94 88.96
  Q 410.75 91.06 408.88 91.19
  Q 398.22 91.92 387.09 91.36
  C 384.77 91.24 383.38 90.56 383.36 88.09
  Q 383.18 62.67 383.40 41.44
  A 1.74 1.73 85.4 0 1 384.83 39.75" stroke="#acd4ec"></path>
<path d="M 542.69 69.19
  L 581.97 69.19
  Q 582.37 69.19 582.37 68.79
  Q 582.46 59.08 582.45 50.01
  C 582.43 43.52 581.10 36.64 574.34 34.42
  Q 570.26 33.08 565.50 32.95
  Q 554.79 32.67 546.00 32.99
  C 539.40 33.23 532.97 34.70 530.62 41.63
  Q 529.54 44.82 529.54 48.00
  Q 529.60 72.21 529.57 82.04
  C 529.53 93.61 536.23 97.76 547.01 97.72
  Q 561.91 97.67 565.76 97.62
  C 571.96 97.56 578.42 96.23 581.04 89.78
  Q 582.31 86.66 582.28 82.95
  Q 582.27 82.13 581.45 82.13
  L 570.59 82.13
  A 0.69 0.68 89.6 0 0 569.91 82.83
  Q 569.97 87.21 569.68 89.24
  Q 569.42 91.14 567.24 91.26
  Q 558.18 91.78 548.97 91.52
  C 544.68 91.40 542.08 91.87 542.02 86.75
  Q 541.92 78.57 542.08 69.79
  A 0.61 0.61 0.0 0 1 542.69 69.19" stroke="#acd4ec"></path>
<path d="M 613.14 65.28
  Q 613.14 65.66 612.40 66.69
  Q 595.41 90.36 590.68 97.04
  A 0.44 0.44 0.0 0 0 591.04 97.73
  L 602.81 97.73
  Q 603.65 97.73 604.14 97.05
  L 619.11 76.14
  Q 619.13 76.11 619.16 76.10
  Q 619.20 76.10 619.24 76.10
  Q 619.27 76.10 619.31 76.10
  Q 619.34 76.11 619.36 76.14
  L 634.34 97.04
  Q 634.84 97.72 635.68 97.72
  L 647.45 97.71
  A 0.44 0.44 0.0 0 0 647.80 97.02
  Q 643.07 90.34 626.07 66.69
  Q 625.32 65.66 625.32 65.28
  Q 625.32 64.90 626.06 63.87
  Q 643.05 40.20 647.78 33.52
  A 0.44 0.44 0.0 0 0 647.42 32.83
  L 635.65 32.83
  Q 634.81 32.83 634.32 33.51
  L 619.35 54.42
  Q 619.33 54.45 619.30 54.46
  Q 619.26 54.46 619.23 54.47
  Q 619.19 54.46 619.15 54.46
  Q 619.12 54.45 619.10 54.42
  L 604.12 33.52
  Q 603.63 32.84 602.79 32.84
  L 591.02 32.85
  A 0.44 0.44 0.0 0 0 590.66 33.54
  Q 595.39 40.22 612.40 63.88
  Q 613.14 64.91 613.14 65.28" stroke="#acd4ec"></path>
<path d="M 680.17 65.29
  Q 680.17 65.80 679.59 66.60
  Q 664.15 88.14 657.98 96.80
  A 0.59 0.59 0.0 0 0 658.47 97.73
  L 669.97 97.73
  A 1.51 1.50 17.9 0 0 671.19 97.11
  Q 675.24 91.43 686.11 76.35
  Q 686.20 76.23 686.33 76.23
  Q 686.45 76.23 686.54 76.35
  Q 697.42 91.42 701.47 97.10
  A 1.51 1.50 -17.9 0 0 702.69 97.72
  L 714.19 97.72
  A 0.59 0.59 0.0 0 0 714.68 96.79
  Q 708.51 88.13 693.06 66.60
  Q 692.48 65.80 692.48 65.29
  Q 692.48 64.78 693.06 63.98
  Q 708.50 42.44 714.67 33.78
  A 0.59 0.59 0.0 0 0 714.18 32.85
  L 702.68 32.85
  A 1.51 1.50 17.9 0 0 701.46 33.47
  Q 697.41 39.15 686.54 54.23
  Q 686.45 54.35 686.32 54.35
  Q 686.19 54.35 686.10 54.23
  Q 675.23 39.16 671.17 33.48
  A 1.51 1.50 -17.9 0 0 669.95 32.86
  L 658.45 32.87
  A 0.59 0.59 0.0 0 0 657.96 33.80
  Q 664.14 42.45 679.59 63.99
  Q 680.17 64.78 680.17 65.29" stroke="#acd4ec"></path>
<path d="M 87.4616 63.7147
  A 15.69 1.98 118.3 0 0 96.6433 50.8387
  A 15.69 1.98 118.3 0 0 102.3384 36.0853
  A 15.69 1.98 118.3 0 0 93.1567 48.9613
  A 15.69 1.98 118.3 0 0 87.4616 63.7147" stroke="#acd4ec"></path>
<path d="M 402.69 121.35
  Q 402.64 114.75 402.67 107.82
  A 0.73 0.72 0.4 0 0 401.94 107.09
  L 401.51 107.09
  A 0.62 0.62 0.0 0 0 400.89 107.70
  Q 400.75 115.82 400.91 122.27
  Q 400.95 123.87 402.10 124.26
  Q 404.64 125.11 403.34 122.81
  Q 403.31 122.76 402.95 122.11
  Q 402.70 121.64 402.69 121.35" stroke="#828282"></path>
<path d="M 635.34 114.23
  A 0.29 0.29 0.0 0 1 634.85 114.02
  L 634.85 107.97
  A 0.85 0.85 0.0 0 0 634.00 107.12
  L 633.65 107.12
  A 0.57 0.57 0.0 0 0 633.08 107.69
  L 633.08 123.81
  A 0.68 0.68 0.0 0 0 633.76 124.49
  L 634.06 124.49
  Q 634.86 124.49 634.86 123.69
  L 634.86 117.48
  Q 634.86 115.01 637.28 114.52
  L 637.57 114.46
  Q 640.09 113.95 640.24 116.18
  Q 640.52 120.22 640.31 123.47
  Q 640.25 124.47 641.25 124.47
  L 641.56 124.47
  Q 642.21 124.47 642.26 123.82
  Q 642.48 120.49 642.19 116.49
  C 641.98 113.71 640.29 111.88 637.39 112.96
  Q 636.24 113.40 635.34 114.23" stroke="#828282"></path>
<path d="M 483.93 112.07
  Q 483.84 110.27 484.20 109.61
  Q 484.51 109.04 485.00 108.97
  L 486.56 108.74
  Q 487.14 108.66 487.14 108.09
  Q 487.14 107.56 486.68 107.40
  C 484.72 106.69 482.58 107.49 482.25 109.81
  Q 482.03 111.33 481.96 111.80
  Q 481.88 112.32 481.48 112.62
  L 480.74 113.16
  Q 480.24 113.53 480.75 113.89
  Q 482.06 114.80 482.07 115.49
  Q 482.15 119.53 482.10 123.59
  Q 482.09 124.47 482.97 124.47
  L 483.26 124.47
  A 0.65 0.65 0.0 0 0 483.91 123.82
  L 483.91 115.01
  Q 483.91 114.40 484.52 114.40
  L 485.45 114.40
  Q 486.23 114.40 486.23 113.61
  L 486.23 113.14
  Q 486.23 112.63 485.72 112.63
  L 484.52 112.63
  Q 483.95 112.63 483.93 112.07" stroke="#828282"></path>
<path d="M 359.79 109.19
  A 1.24 1.24 0.0 0 0 358.55 107.95
  A 1.24 1.24 0.0 0 0 357.31 109.19
  A 1.24 1.24 0.0 0 0 358.55 110.43
  A 1.24 1.24 0.0 0 0 359.79 109.19" stroke="#828282"></path>
<path d="M 551.07 109.17
  A 1.24 1.24 0.0 0 0 549.83 107.93
  A 1.24 1.24 0.0 0 0 548.59 109.17
  A 1.24 1.24 0.0 0 0 549.83 110.41
  A 1.24 1.24 0.0 0 0 551.07 109.17" stroke="#828282"></path>
<path d="M 377.64 109.21
  A 1.25 1.25 0.0 0 0 376.39 107.96
  A 1.25 1.25 0.0 0 0 375.14 109.21
  A 1.25 1.25 0.0 0 0 376.39 110.46
  A 1.25 1.25 0.0 0 0 377.64 109.21" stroke="#828282"></path>
<path d="M 648.09 109.21
  A 1.22 1.22 0.0 0 0 646.87 107.99
  A 1.22 1.22 0.0 0 0 645.65 109.21
  A 1.22 1.22 0.0 0 0 646.87 110.43
  A 1.22 1.22 0.0 0 0 648.09 109.21" stroke="#828282"></path>
<path d="M 605.70 119.34
  Q 607.65 119.35 608.02 119.41
  Q 608.56 119.50 608.73 120.02
  L 609.99 123.90
  A 0.97 0.96 -17.6 0 0 611.20 124.52
  L 611.49 124.42
  A 0.51 0.50 -18.3 0 0 611.82 123.78
  Q 609.71 117.41 607.47 110.76
  Q 606.74 108.59 605.72 108.58
  Q 604.70 108.59 603.96 110.75
  Q 601.69 117.39 599.55 123.75
  A 0.51 0.50 18.5 0 0 599.88 124.39
  L 600.17 124.50
  A 0.97 0.96 17.8 0 0 601.38 123.88
  L 602.66 120.01
  Q 602.83 119.49 603.37 119.40
  Q 603.74 119.34 605.70 119.34" stroke="#828282"></path>
<path d="M 343.12 109.44
  L 343.08 123.70
  A 0.71 0.71 0.0 0 0 343.78 124.41
  L 347.46 124.43
  A 6.95 6.79 -89.8 0 0 354.28 117.50
  L 354.28 115.72
  A 6.95 6.79 -89.8 0 0 347.52 108.75
  L 343.84 108.73
  A 0.71 0.71 0.0 0 0 343.12 109.44" stroke="#828282"></path>
<path d="M 418.5376 109.4483
  A 0.79 0.79 0.0 0 0 417.7462 108.6597
  L 417.3862 108.6603
  A 0.79 0.79 0.0 0 0 416.5976 109.4517
  L 416.6224 123.6917
  A 0.79 0.79 0.0 0 0 417.4138 124.4803
  L 417.7738 124.4797
  A 0.79 0.79 0.0 0 0 418.5624 123.6883
  L 418.5376 109.4483" stroke="#828282"></path>
<path d="M 431.71 124.45
  Q 432.01 124.45 432.25 124.33
  Q 432.69 124.10 432.69 123.61
  L 432.69 110.97
  Q 432.69 110.43 433.23 110.43
  L 436.59 110.43
  Q 437.36 110.43 437.36 109.66
  L 437.36 109.39
  A 0.63 0.62 0.5 0 0 436.74 108.77
  Q 434.24 108.73 431.70 108.76
  Q 429.17 108.73 426.67 108.77
  A 0.63 0.62 -0.5 0 0 426.05 109.39
  L 426.05 109.66
  Q 426.05 110.43 426.82 110.43
  L 430.18 110.43
  Q 430.72 110.43 430.72 110.97
  L 430.73 123.61
  Q 430.73 124.10 431.17 124.33
  Q 431.41 124.45 431.71 124.45" stroke="#828282"></path>
<path d="M 592.3777 109.5583
  A 0.84 0.84 0.0 0 0 591.5362 108.7198
  L 591.2962 108.7202
  A 0.84 0.84 0.0 0 0 590.4577 109.5617
  L 590.4823 123.6817
  A 0.84 0.84 0.0 0 0 591.3238 124.5202
  L 591.5638 124.5198
  A 0.84 0.84 0.0 0 0 592.4023 123.6783
  L 592.3777 109.5583" stroke="#828282"></path>
<path d="M 381.57 115.11
  Q 381.57 119.23 381.58 120.43
  C 381.63 123.22 382.92 125.08 385.90 124.31
  Q 386.63 124.12 386.63 123.36
  L 386.63 123.00
  A 0.44 0.44 0.0 0 0 386.07 122.58
  Q 384.98 122.89 384.24 122.64
  Q 383.68 122.45 383.58 121.20
  Q 383.34 118.35 383.51 114.91
  Q 383.53 114.39 384.06 114.39
  L 385.68 114.39
  Q 386.56 114.39 386.56 113.50
  L 386.56 113.20
  Q 386.56 112.66 386.02 112.66
  L 383.93 112.66
  Q 383.45 112.66 383.45 112.18
  L 383.45 110.03
  Q 383.45 109.40 382.82 109.40
  L 382.34 109.40
  A 0.59 0.59 0.0 0 0 381.76 110.10
  Q 382.23 112.55 380.35 112.88
  Q 379.67 113.00 379.87 113.66
  Q 380.02 114.14 381.02 114.40
  Q 381.57 114.54 381.57 115.11" stroke="#828282"></path>
<path d="M 543.81 114.39
  L 545.35 114.39
  A 0.91 0.91 0.0 0 0 546.26 113.48
  L 546.26 113.15
  Q 546.26 112.63 545.74 112.63
  L 543.74 112.63
  Q 543.17 112.63 543.17 112.06
  L 543.17 109.96
  A 0.59 0.58 0.0 0 0 542.58 109.38
  L 542.28 109.38
  Q 541.46 109.38 541.58 110.19
  Q 541.90 112.36 539.71 113.26
  Q 539.18 113.47 539.54 113.92
  Q 539.78 114.23 540.47 114.30
  Q 541.30 114.38 541.32 115.22
  Q 541.38 117.68 541.35 120.44
  C 541.32 123.35 542.71 125.00 545.76 124.28
  Q 546.29 124.16 546.29 123.61
  L 546.29 123.20
  Q 546.29 122.55 545.64 122.64
  Q 544.83 122.76 544.12 122.64
  Q 543.59 122.55 543.48 122.02
  Q 542.96 119.60 543.25 114.92
  Q 543.28 114.39 543.81 114.39" stroke="#828282"></path>
<path d="M 654.68 114.37
  L 656.39 114.37
  Q 657.23 114.37 657.23 113.52
  L 657.23 113.18
  A 0.53 0.53 0.0 0 0 656.70 112.65
  L 654.55 112.65
  Q 653.93 112.65 653.93 112.03
  L 653.93 109.76
  Q 653.93 109.34 653.52 109.34
  L 653.11 109.34
  Q 652.30 109.34 652.40 110.14
  Q 652.67 112.47 650.84 112.92
  Q 650.46 113.02 650.35 113.39
  Q 650.29 113.61 650.36 113.78
  A 0.99 0.60 3.1 0 0 651.03 114.24
  L 651.62 114.38
  Q 652.17 114.50 652.16 115.07
  C 652.13 118.06 651.69 121.97 652.99 123.46
  Q 654.29 124.95 656.70 124.19
  Q 657.44 123.96 657.29 123.21
  Q 657.17 122.58 656.53 122.58
  L 654.91 122.58
  Q 653.98 122.58 653.98 121.65
  L 653.98 115.07
  Q 653.98 114.37 654.68 114.37" stroke="#828282"></path>
<path d="M 684.65 114.36
  L 686.60 114.36
  A 0.76 0.76 0.0 0 0 687.36 113.60
  L 687.36 113.23
  Q 687.36 112.68 686.81 112.68
  L 684.85 112.68
  A 0.73 0.73 0.0 0 1 684.12 111.95
  L 684.12 109.82
  A 0.56 0.56 0.0 0 0 683.56 109.26
  L 683.24 109.26
  A 0.69 0.69 0.0 0 0 682.56 110.07
  Q 683.01 112.48 680.88 112.96
  Q 680.62 113.02 680.52 113.27
  Q 680.45 113.43 680.46 113.52
  Q 680.48 113.85 681.07 114.07
  Q 681.48 114.23 681.82 114.51
  Q 682.17 114.80 682.19 115.25
  Q 682.22 116.16 682.46 121.23
  Q 682.64 125.07 686.67 124.31
  Q 687.41 124.17 687.41 123.41
  L 687.41 123.03
  Q 687.41 122.61 686.99 122.66
  Q 685.81 122.81 684.74 122.39
  A 0.90 0.90 0.0 0 1 684.16 121.55
  L 684.16 114.85
  Q 684.16 114.36 684.65 114.36" stroke="#828282"></path>
<path d="M 441.56 113.64
  Q 440.97 114.18 440.56 113.48
  Q 440.06 112.61 439.50 112.58
  Q 438.94 112.55 438.94 113.12
  L 438.94 123.71
  Q 438.94 124.44 439.66 124.44
  L 440.11 124.44
  Q 440.87 124.44 440.85 123.67
  Q 440.74 119.23 440.88 116.92
  C 441.07 113.88 442.68 114.73 444.62 113.66
  Q 445.40 113.23 444.97 112.39
  A 0.70 0.69 64.6 0 0 444.09 112.07
  Q 442.65 112.65 441.56 113.64" stroke="#828282"></path>
<path d="M 502.95 113.57
  Q 502.74 113.17 502.70 113.12
  Q 501.26 111.56 501.25 113.78
  L 501.18 123.73
  Q 501.17 124.41 501.87 124.46
  Q 502.15 124.48 502.30 124.45
  A 1.30 0.92 87.2 0 0 503.06 123.26
  L 503.29 115.39
  Q 503.30 114.84 503.79 114.62
  Q 504.69 114.22 506.41 113.92
  Q 506.95 113.82 507.17 113.55
  Q 507.49 113.13 507.29 112.58
  Q 507.13 112.12 506.51 112.06
  Q 505.71 111.99 503.85 113.73
  A 0.58 0.57 54.9 0 1 502.95 113.57" stroke="#828282"></path>
<path d="M 615.84 113.58
  Q 615.49 112.76 614.92 112.61
  Q 614.22 112.43 614.21 113.46
  L 614.19 123.46
  Q 614.19 124.52 615.08 124.52
  L 615.11 124.52
  Q 615.96 124.53 615.97 123.71
  L 616.14 116.22
  A 1.92 1.90 -6.3 0 1 617.60 114.41
  Q 619.14 114.04 619.54 113.80
  Q 620.13 113.43 620.21 112.95
  Q 620.30 112.35 619.73 112.15
  Q 618.63 111.75 616.91 113.75
  Q 616.24 114.53 615.84 113.58" stroke="#828282"></path>
<path d="M 460.12 113.33
  Q 460.10 112.84 459.43 112.54
  Q 458.73 112.23 458.73 112.99
  L 458.73 123.63
  Q 458.73 124.49 459.59 124.49
  L 460.03 124.49
  Q 460.62 124.49 460.62 123.91
  L 460.62 116.80
  Q 460.62 114.71 462.65 114.21
  L 463.82 113.92
  Q 466.00 113.38 466.00 115.62
  L 466.00 123.69
  Q 466.00 124.46 466.77 124.46
  L 467.18 124.46
  Q 467.84 124.46 467.87 123.80
  Q 468.04 119.91 467.87 116.54
  C 467.64 111.99 465.09 111.09 461.20 113.56
  Q 460.17 114.20 460.12 113.33" stroke="#828282"></path>
<path d="M 511.12 113.45
  Q 510.93 112.97 510.51 112.56
  A 0.60 0.59 -67.9 0 0 509.50 112.99
  L 509.50 123.66
  A 0.78 0.78 0.0 0 0 510.28 124.44
  L 510.69 124.44
  Q 511.39 124.44 511.40 123.74
  L 511.41 117.01
  Q 511.42 114.63 513.92 113.92
  Q 513.93 113.92 514.02 113.90
  Q 516.45 113.36 516.49 115.81
  L 516.64 123.71
  Q 516.66 124.52 517.47 124.52
  L 517.82 124.52
  A 0.63 0.62 -90.0 0 0 518.44 123.89
  L 518.43 117.49
  Q 518.42 114.96 520.81 114.06
  Q 520.91 114.02 520.93 114.01
  Q 523.33 113.16 523.49 115.74
  Q 523.78 120.28 523.58 123.39
  Q 523.52 124.28 524.40 124.44
  L 524.73 124.50
  Q 525.36 124.62 525.39 123.98
  Q 525.74 118.06 525.15 114.87
  Q 524.58 111.75 521.62 112.28
  C 520.33 112.51 519.68 113.21 518.64 114.12
  A 0.58 0.57 55.6 0 1 517.76 113.95
  C 516.22 110.96 513.88 112.33 511.88 113.68
  Q 511.36 114.04 511.12 113.45" stroke="#828282"></path>
<path d="M 569.03 113.38
  Q 568.80 112.79 568.34 112.55
  Q 567.61 112.18 567.61 113.00
  L 567.61 123.44
  Q 567.61 124.49 568.65 124.49
  L 568.98 124.49
  Q 569.55 124.49 569.54 123.92
  L 569.52 116.99
  Q 569.52 114.61 572.01 113.96
  Q 572.03 113.95 572.30 113.88
  Q 574.72 113.26 574.78 115.87
  L 574.96 123.84
  Q 574.97 124.46 575.59 124.46
  L 576.08 124.46
  Q 576.76 124.46 576.79 123.78
  Q 577.06 118.29 576.47 114.81
  Q 575.98 111.94 573.25 112.20
  C 571.94 112.33 570.79 113.18 569.82 113.69
  Q 569.25 113.98 569.03 113.38" stroke="#828282"></path>
<path d="M 359.4721 113.4168
  A 0.78 0.78 0.0 0 0 358.6894 112.6395
  L 358.4094 112.6405
  A 0.78 0.78 0.0 0 0 357.6321 113.4232
  L 357.6679 123.6832
  A 0.78 0.78 0.0 0 0 358.4506 124.4605
  L 358.7306 124.4595
  A 0.78 0.78 0.0 0 0 359.5079 123.6768
  L 359.4721 113.4168" stroke="#828282"></path>
<path d="M 377.2722 113.5067
  A 0.90 0.90 0.0 0 0 376.3690 112.6099
  L 376.2890 112.6102
  A 0.90 0.90 0.0 0 0 375.3922 113.5133
  L 375.4278 123.7333
  A 0.90 0.90 0.0 0 0 376.3310 124.6301
  L 376.4110 124.6298
  A 0.90 0.90 0.0 0 0 377.3078 123.7267
  L 377.2722 113.5067" stroke="#828282"></path>
<path d="M 452.08 117.37
  C 449.59 117.57 445.55 118.42 446.22 122.00
  C 446.83 125.18 450.50 124.63 452.67 123.37
  Q 453.12 123.11 453.54 123.41
  L 454.40 124.02
  A 0.37 0.37 0.0 0 0 454.98 123.76
  C 455.25 120.62 455.76 115.51 453.79 113.63
  Q 451.79 111.74 448.15 113.38
  Q 447.52 113.67 447.10 114.32
  Q 446.83 114.74 447.12 115.29
  A 0.28 0.28 0.0 0 0 447.50 115.41
  Q 449.70 114.25 450.90 114.25
  A 2.09 2.03 -8.7 0 1 452.89 115.67
  L 453.02 116.07
  Q 453.40 117.26 452.08 117.37" stroke="#828282"></path>
<path d="M 550.6819 113.3369
  A 0.74 0.74 0.0 0 0 549.9393 112.5994
  L 549.5993 112.6006
  A 0.74 0.74 0.0 0 0 548.8619 113.3432
  L 548.8981 123.7231
  A 0.74 0.74 0.0 0 0 549.6407 124.4606
  L 549.9807 124.4594
  A 0.74 0.74 0.0 0 0 550.7181 123.7168
  L 550.6819 113.3369" stroke="#828282"></path>
<path d="M 647.78 113.40
  A 0.83 0.83 0.0 0 0 646.95 112.57
  L 646.77 112.57
  A 0.83 0.83 0.0 0 0 645.94 113.40
  L 645.94 123.68
  A 0.83 0.83 0.0 0 0 646.77 124.51
  L 646.95 124.51
  A 0.83 0.83 0.0 0 0 647.78 123.68
  L 647.78 113.40" stroke="#828282"></path>
<path d="M 661.25 118.97
  L 667.80 118.97
  A 0.54 0.53 3.7 0 0 668.33 118.51
  Q 668.81 114.18 665.17 112.83
  Q 663.55 112.23 662.06 113.08
  Q 657.55 115.64 659.11 120.65
  Q 660.66 125.64 666.90 123.89
  A 0.99 0.98 82.3 0 0 667.62 122.94
  L 667.62 122.39
  A 0.27 0.27 0.0 0 0 667.25 122.14
  C 664.42 123.27 661.29 123.07 660.72 119.59
  Q 660.62 118.97 661.25 118.97" stroke="#828282"></path>
<path d="M 372.03 114.82
  L 372.51 114.82
  A 0.49 0.48 90.0 0 0 372.99 114.33
  L 372.99 113.95
  Q 372.99 113.25 372.29 113.32
  Q 370.60 113.50 368.94 113.02
  C 366.72 112.39 364.37 112.93 363.36 115.04
  C 362.75 116.32 363.29 117.59 363.96 118.86
  Q 364.19 119.31 363.95 119.74
  Q 363.08 121.31 363.64 123.17
  Q 363.77 123.62 363.59 124.02
  L 362.84 125.68
  A 2.23 2.23 0.0 0 0 364.00 128.66
  Q 367.93 130.32 371.40 128.35
  C 373.83 126.97 373.81 123.31 370.67 122.83
  Q 368.49 122.49 366.07 122.62
  Q 365.00 122.67 364.94 121.61
  Q 364.92 121.44 364.91 121.26
  Q 364.85 120.22 365.88 120.32
  C 369.68 120.70 371.82 119.81 371.45 115.45
  Q 371.40 114.82 372.03 114.82" stroke="#828282"></path>
<path d="M 393.98 117.41
  C 392.01 117.48 388.11 118.40 388.16 121.03
  Q 388.25 125.04 392.38 124.25
  Q 392.44 124.23 394.81 123.46
  Q 395.24 123.32 395.62 123.55
  Q 396.00 123.79 396.43 123.81
  Q 396.96 123.84 397.00 123.31
  Q 397.34 117.68 396.90 115.90
  C 395.94 112.05 391.88 111.75 389.24 114.04
  A 0.84 0.80 -21.9 0 0 388.96 114.65
  L 388.96 115.21
  A 0.34 0.34 0.0 0 0 389.53 115.45
  Q 390.41 114.58 392.61 114.23
  A 1.98 1.98 0.0 0 1 394.82 115.57
  L 394.96 116.01
  Q 395.40 117.36 393.98 117.41" stroke="#828282"></path>
<path d="M 473.08 115.22
  Q 473.55 114.31 474.76 114.24
  Q 475.43 114.21 477.41 115.07
  Q 477.91 115.29 478.08 114.77
  Q 478.19 114.43 478.13 114.26
  A 1.91 1.44 85.2 0 0 477.17 113.19
  Q 473.69 111.85 471.91 113.91
  C 470.46 115.59 471.08 117.65 473.07 118.47
  Q 475.44 119.43 476.32 119.87
  A 1.40 1.40 0.0 0 1 476.29 122.40
  Q 474.05 123.45 471.61 121.61
  A 0.46 0.46 0.0 0 0 470.87 121.98
  L 470.87 122.56
  A 0.89 0.89 0.0 0 0 471.35 123.35
  Q 475.16 125.36 477.61 123.61
  C 479.53 122.24 479.39 119.38 477.07 118.45
  Q 474.39 117.37 473.56 116.88
  A 1.27 1.26 29.1 0 1 473.08 115.22" stroke="#828282"></path>
<path d="M 492.8892 124.4499
  A 5.89 5.32 90.3 0 0 498.2399 118.5879
  A 5.89 5.32 90.3 0 0 492.9508 112.6701
  A 5.89 5.32 90.3 0 0 487.6001 118.5321
  A 5.89 5.32 90.3 0 0 492.8892 124.4499" stroke="#828282"></path>
<path d="M 536.10 123.46
  L 536.73 123.91
  A 0.44 0.44 0.0 0 0 537.43 123.59
  C 537.76 119.00 538.65 111.64 532.54 112.78
  Q 530.80 113.10 529.99 113.90
  Q 528.41 115.43 530.65 115.21
  Q 530.77 115.20 531.66 114.71
  Q 534.25 113.30 535.57 115.80
  A 1.06 1.06 0.0 0 1 534.75 117.34
  C 532.39 117.60 528.42 118.28 528.63 121.56
  Q 528.80 124.23 531.95 124.45
  Q 532.59 124.50 535.19 123.36
  Q 535.67 123.15 536.10 123.46" stroke="#828282"></path>
<path d="M 559.3815 124.4598
  A 5.90 5.32 89.5 0 0 564.6498 118.5136
  A 5.90 5.32 89.5 0 0 559.2785 112.6602
  A 5.90 5.32 89.5 0 0 554.0102 118.6064
  A 5.90 5.32 89.5 0 0 559.3815 124.4598" stroke="#828282"></path>
<path d="M 621.38 118.68
  C 621.45 122.75 624.76 125.34 628.78 124.07
  Q 630.12 123.65 630.06 122.21
  A 0.44 0.44 0.0 0 0 629.37 121.87
  C 626.27 124.05 623.44 122.20 623.38 118.64
  C 623.32 115.09 626.09 113.14 629.26 115.22
  A 0.44 0.44 0.0 0 0 629.94 114.85
  Q 629.95 113.41 628.59 113.04
  C 624.53 111.91 621.31 114.61 621.38 118.68" stroke="#828282"></path>
<path d="M 670.55 118.73
  C 670.67 123.08 674.70 125.85 678.58 123.73
  Q 679.10 123.44 679.10 122.84
  L 679.10 122.22
  A 0.37 0.37 0.0 0 0 678.52 121.92
  C 675.39 124.12 672.57 122.14 672.48 118.68
  C 672.39 115.23 675.10 113.10 678.34 115.13
  A 0.37 0.37 0.0 0 0 678.91 114.80
  L 678.87 114.18
  Q 678.84 113.58 678.31 113.32
  C 674.32 111.41 670.44 114.39 670.55 118.73" stroke="#828282"></path>
<path d="M 693.85 122.58
  Q 691.69 123.27 689.76 121.71
  Q 689.36 121.39 689.00 121.75
  Q 688.51 122.25 689.36 123.32
  A 1.48 1.45 81.2 0 0 689.92 123.74
  Q 694.19 125.53 696.39 122.73
  C 697.67 121.09 696.64 119.17 694.71 118.31
  Q 692.27 117.24 691.61 116.96
  A 1.27 1.27 0.0 0 1 691.28 114.81
  Q 692.90 113.48 695.38 115.19
  A 0.47 0.46 17.3 0 0 696.11 114.81
  L 696.11 114.44
  A 1.21 1.20 13.1 0 0 695.43 113.36
  Q 691.24 111.38 689.35 114.66
  A 2.42 2.41 32.5 0 0 690.06 117.85
  Q 691.40 118.79 693.73 119.54
  C 695.13 119.99 695.51 122.05 693.85 122.58" stroke="#828282"></path>
<path d="M 297.7758 71.2944
  A 2.06 2.06 0.0 0 0 295.7194 69.2308
  L 271.8595 69.1892
  A 2.06 2.06 0.0 0 0 269.7959 71.2456
  L 269.7642 89.4256
  A 2.06 2.06 0.0 0 0 271.8206 91.4892
  L 295.6805 91.5308
  A 2.06 2.06 0.0 0 0 297.7441 89.4744
  L 297.7758 71.2944" stroke="#acd4ec"></path>
<path d="M 569.88 41.18
  A 1.93 1.93 0.0 0 0 567.95 39.25
  L 543.95 39.25
  A 1.93 1.93 0.0 0 0 542.02 41.18
  L 542.02 60.92
  A 1.93 1.93 0.0 0 0 543.95 62.85
  L 567.95 62.85
  A 1.93 1.93 0.0 0 0 569.88 60.92
  L 569.88 41.18" stroke="#acd4ec"></path>
<path d="M 603.47 117.31
  A 0.32 0.32 0.0 0 0 603.78 117.73
  L 607.69 117.69
  A 0.32 0.32 0.0 0 0 607.99 117.27
  L 605.98 111.19
  A 0.32 0.32 0.0 0 0 605.37 111.19
  L 603.47 117.31" stroke="#828282"></path>
<path d="M 345.09 111.22
  L 345.07 121.94
  A 0.84 0.84 0.0 0 0 345.91 122.79
  L 347.30 122.79
  A 5.15 5.01 -89.9 0 0 352.32 117.65
  L 352.32 115.55
  A 5.15 5.01 -89.9 0 0 347.32 110.39
  L 345.93 110.39
  A 0.84 0.84 0.0 0 0 345.09 111.22" stroke="#828282"></path>
<path d="M 452.55 118.67
  L 447.87 120.07
  A 0.28 0.28 0.0 0 0 447.68 120.42
  L 447.96 121.35
  A 2.38 2.10 -16.6 0 0 450.84 122.69
  L 451.50 122.49
  A 2.38 2.10 -16.6 0 0 453.18 119.80
  L 452.90 118.86
  A 0.28 0.28 0.0 0 0 452.55 118.67" stroke="#828282"></path>
<path d="M 660.90 117.29
  L 666.60 117.23
  A 0.17 0.17 0.0 0 0 666.77 117.05
  L 666.77 116.98
  A 2.91 2.82 -0.7 0 0 663.82 114.20
  L 663.60 114.20
  A 2.91 2.82 -0.7 0 0 660.73 117.06
  L 660.73 117.13
  A 0.17 0.17 0.0 0 0 660.90 117.29" stroke="#828282"></path>
<path d="M 369.8722 116.3907
  A 2.54 2.33 -4.5 0 0 367.1572 114.2672
  A 2.54 2.33 -4.5 0 0 364.8078 116.7893
  A 2.54 2.33 -4.5 0 0 367.5228 118.9128
  A 2.54 2.33 -4.5 0 0 369.8722 116.3907" stroke="#828282"></path>
<path d="M 371.1988 125.7660
  A 1.52 1.52 0.0 0 0 369.6682 124.2566
  L 365.8283 124.2834
  A 1.52 1.52 0.0 0 0 364.3190 125.8140
  L 364.3212 126.1340
  A 1.52 1.52 0.0 0 0 365.8518 127.6434
  L 369.6917 127.6166
  A 1.52 1.52 0.0 0 0 371.2010 126.0860
  L 371.1988 125.7660" stroke="#828282"></path>
<path d="M 394.18 118.73
  L 390.05 120.00
  A 0.54 0.54 0.0 0 0 389.69 120.67
  L 389.92 121.42
  A 2.25 2.06 -17.1 0 0 392.68 122.73
  L 393.54 122.46
  A 2.25 2.06 -17.1 0 0 395.08 119.83
  L 394.85 119.09
  A 0.54 0.54 0.0 0 0 394.18 118.73" stroke="#828282"></path>
<path d="M 492.9300 122.8600
  A 4.31 3.43 90.0 0 0 496.3600 118.5500
  A 4.31 3.43 90.0 0 0 492.9300 114.2400
  A 4.31 3.43 90.0 0 0 489.5000 118.5500
  A 4.31 3.43 90.0 0 0 492.9300 122.8600" stroke="#828282"></path>
<path d="M 535.7573 119.7825
  A 2.86 1.78 -21.7 0 0 532.4419 119.1861
  A 2.86 1.78 -21.7 0 0 530.4427 121.8975
  A 2.86 1.78 -21.7 0 0 533.7581 122.4939
  A 2.86 1.78 -21.7 0 0 535.7573 119.7825" stroke="#828282"></path>
<path d="M 559.3150 122.8300
  A 4.29 3.45 89.8 0 0 562.7500 118.5280
  A 4.29 3.45 89.8 0 0 559.2850 114.2500
  A 4.29 3.45 89.8 0 0 555.8500 118.5520
  A 4.29 3.45 89.8 0 0 559.3150 122.8300" stroke="#828282"></path>
</g>
<path d="M 164.25 0.00
  Q 158.16 0.19 152.42 1.83
  Q 151.42 2.12 151.27 2.89
  A 0.79 0.78 4.2 0 0 152.07 3.81
  Q 164.32 3.39 177.70 0.56
  Q 177.77 0.54 177.77 0.47
  L 177.77 0.17
  A 0.03 0.03 0.0 0 0 177.73 0.14
  Q 176.03 0.55 174.38 0.00
  L 830.00 0.00
  L 830.00 140.00
  L 130.28 140.00
  Q 133.40 138.90 132.71 134.72
  C 131.16 125.24 116.95 114.61 107.65 114.56
  Q 104.51 114.54 102.96 115.41
  Q 100.67 116.70 100.44 120.12
  Q 100.26 122.84 101.61 125.14
  Q 108.22 136.37 120.24 140.00
  L 0.00 140.00
  L 0.00 0.00
  L 164.25 0.00
  Z
  M 104.83 49.16
  Q 109.93 39.22 116.56 31.86
  Q 133.27 13.29 157.26 10.23
  Q 160.67 9.80 163.99 10.85
  Q 171.59 13.27 177.99 18.40
  Q 185.15 24.14 185.46 24.34
  C 191.59 28.31 199.25 31.80 206.57 31.58
  C 213.94 31.36 217.38 24.28 215.79 17.75
  C 213.96 10.19 204.40 6.40 197.04 4.21
  Q 193.67 3.20 189.39 3.53
  Q 183.24 4.00 181.66 4.35
  Q 172.20 6.45 162.63 8.01
  Q 157.43 8.86 153.97 8.86
  Q 148.02 8.86 145.29 8.92
  Q 136.92 9.11 130.15 13.37
  Q 120.51 19.45 113.85 28.61
  Q 111.69 31.60 107.28 40.82
  C 103.58 48.58 100.67 54.57 96.73 61.68
  C 93.37 67.72 90.85 72.31 89.98 77.99
  Q 88.54 87.35 90.44 97.55
  Q 90.97 100.43 93.65 104.01
  A 1.52 1.51 -37.5 0 0 95.81 104.29
  Q 97.14 103.23 99.44 101.92
  Q 110.76 95.46 121.57 101.92
  Q 128.45 106.03 133.86 112.07
  Q 138.95 117.76 142.76 121.80
  C 150.49 129.99 161.96 131.33 172.39 127.64
  C 184.25 123.45 194.60 114.01 197.28 101.56
  C 199.16 92.78 196.69 83.52 187.83 80.24
  Q 180.66 77.60 173.00 78.81
  Q 163.33 80.33 158.03 83.25
  Q 153.07 85.97 141.80 92.53
  Q 133.48 97.37 123.50 96.49
  Q 108.37 95.17 104.11 80.69
  Q 101.37 71.38 102.30 57.70
  Q 102.58 53.55 104.83 49.16
  Z
  M 442.76 39.13
  L 466.00 39.13
  Q 470.15 39.13 470.15 43.28
  L 470.15 97.15
  A 0.52 0.52 0.0 0 0 470.67 97.67
  L 481.87 97.67
  A 0.68 0.68 0.0 0 0 482.55 96.99
  Q 482.58 66.82 482.61 51.00
  C 482.63 43.40 481.72 36.63 473.60 34.11
  Q 470.81 33.24 468.51 33.14
  Q 456.74 32.61 442.78 32.87
  A 0.60 0.60 0.0 0 1 442.16 32.27
  L 442.16 11.57
  A 0.59 0.59 0.0 0 0 441.57 10.98
  L 430.37 10.98
  A 0.63 0.62 -0.0 0 0 429.74 11.60
  L 429.74 97.19
  A 0.48 0.48 0.0 0 0 430.22 97.67
  L 441.74 97.67
  A 0.43 0.43 0.0 0 0 442.17 97.24
  L 442.17 39.72
  Q 442.17 39.13 442.76 39.13
  Z
  M 498.67 32.84
  L 491.77 32.84
  Q 490.86 32.84 490.86 33.75
  L 490.86 38.21
  Q 490.86 39.11 491.75 39.11
  L 498.33 39.11
  Q 499.19 39.11 499.19 39.97
  Q 499.18 69.98 499.23 82.25
  C 499.25 88.16 501.11 93.75 507.21 95.85
  Q 512.47 97.67 519.51 97.38
  Q 519.94 97.37 519.94 96.93
  L 519.94 91.53
  A 0.55 0.55 0.0 0 0 519.39 90.98
  L 514.08 90.98
  A 2.48 2.47 90.0 0 1 511.61 88.50
  L 511.61 39.61
  A 0.52 0.52 0.0 0 1 512.13 39.09
  L 519.09 39.09
  Q 520.00 39.09 520.00 38.18
  L 520.00 33.66
  Q 520.00 32.82 519.16 32.82
  L 512.20 32.82
  A 0.61 0.61 0.0 0 1 511.59 32.21
  L 511.59 11.44
  A 0.41 0.41 0.0 0 0 511.18 11.03
  L 499.82 11.03
  Q 499.18 11.03 499.18 11.67
  L 499.18 32.33
  Q 499.18 32.84 498.67 32.84
  Z
  M 205.74 66.23
  C 209.41 71.26 211.80 78.33 213.97 82.80
  C 217.03 89.10 222.34 87.63 226.37 83.57
  C 234.14 75.76 236.00 64.45 234.87 53.37
  C 234.21 46.90 231.03 37.73 222.89 40.38
  Q 220.77 41.07 216.23 44.45
  C 208.58 50.14 198.63 52.39 189.63 49.61
  Q 180.51 46.78 173.34 39.65
  Q 167.92 34.27 165.57 30.86
  C 162.90 27.02 161.39 24.12 158.29 22.65
  C 146.53 17.10 132.54 24.79 123.81 33.04
  C 116.20 40.22 111.15 49.31 111.67 59.86
  C 112.27 71.79 125.29 75.94 134.90 72.82
  Q 141.69 70.61 146.81 67.54
  Q 159.26 60.10 167.41 56.51
  C 182.36 49.94 196.43 53.46 205.74 66.23
  Z
  M 297.04 62.81
  Q 292.35 62.86 278.26 62.80
  Q 271.71 62.77 267.10 63.85
  Q 258.48 65.87 257.50 75.37
  Q 256.96 80.54 257.48 85.25
  C 258.03 90.24 260.21 94.22 265.10 96.10
  Q 268.76 97.50 272.02 97.57
  Q 284.61 97.84 309.51 97.60
  Q 310.03 97.60 310.03 97.08
  Q 310.19 55.51 310.20 50.50
  Q 310.22 45.85 309.11 41.91
  Q 307.64 36.67 302.96 34.80
  Q 299.35 33.36 296.25 33.17
  Q 288.49 32.70 277.29 32.85
  C 269.45 32.96 259.92 33.44 257.90 43.13
  Q 256.96 47.62 257.30 51.59
  Q 257.36 52.19 257.95 52.19
  L 269.32 52.19
  A 0.39 0.38 90.0 0 0 269.70 51.80
  L 269.70 42.42
  Q 269.70 39.49 272.63 39.37
  Q 282.07 38.97 294.00 39.23
  C 297.54 39.31 297.57 41.75 297.62 44.55
  Q 297.84 56.24 297.56 62.30
  Q 297.54 62.80 297.04 62.81
  Z
  M 334.39 39.13
  L 348.38 39.13
  Q 351.47 39.13 351.68 42.26
  Q 352.00 47.02 351.86 51.60
  A 0.72 0.72 0.0 0 0 352.58 52.34
  L 363.75 52.34
  A 0.54 0.54 0.0 0 0 364.29 51.81
  C 364.53 44.77 363.62 36.88 356.51 34.47
  Q 352.56 33.14 348.25 33.01
  Q 337.85 32.69 322.44 32.90
  Q 321.15 32.92 321.15 34.22
  L 321.15 96.67
  Q 321.15 97.67 322.15 97.67
  L 333.00 97.67
  Q 333.69 97.67 333.69 96.98
  L 333.69 39.83
  Q 333.69 39.13 334.39 39.13
  Z
  M 384.83 39.75
  Q 388.40 39.11 393.08 39.13
  Q 400.62 39.16 407.26 39.17
  Q 411.11 39.18 411.11 43.04
  L 411.11 51.51
  Q 411.11 52.18 411.78 52.18
  L 422.96 52.18
  Q 423.43 52.18 423.49 51.72
  C 424.18 47.08 423.00 39.57 419.02 36.30
  C 416.59 34.32 412.41 33.30 409.33 33.11
  Q 402.83 32.71 390.57 32.87
  C 383.27 32.96 375.52 33.42 372.18 40.53
  Q 370.88 43.30 370.80 50.67
  Q 370.56 73.75 370.88 83.93
  C 371.21 94.52 378.87 97.66 388.07 97.72
  Q 393.52 97.76 407.08 97.59
  C 414.02 97.50 420.05 96.05 422.54 88.80
  Q 423.50 85.99 423.41 82.77
  A 0.68 0.68 0.0 0 0 422.73 82.11
  L 411.75 82.11
  A 0.63 0.62 -0.4 0 0 411.12 82.74
  Q 411.20 86.15 410.94 88.96
  Q 410.75 91.06 408.88 91.19
  Q 398.22 91.92 387.09 91.36
  C 384.77 91.24 383.38 90.56 383.36 88.09
  Q 383.18 62.67 383.40 41.44
  A 1.74 1.73 85.4 0 1 384.83 39.75
  Z
  M 542.69 69.19
  L 581.97 69.19
  Q 582.37 69.19 582.37 68.79
  Q 582.46 59.08 582.45 50.01
  C 582.43 43.52 581.10 36.64 574.34 34.42
  Q 570.26 33.08 565.50 32.95
  Q 554.79 32.67 546.00 32.99
  C 539.40 33.23 532.97 34.70 530.62 41.63
  Q 529.54 44.82 529.54 48.00
  Q 529.60 72.21 529.57 82.04
  C 529.53 93.61 536.23 97.76 547.01 97.72
  Q 561.91 97.67 565.76 97.62
  C 571.96 97.56 578.42 96.23 581.04 89.78
  Q 582.31 86.66 582.28 82.95
  Q 582.27 82.13 581.45 82.13
  L 570.59 82.13
  A 0.69 0.68 89.6 0 0 569.91 82.83
  Q 569.97 87.21 569.68 89.24
  Q 569.42 91.14 567.24 91.26
  Q 558.18 91.78 548.97 91.52
  C 544.68 91.40 542.08 91.87 542.02 86.75
  Q 541.92 78.57 542.08 69.79
  A 0.61 0.61 0.0 0 1 542.69 69.19
  Z
  M 613.14 65.28
  Q 613.14 65.66 612.40 66.69
  Q 595.41 90.36 590.68 97.04
  A 0.44 0.44 0.0 0 0 591.04 97.73
  L 602.81 97.73
  Q 603.65 97.73 604.14 97.05
  L 619.11 76.14
  Q 619.13 76.11 619.16 76.10
  Q 619.20 76.10 619.24 76.10
  Q 619.27 76.10 619.31 76.10
  Q 619.34 76.11 619.36 76.14
  L 634.34 97.04
  Q 634.84 97.72 635.68 97.72
  L 647.45 97.71
  A 0.44 0.44 0.0 0 0 647.80 97.02
  Q 643.07 90.34 626.07 66.69
  Q 625.32 65.66 625.32 65.28
  Q 625.32 64.90 626.06 63.87
  Q 643.05 40.20 647.78 33.52
  A 0.44 0.44 0.0 0 0 647.42 32.83
  L 635.65 32.83
  Q 634.81 32.83 634.32 33.51
  L 619.35 54.42
  Q 619.33 54.45 619.30 54.46
  Q 619.26 54.46 619.23 54.47
  Q 619.19 54.46 619.15 54.46
  Q 619.12 54.45 619.10 54.42
  L 604.12 33.52
  Q 603.63 32.84 602.79 32.84
  L 591.02 32.85
  A 0.44 0.44 0.0 0 0 590.66 33.54
  Q 595.39 40.22 612.40 63.88
  Q 613.14 64.91 613.14 65.28
  Z
  M 680.17 65.29
  Q 680.17 65.80 679.59 66.60
  Q 664.15 88.14 657.98 96.80
  A 0.59 0.59 0.0 0 0 658.47 97.73
  L 669.97 97.73
  A 1.51 1.50 17.9 0 0 671.19 97.11
  Q 675.24 91.43 686.11 76.35
  Q 686.20 76.23 686.33 76.23
  Q 686.45 76.23 686.54 76.35
  Q 697.42 91.42 701.47 97.10
  A 1.51 1.50 -17.9 0 0 702.69 97.72
  L 714.19 97.72
  A 0.59 0.59 0.0 0 0 714.68 96.79
  Q 708.51 88.13 693.06 66.60
  Q 692.48 65.80 692.48 65.29
  Q 692.48 64.78 693.06 63.98
  Q 708.50 42.44 714.67 33.78
  A 0.59 0.59 0.0 0 0 714.18 32.85
  L 702.68 32.85
  A 1.51 1.50 17.9 0 0 701.46 33.47
  Q 697.41 39.15 686.54 54.23
  Q 686.45 54.35 686.32 54.35
  Q 686.19 54.35 686.10 54.23
  Q 675.23 39.16 671.17 33.48
  A 1.51 1.50 -17.9 0 0 669.95 32.86
  L 658.45 32.87
  A 0.59 0.59 0.0 0 0 657.96 33.80
  Q 664.14 42.45 679.59 63.99
  Q 680.17 64.78 680.17 65.29
  Z
  M 87.4616 63.7147
  A 15.69 1.98 118.3 0 0 96.6433 50.8387
  A 15.69 1.98 118.3 0 0 102.3384 36.0853
  A 15.69 1.98 118.3 0 0 93.1567 48.9613
  A 15.69 1.98 118.3 0 0 87.4616 63.7147
  Z
  M 402.69 121.35
  Q 402.64 114.75 402.67 107.82
  A 0.73 0.72 0.4 0 0 401.94 107.09
  L 401.51 107.09
  A 0.62 0.62 0.0 0 0 400.89 107.70
  Q 400.75 115.82 400.91 122.27
  Q 400.95 123.87 402.10 124.26
  Q 404.64 125.11 403.34 122.81
  Q 403.31 122.76 402.95 122.11
  Q 402.70 121.64 402.69 121.35
  Z
  M 635.34 114.23
  A 0.29 0.29 0.0 0 1 634.85 114.02
  L 634.85 107.97
  A 0.85 0.85 0.0 0 0 634.00 107.12
  L 633.65 107.12
  A 0.57 0.57 0.0 0 0 633.08 107.69
  L 633.08 123.81
  A 0.68 0.68 0.0 0 0 633.76 124.49
  L 634.06 124.49
  Q 634.86 124.49 634.86 123.69
  L 634.86 117.48
  Q 634.86 115.01 637.28 114.52
  L 637.57 114.46
  Q 640.09 113.95 640.24 116.18
  Q 640.52 120.22 640.31 123.47
  Q 640.25 124.47 641.25 124.47
  L 641.56 124.47
  Q 642.21 124.47 642.26 123.82
  Q 642.48 120.49 642.19 116.49
  C 641.98 113.71 640.29 111.88 637.39 112.96
  Q 636.24 113.40 635.34 114.23
  Z
  M 483.93 112.07
  Q 483.84 110.27 484.20 109.61
  Q 484.51 109.04 485.00 108.97
  L 486.56 108.74
  Q 487.14 108.66 487.14 108.09
  Q 487.14 107.56 486.68 107.40
  C 484.72 106.69 482.58 107.49 482.25 109.81
  Q 482.03 111.33 481.96 111.80
  Q 481.88 112.32 481.48 112.62
  L 480.74 113.16
  Q 480.24 113.53 480.75 113.89
  Q 482.06 114.80 482.07 115.49
  Q 482.15 119.53 482.10 123.59
  Q 482.09 124.47 482.97 124.47
  L 483.26 124.47
  A 0.65 0.65 0.0 0 0 483.91 123.82
  L 483.91 115.01
  Q 483.91 114.40 484.52 114.40
  L 485.45 114.40
  Q 486.23 114.40 486.23 113.61
  L 486.23 113.14
  Q 486.23 112.63 485.72 112.63
  L 484.52 112.63
  Q 483.95 112.63 483.93 112.07
  Z
  M 359.79 109.19
  A 1.24 1.24 0.0 0 0 358.55 107.95
  A 1.24 1.24 0.0 0 0 357.31 109.19
  A 1.24 1.24 0.0 0 0 358.55 110.43
  A 1.24 1.24 0.0 0 0 359.79 109.19
  Z
  M 551.07 109.17
  A 1.24 1.24 0.0 0 0 549.83 107.93
  A 1.24 1.24 0.0 0 0 548.59 109.17
  A 1.24 1.24 0.0 0 0 549.83 110.41
  A 1.24 1.24 0.0 0 0 551.07 109.17
  Z
  M 377.64 109.21
  A 1.25 1.25 0.0 0 0 376.39 107.96
  A 1.25 1.25 0.0 0 0 375.14 109.21
  A 1.25 1.25 0.0 0 0 376.39 110.46
  A 1.25 1.25 0.0 0 0 377.64 109.21
  Z
  M 648.09 109.21
  A 1.22 1.22 0.0 0 0 646.87 107.99
  A 1.22 1.22 0.0 0 0 645.65 109.21
  A 1.22 1.22 0.0 0 0 646.87 110.43
  A 1.22 1.22 0.0 0 0 648.09 109.21
  Z
  M 605.70 119.34
  Q 607.65 119.35 608.02 119.41
  Q 608.56 119.50 608.73 120.02
  L 609.99 123.90
  A 0.97 0.96 -17.6 0 0 611.20 124.52
  L 611.49 124.42
  A 0.51 0.50 -18.3 0 0 611.82 123.78
  Q 609.71 117.41 607.47 110.76
  Q 606.74 108.59 605.72 108.58
  Q 604.70 108.59 603.96 110.75
  Q 601.69 117.39 599.55 123.75
  A 0.51 0.50 18.5 0 0 599.88 124.39
  L 600.17 124.50
  A 0.97 0.96 17.8 0 0 601.38 123.88
  L 602.66 120.01
  Q 602.83 119.49 603.37 119.40
  Q 603.74 119.34 605.70 119.34
  Z
  M 343.12 109.44
  L 343.08 123.70
  A 0.71 0.71 0.0 0 0 343.78 124.41
  L 347.46 124.43
  A 6.95 6.79 -89.8 0 0 354.28 117.50
  L 354.28 115.72
  A 6.95 6.79 -89.8 0 0 347.52 108.75
  L 343.84 108.73
  A 0.71 0.71 0.0 0 0 343.12 109.44
  Z
  M 418.5376 109.4483
  A 0.79 0.79 0.0 0 0 417.7462 108.6597
  L 417.3862 108.6603
  A 0.79 0.79 0.0 0 0 416.5976 109.4517
  L 416.6224 123.6917
  A 0.79 0.79 0.0 0 0 417.4138 124.4803
  L 417.7738 124.4797
  A 0.79 0.79 0.0 0 0 418.5624 123.6883
  L 418.5376 109.4483
  Z
  M 431.71 124.45
  Q 432.01 124.45 432.25 124.33
  Q 432.69 124.10 432.69 123.61
  L 432.69 110.97
  Q 432.69 110.43 433.23 110.43
  L 436.59 110.43
  Q 437.36 110.43 437.36 109.66
  L 437.36 109.39
  A 0.63 0.62 0.5 0 0 436.74 108.77
  Q 434.24 108.73 431.70 108.76
  Q 429.17 108.73 426.67 108.77
  A 0.63 0.62 -0.5 0 0 426.05 109.39
  L 426.05 109.66
  Q 426.05 110.43 426.82 110.43
  L 430.18 110.43
  Q 430.72 110.43 430.72 110.97
  L 430.73 123.61
  Q 430.73 124.10 431.17 124.33
  Q 431.41 124.45 431.71 124.45
  Z
  M 592.3777 109.5583
  A 0.84 0.84 0.0 0 0 591.5362 108.7198
  L 591.2962 108.7202
  A 0.84 0.84 0.0 0 0 590.4577 109.5617
  L 590.4823 123.6817
  A 0.84 0.84 0.0 0 0 591.3238 124.5202
  L 591.5638 124.5198
  A 0.84 0.84 0.0 0 0 592.4023 123.6783
  L 592.3777 109.5583
  Z
  M 381.57 115.11
  Q 381.57 119.23 381.58 120.43
  C 381.63 123.22 382.92 125.08 385.90 124.31
  Q 386.63 124.12 386.63 123.36
  L 386.63 123.00
  A 0.44 0.44 0.0 0 0 386.07 122.58
  Q 384.98 122.89 384.24 122.64
  Q 383.68 122.45 383.58 121.20
  Q 383.34 118.35 383.51 114.91
  Q 383.53 114.39 384.06 114.39
  L 385.68 114.39
  Q 386.56 114.39 386.56 113.50
  L 386.56 113.20
  Q 386.56 112.66 386.02 112.66
  L 383.93 112.66
  Q 383.45 112.66 383.45 112.18
  L 383.45 110.03
  Q 383.45 109.40 382.82 109.40
  L 382.34 109.40
  A 0.59 0.59 0.0 0 0 381.76 110.10
  Q 382.23 112.55 380.35 112.88
  Q 379.67 113.00 379.87 113.66
  Q 380.02 114.14 381.02 114.40
  Q 381.57 114.54 381.57 115.11
  Z
  M 543.81 114.39
  L 545.35 114.39
  A 0.91 0.91 0.0 0 0 546.26 113.48
  L 546.26 113.15
  Q 546.26 112.63 545.74 112.63
  L 543.74 112.63
  Q 543.17 112.63 543.17 112.06
  L 543.17 109.96
  A 0.59 0.58 0.0 0 0 542.58 109.38
  L 542.28 109.38
  Q 541.46 109.38 541.58 110.19
  Q 541.90 112.36 539.71 113.26
  Q 539.18 113.47 539.54 113.92
  Q 539.78 114.23 540.47 114.30
  Q 541.30 114.38 541.32 115.22
  Q 541.38 117.68 541.35 120.44
  C 541.32 123.35 542.71 125.00 545.76 124.28
  Q 546.29 124.16 546.29 123.61
  L 546.29 123.20
  Q 546.29 122.55 545.64 122.64
  Q 544.83 122.76 544.12 122.64
  Q 543.59 122.55 543.48 122.02
  Q 542.96 119.60 543.25 114.92
  Q 543.28 114.39 543.81 114.39
  Z
  M 654.68 114.37
  L 656.39 114.37
  Q 657.23 114.37 657.23 113.52
  L 657.23 113.18
  A 0.53 0.53 0.0 0 0 656.70 112.65
  L 654.55 112.65
  Q 653.93 112.65 653.93 112.03
  L 653.93 109.76
  Q 653.93 109.34 653.52 109.34
  L 653.11 109.34
  Q 652.30 109.34 652.40 110.14
  Q 652.67 112.47 650.84 112.92
  Q 650.46 113.02 650.35 113.39
  Q 650.29 113.61 650.36 113.78
  A 0.99 0.60 3.1 0 0 651.03 114.24
  L 651.62 114.38
  Q 652.17 114.50 652.16 115.07
  C 652.13 118.06 651.69 121.97 652.99 123.46
  Q 654.29 124.95 656.70 124.19
  Q 657.44 123.96 657.29 123.21
  Q 657.17 122.58 656.53 122.58
  L 654.91 122.58
  Q 653.98 122.58 653.98 121.65
  L 653.98 115.07
  Q 653.98 114.37 654.68 114.37
  Z
  M 684.65 114.36
  L 686.60 114.36
  A 0.76 0.76 0.0 0 0 687.36 113.60
  L 687.36 113.23
  Q 687.36 112.68 686.81 112.68
  L 684.85 112.68
  A 0.73 0.73 0.0 0 1 684.12 111.95
  L 684.12 109.82
  A 0.56 0.56 0.0 0 0 683.56 109.26
  L 683.24 109.26
  A 0.69 0.69 0.0 0 0 682.56 110.07
  Q 683.01 112.48 680.88 112.96
  Q 680.62 113.02 680.52 113.27
  Q 680.45 113.43 680.46 113.52
  Q 680.48 113.85 681.07 114.07
  Q 681.48 114.23 681.82 114.51
  Q 682.17 114.80 682.19 115.25
  Q 682.22 116.16 682.46 121.23
  Q 682.64 125.07 686.67 124.31
  Q 687.41 124.17 687.41 123.41
  L 687.41 123.03
  Q 687.41 122.61 686.99 122.66
  Q 685.81 122.81 684.74 122.39
  A 0.90 0.90 0.0 0 1 684.16 121.55
  L 684.16 114.85
  Q 684.16 114.36 684.65 114.36
  Z
  M 441.56 113.64
  Q 440.97 114.18 440.56 113.48
  Q 440.06 112.61 439.50 112.58
  Q 438.94 112.55 438.94 113.12
  L 438.94 123.71
  Q 438.94 124.44 439.66 124.44
  L 440.11 124.44
  Q 440.87 124.44 440.85 123.67
  Q 440.74 119.23 440.88 116.92
  C 441.07 113.88 442.68 114.73 444.62 113.66
  Q 445.40 113.23 444.97 112.39
  A 0.70 0.69 64.6 0 0 444.09 112.07
  Q 442.65 112.65 441.56 113.64
  Z
  M 502.95 113.57
  Q 502.74 113.17 502.70 113.12
  Q 501.26 111.56 501.25 113.78
  L 501.18 123.73
  Q 501.17 124.41 501.87 124.46
  Q 502.15 124.48 502.30 124.45
  A 1.30 0.92 87.2 0 0 503.06 123.26
  L 503.29 115.39
  Q 503.30 114.84 503.79 114.62
  Q 504.69 114.22 506.41 113.92
  Q 506.95 113.82 507.17 113.55
  Q 507.49 113.13 507.29 112.58
  Q 507.13 112.12 506.51 112.06
  Q 505.71 111.99 503.85 113.73
  A 0.58 0.57 54.9 0 1 502.95 113.57
  Z
  M 615.84 113.58
  Q 615.49 112.76 614.92 112.61
  Q 614.22 112.43 614.21 113.46
  L 614.19 123.46
  Q 614.19 124.52 615.08 124.52
  L 615.11 124.52
  Q 615.96 124.53 615.97 123.71
  L 616.14 116.22
  A 1.92 1.90 -6.3 0 1 617.60 114.41
  Q 619.14 114.04 619.54 113.80
  Q 620.13 113.43 620.21 112.95
  Q 620.30 112.35 619.73 112.15
  Q 618.63 111.75 616.91 113.75
  Q 616.24 114.53 615.84 113.58
  Z
  M 460.12 113.33
  Q 460.10 112.84 459.43 112.54
  Q 458.73 112.23 458.73 112.99
  L 458.73 123.63
  Q 458.73 124.49 459.59 124.49
  L 460.03 124.49
  Q 460.62 124.49 460.62 123.91
  L 460.62 116.80
  Q 460.62 114.71 462.65 114.21
  L 463.82 113.92
  Q 466.00 113.38 466.00 115.62
  L 466.00 123.69
  Q 466.00 124.46 466.77 124.46
  L 467.18 124.46
  Q 467.84 124.46 467.87 123.80
  Q 468.04 119.91 467.87 116.54
  C 467.64 111.99 465.09 111.09 461.20 113.56
  Q 460.17 114.20 460.12 113.33
  Z
  M 511.12 113.45
  Q 510.93 112.97 510.51 112.56
  A 0.60 0.59 -67.9 0 0 509.50 112.99
  L 509.50 123.66
  A 0.78 0.78 0.0 0 0 510.28 124.44
  L 510.69 124.44
  Q 511.39 124.44 511.40 123.74
  L 511.41 117.01
  Q 511.42 114.63 513.92 113.92
  Q 513.93 113.92 514.02 113.90
  Q 516.45 113.36 516.49 115.81
  L 516.64 123.71
  Q 516.66 124.52 517.47 124.52
  L 517.82 124.52
  A 0.63 0.62 -90.0 0 0 518.44 123.89
  L 518.43 117.49
  Q 518.42 114.96 520.81 114.06
  Q 520.91 114.02 520.93 114.01
  Q 523.33 113.16 523.49 115.74
  Q 523.78 120.28 523.58 123.39
  Q 523.52 124.28 524.40 124.44
  L 524.73 124.50
  Q 525.36 124.62 525.39 123.98
  Q 525.74 118.06 525.15 114.87
  Q 524.58 111.75 521.62 112.28
  C 520.33 112.51 519.68 113.21 518.64 114.12
  A 0.58 0.57 55.6 0 1 517.76 113.95
  C 516.22 110.96 513.88 112.33 511.88 113.68
  Q 511.36 114.04 511.12 113.45
  Z
  M 569.03 113.38
  Q 568.80 112.79 568.34 112.55
  Q 567.61 112.18 567.61 113.00
  L 567.61 123.44
  Q 567.61 124.49 568.65 124.49
  L 568.98 124.49
  Q 569.55 124.49 569.54 123.92
  L 569.52 116.99
  Q 569.52 114.61 572.01 113.96
  Q 572.03 113.95 572.30 113.88
  Q 574.72 113.26 574.78 115.87
  L 574.96 123.84
  Q 574.97 124.46 575.59 124.46
  L 576.08 124.46
  Q 576.76 124.46 576.79 123.78
  Q 577.06 118.29 576.47 114.81
  Q 575.98 111.94 573.25 112.20
  C 571.94 112.33 570.79 113.18 569.82 113.69
  Q 569.25 113.98 569.03 113.38
  Z
  M 359.4721 113.4168
  A 0.78 0.78 0.0 0 0 358.6894 112.6395
  L 358.4094 112.6405
  A 0.78 0.78 0.0 0 0 357.6321 113.4232
  L 357.6679 123.6832
  A 0.78 0.78 0.0 0 0 358.4506 124.4605
  L 358.7306 124.4595
  A 0.78 0.78 0.0 0 0 359.5079 123.6768
  L 359.4721 113.4168
  Z
  M 377.2722 113.5067
  A 0.90 0.90 0.0 0 0 376.3690 112.6099
  L 376.2890 112.6102
  A 0.90 0.90 0.0 0 0 375.3922 113.5133
  L 375.4278 123.7333
  A 0.90 0.90 0.0 0 0 376.3310 124.6301
  L 376.4110 124.6298
  A 0.90 0.90 0.0 0 0 377.3078 123.7267
  L 377.2722 113.5067
  Z
  M 452.08 117.37
  C 449.59 117.57 445.55 118.42 446.22 122.00
  C 446.83 125.18 450.50 124.63 452.67 123.37
  Q 453.12 123.11 453.54 123.41
  L 454.40 124.02
  A 0.37 0.37 0.0 0 0 454.98 123.76
  C 455.25 120.62 455.76 115.51 453.79 113.63
  Q 451.79 111.74 448.15 113.38
  Q 447.52 113.67 447.10 114.32
  Q 446.83 114.74 447.12 115.29
  A 0.28 0.28 0.0 0 0 447.50 115.41
  Q 449.70 114.25 450.90 114.25
  A 2.09 2.03 -8.7 0 1 452.89 115.67
  L 453.02 116.07
  Q 453.40 117.26 452.08 117.37
  Z
  M 550.6819 113.3369
  A 0.74 0.74 0.0 0 0 549.9393 112.5994
  L 549.5993 112.6006
  A 0.74 0.74 0.0 0 0 548.8619 113.3432
  L 548.8981 123.7231
  A 0.74 0.74 0.0 0 0 549.6407 124.4606
  L 549.9807 124.4594
  A 0.74 0.74 0.0 0 0 550.7181 123.7168
  L 550.6819 113.3369
  Z
  M 647.78 113.40
  A 0.83 0.83 0.0 0 0 646.95 112.57
  L 646.77 112.57
  A 0.83 0.83 0.0 0 0 645.94 113.40
  L 645.94 123.68
  A 0.83 0.83 0.0 0 0 646.77 124.51
  L 646.95 124.51
  A 0.83 0.83 0.0 0 0 647.78 123.68
  L 647.78 113.40
  Z
  M 661.25 118.97
  L 667.80 118.97
  A 0.54 0.53 3.7 0 0 668.33 118.51
  Q 668.81 114.18 665.17 112.83
  Q 663.55 112.23 662.06 113.08
  Q 657.55 115.64 659.11 120.65
  Q 660.66 125.64 666.90 123.89
  A 0.99 0.98 82.3 0 0 667.62 122.94
  L 667.62 122.39
  A 0.27 0.27 0.0 0 0 667.25 122.14
  C 664.42 123.27 661.29 123.07 660.72 119.59
  Q 660.62 118.97 661.25 118.97
  Z
  M 372.03 114.82
  L 372.51 114.82
  A 0.49 0.48 90.0 0 0 372.99 114.33
  L 372.99 113.95
  Q 372.99 113.25 372.29 113.32
  Q 370.60 113.50 368.94 113.02
  C 366.72 112.39 364.37 112.93 363.36 115.04
  C 362.75 116.32 363.29 117.59 363.96 118.86
  Q 364.19 119.31 363.95 119.74
  Q 363.08 121.31 363.64 123.17
  Q 363.77 123.62 363.59 124.02
  L 362.84 125.68
  A 2.23 2.23 0.0 0 0 364.00 128.66
  Q 367.93 130.32 371.40 128.35
  C 373.83 126.97 373.81 123.31 370.67 122.83
  Q 368.49 122.49 366.07 122.62
  Q 365.00 122.67 364.94 121.61
  Q 364.92 121.44 364.91 121.26
  Q 364.85 120.22 365.88 120.32
  C 369.68 120.70 371.82 119.81 371.45 115.45
  Q 371.40 114.82 372.03 114.82
  Z
  M 393.98 117.41
  C 392.01 117.48 388.11 118.40 388.16 121.03
  Q 388.25 125.04 392.38 124.25
  Q 392.44 124.23 394.81 123.46
  Q 395.24 123.32 395.62 123.55
  Q 396.00 123.79 396.43 123.81
  Q 396.96 123.84 397.00 123.31
  Q 397.34 117.68 396.90 115.90
  C 395.94 112.05 391.88 111.75 389.24 114.04
  A 0.84 0.80 -21.9 0 0 388.96 114.65
  L 388.96 115.21
  A 0.34 0.34 0.0 0 0 389.53 115.45
  Q 390.41 114.58 392.61 114.23
  A 1.98 1.98 0.0 0 1 394.82 115.57
  L 394.96 116.01
  Q 395.40 117.36 393.98 117.41
  Z
  M 473.08 115.22
  Q 473.55 114.31 474.76 114.24
  Q 475.43 114.21 477.41 115.07
  Q 477.91 115.29 478.08 114.77
  Q 478.19 114.43 478.13 114.26
  A 1.91 1.44 85.2 0 0 477.17 113.19
  Q 473.69 111.85 471.91 113.91
  C 470.46 115.59 471.08 117.65 473.07 118.47
  Q 475.44 119.43 476.32 119.87
  A 1.40 1.40 0.0 0 1 476.29 122.40
  Q 474.05 123.45 471.61 121.61
  A 0.46 0.46 0.0 0 0 470.87 121.98
  L 470.87 122.56
  A 0.89 0.89 0.0 0 0 471.35 123.35
  Q 475.16 125.36 477.61 123.61
  C 479.53 122.24 479.39 119.38 477.07 118.45
  Q 474.39 117.37 473.56 116.88
  A 1.27 1.26 29.1 0 1 473.08 115.22
  Z
  M 492.8892 124.4499
  A 5.89 5.32 90.3 0 0 498.2399 118.5879
  A 5.89 5.32 90.3 0 0 492.9508 112.6701
  A 5.89 5.32 90.3 0 0 487.6001 118.5321
  A 5.89 5.32 90.3 0 0 492.8892 124.4499
  Z
  M 536.10 123.46
  L 536.73 123.91
  A 0.44 0.44 0.0 0 0 537.43 123.59
  C 537.76 119.00 538.65 111.64 532.54 112.78
  Q 530.80 113.10 529.99 113.90
  Q 528.41 115.43 530.65 115.21
  Q 530.77 115.20 531.66 114.71
  Q 534.25 113.30 535.57 115.80
  A 1.06 1.06 0.0 0 1 534.75 117.34
  C 532.39 117.60 528.42 118.28 528.63 121.56
  Q 528.80 124.23 531.95 124.45
  Q 532.59 124.50 535.19 123.36
  Q 535.67 123.15 536.10 123.46
  Z
  M 559.3815 124.4598
  A 5.90 5.32 89.5 0 0 564.6498 118.5136
  A 5.90 5.32 89.5 0 0 559.2785 112.6602
  A 5.90 5.32 89.5 0 0 554.0102 118.6064
  A 5.90 5.32 89.5 0 0 559.3815 124.4598
  Z
  M 621.38 118.68
  C 621.45 122.75 624.76 125.34 628.78 124.07
  Q 630.12 123.65 630.06 122.21
  A 0.44 0.44 0.0 0 0 629.37 121.87
  C 626.27 124.05 623.44 122.20 623.38 118.64
  C 623.32 115.09 626.09 113.14 629.26 115.22
  A 0.44 0.44 0.0 0 0 629.94 114.85
  Q 629.95 113.41 628.59 113.04
  C 624.53 111.91 621.31 114.61 621.38 118.68
  Z
  M 670.55 118.73
  C 670.67 123.08 674.70 125.85 678.58 123.73
  Q 679.10 123.44 679.10 122.84
  L 679.10 122.22
  A 0.37 0.37 0.0 0 0 678.52 121.92
  C 675.39 124.12 672.57 122.14 672.48 118.68
  C 672.39 115.23 675.10 113.10 678.34 115.13
  A 0.37 0.37 0.0 0 0 678.91 114.80
  L 678.87 114.18
  Q 678.84 113.58 678.31 113.32
  C 674.32 111.41 670.44 114.39 670.55 118.73
  Z
  M 693.85 122.58
  Q 691.69 123.27 689.76 121.71
  Q 689.36 121.39 689.00 121.75
  Q 688.51 122.25 689.36 123.32
  A 1.48 1.45 81.2 0 0 689.92 123.74
  Q 694.19 125.53 696.39 122.73
  C 697.67 121.09 696.64 119.17 694.71 118.31
  Q 692.27 117.24 691.61 116.96
  A 1.27 1.27 0.0 0 1 691.28 114.81
  Q 692.90 113.48 695.38 115.19
  A 0.47 0.46 17.3 0 0 696.11 114.81
  L 696.11 114.44
  A 1.21 1.20 13.1 0 0 695.43 113.36
  Q 691.24 111.38 689.35 114.66
  A 2.42 2.41 32.5 0 0 690.06 117.85
  Q 691.40 118.79 693.73 119.54
  C 695.13 119.99 695.51 122.05 693.85 122.58
  Z" fill="#ffffff"></path>
<path d="M 174.38 0.00
  Q 176.03 0.55 177.73 0.14
  A 0.03 0.03 0.0 0 1 177.77 0.17
  L 177.77 0.47
  Q 177.77 0.54 177.70 0.56
  Q 164.32 3.39 152.07 3.81
  A 0.79 0.78 4.2 0 1 151.27 2.89
  Q 151.42 2.12 152.42 1.83
  Q 158.16 0.19 164.25 0.00
  L 174.38 0.00
  Z" fill="#58a9d9"></path>
<path d="M 102.30 57.70
  Q 101.37 71.38 104.11 80.69
  Q 108.37 95.17 123.50 96.49
  Q 133.48 97.37 141.80 92.53
  Q 153.07 85.97 158.03 83.25
  Q 163.33 80.33 173.00 78.81
  Q 180.66 77.60 187.83 80.24
  C 196.69 83.52 199.16 92.78 197.28 101.56
  C 194.60 114.01 184.25 123.45 172.39 127.64
  C 161.96 131.33 150.49 129.99 142.76 121.80
  Q 138.95 117.76 133.86 112.07
  Q 128.45 106.03 121.57 101.92
  Q 110.76 95.46 99.44 101.92
  Q 97.14 103.23 95.81 104.29
  A 1.52 1.51 -37.5 0 1 93.65 104.01
  Q 90.97 100.43 90.44 97.55
  Q 88.54 87.35 89.98 77.99
  C 90.85 72.31 93.37 67.72 96.73 61.68
  C 100.67 54.57 103.58 48.58 107.28 40.82
  Q 111.69 31.60 113.85 28.61
  Q 120.51 19.45 130.15 13.37
  Q 136.92 9.11 145.29 8.92
  Q 148.02 8.86 153.97 8.86
  Q 157.43 8.86 162.63 8.01
  Q 172.20 6.45 181.66 4.35
  Q 183.24 4.00 189.39 3.53
  Q 193.67 3.20 197.04 4.21
  C 204.40 6.40 213.96 10.19 215.79 17.75
  C 217.38 24.28 213.94 31.36 206.57 31.58
  C 199.25 31.80 191.59 28.31 185.46 24.34
  Q 185.15 24.14 177.99 18.40
  Q 171.59 13.27 163.99 10.85
  Q 160.67 9.80 157.26 10.23
  Q 133.27 13.29 116.56 31.86
  Q 109.93 39.22 104.83 49.16
  Q 102.58 53.55 102.30 57.70
  Z" fill="#58a9d9"></path>
<path d="M 442.76 39.13
  Q 442.17 39.13 442.17 39.72
  L 442.17 97.24
  A 0.43 0.43 0.0 0 1 441.74 97.67
  L 430.22 97.67
  A 0.48 0.48 0.0 0 1 429.74 97.19
  L 429.74 11.60
  A 0.63 0.62 0.0 0 1 430.37 10.98
  L 441.57 10.98
  A 0.59 0.59 0.0 0 1 442.16 11.57
  L 442.16 32.27
  A 0.60 0.60 0.0 0 0 442.78 32.87
  Q 456.74 32.61 468.51 33.14
  Q 470.81 33.24 473.60 34.11
  C 481.72 36.63 482.63 43.40 482.61 51.00
  Q 482.58 66.82 482.55 96.99
  A 0.68 0.68 0.0 0 1 481.87 97.67
  L 470.67 97.67
  A 0.52 0.52 0.0 0 1 470.15 97.15
  L 470.15 43.28
  Q 470.15 39.13 466.00 39.13
  L 442.76 39.13
  Z" fill="#58a9d9"></path>
<path d="M 499.18 32.33
  L 499.18 11.67
  Q 499.18 11.03 499.82 11.03
  L 511.18 11.03
  A 0.41 0.41 0.0 0 1 511.59 11.44
  L 511.59 32.21
  A 0.61 0.61 0.0 0 0 512.20 32.82
  L 519.16 32.82
  Q 520.00 32.82 520.00 33.66
  L 520.00 38.18
  Q 520.00 39.09 519.09 39.09
  L 512.13 39.09
  A 0.52 0.52 0.0 0 0 511.61 39.61
  L 511.61 88.50
  A 2.48 2.47 90.0 0 0 514.08 90.98
  L 519.39 90.98
  A 0.55 0.55 0.0 0 1 519.94 91.53
  L 519.94 96.93
  Q 519.94 97.37 519.51 97.38
  Q 512.47 97.67 507.21 95.85
  C 501.11 93.75 499.25 88.16 499.23 82.25
  Q 499.18 69.98 499.19 39.97
  Q 499.19 39.11 498.33 39.11
  L 491.75 39.11
  Q 490.86 39.11 490.86 38.21
  L 490.86 33.75
  Q 490.86 32.84 491.77 32.84
  L 498.67 32.84
  Q 499.18 32.84 499.18 32.33
  Z" fill="#58a9d9"></path>
<path d="M 205.74 66.23
  C 196.43 53.46 182.36 49.94 167.41 56.51
  Q 159.26 60.10 146.81 67.54
  Q 141.69 70.61 134.90 72.82
  C 125.29 75.94 112.27 71.79 111.67 59.86
  C 111.15 49.31 116.20 40.22 123.81 33.04
  C 132.54 24.79 146.53 17.10 158.29 22.65
  C 161.39 24.12 162.90 27.02 165.57 30.86
  Q 167.92 34.27 173.34 39.65
  Q 180.51 46.78 189.63 49.61
  C 198.63 52.39 208.58 50.14 216.23 44.45
  Q 220.77 41.07 222.89 40.38
  C 231.03 37.73 234.21 46.90 234.87 53.37
  C 236.00 64.45 234.14 75.76 226.37 83.57
  C 222.34 87.63 217.03 89.10 213.97 82.80
  C 211.80 78.33 209.41 71.26 205.74 66.23
  Z" fill="#58a9d9"></path>
<path d="M 297.56 62.30
  Q 297.84 56.24 297.62 44.55
  C 297.57 41.75 297.54 39.31 294.00 39.23
  Q 282.07 38.97 272.63 39.37
  Q 269.70 39.49 269.70 42.42
  L 269.70 51.80
  A 0.39 0.38 -90.0 0 1 269.32 52.19
  L 257.95 52.19
  Q 257.36 52.19 257.30 51.59
  Q 256.96 47.62 257.90 43.13
  C 259.92 33.44 269.45 32.96 277.29 32.85
  Q 288.49 32.70 296.25 33.17
  Q 299.35 33.36 302.96 34.80
  Q 307.64 36.67 309.11 41.91
  Q 310.22 45.85 310.20 50.50
  Q 310.19 55.51 310.03 97.08
  Q 310.03 97.60 309.51 97.60
  Q 284.61 97.84 272.02 97.57
  Q 268.76 97.50 265.10 96.10
  C 260.21 94.22 258.03 90.24 257.48 85.25
  Q 256.96 80.54 257.50 75.37
  Q 258.48 65.87 267.10 63.85
  Q 271.71 62.77 278.26 62.80
  Q 292.35 62.86 297.04 62.81
  Q 297.54 62.80 297.56 62.30
  Z
  M 297.7758 71.2944
  A 2.06 2.06 0.0 0 0 295.7194 69.2308
  L 271.8595 69.1892
  A 2.06 2.06 0.0 0 0 269.7959 71.2456
  L 269.7642 89.4256
  A 2.06 2.06 0.0 0 0 271.8206 91.4892
  L 295.6805 91.5308
  A 2.06 2.06 0.0 0 0 297.7441 89.4744
  L 297.7758 71.2944
  Z" fill="#58a9d9"></path>
<path d="M 334.39 39.13
  Q 333.69 39.13 333.69 39.83
  L 333.69 96.98
  Q 333.69 97.67 333.00 97.67
  L 322.15 97.67
  Q 321.15 97.67 321.15 96.67
  L 321.15 34.22
  Q 321.15 32.92 322.44 32.90
  Q 337.85 32.69 348.25 33.01
  Q 352.56 33.14 356.51 34.47
  C 363.62 36.88 364.53 44.77 364.29 51.81
  A 0.54 0.54 0.0 0 1 363.75 52.34
  L 352.58 52.34
  A 0.72 0.72 0.0 0 1 351.86 51.60
  Q 352.00 47.02 351.68 42.26
  Q 351.47 39.13 348.38 39.13
  L 334.39 39.13
  Z" fill="#58a9d9"></path>
<path d="M 384.83 39.75
  A 1.74 1.73 85.4 0 0 383.40 41.44
  Q 383.18 62.67 383.36 88.09
  C 383.38 90.56 384.77 91.24 387.09 91.36
  Q 398.22 91.92 408.88 91.19
  Q 410.75 91.06 410.94 88.96
  Q 411.20 86.15 411.12 82.74
  A 0.63 0.62 -0.4 0 1 411.75 82.11
  L 422.73 82.11
  A 0.68 0.68 0.0 0 1 423.41 82.77
  Q 423.50 85.99 422.54 88.80
  C 420.05 96.05 414.02 97.50 407.08 97.59
  Q 393.52 97.76 388.07 97.72
  C 378.87 97.66 371.21 94.52 370.88 83.93
  Q 370.56 73.75 370.80 50.67
  Q 370.88 43.30 372.18 40.53
  C 375.52 33.42 383.27 32.96 390.57 32.87
  Q 402.83 32.71 409.33 33.11
  C 412.41 33.30 416.59 34.32 419.02 36.30
  C 423.00 39.57 424.18 47.08 423.49 51.72
  Q 423.43 52.18 422.96 52.18
  L 411.78 52.18
  Q 411.11 52.18 411.11 51.51
  L 411.11 43.04
  Q 411.11 39.18 407.26 39.17
  Q 400.62 39.16 393.08 39.13
  Q 388.40 39.11 384.83 39.75
  Z" fill="#58a9d9"></path>
<path d="M 542.69 69.19
  A 0.61 0.61 0.0 0 0 542.08 69.79
  Q 541.92 78.57 542.02 86.75
  C 542.08 91.87 544.68 91.40 548.97 91.52
  Q 558.18 91.78 567.24 91.26
  Q 569.42 91.14 569.68 89.24
  Q 569.97 87.21 569.91 82.83
  A 0.69 0.68 89.6 0 1 570.59 82.13
  L 581.45 82.13
  Q 582.27 82.13 582.28 82.95
  Q 582.31 86.66 581.04 89.78
  C 578.42 96.23 571.96 97.56 565.76 97.62
  Q 561.91 97.67 547.01 97.72
  C 536.23 97.76 529.53 93.61 529.57 82.04
  Q 529.60 72.21 529.54 48.00
  Q 529.54 44.82 530.62 41.63
  C 532.97 34.70 539.40 33.23 546.00 32.99
  Q 554.79 32.67 565.50 32.95
  Q 570.26 33.08 574.34 34.42
  C 581.10 36.64 582.43 43.52 582.45 50.01
  Q 582.46 59.08 582.37 68.79
  Q 582.37 69.19 581.97 69.19
  L 542.69 69.19
  Z
  M 569.88 41.18
  A 1.93 1.93 0.0 0 0 567.95 39.25
  L 543.95 39.25
  A 1.93 1.93 0.0 0 0 542.02 41.18
  L 542.02 60.92
  A 1.93 1.93 0.0 0 0 543.95 62.85
  L 567.95 62.85
  A 1.93 1.93 0.0 0 0 569.88 60.92
  L 569.88 41.18
  Z" fill="#58a9d9"></path>
<path d="M 619.23 54.47
  Q 619.26 54.46 619.30 54.46
  Q 619.33 54.45 619.35 54.42
  L 634.32 33.51
  Q 634.81 32.83 635.65 32.83
  L 647.42 32.83
  A 0.44 0.44 0.0 0 1 647.78 33.52
  Q 643.05 40.20 626.06 63.87
  Q 625.32 64.90 625.32 65.28
  Q 625.32 65.66 626.07 66.69
  Q 643.07 90.34 647.80 97.02
  A 0.44 0.44 0.0 0 1 647.45 97.71
  L 635.68 97.72
  Q 634.84 97.72 634.34 97.04
  L 619.36 76.14
  Q 619.34 76.11 619.31 76.10
  Q 619.27 76.10 619.24 76.10
  Q 619.20 76.10 619.16 76.10
  Q 619.13 76.11 619.11 76.14
  L 604.14 97.05
  Q 603.65 97.73 602.81 97.73
  L 591.04 97.73
  A 0.44 0.44 0.0 0 1 590.68 97.04
  Q 595.41 90.36 612.40 66.69
  Q 613.14 65.66 613.14 65.28
  Q 613.14 64.91 612.40 63.88
  Q 595.39 40.22 590.66 33.54
  A 0.44 0.44 0.0 0 1 591.02 32.85
  L 602.79 32.84
  Q 603.63 32.84 604.12 33.52
  L 619.10 54.42
  Q 619.12 54.45 619.15 54.46
  Q 619.19 54.46 619.23 54.47
  Z" fill="#58a9d9"></path>
<path d="M 686.32 54.35
  Q 686.45 54.35 686.54 54.23
  Q 697.41 39.15 701.46 33.47
  A 1.51 1.50 17.9 0 1 702.68 32.85
  L 714.18 32.85
  A 0.59 0.59 0.0 0 1 714.67 33.78
  Q 708.50 42.44 693.06 63.98
  Q 692.48 64.78 692.48 65.29
  Q 692.48 65.80 693.06 66.60
  Q 708.51 88.13 714.68 96.79
  A 0.59 0.59 0.0 0 1 714.19 97.72
  L 702.69 97.72
  A 1.51 1.50 -17.9 0 1 701.47 97.10
  Q 697.42 91.42 686.54 76.35
  Q 686.45 76.23 686.33 76.23
  Q 686.20 76.23 686.11 76.35
  Q 675.24 91.43 671.19 97.11
  A 1.51 1.50 17.9 0 1 669.97 97.73
  L 658.47 97.73
  A 0.59 0.59 0.0 0 1 657.98 96.80
  Q 664.15 88.14 679.59 66.60
  Q 680.17 65.80 680.17 65.29
  Q 680.17 64.78 679.59 63.99
  Q 664.14 42.45 657.96 33.80
  A 0.59 0.59 0.0 0 1 658.45 32.87
  L 669.95 32.86
  A 1.51 1.50 -17.9 0 1 671.17 33.48
  Q 675.23 39.16 686.10 54.23
  Q 686.19 54.35 686.32 54.35
  Z" fill="#58a9d9"></path>
<ellipse ry="1.98" rx="15.69" transform="translate(94.90,49.90) rotate(118.3)" cy="0.00" cx="0.00" fill="#58a9d9"></ellipse>
<rect rx="1.93" height="23.60" width="27.86" y="39.25" x="542.02" fill="#ffffff"></rect>
<rect rx="2.06" height="22.30" width="27.98" transform="translate(283.77,80.36) rotate(0.1)" y="-11.15" x="-13.99" fill="#ffffff"></rect>
<path d="M 402.95 122.11
  Q 403.31 122.76 403.34 122.81
  Q 404.64 125.11 402.10 124.26
  Q 400.95 123.87 400.91 122.27
  Q 400.75 115.82 400.89 107.70
  A 0.62 0.62 0.0 0 1 401.51 107.09
  L 401.94 107.09
  A 0.73 0.72 0.4 0 1 402.67 107.82
  Q 402.64 114.75 402.69 121.35
  Q 402.70 121.64 402.95 122.11
  Z" fill="#050404"></path>
<path d="M 635.34 114.23
  Q 636.24 113.40 637.39 112.96
  C 640.29 111.88 641.98 113.71 642.19 116.49
  Q 642.48 120.49 642.26 123.82
  Q 642.21 124.47 641.56 124.47
  L 641.25 124.47
  Q 640.25 124.47 640.31 123.47
  Q 640.52 120.22 640.24 116.18
  Q 640.09 113.95 637.57 114.46
  L 637.28 114.52
  Q 634.86 115.01 634.86 117.48
  L 634.86 123.69
  Q 634.86 124.49 634.06 124.49
  L 633.76 124.49
  A 0.68 0.68 0.0 0 1 633.08 123.81
  L 633.08 107.69
  A 0.57 0.57 0.0 0 1 633.65 107.12
  L 634.00 107.12
  A 0.85 0.85 0.0 0 1 634.85 107.97
  L 634.85 114.02
  A 0.29 0.29 0.0 0 0 635.34 114.23
  Z" fill="#050404"></path>
<path d="M 484.52 112.63
  L 485.72 112.63
  Q 486.23 112.63 486.23 113.14
  L 486.23 113.61
  Q 486.23 114.40 485.45 114.40
  L 484.52 114.40
  Q 483.91 114.40 483.91 115.01
  L 483.91 123.82
  A 0.65 0.65 0.0 0 1 483.26 124.47
  L 482.97 124.47
  Q 482.09 124.47 482.10 123.59
  Q 482.15 119.53 482.07 115.49
  Q 482.06 114.80 480.75 113.89
  Q 480.24 113.53 480.74 113.16
  L 481.48 112.62
  Q 481.88 112.32 481.96 111.80
  Q 482.03 111.33 482.25 109.81
  C 482.58 107.49 484.72 106.69 486.68 107.40
  Q 487.14 107.56 487.14 108.09
  Q 487.14 108.66 486.56 108.74
  L 485.00 108.97
  Q 484.51 109.04 484.20 109.61
  Q 483.84 110.27 483.93 112.07
  Q 483.95 112.63 484.52 112.63
  Z" fill="#050404"></path>
<circle r="1.24" cy="109.19" cx="358.55" fill="#050404"></circle>
<circle r="1.24" cy="109.17" cx="549.83" fill="#050404"></circle>
<circle r="1.25" cy="109.21" cx="376.39" fill="#050404"></circle>
<circle r="1.22" cy="109.21" cx="646.87" fill="#050404"></circle>
<path d="M 605.72 108.58
  Q 606.74 108.59 607.47 110.76
  Q 609.71 117.41 611.82 123.78
  A 0.51 0.50 -18.3 0 1 611.49 124.42
  L 611.20 124.52
  A 0.97 0.96 -17.6 0 1 609.99 123.90
  L 608.73 120.02
  Q 608.56 119.50 608.02 119.41
  Q 607.65 119.35 605.70 119.34
  Q 603.74 119.34 603.37 119.40
  Q 602.83 119.49 602.66 120.01
  L 601.38 123.88
  A 0.97 0.96 17.8 0 1 600.17 124.50
  L 599.88 124.39
  A 0.51 0.50 18.5 0 1 599.55 123.75
  Q 601.69 117.39 603.96 110.75
  Q 604.70 108.59 605.72 108.58
  Z
  M 603.47 117.31
  A 0.32 0.32 0.0 0 0 603.78 117.73
  L 607.69 117.69
  A 0.32 0.32 0.0 0 0 607.99 117.27
  L 605.98 111.19
  A 0.32 0.32 0.0 0 0 605.37 111.19
  L 603.47 117.31
  Z" fill="#050404"></path>
<path d="M 343.12 109.44
  A 0.71 0.71 0.0 0 1 343.84 108.73
  L 347.52 108.75
  A 6.95 6.79 -89.8 0 1 354.28 115.72
  L 354.28 117.50
  A 6.95 6.79 -89.8 0 1 347.46 124.43
  L 343.78 124.41
  A 0.71 0.71 0.0 0 1 343.08 123.70
  L 343.12 109.44
  Z
  M 345.09 111.22
  L 345.07 121.94
  A 0.84 0.84 0.0 0 0 345.91 122.79
  L 347.30 122.79
  A 5.15 5.01 -89.9 0 0 352.32 117.65
  L 352.32 115.55
  A 5.15 5.01 -89.9 0 0 347.32 110.39
  L 345.93 110.39
  A 0.84 0.84 0.0 0 0 345.09 111.22
  Z" fill="#050404"></path>
<rect rx="0.79" height="15.82" width="1.94" transform="translate(417.58,116.57) rotate(-0.1)" y="-7.91" x="-0.97" fill="#050404"></rect>
<path d="M 431.70 108.76
  Q 434.24 108.73 436.74 108.77
  A 0.63 0.62 0.5 0 1 437.36 109.39
  L 437.36 109.66
  Q 437.36 110.43 436.59 110.43
  L 433.23 110.43
  Q 432.69 110.43 432.69 110.97
  L 432.69 123.61
  Q 432.69 124.10 432.25 124.33
  Q 432.01 124.45 431.71 124.45
  Q 431.41 124.45 431.17 124.33
  Q 430.73 124.10 430.73 123.61
  L 430.72 110.97
  Q 430.72 110.43 430.18 110.43
  L 426.82 110.43
  Q 426.05 110.43 426.05 109.66
  L 426.05 109.39
  A 0.63 0.62 -0.5 0 1 426.67 108.77
  Q 429.17 108.73 431.70 108.76
  Z" fill="#050404"></path>
<rect rx="0.84" height="15.80" width="1.92" transform="translate(591.43,116.62) rotate(-0.1)" y="-7.90" x="-0.96" fill="#050404"></rect>
<path d="M 381.02 114.40
  Q 380.02 114.14 379.87 113.66
  Q 379.67 113.00 380.35 112.88
  Q 382.23 112.55 381.76 110.10
  A 0.59 0.59 0.0 0 1 382.34 109.40
  L 382.82 109.40
  Q 383.45 109.40 383.45 110.03
  L 383.45 112.18
  Q 383.45 112.66 383.93 112.66
  L 386.02 112.66
  Q 386.56 112.66 386.56 113.20
  L 386.56 113.50
  Q 386.56 114.39 385.68 114.39
  L 384.06 114.39
  Q 383.53 114.39 383.51 114.91
  Q 383.34 118.35 383.58 121.20
  Q 383.68 122.45 384.24 122.64
  Q 384.98 122.89 386.07 122.58
  A 0.44 0.44 0.0 0 1 386.63 123.00
  L 386.63 123.36
  Q 386.63 124.12 385.90 124.31
  C 382.92 125.08 381.63 123.22 381.58 120.43
  Q 381.57 119.23 381.57 115.11
  Q 381.57 114.54 381.02 114.40
  Z" fill="#050404"></path>
<path d="M 543.25 114.92
  Q 542.96 119.60 543.48 122.02
  Q 543.59 122.55 544.12 122.64
  Q 544.83 122.76 545.64 122.64
  Q 546.29 122.55 546.29 123.20
  L 546.29 123.61
  Q 546.29 124.16 545.76 124.28
  C 542.71 125.00 541.32 123.35 541.35 120.44
  Q 541.38 117.68 541.32 115.22
  Q 541.30 114.38 540.47 114.30
  Q 539.78 114.23 539.54 113.92
  Q 539.18 113.47 539.71 113.26
  Q 541.90 112.36 541.58 110.19
  Q 541.46 109.38 542.28 109.38
  L 542.58 109.38
  A 0.59 0.58 0.0 0 1 543.17 109.96
  L 543.17 112.06
  Q 543.17 112.63 543.74 112.63
  L 545.74 112.63
  Q 546.26 112.63 546.26 113.15
  L 546.26 113.48
  A 0.91 0.91 0.0 0 1 545.35 114.39
  L 543.81 114.39
  Q 543.28 114.39 543.25 114.92
  Z" fill="#050404"></path>
<path d="M 654.68 114.37
  Q 653.98 114.37 653.98 115.07
  L 653.98 121.65
  Q 653.98 122.58 654.91 122.58
  L 656.53 122.58
  Q 657.17 122.58 657.29 123.21
  Q 657.44 123.96 656.70 124.19
  Q 654.29 124.95 652.99 123.46
  C 651.69 121.97 652.13 118.06 652.16 115.07
  Q 652.17 114.50 651.62 114.38
  L 651.03 114.24
  A 0.99 0.60 3.1 0 1 650.36 113.78
  Q 650.29 113.61 650.35 113.39
  Q 650.46 113.02 650.84 112.92
  Q 652.67 112.47 652.40 110.14
  Q 652.30 109.34 653.11 109.34
  L 653.52 109.34
  Q 653.93 109.34 653.93 109.76
  L 653.93 112.03
  Q 653.93 112.65 654.55 112.65
  L 656.70 112.65
  A 0.53 0.53 0.0 0 1 657.23 113.18
  L 657.23 113.52
  Q 657.23 114.37 656.39 114.37
  L 654.68 114.37
  Z" fill="#050404"></path>
<path d="M 684.16 114.85
  L 684.16 121.55
  A 0.90 0.90 0.0 0 0 684.74 122.39
  Q 685.81 122.81 686.99 122.66
  Q 687.41 122.61 687.41 123.03
  L 687.41 123.41
  Q 687.41 124.17 686.67 124.31
  Q 682.64 125.07 682.46 121.23
  Q 682.22 116.16 682.19 115.25
  Q 682.17 114.80 681.82 114.51
  Q 681.48 114.23 681.07 114.07
  Q 680.48 113.85 680.46 113.52
  Q 680.45 113.43 680.52 113.27
  Q 680.62 113.02 680.88 112.96
  Q 683.01 112.48 682.56 110.07
  A 0.69 0.69 0.0 0 1 683.24 109.26
  L 683.56 109.26
  A 0.56 0.56 0.0 0 1 684.12 109.82
  L 684.12 111.95
  A 0.73 0.73 0.0 0 0 684.85 112.68
  L 686.81 112.68
  Q 687.36 112.68 687.36 113.23
  L 687.36 113.60
  A 0.76 0.76 0.0 0 1 686.60 114.36
  L 684.65 114.36
  Q 684.16 114.36 684.16 114.85
  Z" fill="#050404"></path>
<path d="M 345.09 111.22
  A 0.84 0.84 0.0 0 1 345.93 110.39
  L 347.32 110.39
  A 5.15 5.01 -89.9 0 1 352.32 115.55
  L 352.32 117.65
  A 5.15 5.01 -89.9 0 1 347.30 122.79
  L 345.91 122.79
  A 0.84 0.84 0.0 0 1 345.07 121.94
  L 345.09 111.22
  Z" fill="#ffffff"></path>
<path d="M 603.47 117.31
  L 605.37 111.19
  A 0.32 0.32 0.0 0 1 605.98 111.19
  L 607.99 117.27
  A 0.32 0.32 0.0 0 1 607.69 117.69
  L 603.78 117.73
  A 0.32 0.32 0.0 0 1 603.47 117.31
  Z" fill="#ffffff"></path>
<path d="M 441.56 113.64
  Q 442.65 112.65 444.09 112.07
  A 0.70 0.69 64.6 0 1 444.97 112.39
  Q 445.40 113.23 444.62 113.66
  C 442.68 114.73 441.07 113.88 440.88 116.92
  Q 440.74 119.23 440.85 123.67
  Q 440.87 124.44 440.11 124.44
  L 439.66 124.44
  Q 438.94 124.44 438.94 123.71
  L 438.94 113.12
  Q 438.94 112.55 439.50 112.58
  Q 440.06 112.61 440.56 113.48
  Q 440.97 114.18 441.56 113.64
  Z" fill="#050404"></path>
<path d="M 502.95 113.57
  A 0.58 0.57 54.9 0 0 503.85 113.73
  Q 505.71 111.99 506.51 112.06
  Q 507.13 112.12 507.29 112.58
  Q 507.49 113.13 507.17 113.55
  Q 506.95 113.82 506.41 113.92
  Q 504.69 114.22 503.79 114.62
  Q 503.30 114.84 503.29 115.39
  L 503.06 123.26
  A 1.30 0.92 87.2 0 1 502.30 124.45
  Q 502.15 124.48 501.87 124.46
  Q 501.17 124.41 501.18 123.73
  L 501.25 113.78
  Q 501.26 111.56 502.70 113.12
  Q 502.74 113.17 502.95 113.57
  Z" fill="#050404"></path>
<path d="M 615.84 113.58
  Q 616.24 114.53 616.91 113.75
  Q 618.63 111.75 619.73 112.15
  Q 620.30 112.35 620.21 112.95
  Q 620.13 113.43 619.54 113.80
  Q 619.14 114.04 617.60 114.41
  A 1.92 1.90 -6.3 0 0 616.14 116.22
  L 615.97 123.71
  Q 615.96 124.53 615.11 124.52
  L 615.08 124.52
  Q 614.19 124.52 614.19 123.46
  L 614.21 113.46
  Q 614.22 112.43 614.92 112.61
  Q 615.49 112.76 615.84 113.58
  Z" fill="#050404"></path>
<path d="M 460.12 113.33
  Q 460.17 114.20 461.20 113.56
  C 465.09 111.09 467.64 111.99 467.87 116.54
  Q 468.04 119.91 467.87 123.80
  Q 467.84 124.46 467.18 124.46
  L 466.77 124.46
  Q 466.00 124.46 466.00 123.69
  L 466.00 115.62
  Q 466.00 113.38 463.82 113.92
  L 462.65 114.21
  Q 460.62 114.71 460.62 116.80
  L 460.62 123.91
  Q 460.62 124.49 460.03 124.49
  L 459.59 124.49
  Q 458.73 124.49 458.73 123.63
  L 458.73 112.99
  Q 458.73 112.23 459.43 112.54
  Q 460.10 112.84 460.12 113.33
  Z" fill="#050404"></path>
<path d="M 511.88 113.68
  C 513.88 112.33 516.22 110.96 517.76 113.95
  A 0.58 0.57 55.6 0 0 518.64 114.12
  C 519.68 113.21 520.33 112.51 521.62 112.28
  Q 524.58 111.75 525.15 114.87
  Q 525.74 118.06 525.39 123.98
  Q 525.36 124.62 524.73 124.50
  L 524.40 124.44
  Q 523.52 124.28 523.58 123.39
  Q 523.78 120.28 523.49 115.74
  Q 523.33 113.16 520.93 114.01
  Q 520.91 114.02 520.81 114.06
  Q 518.42 114.96 518.43 117.49
  L 518.44 123.89
  A 0.63 0.62 -90.0 0 1 517.82 124.52
  L 517.47 124.52
  Q 516.66 124.52 516.64 123.71
  L 516.49 115.81
  Q 516.45 113.36 514.02 113.90
  Q 513.93 113.92 513.92 113.92
  Q 511.42 114.63 511.41 117.01
  L 511.40 123.74
  Q 511.39 124.44 510.69 124.44
  L 510.28 124.44
  A 0.78 0.78 0.0 0 1 509.50 123.66
  L 509.50 112.99
  A 0.60 0.59 -67.9 0 1 510.51 112.56
  Q 510.93 112.97 511.12 113.45
  Q 511.36 114.04 511.88 113.68
  Z" fill="#050404"></path>
<path d="M 569.82 113.69
  C 570.79 113.18 571.94 112.33 573.25 112.20
  Q 575.98 111.94 576.47 114.81
  Q 577.06 118.29 576.79 123.78
  Q 576.76 124.46 576.08 124.46
  L 575.59 124.46
  Q 574.97 124.46 574.96 123.84
  L 574.78 115.87
  Q 574.72 113.26 572.30 113.88
  Q 572.03 113.95 572.01 113.96
  Q 569.52 114.61 569.52 116.99
  L 569.54 123.92
  Q 569.55 124.49 568.98 124.49
  L 568.65 124.49
  Q 567.61 124.49 567.61 123.44
  L 567.61 113.00
  Q 567.61 112.18 568.34 112.55
  Q 568.80 112.79 569.03 113.38
  Q 569.25 113.98 569.82 113.69
  Z" fill="#050404"></path>
<rect rx="0.78" height="11.82" width="1.84" transform="translate(358.57,118.55) rotate(-0.2)" y="-5.91" x="-0.92" fill="#050404"></rect>
<rect rx="0.90" height="12.02" width="1.88" transform="translate(376.35,118.62) rotate(-0.2)" y="-6.01" x="-0.94" fill="#050404"></rect>
<path d="M 452.08 117.37
  Q 453.40 117.26 453.02 116.07
  L 452.89 115.67
  A 2.09 2.03 -8.7 0 0 450.90 114.25
  Q 449.70 114.25 447.50 115.41
  A 0.28 0.28 0.0 0 1 447.12 115.29
  Q 446.83 114.74 447.10 114.32
  Q 447.52 113.67 448.15 113.38
  Q 451.79 111.74 453.79 113.63
  C 455.76 115.51 455.25 120.62 454.98 123.76
  A 0.37 0.37 0.0 0 1 454.40 124.02
  L 453.54 123.41
  Q 453.12 123.11 452.67 123.37
  C 450.50 124.63 446.83 125.18 446.22 122.00
  C 445.55 118.42 449.59 117.57 452.08 117.37
  Z
  M 452.55 118.67
  L 447.87 120.07
  A 0.28 0.28 0.0 0 0 447.68 120.42
  L 447.96 121.35
  A 2.38 2.10 -16.6 0 0 450.84 122.69
  L 451.50 122.49
  A 2.38 2.10 -16.6 0 0 453.18 119.80
  L 452.90 118.86
  A 0.28 0.28 0.0 0 0 452.55 118.67
  Z" fill="#050404"></path>
<rect rx="0.74" height="11.86" width="1.82" transform="translate(549.79,118.53) rotate(-0.2)" y="-5.93" x="-0.91" fill="#050404"></rect>
<rect rx="0.83" height="11.94" width="1.84" y="112.57" x="645.94" fill="#050404"></rect>
<path d="M 660.72 119.59
  C 661.29 123.07 664.42 123.27 667.25 122.14
  A 0.27 0.27 0.0 0 1 667.62 122.39
  L 667.62 122.94
  A 0.99 0.98 82.3 0 1 666.90 123.89
  Q 660.66 125.64 659.11 120.65
  Q 657.55 115.64 662.06 113.08
  Q 663.55 112.23 665.17 112.83
  Q 668.81 114.18 668.33 118.51
  A 0.54 0.53 3.7 0 1 667.80 118.97
  L 661.25 118.97
  Q 660.62 118.97 660.72 119.59
  Z
  M 660.90 117.29
  L 666.60 117.23
  A 0.17 0.17 0.0 0 0 666.77 117.05
  L 666.77 116.98
  A 2.91 2.82 -0.7 0 0 663.82 114.20
  L 663.60 114.20
  A 2.91 2.82 -0.7 0 0 660.73 117.06
  L 660.73 117.13
  A 0.17 0.17 0.0 0 0 660.90 117.29
  Z" fill="#050404"></path>
<path d="M 371.45 115.45
  C 371.82 119.81 369.68 120.70 365.88 120.32
  Q 364.85 120.22 364.91 121.26
  Q 364.92 121.44 364.94 121.61
  Q 365.00 122.67 366.07 122.62
  Q 368.49 122.49 370.67 122.83
  C 373.81 123.31 373.83 126.97 371.40 128.35
  Q 367.93 130.32 364.00 128.66
  A 2.23 2.23 0.0 0 1 362.84 125.68
  L 363.59 124.02
  Q 363.77 123.62 363.64 123.17
  Q 363.08 121.31 363.95 119.74
  Q 364.19 119.31 363.96 118.86
  C 363.29 117.59 362.75 116.32 363.36 115.04
  C 364.37 112.93 366.72 112.39 368.94 113.02
  Q 370.60 113.50 372.29 113.32
  Q 372.99 113.25 372.99 113.95
  L 372.99 114.33
  A 0.49 0.48 -90.0 0 1 372.51 114.82
  L 372.03 114.82
  Q 371.40 114.82 371.45 115.45
  Z
  M 369.8722 116.3907
  A 2.54 2.33 -4.5 0 0 367.1572 114.2672
  A 2.54 2.33 -4.5 0 0 364.8078 116.7893
  A 2.54 2.33 -4.5 0 0 367.5228 118.9128
  A 2.54 2.33 -4.5 0 0 369.8722 116.3907
  Z
  M 371.1988 125.7660
  A 1.52 1.52 0.0 0 0 369.6682 124.2566
  L 365.8283 124.2834
  A 1.52 1.52 0.0 0 0 364.3190 125.8140
  L 364.3212 126.1340
  A 1.52 1.52 0.0 0 0 365.8518 127.6434
  L 369.6917 127.6166
  A 1.52 1.52 0.0 0 0 371.2010 126.0860
  L 371.1988 125.7660
  Z" fill="#050404"></path>
<path d="M 393.98 117.41
  Q 395.40 117.36 394.96 116.01
  L 394.82 115.57
  A 1.98 1.98 0.0 0 0 392.61 114.23
  Q 390.41 114.58 389.53 115.45
  A 0.34 0.34 0.0 0 1 388.96 115.21
  L 388.96 114.65
  A 0.84 0.80 -21.9 0 1 389.24 114.04
  C 391.88 111.75 395.94 112.05 396.90 115.90
  Q 397.34 117.68 397.00 123.31
  Q 396.96 123.84 396.43 123.81
  Q 396.00 123.79 395.62 123.55
  Q 395.24 123.32 394.81 123.46
  Q 392.44 124.23 392.38 124.25
  Q 388.25 125.04 388.16 121.03
  C 388.11 118.40 392.01 117.48 393.98 117.41
  Z
  M 394.18 118.73
  L 390.05 120.00
  A 0.54 0.54 0.0 0 0 389.69 120.67
  L 389.92 121.42
  A 2.25 2.06 -17.1 0 0 392.68 122.73
  L 393.54 122.46
  A 2.25 2.06 -17.1 0 0 395.08 119.83
  L 394.85 119.09
  A 0.54 0.54 0.0 0 0 394.18 118.73
  Z" fill="#050404"></path>
<path d="M 473.08 115.22
  A 1.27 1.26 29.1 0 0 473.56 116.88
  Q 474.39 117.37 477.07 118.45
  C 479.39 119.38 479.53 122.24 477.61 123.61
  Q 475.16 125.36 471.35 123.35
  A 0.89 0.89 0.0 0 1 470.87 122.56
  L 470.87 121.98
  A 0.46 0.46 0.0 0 1 471.61 121.61
  Q 474.05 123.45 476.29 122.40
  A 1.40 1.40 0.0 0 0 476.32 119.87
  Q 475.44 119.43 473.07 118.47
  C 471.08 117.65 470.46 115.59 471.91 113.91
  Q 473.69 111.85 477.17 113.19
  A 1.91 1.44 85.2 0 1 478.13 114.26
  Q 478.19 114.43 478.08 114.77
  Q 477.91 115.29 477.41 115.07
  Q 475.43 114.21 474.76 114.24
  Q 473.55 114.31 473.08 115.22
  Z" fill="#050404"></path>
<path d="M 492.8892 124.4499
  A 5.89 5.32 90.3 0 1 487.6001 118.5321
  A 5.89 5.32 90.3 0 1 492.9508 112.6701
  A 5.89 5.32 90.3 0 1 498.2399 118.5879
  A 5.89 5.32 90.3 0 1 492.8892 124.4499
  Z
  M 492.9300 122.8600
  A 4.31 3.43 90.0 0 0 496.3600 118.5500
  A 4.31 3.43 90.0 0 0 492.9300 114.2400
  A 4.31 3.43 90.0 0 0 489.5000 118.5500
  A 4.31 3.43 90.0 0 0 492.9300 122.8600
  Z" fill="#050404"></path>
<path d="M 535.19 123.36
  Q 532.59 124.50 531.95 124.45
  Q 528.80 124.23 528.63 121.56
  C 528.42 118.28 532.39 117.60 534.75 117.34
  A 1.06 1.06 0.0 0 0 535.57 115.80
  Q 534.25 113.30 531.66 114.71
  Q 530.77 115.20 530.65 115.21
  Q 528.41 115.43 529.99 113.90
  Q 530.80 113.10 532.54 112.78
  C 538.65 111.64 537.76 119.00 537.43 123.59
  A 0.44 0.44 0.0 0 1 536.73 123.91
  L 536.10 123.46
  Q 535.67 123.15 535.19 123.36
  Z
  M 535.7573 119.7825
  A 2.86 1.78 -21.7 0 0 532.4419 119.1861
  A 2.86 1.78 -21.7 0 0 530.4427 121.8975
  A 2.86 1.78 -21.7 0 0 533.7581 122.4939
  A 2.86 1.78 -21.7 0 0 535.7573 119.7825
  Z" fill="#050404"></path>
<path d="M 559.3815 124.4598
  A 5.90 5.32 89.5 0 1 554.0102 118.6064
  A 5.90 5.32 89.5 0 1 559.2785 112.6602
  A 5.90 5.32 89.5 0 1 564.6498 118.5136
  A 5.90 5.32 89.5 0 1 559.3815 124.4598
  Z
  M 559.3150 122.8300
  A 4.29 3.45 89.8 0 0 562.7500 118.5280
  A 4.29 3.45 89.8 0 0 559.2850 114.2500
  A 4.29 3.45 89.8 0 0 555.8500 118.5520
  A 4.29 3.45 89.8 0 0 559.3150 122.8300
  Z" fill="#050404"></path>
<path d="M 623.38 118.64
  C 623.44 122.20 626.27 124.05 629.37 121.87
  A 0.44 0.44 0.0 0 1 630.06 122.21
  Q 630.12 123.65 628.78 124.07
  C 624.76 125.34 621.45 122.75 621.38 118.68
  C 621.31 114.61 624.53 111.91 628.59 113.04
  Q 629.95 113.41 629.94 114.85
  A 0.44 0.44 0.0 0 1 629.26 115.22
  C 626.09 113.14 623.32 115.09 623.38 118.64
  Z" fill="#050404"></path>
<path d="M 672.48 118.68
  C 672.57 122.14 675.39 124.12 678.52 121.92
  A 0.37 0.37 0.0 0 1 679.10 122.22
  L 679.10 122.84
  Q 679.10 123.44 678.58 123.73
  C 674.70 125.85 670.67 123.08 670.55 118.73
  C 670.44 114.39 674.32 111.41 678.31 113.32
  Q 678.84 113.58 678.87 114.18
  L 678.91 114.80
  A 0.37 0.37 0.0 0 1 678.34 115.13
  C 675.10 113.10 672.39 115.23 672.48 118.68
  Z" fill="#050404"></path>
<path d="M 693.85 122.58
  C 695.51 122.05 695.13 119.99 693.73 119.54
  Q 691.40 118.79 690.06 117.85
  A 2.42 2.41 32.5 0 1 689.35 114.66
  Q 691.24 111.38 695.43 113.36
  A 1.21 1.20 13.1 0 1 696.11 114.44
  L 696.11 114.81
  A 0.47 0.46 17.3 0 1 695.38 115.19
  Q 692.90 113.48 691.28 114.81
  A 1.27 1.27 0.0 0 0 691.61 116.96
  Q 692.27 117.24 694.71 118.31
  C 696.64 119.17 697.67 121.09 696.39 122.73
  Q 694.19 125.53 689.92 123.74
  A 1.48 1.45 81.2 0 1 689.36 123.32
  Q 688.51 122.25 689.00 121.75
  Q 689.36 121.39 689.76 121.71
  Q 691.69 123.27 693.85 122.58
  Z" fill="#050404"></path>
<ellipse ry="2.33" rx="2.54" transform="translate(367.34,116.59) rotate(-4.5)" cy="0.00" cx="0.00" fill="#ffffff"></ellipse>
<ellipse ry="3.43" rx="4.31" transform="translate(492.93,118.55) rotate(90.0)" cy="0.00" cx="0.00" fill="#ffffff"></ellipse>
<ellipse ry="3.45" rx="4.29" transform="translate(559.30,118.54) rotate(89.8)" cy="0.00" cx="0.00" fill="#ffffff"></ellipse>
<path d="M 660.90 117.29
  A 0.17 0.17 0.0 0 1 660.73 117.13
  L 660.73 117.06
  A 2.91 2.82 -0.7 0 1 663.60 114.20
  L 663.82 114.20
  A 2.91 2.82 -0.7 0 1 666.77 116.98
  L 666.77 117.05
  A 0.17 0.17 0.0 0 1 666.60 117.23
  L 660.90 117.29
  Z" fill="#ffffff"></path>
<path d="M 130.28 140.00
  L 120.24 140.00
  Q 108.22 136.37 101.61 125.14
  Q 100.26 122.84 100.44 120.12
  Q 100.67 116.70 102.96 115.41
  Q 104.51 114.54 107.65 114.56
  C 116.95 114.61 131.16 125.24 132.71 134.72
  Q 133.40 138.90 130.28 140.00
  Z" fill="#58a9d9"></path>
<path d="M 394.18 118.73
  A 0.54 0.54 0.0 0 1 394.85 119.09
  L 395.08 119.83
  A 2.25 2.06 -17.1 0 1 393.54 122.46
  L 392.68 122.73
  A 2.25 2.06 -17.1 0 1 389.92 121.42
  L 389.69 120.67
  A 0.54 0.54 0.0 0 1 390.05 120.00
  L 394.18 118.73
  Z" fill="#ffffff"></path>
<path d="M 452.55 118.67
  A 0.28 0.28 0.0 0 1 452.90 118.86
  L 453.18 119.80
  A 2.38 2.10 -16.6 0 1 451.50 122.49
  L 450.84 122.69
  A 2.38 2.10 -16.6 0 1 447.96 121.35
  L 447.68 120.42
  A 0.28 0.28 0.0 0 1 447.87 120.07
  L 452.55 118.67
  Z" fill="#ffffff"></path>
<ellipse ry="1.78" rx="2.86" transform="translate(533.10,120.84) rotate(-21.7)" cy="0.00" cx="0.00" fill="#ffffff"></ellipse>
<rect rx="1.52" height="3.36" width="6.88" transform="translate(367.76,125.95) rotate(-0.4)" y="-1.68" x="-3.44" fill="#ffffff"></rect>
</svg>
