<svg xmlns="http://www.w3.org/2000/svg" xml:space="preserve" fill-rule="evenodd" stroke-linejoin="round" stroke-miterlimit="2" clip-rule="evenodd" preserveAspectRatio="xMinYMin" viewBox="0 0 2617 584"><path fill="#58a9d9" fill-rule="nonzero" d="m363.006 0 3.333.875 3.333.417 3.625-.084 3.667-.625.167.125v1.25l-.084.25-.208.125-13.875 2.792-13.708 2.458-13.584 2.167-13.416 1.875-13.25 1.542-13.125 1.208-13 .917-12.834.583-1.333-.25-1.125-.75-.75-1.167-.167-1.333.042-.333.542-1.5.708-.959.917-.791 2.625-1.167 7.958-2.083 10.167-2.167 10.25-1.667L310.297.583l10.5-.583zM62.672 240.417l-.75 13.958-.25 13.417.25 12.833.709 12.25 1.166 11.667 1.667 11.125 2.125 10.541 2.625 10 2.375 7.25 2.708 6.834 3.084 6.416 3.416 6 3.75 5.584 4.084 5.166 4.458 4.75 4.792 4.292 5.25 4 5.625 3.5 5.958 3.125 6.333 2.625 6.709 2.25 7.041 1.792 7.417 1.333 7.792.917 6.291.416 6.209.167 6.125-.167 6.041-.375 6-.708 5.875-.958 5.792-1.25 5.75-1.5 7.25-2.334 7.083-2.833 7-3.25 6.834-3.708 40.375-23.334 27.25-15.333 5.791-2.958 6.375-2.75 6.959-2.584 7.5-2.416 8.083-2.209 8.667-2.041 9.208-1.875 9.792-1.667 8.875-1.083 8.791-.5 8.709.166 8.625.792 6.791 1.042 6.709 1.458 6.666 1.833 6.625 2.25 6.209 2.667 5.708 3.125 5.292 3.708 4.75 4.125 3.083 3.25 2.833 3.5 2.667 3.75 2.333 3.917 2.084 4.25 1.833 4.375 1.583 4.625 1.25 4.792 1 5 .667 5.083.417 5.292.125 5.375-.167 5.458-.5 5.5-.75 5.542-1.042 5.5-2.25 8.916-2.875 8.625-3.541 8.542-4.125 8.25-4.834 8.125-5.333 7.833-6 7.584-6.458 7.208-7.084 7-7.541 6.542-8.042 6.166-8.417 5.75-8.916 5.334-9.209 4.791-9.416 4.292-9.667 3.708-6.792 2.209-6.791 1.875-6.875 1.541-6.875 1.167-6.875.792-6.875.458-6.709.042-6.625-.292-6.541-.625-6.459-1.042-6.25-1.375-6.125-1.708-6-2.083-5.875-2.459-5.625-2.791-5.458-3.125-5.5-3.667-5.333-4.042-5.042-4.416-4.833-4.792-17.209-18.542-19.875-22-7.25-7.708-7.541-7.333-7.875-6.917-8.125-6.542-10-7.166-10.417-6.625-5.25-2.959-5.292-2.583-5.291-2.208-5.292-1.875-5.292-1.5-5.333-1.125-5.375-.75-5.333-.417h-6.167l-6.167.5-6.166.958-6.209 1.417-6.25 1.917-6.25 2.416-6.25 2.875-6.291 3.334-8.584 5.208-6.541 4.667-2.209 1.125-2.5.208-2.375-.792-1.875-1.625-.041-.083-5.042-7.292-3.875-6.875-2.792-6.583-1.666-6.167-1.75-10.583-1.334-10.458-.916-10.334-.417-10.25-.042-10.125.417-10.041.833-9.917 1.292-9.792.542-3.166 1.416-6.75 1.875-6.834 2.375-6.958 2.875-7.208 3.292-7.334 3.958-8L39.464 257l7.792-14.292 8-15.25 8.208-16.208 19.958-41.167 8.584-17.583 7.458-14.333 6.25-11.125 5.083-7.834 6.5-8.541 6.792-8.167 7.125-7.875 7.458-7.542 9.292-8.541 9.792-8.084 10.25-7.625 10.708-7.125 4.833-2.916 4.959-2.625 5.041-2.417 5.125-2.167 10.25-3.5 10.584-2.541 10.958-1.667 11.333-.708 36.167-.25 7.667-.209 8.583-.666 9.458-1.125 10.375-1.542 27.542-4.75 27.458-5.333 24.292-5.167 4.5-.75 6.833-.833 20.875-1.834 8.667-.333 8.208.375 7.75 1.042 7.25 1.75 16.459 5.375 7.333 2.75 6.917 2.875 6.416 3 5.959 3.125 5.458 3.208 5 3.333 4.625 3.459 4.083 3.583 3.75 3.792 3.25 3.791 2.75 3.917 2.375 4.167 1.917 4.166 1.458 4.417.375 1.458.792 3.792.5 3.792.25 3.833v3.75l-.25 3.792-.542 3.708-.791 3.667-1.084 3.541-1.25 3.292-1.541 3.208-1.75 3-1.959 2.875-2.208 2.667-2.417 2.417-2.5 2.166-2.75 1.917-4.625 2.542-5.125 1.916-5.5 1.25-5.666.5h-4.959l-4.958-.208-10.208-1.25-10.667-2.292-10.917-3.291-11.333-4.375-11.458-5.292-11.75-6.292-11.709-7.166-31.125-24.75-9.583-7.209-9.917-6.5-10.25-5.833-10.541-5.083-8.917-3.667-9.125-3.167-7.917-2-4-.625-4-.375-6.041-.083-6.084.5-10.75 1.583-10.541 1.917-10.375 2.333-10.209 2.709-10.041 3.083-9.834 3.5-9.666 3.833-9.5 4.209-12.167 6.125-11.833 6.75-11.542 7.375-11.25 8.041-10.917 8.709-10.625 9.333-10.333 10-10 10.625-6.792 7.833-6.625 8.167-6.416 8.5-6.209 8.833-6 9.209-5.791 9.5-5.625 9.875-5.417 10.166-4.167 9.084-3.166 8.958-2.125 8.833-.667 4.375zm1418.588-77.375-1.084.166-.75.459-.458.75-.167 1.083v239.667l-.125.666-.416.584-.584.416-.666.125h-48l-.75-.166-.667-.417-.417-.667-.166-.75V48.333l.208-1 .542-.833.875-.542 1-.208h46.666l.959.167.791.541.542.792.167.958V134.5l.208.958.583.792.834.542.958.166 28.5-.333 27.375.083 26.25.459 25.083.916 4.917.417 5.167.792 5.458 1.208 5.667 1.625 6.875 2.542 6.166 3.166 5.334 3.75 4.666 4.375 3.625 4.542 3.084 5.167 2.583 5.833 2 6.458 1.5 7.125 1 7.917.542 8.875.166 10.625-.25 191.625-.208 1.083-.625.917-.917.625-1.083.208h-46.667l-.75-.125-.666-.416-.542-.709-.208-.916V180.333l-.25-4.041-.834-3.542-1.333-2.958-1.917-2.417-2.416-1.917-2.959-1.333-3.541-.833-4.042-.25zm235.08-28.334V48.625l.167-1.167.5-.833.833-.5 1.167-.167h47.333l.667.125.541.375.375.542.125.667v86.541l.209.959.541.833.834.542.958.208h29l1.542.208 1.083.667.667 1.083.208 1.542v18.833l-.25 1.667-.708 1.167-1.167.708-1.667.25h-29l-.833.167-.708.458-.459.708-.166.834V368.75l.208 2 .583 1.958.959 1.792 1.25 1.542 1.583 1.291 1.75.959 1.958.583 2 .208h22.125l.875.167.75.5.5.75.167.875v22.5l-.125.833-.333.584-.584.333-.75.125-7.208.167-7-.125-6.75-.375-6.5-.667-6.292-.917-6.083-1.208-5.833-1.5-5.584-1.75-4.791-1.917-4.375-2.25-4.042-2.708-3.583-3.042-3.834-4.041-3.333-4.625-2.792-5.084-2.333-5.625-1.792-6.083-1.291-6.583-.792-7.125-.292-7.584-.166-176.166-.209-1.584-.666-1.083h-.042l-1.083-.708-1.584-.209h-27.416l-1.625-.25-1.125-.666-.709-1.167-.25-1.667v-18.583l.25-1.667.709-1.166 1.166-.709 1.667-.25h28.75l.917-.125.666-.416.417-.667z"/><path fill="#58a9d9" fill-rule="nonzero" d="m493.672 275.958-6.791-8.708-7.167-7.917-7.583-7.291-7.959-6.459-8.291-5.75-8.625-4.958-8.875-4.167-9.167-3.333-5.5-1.625-5.583-1.292-5.667-1.041-5.75-.75-5.792-.5-5.875-.209-5.916.084-6 .375-6.042.666-6.042.917-6.125 1.208-6.166 1.5-6.167 1.792-6.167 2.042-6.208 2.291-6.25 2.625-18.083 8.5-20.334 10.459-22.583 12.5-24.833 14.5-11.084 6.166-12 5.75-12.833 5.25-13.708 4.834-6.292 1.75-6.417 1.291-6.583.792-6.625.333-6.708-.166-6.667-.709-6.417-1.125-6.291-1.625-5.917-2.083-5.708-2.5-5.25-2.875-4.959-3.333-4.416-3.625-4.084-4.042-3.541-4.333-3.084-4.709-3.166-6.166-2.334-6.542-1.583-7.042-.75-7.291-.083-10 .708-10 .833-6.167 1.167-6.042 1.458-6.083 1.75-5.958 2.125-6.042 2.375-5.875 2.709-5.917 3-5.791 3.291-5.75 3.584-5.667 3.916-5.625 4.125-5.5 4.542-5.5 4.75-5.375 5.042-5.292 5.291-5.166 8.209-7.417 8.666-7.042 8.792-6.5 9.042-6 9.083-5.416 9.167-4.75 9.041-4.084 9-3.375 8.75-2.666 8.542-1.959 8.542-1.291 8.25-.584 8.083.084 7.792.833 7.708 1.542 7.375 2.208 7.625 3.125 2.542 1.333 2.791 1.75 2.584 2 2.5 2.25 2.541 2.625 5.125 6.375 6.875 10 5.375 7.875 5.709 7.625 7.291 8.625 8.875 9.667 10.5 10.708 5.667 5.417 5.792 5.083 5.958 4.75 6.083 4.459 6.209 4.166 6.375 3.834 6.5 3.5 6.666 3.208 9.167 3.833 9.458 3.25 6.75 1.834 6.834 1.416 7 1 7.041.584 7.167.125 7.208-.334 7.25-.75 7.25-1.166 7.25-1.625 7.125-2.084 7.042-2.416 6.917-2.875 6.791-3.25 6.584-3.625 6.416-4 6.209-4.334 8.833-6.333 7.583-4.958 6.292-3.542 5.042-2.125 5.25-1.375 5.166-.542 4.75.209 4.625 1 2.875 1.125 2.75 1.416 2.625 1.792 2.5 2.042 2.459 2.5 2.25 2.75 2.208 3.125 2 3.333 1.875 3.708 1.792 4.125 3 8.875 2.333 9.875 1.458 10.167.792 9.292.375 9 .083 8.958-.333 8.667-.667 8.541-1 8.167-1.416 8.083-1.709 7.667-2.083 7.417-2.458 7.25-2.792 6.875-3.167 6.708-3.416 6.333-3.875 6.084-4.125 5.791-4.542 5.542-5.083 5.458-4.334 4-4.458 3.459-4.458 2.791-4.542 2.167-4.292 1.417-4.291.708-4.042-.042-3.958-.75-2.542-.958-2.5-1.292-2.292-1.583-2.208-1.958-2.125-2.292-2.042-2.667-1.833-2.916-1.75-3.292-8.292-18.667-7.625-17.458-6.166-12.708-6.125-11zm382.584-16.375.458-14.083.208-17.042-.416-42.833v-.125l-.292-7.25-.708-4.708-1.334-3.75-.916-1.459-1.167-1.333-1.917-1.458-2.458-1.125-2.875-.667-3.417-.292-24.208-.375h-22.917l-21.583.292-20.333.667-2.875.291-2.459.709-2.125 1.041-1.708 1.375-1.333 1.792-.959 2.125-.541 2.5-.209 2.875v39.083l-.458 1.167-1.125.458h-47.375l-1.083-.166-.792-.417-.542-.792-.291-1.125-.375-8.416.291-8.667.959-8.958 1.625-9.209 1.708-6.5 2.417-6 2.958-5.333 3.625-4.833 2.458-2.625 2.625-2.375 2.917-2.209 3.083-2 3.375-1.875 3.584-1.625 7.875-2.75 8.791-2.041 9.834-1.417 11.291-.875 14.25-.375 22.459-.167 20.625.209 18.875.458 17.041.833 6.584.709 6.875 1.375 7.125 2.041 7.375 2.667 3.791 1.708 3.5 2 3.25 2.292 3 2.542 3.917 4.333 3.333 4.958 2.709 5.584 2.125 6.208 2 8.375 1.458 8.792.833 9.125.25 9.5-.708 194.083-.125.958-.417.667-.666.417-.959.125-90.916.458-35.875-.167-29.417-.416-6.875-.5-7.125-1.167-7.292-1.875-7.541-2.583-5-2.209-4.542-2.583-4.125-3-3.708-3.375-2.834-3.25-2.541-3.458-2.25-3.834-1.959-4.083-1.666-4.458-1.334-4.667-1.041-5.042-.75-5.25-.792-9.916-.25-10.167.292-10.417.833-10.666.708-5.334 1.042-5.083 1.333-4.75 1.667-4.417 1.917-4.166 2.291-3.834 2.542-3.541 2.875-3.25 2.542-2.375 2.708-2.209 2.917-1.958 3.083-1.792 3.292-1.625 3.5-1.416 7.583-2.25 10.125-1.959 11.125-1.375 12.125-.833 13.125-.208 78.25.041.917-.166.666-.375.417-.667zm.899 37.477-.162-1.675-.486-1.611-.79-1.485-1.065-1.303-1.299-1.069-1.483-.796-1.609-.491-1.674-.168-99.417-.174-1.675.162-1.611.486-1.485.791-1.302 1.065-1.07 1.298-.796 1.483-.491 1.609-.168 1.675-.132 75.75.162 1.674.485 1.612.791 1.484 1.065 1.303 1.299 1.07 1.482.796 1.61.491 1.674.168 99.416.173 1.675-.162 1.611-.485 1.486-.791 1.302-1.065 1.07-1.299.796-1.482.491-1.61.168-1.674zm152.555-134.018-1.292.166-.875.542-.583.917-.167 1.291v238.125l-.166 1.25-.542.917-.917.542-1.25.166H978.71l-1.833-.25-1.292-.791-.792-1.292-.25-1.833V142.583l.334-2.375 1.041-1.75 1.667-1 2.333-.375 30.792-.291 28.208-.042 25.584.25 22.958.542 7.917.5 7.75.958 7.625 1.5 7.458 1.958 3.667 1.167 3.75 1.458 3.5 1.709 3.291 2.041 3 2.25 2.584 2.292 2.333 2.5 2.167 2.75 1.958 2.917 1.833 3.25 1.584 3.375 2.708 7.541 1.958 8.5 1.292 9.417.542 10.417-.084 11.833-.166.833-.5.75-.75.459-.834.166h-46.583l-1.167-.25-.958-.666-.625-1-.208-1.167.125-19.375-.875-19.708-.417-3.042-.792-2.583-1.125-2.25-1.541-1.792-1.917-1.417-2.292-1-2.625-.583-3.041-.208zm210.17 2.583-2.334.833-1.916 1.625-1.25 2.125-.459 2.459-.5 92.833.334 101.542.208 2.875.5 2.416.917 2.167 1.208 1.792 2.208 1.833 2.709 1.25 3.458.875 4.333.417 23.084.833 22.791.167 22.584-.542 22.333-1.167 3.042-.625 2.375-1.375 1.208-1.333.958-1.625.625-2 .375-2.333.75-12.334V344.75l.209-1 .541-.875.875-.542 1-.208h45.75l1.084.208.875.584.625.916.25 1.042-.084 6.583-.625 6.417-1.208 6.167-1.708 5.958-2.584 6.375-3.125 5.792-3.625 5.041-4.25 4.459-4.333 3.541-4.958 3.084-5.334 2.5-5.958 2.083-6.458 1.583-7.125 1.125-7.875.709-8.792.333-48.042.5-31.166.042-10.125-.375-9.417-1.042-8.583-1.667-7.792-2.333-7.083-2.958-6.25-3.625-2.875-2.042-2.667-2.25-2.458-2.375-2.292-2.542-2.667-3.541-2.375-3.875-2-4.125-1.666-4.417-1.334-4.625-1.041-4.958-.667-5.209-.333-5.5-.5-24.583-.25-31.25.083-38.042.333-44.708.5-14.167 1.125-11.75.792-5 .958-4.375 1.084-3.791 1.291-3.167 2.042-3.917 2.25-3.583 2.542-3.333 2.75-3.042 2.541-2.333 2.667-2.167 5.875-3.792 6.75-3.125 7.542-2.458 8.333-1.833 9.25-1.25 10.667-.75 13.416-.334 24.042-.208 21.042.125 18.041.375 15.042.708 5.792.542 5.916.958 5.792 1.334 5.542 1.583 5.083 1.875 4.583 2.125 4.167 2.333 3.5 2.542 2.542 2.292 2.333 2.583 2.208 2.917 2.042 3.166 1.917 3.542 1.75 3.75 1.541 4.083 1.375 4.209 1.167 4.625 1 4.708 1.208 9.708.292 9.667-.25 4.667-.5 4.333-.208.833-.459.584-.666.375-.875.125h-46.584l-1.208-.167-.875-.542-.542-.875-.166-1.208v-35.292l-.25-3.791-.75-3.25-1.25-2.792-1.792-2.25-2.25-1.75-2.75-1.292-3.25-.75-3.75-.25-59.083-.166-9.459.125-8.875.5-8.333.791zm657.75 122.667-.959.208-.833.542-.542.791-.208.959-.375 35.958.125 34.708.333 5.417.917 4.292 1.458 3.458 2.042 2.542 1.375 1.083 1.542.875 3.875 1.25 4.875.625 7.833.25 4.708.083 19.167.334 19.042-.042 19-.5 18.916-.875 2.459-.292 2.125-.625 1.791-.916 1.459-1.25 1.541-2.334.792-3 .5-4.833.333-6.083.125-15.792.209-1.125.583-.917.917-.666 1.125-.209h45.25l1.5.209 1.083.625.625 1.083.25 1.5-.292 7.583-.958 7.25-1.625 6.959-2.292 6.666-1.916 4.167-2.167 3.792-2.5 3.583-2.75 3.25-4.458 4.125-5.084 3.625-5.791 3.083-6.375 2.5-7.084 1.959-7.708 1.375-8.542.875-9.291.333-78.125.417-9.834-.25-8.958-.875-8.417-1.459-7.541-2.083-6.792-2.667-6.208-3.291-5.459-3.875-4.833-4.584-3.458-4.208-3-4.708-2.5-5.042-2.042-5.542-1.625-6-1.125-6.5-.667-6.875-.208-7.375-.125-141.833.292-6.625.833-6.625 1.417-6.667 1.958-6.625 2-5.083 2.375-4.583 2.792-4.25 3.166-3.792 4.334-4.083 4.958-3.542 5.667-3.083 6.25-2.5 6.958-2 7.625-1.5 8.542-1 9.416-.584 18.834-.5 19.791-.208 20.834.125 21.791.417 9.75.583 9.375 1.208 9.042 1.875 8.667 2.459 4.166 1.583 3.834 1.875 3.583 2.208 3.25 2.459 4.458 4.416 3.875 5.125 3.292 5.917 2.625 6.667 2.083 7.458 1.459 8.208.833 8.959.333 10.083-.333 78.25-.083.75-.334.5-.5.292-.75.125zm113.291-116.709-.166-1.583-.459-1.5-.75-1.375-1-1.208-1.208-1-1.375-.75-1.5-.459-1.583-.166h-100l-1.584.166-1.5.459-1.375.75-1.208 1-1 1.208-.75 1.375-.458 1.5-.167 1.583v82.25l.167 1.584.458 1.5.75 1.375 1 1.208 1.208 1 1.375.75 1.5.458 1.584.167h100l1.583-.167 1.5-.458 1.375-.75 1.208-1 1-1.208.75-1.375.459-1.5.166-1.584zm205.629 55.375.292-.041h.083l.125-.167 62.375-87.125 1.125-1.208 1.292-.917 1.458-.542 1.667-.166h49.042l.583.083.708.458.459.709.083.833-.333.792-90.5 126.458-2.292 3.625-.583 1.292-.209.958.209.958.583 1.292 2.333 3.625 90.542 126.375.333.792-.083.833-.458.75-.709.417-.541.083-49.042.042-1.667-.167-1.5-.542-1.291-.875-1.125-1.25-62.417-87.083-.167-.167h-.708l-.167.167-62.375 87.125-1.125 1.25-1.25.875-1.5.542-1.666.166h-49.042l-.542-.083-.75-.417-.458-.75-.042-.833.292-.792 90.5-126.458 2.292-3.625.583-1.292.208-.958-.208-.958-.583-1.292-2.292-3.583-90.583-126.417-.334-.792.084-.833.458-.75.75-.417.542-.083 49.041-.042 1.667.209 1.5.5 1.25.916 1.125 1.209 62.417 87.083.166.167h.042zm279.54-.5.292-.041.625-.459 62.166-86.5 1-1.083 1.209-.792 1.416-.541 1.459-.167h47.916l1.125.292.875.708.459 1.083-.084 1.125-.333.667-90.042 125.833-1.833 3.042-.458 1.292-.125 1.125.125 1.125.458 1.291 1.833 3.042 90.084 125.792.333.666.083 1.125-.416 1.042-.917.75-1.125.292h-47.917l-1.458-.167-1.375-.5-1.25-.833-1-1.084-62.208-86.458-.584-.458-.291-.042-.334.042-.583.458-62.167 86.5-1 1.083-1.208.834-1.417.5-1.458.166h-47.917l-1.125-.25-.875-.75-.458-1.041.083-1.167.334-.667 90.041-125.833 1.834-3.042.416-1.291.167-1.125-.167-1.125-.458-1.292-1.792-3-90.125-125.792-.333-.708-.083-1.125.458-1.042.875-.75 1.125-.25 47.917-.041 1.5.166 1.375.5 1.208.834 1 1.083 62.208 86.458.625.459z"/><path fill="#58a9d9" d="M39.103 211.828C21.997 243.597 4.855 267.637.846 265.478s6.623-29.704 23.729-61.473 34.249-55.808 38.258-53.65-6.624 29.704-23.73 61.473"/><path fill="#58a9d9" fill-rule="nonzero" d="M179.256 583.333h-41.834l-10.5-3.625-10-4.333-9.458-5.083-8.958-5.834-5.625-4.25-5.417-4.583-5.208-4.917-4.917-5.208-4.75-5.542-4.5-5.833-4.25-6.208-4.042-6.5-2.166-4.25-1.542-4.459-.667-2.958-.416-3-.167-3.083.083-3.167.709-5.208 1.333-4.5 1.958-3.875 2.667-3.167 1.792-1.542 2.041-1.333 3.625-1.583 4.5-1.125 5.292-.625 6.125-.209 7.25.5 7.875 1.5 8.125 2.375 8.542 3.292 8.75 4.167 8.666 4.916 8.5 5.584 8.167 6.166 7.542 6.459 7 6.875 6.333 7.125 5.375 7.125 4.542 7.166 3.541 7.042 2.625 7 1.584 6.708.5 5.292-.292 4.625-1.167 3.958-.875 1.709-1.083 1.541-1.417 1.542-1.666 1.292-1.959 1.125z"/></svg>