<svg viewBox="0 0 142.96 74.5" xmlns="http://www.w3.org/2000/svg"><path d="M70.4 25.1c-1.79 6.23 2.61 9.23 2.79 9.3s4.57-3.11 2.79-9.3a18 18 0 0 0-5.58 0" fill="#9AAD21"></path><path d="M78.1 0h-9.78S54.77 25.25 51.15 37.46c3.68-.9 11.14-2 11.14-2s1.39-4 2.17-5.95a86.7 86.7 0 0 1 17.35 0c.78 2 2.18 6 2.18 6s7.52 1.12 11.24 2C91.63 25.25 78.1 0 78.1 0M76 23.33a3.4 3.4 0 0 1-2.3 1.6h-1.05a3.44 3.44 0 0 1-2.31-1.6 83 83 0 0 0-4 1.45c.76-1.79 1.54-3.57 2.33-5.36l1.33-1.3c.07-1.53.17-3 .21-3a1.7 1.7 0 0 1 .09-.66A28.4 28.4 0 0 1 73.21 6a28.4 28.4 0 0 1 2.9 8.5c0 .22.06.44.08.66a29 29 0 0 1 .22 3l1.34 1.3c.78 1.78 1.57 3.57 2.32 5.36-1.35-.58-2.69-1.06-4.07-1.49M12.39 57H5.55l-1 2.51H0l6.84-15.27h4.35L18 59.48h-4.61ZM9 48.51l-2 4.82h3.89ZM36.55 59.46h-3.5l-2.7-7.3-2.61 7.3h-3.49l-5.7-15.22h4.7l2 5.35a31 31 0 0 1 .81 3.53l2.81-8.88h3l2.9 8.88c.21-1.15.5-2.37.85-3.64l1.82-5.24h4.71ZM57.89 59.48H45.7V44.24h11.85v3.61h-7.61V50h7.21v3.51h-7.21v2.3h8ZM71.89 48.46a5.77 5.77 0 0 0-3.58-1c-1 0-2.06.32-2.06 1.13 0 1 1 1.2 2.52 1.35 3 .33 6.19 1.54 6.19 5s-3.27 4.94-6.69 5c-2.74 0-4.7-.45-6.81-2.67l2.37-2.73a6.07 6.07 0 0 0 4.46 1.72c1.42 0 2.4-.5 2.4-1.35s-.87-1.24-2.55-1.39c-3.33-.3-6.2-1.15-6.2-4.94 0-3.22 3.15-4.62 6.37-4.62A8.7 8.7 0 0 1 74 45.77ZM86.8 59.85c-5 0-8.47-2.9-8.47-8s3.48-8 8.47-8 8.47 2.92 8.47 8-3.47 8-8.47 8m0-12.3a4.31 4.31 0 0 0 0 8.62 4 4 0 0 0 4.2-4.31 4 4 0 0 0-3.67-4.3 4 4 0 0 0-.53-.01M112.42 50.4l-3.87 4.6h-.76L104 50.42v9.06h-4.29V44.24h4.51l4 5.16 4-5.16h4.49v15.24h-4.27ZM134.14 59.48H122V44.24h11.89v3.61h-7.69V50h7.2v3.51h-7.2v2.3h7.94ZM140.67 55.33a2.14 2.14 0 1 1 .33 4.27h-.29a2.14 2.14 0 0 1-.29-4.27Zm-2-.85-.07-10.23h4.23l-.09 10.23ZM43.1 68.86c-.78 0-1.61.3-1.61 1s.76.85 1.66 1c1.22.19 2.42.44 2.42 1.81s-1.31 1.82-2.48 1.82a2.68 2.68 0 0 1-2.54-1.37l.63-.37a2.21 2.21 0 0 0 2 1.07c.74 0 1.72-.23 1.72-1.13s-.84-1-1.76-1.12c-1.17-.18-2.32-.45-2.32-1.69s1.28-1.7 2.34-1.7a2.4 2.4 0 0 1 2.23 1.15l-.58.36a2 2 0 0 0-1.71-.83M54.45 71.33a3.1 3.1 0 1 1-3.08-3.17 3 3 0 0 1 3.08 2.91 2 2 0 0 1 0 .26m-3.08-2.47a2.46 2.46 0 1 0 2.33 2.59v-.12a2.29 2.29 0 0 0-2.12-2.43h-.21ZM61.79 68.33v.72h-3.47v2.13h3.32v.7h-3.32v2.55h-.77v-6.1ZM64.22 69v-.66h4.91V69h-2.08v5.42h-.75V69ZM72.24 68.33l1.68 5 1.69-5h.49l1.71 5 1.66-5h.86l-2.13 6.1h-.76l-1.59-4.58-1.57 4.56h-.73l-2.16-6.08ZM85.86 68.33l2.69 6.08h-.81l-.61-1.35h-3.44l-.59 1.35h-.83L85 68.33Zm-.43.76L84 72.33h2.89ZM93.66 72.21h-1.48v2.2h-.76v-6.08h2.77a1.92 1.92 0 0 1 2.07 1.76v.24a1.77 1.77 0 0 1-1.71 1.82l2 2.26h-1Zm1.89-1.88A1.26 1.26 0 0 0 94.32 69h-2.08v2.49h2a1.21 1.21 0 0 0 1.31-1.11ZM99.49 68.33h4.29V69h-3.54v1.91h3.39v.71h-3.39v2.08h3.68v.73h-4.43Z" fill="#9AAD21"></path></svg>
