<svg xmlns="http://www.w3.org/2000/svg" xml:space="preserve" fill-rule="evenodd" stroke-linejoin="round" stroke-miterlimit="2" clip-rule="evenodd" preserveAspectRatio="xMinYMin" viewBox="0 0 9846 2125"><path fill="#2d3787" fill-rule="nonzero" d="m4622.92 2040.1-743.75-.346c-25.867 0-48.613-7.12-69.096-22.05-21.529-15.45-39.584-37.675-55.729-58.854l-255.038-336.112s-3.296-3.646-5.379-5.555c-14.412-11.804-38.021-9.895-50.35 3.821l-231.25 260.417-6.421 7.117c-16.842 18.75-35.937 40.104-48.092 62.846-.695.87-1.216 1.912-1.737 2.954-16.838 32.462-19.096 60.587-6.596 85.416h-618.75c-26.042 0-48.612-7.12-69.096-22.05-21.529-15.45-39.583-37.675-55.729-58.854 0 0-258.333-339.758-260.417-341.666-14.412-11.805-38.02-9.896-50.35 3.82l-231.25 260.417-5.729 6.421c-17.012 18.925-36.283 40.454-48.783 63.542-.521.87-1.217 1.912-1.738 2.954-16.837 32.462-19.095 60.587-6.77 85.416h-410.067c-19.792 0-35.938 15.625-35.938 34.896s16.146 34.896 35.938 34.896h495.312c19.792 0 35.938-15.625 35.938-34.896v-7.121c0-13.712-8.333-26.212-21.008-31.77-18.23-8.855-29.167-18.4-32.292-28.296-2.083-6.6-1.042-13.717 3.125-21.704.346-.692.696-1.563.867-1.909 8.683-15.971 25-34.029 39.583-50.346l207.812-234.029 226.738 298.613c.521.691 1.042 1.387 1.217 1.562 19.791 25.867 42.012 52.775 70.833 73.784 33.504 24.133 70.137 35.937 111.804 35.937h703.821c19.792 0 35.937-15.625 35.937-34.896v-7.116c0-14.238-9.204-27.259-22.224-32.121-17.534-8.679-28.125-18.229-31.25-27.775-2.084-6.6-1.042-13.717 3.125-21.875.52-.871.87-1.738.87-1.738 8.854-16.146 25.171-34.375 39.584-50.521l207.812-233.854 226.563 298.438a9.6 9.6 0 0 0 1.387 1.737c19.792 25.867 42.013 52.775 70.834 73.784 33.679 24.133 70.137 35.937 111.804 35.937h743.75c19.791 0 35.766-15.625 35.766-34.721.346-18.925-15.8-34.55-35.591-34.55"/><path fill="#2d3787" fill-rule="nonzero" d="m1642.19 1953.82 398.262-426.217c11.808-12.5 12.5-31.425 1.737-44.617l-252.779-316.495c-34.025-45.138-66.491-82.292-99.129-113.542a605 605 0 0 0-35.937-32.117h84.025c41.841 0 73.958 5.209 101.562 16.667 31.425 13.021 59.375 35.242 86.288 68.75l211.804 272.571s3.3 3.816 5.383 5.379c14.409 11.808 38.021 9.896 50.346-4.167l170.833-194.791h-.345c25.691-30.38 51.387-64.755 60.587-99.65 6.425-24.48 5.383-46.355-3.296-64.934h234.2l-405.554 448.959c-11.113 12.329-11.808 30.729-1.563 43.75l266.667 341.32c.521.867 1.388 1.909 1.909 2.605 24.304 29.687 80.554 95.658 81.075 96.354 6.77 7.987 16.841 12.5 27.433 12.5l283.679 1.216 52.429 1.042h.696c10.071 0 19.792-4.167 26.563-11.458l399.133-428.646c12.259-12.25 13.313-32.002 2.429-45.488l-252.779-316.491c-34.375-45.488-66.667-82.642-98.958-113.542a613 613 0 0 0-35.938-32.121l83.854-.171c41.667 0 73.959 5.38 101.563 16.838 31.425 13.021 59.55 35.246 86.287 68.75l211.804 272.571c1.563 2.083 3.3 3.646 5.384 5.383 14.583 11.804 38.021 9.896 50.346-4.167l160.07-182.466c28.817-33.334 60.588-72.221 71.005-111.979 6.599-24.48 5.383-46.179-3.296-64.93h234.2l-405.554 449.13c-11.113 12.329-11.634 30.558-1.392 43.579l266.667 341.316c.52.871 1.216 1.738 1.912 2.605l5.729 6.945c23.784 29.167 75.692 89.584 76.388 90.625 6.771 7.467 16.666 11.805 26.908 11.805l295.313.87c15.625 0 29.862-10.07 34.375-24.829a1479 1479 0 0 0 42.883-176.212c2.083-11.633 3.992-23.438 5.904-35.246a1483.5 1483.5 0 0 0 16.667-214.063l.171.001-.171-14.93c-2.084-400.521-165.104-776.737-459.55-1060.07C3614.065 156.946 3220.14 0 2800.869 0c-419.096 0-813.021 156.946-1109.2 442.013-295.138 283.854-458.159 661.112-459.55 1062.67l-.171 5.033c0 62.5 3.992 125.696 11.979 187.675 1.563 11.458 3.125 23.437 5.033 35.937 1.738 11.805 3.821 23.784 5.905 35.763 3.295 18.75 21.7 31.6 41.145 28.475 9.546-1.563 18.055-6.6 23.609-14.413 5.383-7.462 7.466-16.666 5.904-26.041-2.083-11.284-3.821-22.567-5.729-33.854-1.563-10.763-3.3-22.221-4.863-34.2a1400 1400 0 0 1-11.458-179.167l-.171-4.863c1.388-382.812 156.942-742.533 438.542-1013.37 283.158-272.396 659.2-422.221 1059.2-422.221 399.825 0 775.866 149.825 1058.68 422.046 280.904 270.312 436.458 628.996 438.542 1010.94h-.171l.171 14.238a1392 1392 0 0 1-16.146 204.512c-1.734 11.288-3.646 22.396-5.554 33.509a1392 1392 0 0 1-33.509 143.229l-251.733-.867c-21.704-24.654-42.883-50.871-63.542-76.042l-255.729-327.083 438.367-485.246c6.25-7.116 9.375-15.971 8.679-25.346a33.77 33.77 0 0 0-12.5-23.958c-6.421-5.383-14.754-8.333-23.263-8.333h-408.508c-19.792 0-35.937 15.625-35.937 34.896v7.116c0 15.8 11.112 29.688 26.391 33.509 40.971 13.195 41.492 30.208 38.367 41.841-5.729 21.7-42.534 68.4-56.075 84.375l-130.904 149.129-184.55-237.325c-.521-.695-1.213-1.387-1.563-1.908-34.025-42.362-71.354-71.704-114.233-89.412-36.634-15.105-77.779-22.221-129.688-22.221l-186.979-.175c-19.792 0-35.937 15.625-35.937 34.896v7.12c0 13.542 8.158 26.042 20.483 31.421 35.767 19.446 69.792 44.967 103.996 77.954 29.858 28.646 59.896 63.192 91.666 105.38.692.87 1.388 1.562 1.563 1.912l234.025 293.054-368.921 396.179-303.996-1.908c-16.837-19.792-49.825-58.854-70.312-83.854l-249.304-319.096 438.541-485.246a33.68 33.68 0 0 0 8.679-25.346 34.17 34.17 0 0 0-12.325-23.958c-6.425-5.383-14.758-8.333-23.262-8.333h-408.508c-19.792 0-35.938 15.625-35.938 34.896v7.116c0 15.8 11.113 29.688 26.388 33.509 40.8 13.195 41.495 30.208 38.37 41.841-6.425 24.479-29.862 53.646-52.258 79.859l-134.896 153.645-184.029-237.67-1.387-1.738c-34.03-42.362-71.355-71.7-114.063-89.408-36.804-15.279-77.95-22.396-129.687-22.396H1551.39c-19.791 0-35.937 15.625-35.937 34.896v7.116c0 13.542 8.162 26.042 20.487 31.425 33.855 18.4 66.146 42.188 98.438 72.567l5.554 5.383c30.038 28.821 59.896 63.196 91.667 105.384.696.866 1.216 1.562 1.562 1.908l234.029 292.883-367.533 393.23-269.621-.521c-19.791 0-35.762 15.625-35.762 34.721s16.146 34.72 35.762 34.72l285.592.521a34.77 34.77 0 0 0 26.562-11.108m-468.75-37.329c-5.033-13.713-18.575-22.917-33.679-22.917-40.279 0-60.071-15.104-70.487-53.992-10.938-39.758-10.938-102.95-10.938-190.625v-373.091c-1.216-151.213-52.258-257.117-156.075-324.129-83.854-53.996-202.083-80.209-362.85-80.209h-1.041l-165.105 14.584c-11.458.52-21.7 6.075-27.95 15.275L176.22 1144.09c-7.467 10.246-8.684 23.612-3.125 34.896 8.158 16.666 30.208 24.479 47.395 16.666l4.859-2.083c109.896-49.304 204.862-92.012 324.308-92.012 49.65 0 101.908 11.283 139.929 30.208 44.446 22.05 66.842 52.604 66.842 90.971 0 85.937-126.563 108.854-273.958 135.591C256.253 1399.473.003 1445.827.003 1731.59c0 108.683 47.221 208.162 132.812 280.383 85.592 72.05 204.688 111.634 335.592 111.634h2.604c43.921 0 71.004-4.688 112.15-11.634l7.467-1.387c2.779-1.042 16.667-6.6 22.221-14.584l115.104-165.975c6.079-8.679 7.812-19.27 4.687-29.166-5.379-17.879-25.691-28.817-44.27-23.609-27.43 7.638-47.742 11.805-67.88 14.063-19.27 2.083-69.966 2.254-70.312 2.254-66.667 0-121.875-13.021-159.55-37.325-41.842-27.083-63.021-69.967-63.196-127.429 0-117.538 113.021-142.188 222.396-166.321l14.758-3.471c64.238-14.933 130.554-30.383 192.013-53.996v330.73c0 110.245 37.85 183.162 119.271 229.516 69.791 39.754 174.829 58.334 330.037 58.334h.867c4.166 0 7.812-.696 12.325-2.434 9.029-3.471 16.146-10.066 19.966-18.921 3.646-8.508 3.821-17.883.175-26.391zm-381.25-500c-6.595 0-13.02 1.737-18.229 4.687-67.362 33.163-148.262 51.913-226.387 70.142l-14.238 3.296c-128.3 28.3-273.612 60.246-277.779 226.737h-.171l.171 15.104c1.913 78.471 33.854 138.196 94.967 177.605 47.916 31.075 114.237 47.916 191.841 48.958l7.463.175c27.954 0 48.612-.175 69.792-1.913l-57.984 83.684c-32.987 5.554-57.987 9.025-93.404 9.025h-5.208c-111.634-1.042-212.154-34.546-283.334-94.617-67.883-57.117-106.075-135.592-107.987-221.354v-7.117c0-227.604 225.175-268.404 423.787-304.341l2.605-.521c177.083-31.946 330.033-59.721 329.858-203.821 0-65.45-36.629-118.229-105.9-152.604-47.571-23.609-112.154-37.846-172.917-37.846-96.008 0-174.308 23.437-244.271 51.042l89.93-129.342 144.445-12.846c145.834 0 251.563 22.396 323.088 68.575 80.904 52.083 121.529 137.154 123.958 259.725v379.513l.175 7.466c0 201.734 1.563 295.313 128.3 305.729l37.5 91.146c-112.675-3.475-189.412-18.75-240.454-47.916-57.117-32.642-83.679-86.459-83.679-169.621v-383.854c0-19.271-15.971-34.896-35.938-34.896m4335.23-544.792c-9.721-.346-23.088-.346-23.088-.346-193.229 0-359.896 60.417-482.292 174.825-118.058 110.417-183.854 265.104-185.766 436.459h-.171l.171 15.104c2.083 172.746 77.954 330.558 213.891 444.791 137.325 115.28 328.817 179.517 540.275 180.905l7.642.175c94.963 0 183.854-10.592 264.233-31.25 16.667-4.167 33.509-9.205 49.83-14.413 15.971-5.208 32.116-10.937 48.608-17.708 7.812-3.125 14.237-8.679 18.229-15.796l126.563-228.821a34.2 34.2 0 0 0 4.166-16.492c0-19.27-16.146-34.725-35.937-34.725h-7.463c-7.987 0-15.625 2.605-22.05 7.292-44.616 33.683-95.312 60.767-150.696 80.904-10.066 3.646-32.116 10.592-32.116 10.592-65.8 19.962-136.459 30.208-209.896 30.208l-7.467-.175c-193.229 0-340.796-81.596-415.275-229.512-14.758-29.167-26.216-60.938-34.204-94.1-5.729-24.304-9.721-50-11.804-76.388l891.146-.175c19.616 0 35.241-14.754 35.762-33.679.175-4.167.35-8.508.35-12.846l.171-7.466c0-154.167-57.637-295.659-162.325-398.613-105.729-103.817-255.033-163.712-420.487-168.75m-418.055 586.979c0 1.392 0 2.779.175 3.125.867 43.059 6.075 84.725 15.275 123.788 9.205 38.541 22.396 75.171 39.584 109.025 86.112 170.833 263.541 268.75 487.154 268.75l7.467-.171c78.125-.696 152.95-11.633 222.741-32.813l1.217-.35c11.458-3.47 23.262-7.462 35.762-11.804a642 642 0 0 0 63.717-26.908l-60.417 109.375c-10.766 3.992-21.529 7.983-32.466 11.458-14.929 4.859-30.209 9.2-45.488 13.192-74.304 19.1-156.941 28.821-245.833 28.821h-5.9c-194.792-1.217-370.488-59.375-494.967-164.063-120.137-100.866-187.154-240.104-189.408-392.362v-13.367c1.387-152.95 59.546-290.45 163.887-388.021 108.855-101.737 258.509-155.554 432.467-155.554 0 0 16.317.171 21.179.346 146.875 4.512 278.646 56.946 371.18 147.916 87.675 86.284 137.675 204.863 141.32 334.55h-892.708c-19.967.171-35.938 15.796-35.938 35.067"/><path fill="#2d3787" fill-rule="nonzero" d="m4755.38 1352.08 652.95.175c19.792 0 35.938-15.625 35.938-34.896 0-2.954-.346-5.904-1.042-7.987-4.167-25-10.242-48.438-18.054-69.792-8.163-22.57-18.229-43.75-30.038-62.5-60.417-96.354-165.971-145.137-313.367-145.137l-2.258.171c-27.429.175-54.167 2.604-79.512 7.291-23.613 4.517-46.18 10.767-67.363 18.75-111.629 42.538-189.062 134.55-212.5 252.779-1.733 9.03.175 18.23 5.383 25.696a35.1 35.1 0 0 0 23.263 14.755c2.258.695 4.342.695 6.6.695m318.921-250.521 7.466.175c120.834 0 205.555 37.5 252.084 111.63 9.375 15.104 17.362 31.6 23.783 49.133 2.258 6.596 4.517 13.196 6.425 20.137h-562.154c26.392-74.479 81.771-130.9 156.946-159.545a321 321 0 0 1 54.512-15.28c19.621-3.645 40.104-5.904 60.938-6.25m1298.79 224.825-5.383-1.733c-128.125-39.583-238.717-73.612-238.717-141.146 0-26.562 21.184-47.396 62.675-61.979 46.354-16.321 101.563-19.446 129.167-19.792v.171l13.367-.171c71.183.692 142.187 13.888 210.937 39.409 12.154 4.512 25 9.721 39.238 15.971a696 696 0 0 1 36.283 17.362 35.96 35.96 0 0 0 18.75 5.208c19.792 0 35.937-15.625 35.937-34.72V938.018c0-15.625-10.937-29.342-26.387-33.509-44.792-11.979-93.575-20.658-145.138-26.041-45.141-4.688-92.708-6.942-145.141-6.942-100.346 0-346.525 16.146-465.971 164.754a292.5 292.5 0 0 0-48.438 87.5c-11.283 32.988-17.187 69.446-17.187 108.854 0 228.475 222.221 301.042 419.271 365.28 136.804 44.616 265.971 86.804 265.971 172.741 0 39.759-26.563 71.009-78.646 93.229-43.4 18.405-103.646 29.342-161.629 29.688l-2.084-.171c-83.854 0-161.633-10.767-238.021-32.987-74.654-21.53-145.312-53.125-215.8-96.355-9.55-6.945-22.395-8.854-33.679-5.033-9.204 3.125-16.496 9.546-20.662 18.229-3.992 8.334-4.338 17.709-1.213 26.388l88.542 238.541c3.471 9.375 10.937 16.842 20.312 20.488 53.646 20.833 110.417 36.458 168.75 46.7 56.075 9.55 112.846 14.238 173.609 14.238h7.641c163.192-1.217 311.459-40.455 418.055-110.938 115.625-76.217 176.737-181.079 176.737-303.475.346-246.7-244.446-322.221-441.146-382.812m-153.475 727.779h-7.462c-57.642 0-110.417-4.342-160.938-13.021a794.6 794.6 0 0 1-139.583-37.154l-50.175-135.067c49.304 24.304 99.825 43.921 150.346 58.504 83.333 24.134 167.883 35.767 258.508 35.767l3.646-.175c67.187-.521 137.675-13.542 188.887-35.417 79.517-33.854 121.53-88.196 121.53-155.554l.345-1.912c0-135.417-153.125-185.242-315.104-238.192l-2.254-.696c-172.746-56.25-368.404-120.137-368.404-298.958 0-30.904 4.687-60.071 13.717-86.459 8.333-24.304 20.658-46.875 36.804-66.841 99.825-124.479 319.616-137.846 409.375-137.846 50.346 0 95.312 2.083 137.675 6.425 38.021 3.992 73.958 9.721 107.291 17.358v124.309a1067 1067 0 0 0-32.812-13.021c-76.563-28.3-155.558-43.059-234.896-43.925v-.175l-15.104.175c-31.946.521-97.225 3.991-153.646 23.958-71.704 25.346-109.725 69.271-109.725 128.471 0 117.362 134.896 159.029 290.975 207.121l3.125 1.041c183.333 56.596 391.317 120.659 391.317 317.359 0 97.746-50.171 182.641-145.138 245.312-95.487 62.329-229.341 97.396-378.3 98.613m1249.64-727.779-5.554-1.734c-128.125-39.583-238.717-73.612-238.717-141.146 0-26.562 21.179-47.395 62.675-61.979 46.354-16.321 101.563-19.446 129.167-19.791v.17l13.541-.17c71.18.691 142.188 13.887 210.938 39.408a902 902 0 0 1 39.233 15.971 699 699 0 0 1 36.288 17.362 36.1 36.1 0 0 0 18.921 5.209c19.791 0 35.937-15.625 35.937-34.721V938.018c0-15.625-10.937-29.342-26.387-33.508-44.792-11.98-93.575-20.659-145.138-26.042-45.142-4.688-92.537-6.942-145.142-6.942-100.345 0-346.7 16.146-465.97 164.754-21.18 26.392-37.5 55.905-48.263 87.5-11.287 32.988-17.187 69.446-17.187 108.855 0 228.475 222.22 301.041 419.27 365.279 136.805 44.616 266.146 86.804 266.146 172.741 0 39.759-26.391 71.009-78.646 93.23-43.404 18.404-103.82 29.516-161.808 29.687l-1.908-.171c-83.854 0-161.634-10.766-238.021-32.987-74.654-21.529-145.313-53.3-215.8-96.354-9.546-6.946-22.396-8.855-33.679-5.034-9.2 3.125-16.492 9.546-20.659 18.229-3.995 8.334-4.341 17.709-1.216 26.388l88.541 238.542c3.471 9.375 10.938 16.841 20.313 20.487 53.646 20.833 110.417 36.458 168.75 46.7 56.075 9.55 112.846 14.238 173.437 14.238h7.638c163.196-1.217 311.458-40.455 418.058-110.938 115.625-76.392 176.734-181.079 176.734-303.475-.171-246.7-244.792-322.221-441.492-382.812m-153.646 727.779h-7.467c-57.637 0-110.241-4.342-160.937-13.021a794.6 794.6 0 0 1-139.583-37.154l-50-135.067c49.308 24.304 99.829 43.921 150.35 58.504 83.333 24.134 167.879 35.767 258.504 35.767l3.125-.175c67.362-.346 137.85-13.542 189.237-35.417 79.513-33.854 121.529-88.196 121.529-155.554l.346-1.912c0-135.417-153.125-185.242-315.104-238.192l-2.083-.696c-172.742-56.25-368.404-120.137-368.404-298.958 0-30.904 4.687-60.071 13.716-86.459 8.334-24.304 20.659-46.875 36.804-66.841 99.83-124.479 319.621-137.846 409.375-137.846 50.35 0 95.313 2.083 137.5 6.425 38.021 3.992 74.134 9.721 107.292 17.358v124.309c-10.242-4.342-21.354-8.684-32.812-13.021-76.563-28.3-155.555-43.059-234.896-43.925v-.175l-15.104.175c-31.942.521-97.221 3.991-153.646 23.958-71.7 25.346-109.721 69.271-109.721 128.471 0 117.362 134.896 159.029 290.971 207.121l3.125 1.041c183.333 56.596 391.146 120.659 391.146 317.359 0 97.746-50.171 182.641-144.963 245.312-95.312 62.329-229.342 97.396-378.3 98.613m1116.15-16.667c-40.971-22.396-63.367-50-72.396-89.408-6.946-30.038-6.425-67.709-5.729-107.642.175-11.458.346-23.262.346-35.242V916.664c0-19.096-16.146-34.721-35.938-34.721h-7.462c-8.684 0-17.017 2.95-23.613 8.679-14.408 12.325-34.029 20.488-59.375 25.175-26.041 4.688-55.554 5.208-81.25 5.208l-154.341.171c-19.792 0-35.763 15.454-35.763 34.725v5.209c-.867 13.191 6.25 25.866 18.229 32.462 41.146 22.571 63.367 49.829 72.396 88.371 6.946 29.512 6.425 66.837 5.904 106.596-.175 11.458-.35 23.091-.35 35.071l-.171 581.941c0 4.342.171 16.667.346 29.863v6.596c1.217 84.375 2.259 151.216-76.041 194.966-12.5 5.729-20.659 18.054-20.659 31.596v7.292c0 19.1 16.146 34.725 35.938 34.725h422.396c19.791 0 35.937-15.625 35.937-34.896l-.175-7.121c0-13.192-6.946-24.825-18.229-31.075m-307.813-196.875v-2.95c-.175-7.121-.175-15.454-.175-32.642v-581.941c0-12.5.175-24.654.35-36.459.692-42.187 1.388-82.12-7.641-120.487-6.771-29.167-18.4-54.167-35.588-75.867h65.275c28.646 0 61.809-.521 94.446-6.425 15.104-2.779 28.821-6.425 41.492-11.112v832.291l.175 6.25c0 10.071-.175 20.142-.346 29.863-.696 42.708-1.392 82.987 7.637 121.875 6.771 29.687 18.75 55.208 35.938 77.083h-243.925c44.621-55.729 43.579-122.741 42.362-199.479m70.146-996.179c51.042 0 98.613-20.488 134.375-57.642 33.854-35.241 53.3-82.637 53.3-130.554 0-47.742-19.446-94.967-53.471-129.342-35.591-36.283-83.162-56.25-134.204-56.25-49.65 0-99.479 17.538-136.629 48.092-40.975 33.679-63.371 80.033-63.542 130.383 0 52.95 20.484 102.084 57.463 138.367 37.154 36.804 87.85 56.946 142.708 56.946m.175-304.167c31.075 0 60.242 12.325 82.117 34.546 21.529 21.875 33.854 51.563 33.854 81.771s-12.5 60.592-34.025 82.987c-21.875 22.917-51.042 35.417-81.946 35.417-35.416 0-68.054-12.846-91.841-36.283-23.609-23.267-36.805-55.038-36.805-89.584 0-29.516 13.542-56.945 38.196-77.258 24.304-20.137 57.292-31.596 90.45-31.596m964.575 1422.74c121.179 0 231.075-44.271 309.375-124.479 76.388-78.125 118.575-185.417 118.575-302.084 0-131.25-37.846-253.3-106.596-343.925-79.687-105.033-194.27-160.416-331.425-160.416-121.525 0-231.075 45.312-308.158 127.604-73.783 78.821-114.408 186.458-114.408 303.821 0 123.262 39.583 246.008 108.679 336.979 56.25 74.133 158.158 162.5 323.958 162.5m-9.896-861.458c113.542 0 208.159 45.658 273.613 132.116 59.721 78.646 92.708 186.113 92.708 302.954 0 98.438-35.246 188.888-98.958 253.992-64.758 66.321-156.25 102.95-257.467 102.95-135.762 0-219.791-73.087-266.321-134.375-60.241-79.337-94.791-186.979-94.791-295.833 0-99.825 34.204-190.971 96.008-256.942 64.408-68.579 152.604-104.862 255.208-104.862"/><path fill="#2d3787" fill-rule="nonzero" d="M9724.29 1132.64c-14.409-19.442-30.209-38.888-47.396-57.292-16.492-17.708-34.2-34.721-52.254-50a27 27 0 0 0-2.084-1.908c-63.37-53.3-131.425-91.667-207.987-116.842-72.221-23.783-149.825-35.417-237.675-35.417l-3.296.175c-188.717.696-363.542 61.804-492.362 172.221-135.763 116.496-210.592 281.079-210.763 463.717 0 173.783 71.7 332.116 201.733 446.008 125.175 109.721 293.58 170.138 473.959 170.138l.175-.001c184.55.001 357.812-63.716 488.021-179.341 132.116-117.533 205.729-277.604 207.812-451.388l.175-7.637c.171-123.092-41.842-248.267-118.058-352.434m-995.484-36.629c114.93-98.612 271.18-153.475 440.625-155.037l7.463.175c80.037 0 150.35 10.416 214.933 31.596 67.188 22.05 126.909 55.558 182.638 102.258l.866.867c.521.521 1.217 1.041 1.913 1.562 16.492 14.063 32.292 29.167 46.7 44.792 14.758 15.975 28.821 33.162 42.012 51.042 67.538 92.362 104.863 203.3 104.863 312.5v5.558c-1.563 154.858-67.013 297.221-184.721 401.908-117.017 103.992-273.092 161.284-439.583 161.284-162.5-.001-313.892-54.167-425.871-152.43-114.929-100.695-178.296-240.625-178.296-394.616-.175-164.584 64.408-306.946 186.458-411.459"/></svg>