<?xml version="1.0" encoding="UTF-8" standalone="no"?>
<!DOCTYPE svg PUBLIC "-//W3C//DTD SVG 1.1//EN" "http://www.w3.org/Graphics/SVG/1.1/DTD/svg11.dtd">
<svg width="100%" height="100%" viewBox="0 0 4267 625" version="1.1" xmlns="http://www.w3.org/2000/svg" xmlns:xlink="http://www.w3.org/1999/xlink" xml:space="preserve" xmlns:serif="http://www.serif.com/" style="fill-rule:evenodd;clip-rule:evenodd;stroke-linejoin:round;stroke-miterlimit:2;">
    <path id="Shape" d="M559.66,611.467l0,-611.467l139.278,0l-0,611.467l-139.278,-0Zm2707.43,-228.452c0,-147.77 -114.648,-239.489 -248.832,-239.489c-135.032,-0 -248.832,92.567 -248.832,239.489c0,147.771 114.652,240.342 248.832,240.342c134.184,-0 248.832,-93.419 248.832,-240.342Zm-137.577,0c-0,77.284 -51.807,120.597 -112.103,120.597c-60.297,-0 -112.103,-43.313 -112.103,-120.597c-0,-78.132 51.806,-119.745 112.103,-119.745c60.296,0 112.103,41.613 112.103,119.745Zm-2625.91,52.655c-0,-68.79 -35.668,-121.445 -99.365,-145.222c60.3,-33.123 81.529,-76.435 81.529,-127.39c0,-89.171 -64.541,-163.058 -208.915,-162.206l-276.858,-0l0,611.463l288.748,0c145.222,-0.848 214.861,-73.035 214.861,-176.645Zm-165.606,-254.777c-0,41.613 -26.326,65.394 -77.281,65.394l-115.5,-0l0,-127.39l115.5,-0c46.71,-0 77.281,20.383 77.281,61.996Zm12.738,245.435c0,39.916 -28.025,66.242 -79.829,66.242l-125.69,0l0,-132.484l125.69,0c50.107,0 79.829,25.478 79.829,66.242Zm1365.61,-157.961c-38.216,-79.832 -109.555,-123.993 -217.41,-123.993c-127.39,-0 -241.19,79.832 -241.19,238.641c0,154.565 100.213,240.342 239.49,240.342c97.665,-0 180.042,-39.068 219.11,-123.145l-112.103,-57.748c-20.381,37.367 -51.804,61.148 -101.91,61.148c-64.545,-0 -106.158,-45.861 -106.158,-120.597c0,-74.735 47.558,-119.745 105.31,-119.745c45.009,0 78.98,20.384 100.209,64.545l114.652,-59.448Zm2052.65,0c-38.216,-79.832 -109.555,-123.993 -217.409,-123.993c-127.39,-0 -241.19,79.832 -241.19,238.641c-0,154.565 100.213,240.342 239.49,240.342c97.664,-0 180.045,-39.068 219.109,-123.145l-112.103,-57.748c-20.381,37.367 -51.803,61.148 -101.91,61.148c-64.545,-0 -106.157,-45.861 -106.157,-120.597c-0,-74.735 47.558,-119.745 105.309,-119.745c45.01,0 78.981,20.384 100.213,64.545l114.648,-59.448Zm-1167.73,343.1l-116.351,-205.523l-89.171,0l-0,205.523l-143.526,-0l0,-611.467l259.026,-0c140.125,-0 237.793,67.093 237.793,198.725c-0,84.078 -41.616,143.526 -115.5,180.045l134.18,232.697l-166.451,-0Zm-204.674,-326.964l107.007,-0c66.244,-0 98.515,-37.368 98.515,-81.529c0,-52.655 -30.574,-81.529 -98.515,-81.529l-107.007,-0l0,163.058Zm-1161.78,319.319l0,-95.965c-5.945,1.697 -14.438,3.397 -23.78,3.397c-17.836,-0 -27.178,-9.342 -27.178,-25.477l0,-158.813c0,-118.897 -79.828,-181.742 -211.464,-181.742c-85.774,0 -158.809,31.423 -204.67,72.187l77.283,86.626c30.571,-27.177 71.336,-44.161 111.252,-44.161c61.145,-0 90.022,30.574 90.022,80.68l0,14.436c-28.877,-6.794 -65.393,-13.587 -109.554,-13.587c-111.255,-0 -183.442,53.503 -183.442,141.825c0,90.871 60.3,138.429 153.716,138.429c63.696,-0 120.596,-26.326 150.319,-60.297c17.835,45.01 56.9,56.9 95.116,56.9c26.329,0.849 56.903,-3.397 82.38,-14.438Zm-187.686,-143.523c-0,41.613 -39.916,68.79 -85.774,68.79c-43.313,0 -64.545,-22.08 -64.545,-52.654c-0,-32.271 23.78,-56.052 72.187,-56.052c29.725,0 56.051,5.097 78.132,10.19l-0,29.726Zm3219.53,151.168l-163.907,-284.503l153.716,-167.303l-154.564,-0l-162.209,180.042l-0,-338.851l-138.429,-0l-0,611.463l138.429,0l-0,-110.403l66.245,-70.487l103.606,180.89l157.113,0l-0,-0.848Zm-2050.95,-0l-163.906,-284.503l153.716,-167.303l-156.264,-0l-160.51,180.042l0,-338.851l-138.429,-0l0,611.463l138.429,0l0,-110.403l66.242,-70.487l103.61,180.89l157.112,0l0,-0.848Z" style="fill-rule:nonzero;"/>
</svg>
