<svg xmlns="http://www.w3.org/2000/svg" xml:space="preserve" fill-rule="evenodd" stroke-linejoin="round" stroke-miterlimit="2" clip-rule="evenodd" preserveAspectRatio="xMinYMin" viewBox="0 0 4267 625"><path fill-rule="nonzero" d="M559.66 611.467V0h139.278v611.467zm2707.43-228.452c0-147.77-114.648-239.489-248.832-239.489-135.032 0-248.832 92.567-248.832 239.489 0 147.771 114.652 240.342 248.832 240.342 134.184 0 248.832-93.419 248.832-240.342m-137.577 0c0 77.284-51.807 120.597-112.103 120.597-60.297 0-112.103-43.313-112.103-120.597 0-78.132 51.806-119.745 112.103-119.745s112.103 41.613 112.103 119.745M503.603 435.67c0-68.79-35.668-121.445-99.365-145.222 60.3-33.123 81.529-76.435 81.529-127.39C485.767 73.887 421.226 0 276.852.852H-.006v611.463h288.748c145.222-.848 214.861-73.035 214.861-176.645M337.997 180.893c0 41.613-26.326 65.394-77.281 65.394h-115.5v-127.39h115.5c46.71 0 77.281 20.383 77.281 61.996m12.738 245.435c0 39.916-28.025 66.242-79.829 66.242h-125.69V360.086h125.69c50.107 0 79.829 25.478 79.829 66.242m1365.61-157.961c-38.216-79.832-109.555-123.993-217.41-123.993-127.39 0-241.19 79.832-241.19 238.641 0 154.565 100.213 240.342 239.49 240.342 97.665 0 180.042-39.068 219.11-123.145l-112.103-57.748c-20.381 37.367-51.804 61.148-101.91 61.148-64.545 0-106.158-45.861-106.158-120.597s47.558-119.745 105.31-119.745c45.009 0 78.98 20.384 100.209 64.545zm2052.65 0c-38.216-79.832-109.555-123.993-217.409-123.993-127.39 0-241.19 79.832-241.19 238.641 0 154.565 100.213 240.342 239.49 240.342 97.664 0 180.045-39.068 219.109-123.145l-112.103-57.748c-20.381 37.367-51.803 61.148-101.91 61.148-64.545 0-106.157-45.861-106.157-120.597s47.558-119.745 105.309-119.745c45.01 0 78.981 20.384 100.213 64.545zm-1167.73 343.1-116.351-205.523h-89.171v205.523h-143.526V0h259.026c140.125 0 237.793 67.093 237.793 198.725 0 84.078-41.616 143.526-115.5 180.045l134.18 232.697zm-204.674-326.964h107.007c66.244 0 98.515-37.368 98.515-81.529 0-52.655-30.574-81.529-98.515-81.529h-107.007zm-1161.78 319.319v-95.965c-5.945 1.697-14.438 3.397-23.78 3.397-17.836 0-27.178-9.342-27.178-25.477V326.964c0-118.897-79.828-181.742-211.464-181.742-85.774 0-158.809 31.423-204.67 72.187l77.283 86.626c30.571-27.177 71.336-44.161 111.252-44.161 61.145 0 90.022 30.574 90.022 80.68v14.436c-28.877-6.794-65.393-13.587-109.554-13.587-111.255 0-183.442 53.503-183.442 141.825 0 90.871 60.3 138.429 153.716 138.429 63.696 0 120.596-26.326 150.319-60.297 17.835 45.01 56.9 56.9 95.116 56.9 26.329.849 56.903-3.397 82.38-14.438m-187.686-143.523c0 41.613-39.916 68.79-85.774 68.79-43.313 0-64.545-22.08-64.545-52.654 0-32.271 23.78-56.052 72.187-56.052 29.725 0 56.051 5.097 78.132 10.19zm3219.53 151.168-163.907-284.503 153.716-167.303H4101.9l-162.209 180.042V.852h-138.429v611.463h138.429V501.912l66.245-70.487 103.606 180.89h157.113zm-2050.95 0-163.906-284.503 153.716-167.303h-156.264l-160.51 180.042V.852h-138.429v611.463h138.429V501.912l66.242-70.487 103.61 180.89h157.112z"/></svg>