<svg xmlns="http://www.w3.org/2000/svg" xml:space="preserve" fill-rule="evenodd" stroke-linejoin="round" stroke-miterlimit="2" clip-rule="evenodd" preserveAspectRatio="xMinYMin" viewBox="0 0 2084 625"><path fill="#1a347f" fill-rule="nonzero" d="M296.916 0C133.138 0 0 133.163 0 296.948 0 400.7 53.115 491.917 133.779 545.086V371.292h-30.002v118.766c-14.339-17.515-29.375-39.356-41.87-60.621-22.515-39.384-34.38-82.523-34.38-132.496 0-150.043 120.614-271.933 269.403-271.933 148.779 0 269.418 121.89 269.418 271.937 0 49.973-12.506 93.09-35.054 133.138-11.876 20.619-27.502 42.46-41.838 59.975V371.296h-29.397v173.827c80.646-53.17 133.779-144.419 133.779-248.171C593.838 133.141 460.69.004 296.923.004zm910.706 15.663-39.362 8.102v10.611l17.496 3.765v190.631l-18.141 3.729v12.542h63.131v-13.122l-14.988-3.149V128.115c8.733-7.501 17.522-13.731 29.397-13.731 17.496 0 17.492 18.13 17.492 30.647v84.383l-14.984 3.123v12.543h62.519v-13.122l-16.275-3.153v-98.149c0-22.512-12.499-38.747-37.529-38.747-16.84 0-29.382 9.353-40.616 18.101V15.659zm269.418 0c-10.622 0-20 8.737-20 20-.019 11.216 9.378 19.971 20.645 19.971 10.625 0 19.971-8.755 19.971-19.971 0-11.263-9.368-20-20.616-20M784.487 28.107c-13.763 0-26.9 1.862-40.649 1.862h-38.105v13.155l21.258 3.729v181.915l-21.258 3.729v12.51h36.21c7.516 0 41.25.612 48.143.612 17.532.019 46.911.656 63.769-28.074 4.389-8.139 7.542-18.148 6.882-30.002 0-15.017-5.023-28.759-15.63-40.04-9.998-10.607-21.254-14.369-33.734-16.884 15.604-6.874 37.496-21.25 37.496-51.26 0-11.875-4.979-24.99-13.122-34.343-15.622-16.928-39.403-16.92-51.26-16.92zm-5.628 13.763c11.231 0 33.735 5.03 33.735 41.262 0 40.653-24.36 41.903-38.75 41.903h-15.597V45.636c7.501-2.483 11.864-3.766 20.612-3.766M296.916 64.382l-90.659 70.622 16.275 21.291 74.384-57.533 74.416 57.533 16.206-21.291zM950.139 88.76c-43.762 0-61.875 45.005-61.875 81.94 0 48.73 26.245 77.471 60.008 77.471 33.137 0 63.128-28.132 63.128-81.266 0-68.147-43.142-78.149-61.261-78.149zm144.393.608c-45.027 0-56.888 48.151-56.888 83.132 0 45.027 19.377 75.671 56.247 75.671 28.744.036 41.272-11.89 53.771-36.243l-13.731-5.66c-6.247 9.998-15.017 19.967-28.176 19.967-30.618 0-35.615-34.977-36.851-60.008h79.37c-.609-36.851-7.509-76.859-53.735-76.859zm665.616.037c-30.013 0-53.735 20.638-53.735 51.905 0 26.244 15.565 36.873 25.596 43.12-16.283 9.999-28.716 20.606-28.716 32.478 0 10.643 7.513 16.88 17.496 20.003-10.625 7.516-23.732 16.859-23.732 32.514 0 23.12 28.726 31.868 54.992 31.868 48.1 0 75.029-23.754 75.029-52.481 0-27.512-16.308-36.873-43.157-37.496l-40.004-1.29c-2.501 0-10.647-1.848-10.647-6.882 0-3.747 5.631-8.726 11.288-13.122 5.625 1.254 12.481 2.515 18.105 2.515 21.87 0 51.872-15.626 51.872-50.655 0-12.466-4.363-20.616-11.219-30.647l24.983.678V93.159l-35.63 1.221c-10.607 0-21.265-4.982-32.514-4.982zm145.648 0c-45.009 0-56.855 48.132-56.855 83.128 0 45.027 19.355 75.638 56.246 75.638 28.73 0 41.24-11.905 53.735-36.243l-13.731-5.66c-6.233 10.016-14.999 20-28.14 20-30.654 0-35.619-35.01-36.887-59.975h79.399c-.627-36.851-7.508-76.892-53.767-76.892zm-330.053 1.217-38.75 10.035v12.51l18.138 1.866v113.779l-18.138 3.729v12.51h64.382v-13.122l-15.63-3.117V126.898c8.143-7.498 17.504-14.34 28.748-14.34 17.518 0 17.533 18.116 17.533 25.599v91.267l-16.275 3.117v12.513h63.128v-13.122l-16.275-3.12v-98.146c0-24.385-12.466-39.395-38.072-39.395-16.264 0-28.774 8.799-40.041 18.174V90.63zm450.67.037-38.109 9.965v10.035l18.138 3.153v115l-18.138 3.729v12.51h69.365v-13.155l-21.87-3.117v-81.874c0-5.034 6.863-20.634 19.358-26.277l16.243 8.785c4.997-4.396 11.933-9.412 11.933-18.787 0-12.462-8.139-18.105-18.174-18.105-13.104 0-19.971 10.031-30.002 26.922V90.659zm-654.39.033-38.105 9.965v10.002l18.105 3.153v115l-18.105 3.729v12.546h69.365v-13.158l-21.87-3.15v-81.841c0-5.052 7.509-20.667 20.004-26.31l16.275 8.748c4.374-4.392 11.846-9.357 11.219-18.75 0-12.48-8.117-18.105-17.492-18.105-13.104 0-20.616 10.046-30.618 26.919V90.692zm115.642 1.221-39.362 9.965v10.611l16.238 3.798v112.525l-16.238 3.729v12.51h64.414v-13.122l-17.529-3.117V91.913zm271.867 11.255c19.997 0 21.899 22.487 21.899 39.396 0 15.622-2.54 34.985-20.678 34.985-19.355 0-21.87-20.606-21.87-37.497 0-15.637 1.261-36.887 20.649-36.887zm-808.792.609c22.479 0 26.886 36.862 26.886 62.483 0 20.011-2.472 66.281-29.361 66.281-17.496 0-26.886-24.392-26.886-61.295 0-17.459 1.225-67.469 29.361-67.469m144.394.609c18.764 0 20.685 28.107 21.29 46.889h-47.531c1.877-18.779 6.244-46.889 26.244-46.889zm811.27 0c18.765 0 20.631 28.176 21.258 46.889h-47.531c1.91-18.709 6.244-46.889 26.273-46.889M758.224 140.02h13.731c21.265 0 53.159 3.171 53.159 45.632-.019 16.264-5.647 31.893-19.392 39.395-8.128 4.983-18.746 7.49-27.531 7.49-8.121 0-14.343-1.217-19.967-4.95zm-476.331 38.105v415.094c5.016 0 9.988.641 15.018.641 4.983 0 10.02-.641 14.376-.641V178.125zm-59.362 0v406.306c10.607 3.142 19.395 5.004 29.393 6.236V178.125zm118.729.032v413.199c9.998-1.873 20.645-4.367 29.393-6.882V178.197H341.26zm1396.99 61.295c31.886 1.873 44.994 3.718 55.601 5.595 6.248 1.232 10.643 4.345 10.643 14.981 0 13.753-20.011 24.378-45.628 24.378-18.75 0-32.513-7.509-32.513-21.254 0-11.839 6.258-18.076 11.901-23.7zm-452.492 94.996-39.363 8.748v10.611l17.496 1.895V548.21l-18.141 3.762v12.509h64.415V551.33l-16.271-3.729V334.459h-8.136zm88.147 0-39.395 8.748v10.611l17.496 3.153v191.29l-18.108 3.729v12.51h63.736v-13.086l-15.626-3.761V447.593c8.763-7.501 17.536-14.376 29.393-14.376 18.124 0 17.497 18.131 17.497 30.647v84.995l-14.989 3.12v12.51h62.52v-13.086l-16.272-3.765v-98.149c0-22.53-12.484-38.142-36.887-38.142-16.877 0-30.035 8.73-41.262 18.105v-94.993h-8.103zm294.346 0c-10.607 0-20.612 9.368-20.612 20.613 0 10.625 9.367 20.004 20.612 20.004 10.607 0 19.392-9.383 19.392-20.649 0-10.607-8.143-19.968-19.392-19.968m-961.336 14.376v13.731l20.037 3.116v182.535l-20.001 3.766v12.509h71.231v-13.154l-18.104-3.729V365.675l18.746-3.762v-13.085zm-543.8 22.475v190.635c9.357 5.03 19.396 9.418 29.361 13.151V371.299zm237.531 0V575.73c9.98-4.374 20.041-8.763 30.039-13.796V371.307h-30.039zm623.845 37.497c-23.434 0-43.037 12.593-50.48 32.951h-.037c-2.099 5.73-3.255 12.097-3.255 18.99 0 26.244 15.616 36.195 25.596 42.446-16.213 10.017-28.103 21.251-28.103 33.123 0 10.016 6.87 16.304 17.496 20.003-11.253 6.889-24.345 16.873-24.345 32.514 0 23.153 28.744 31.865 54.992 31.865 48.151 0 75.029-23.737 75.029-53.126 0-26.853-16.257-35.652-43.124-36.888l-40.041-1.863c-2.515 0-10.61-1.221-10.61-6.273 0-4.356 5.631-9.338 11.897-13.763 5.624 1.891 11.905 2.54 17.496 2.54 21.888 0 51.869-14.995 51.869-50.618 0-7.308-1.641-13.188-4.506-18.954-1.808-3.66-4.057-7.195-6.747-11.081l25.632.642v-18.783l-36.242 1.257c-10.658.033-21.265-4.986-32.514-4.986zm145.614 0c-45.008 0-56.855 48.168-56.855 83.164 0 45.027 19.344 75.605 56.214 75.605 28.762 0 41.287-11.853 53.804-36.206l-13.764-5.66c-6.251 9.98-15.017 20-28.139 20-30.64 0-35.656-35.011-36.888-60.008h79.367c-.591-36.869-7.509-76.892-53.735-76.892zm386.918 0c-44.994 0-56.887 48.168-56.887 83.164 0 45.027 19.391 75.605 56.279 75.605 28.726 0 41.254-11.853 53.771-36.206l-13.764-5.66c-6.251 9.98-15.035 20-28.139 20-30.618 0-35.656-35.011-36.888-60.008h79.367c-.591-36.869-7.494-76.892-53.735-76.892zm209.968.645-39.395 9.969v10.611l18.104 3.152v115.001l-18.104 3.761v12.514h63.095v-13.122l-14.307-3.729V446.904c7.498-6.874 15.579-14.343 29.324-14.343 15.623 0 19.392 14.369 19.392 26.244v89.365l-17.493 3.765v12.51h62.483v-13.122l-15.017-3.729V447.546c8.766-8.14 16.931-14.981 29.426-14.981 16.876 0 18.105 17.489 18.105 25.628v89.977l-16.239 3.798v12.51h64.991v-13.159l-17.529-3.725V448.8h.029c0-24.98-15.615-37.497-39.395-37.497-17.496 0-30.608 8.774-42.483 20.649-6.215-13.14-19.989-20.036-34.988-20.036-14.996 0-29.39 6.871-41.904 18.105v-20.58h-8.102zm-926.308.036-38.75 9.966v12.542l18.138 2.479v113.808l-18.138 3.729v12.51h64.382v-13.152l-16.275-3.728V445.752a102 102 0 0 1 4.848-3.969c7.414-5.639 15.331-9.798 24.549-9.798 8.785 0 13.155 4.4 15.324 9.834 2.187 5.413 2.201 11.719 2.201 15.765v91.268l-16.307 3.153v12.509h63.193v-13.158l-16.271-3.725v-98.183c0-2.657-.16-5.234-.474-7.661-2.468-19.392-14.857-31.701-37.668-31.701-16.213 0-28.759 9.39-40.004 18.138v-18.75zm837.588 1.826-39.428 10.002v10.035l16.275 3.696V548.17l-16.275 3.798v12.51h63.77v-13.155l-16.884-3.729V411.303zm-654.426 10.647c12.481 0 18.131 8.953 20.613 19.837h.036c1.531 6.597 1.867 13.814 1.867 20.171 0 14.981-2.508 34.985-21.291 34.985-19.373 0-21.225-21.25-21.225-37.496 0-5.537.146-11.883 1.152-17.697h.036c1.859-10.672 6.704-19.796 18.82-19.796zm146.902 1.867c18.746 0 20.649 28.125 21.257 46.889h-47.531c1.874-18.764 6.244-46.889 26.274-46.889m386.918 0c18.783 0 20.631 28.125 21.291 46.889h-47.531c1.877-18.764 6.262-46.889 26.244-46.889zm-555.063 135.037c31.887 1.873 45.045 3.112 55.667 5.595 6.247 1.232 11.223 4.359 11.223 14.981 0 13.767-19.997 24.378-45.636 24.378-18.728 0-32.51-8.1-32.51-21.258 0-11.821 5.668-18.732 11.256-23.696"/></svg>