<svg xmlns="http://www.w3.org/2000/svg" viewBox="0 0 359 167" stroke-miterlimit="2" stroke-linejoin="round" fill-rule="evenodd" clip-rule="evenodd"><g fill-rule="nonzero" fill="#e11937"><path d="m89.048 32.143c-32.619 0-52.619 25.476-52.619 51.19 0 30.953 25.238 51.191 52.857 51.191 18.333 0 35.714-8.095 50.476-21.191v38.334c-15.476 9.285-36.667 15-53.095 15-47.143 0-86.667-38.334-86.667-83.334 0-47.619 39.762-83.333 86.905-83.333 18.095 0 39.285 5.476 53.095 12.381v37.619c-17.381-11.429-35-17.857-50.952-17.857z"></path><path d="m240 166.667c-47.381 0-87.381-36.905-87.381-83.334 0-46.904 39.762-83.333 89.524-83.333 18.095 0 40.476 4.762 54.286 11.19v37.381c-15.715-9.047-35.953-16.428-53.572-16.428-32.619 0-53.809 25.476-53.809 51.19 0 30.238 25 52.143 54.285 52.143 6.191 0 12.143-.476 19.762-3.333v-30h-26.666v-31.667h60.952v84.286c-17.381 7.857-36.905 11.905-57.381 11.905z"></path><path d="m323.929 3.333h34.286v160h-34.286z"></path></g></svg>