<svg xmlns="http://www.w3.org/2000/svg" width="239" height="49" viewBox="0 0 239 49">
    <g fill="none" fill-rule="evenodd">
        <path fill="#3FB4E5" d="M36.962 17.782c-.877 0-1.816-.688-1.816-1.563 0-.183.063-1.062.063-1.185 0-.252-.502-.438-.876-.438-2.062 0-3.315 2.311-4.816 8.181h3.815l-.564 1.627h-3.686l-1.506 5.826c-2.186 7.496-5.389 11.267-9.97 11.54-2.313.137-3.843-1.336-3.927-2.772-.072-1.183.806-2.24 1.989-2.31.814-.048 1.666.592 1.723 1.525.014.25-.057 1.067-.05 1.256.017.313.282.483.78.452 2.62-.157 3.449-2.854 4.756-8.038l1.993-7.412c-1.213.569-2.476.827-3.925.827-4.38 0-7.255-3-7.255-7.124 0-6.746 6.506-12.996 12.7-12.996 3 0 5.5 1.435 5.5 3.685 0 1.501-1.25 2.812-2.935 2.812-1.379 0-2.13-.75-2.13-1.935 0-.937.751-1.565.751-2.064 0-.561-.624-.937-1.563-.937-3.44 0-7.444 5.31-7.444 10.683 0 3.3 1.8 5.232 4.53 5.248 1.701-.112 2.284-1.156 4.48-4.888 1.625-2.812 3.938-4.686 7.44-4.686 2.378 0 3.88 1.062 3.88 2.685 0 1.126-.813 2.001-1.937 2.001M24.341 0C10.899 0 0 10.887 0 24.322 0 37.75 10.899 48.637 24.341 48.637c13.444 0 24.342-10.887 24.342-24.315C48.683 10.887 37.785 0 24.341 0"/>
        <path fill="#333F48" d="M61.773 29.258c-.53.681-1.344 1.211-2.746 1.211h-.569c-2.083 0-3.409-1.324-3.409-3.217v-5.867c0-1.893 1.326-3.217 3.41-3.217h.568c1.346 0 2.159.492 2.69 1.135.265.341.455.682.455.757 0 .075-.039.134-.114.17l-.986.493c-.114.056-.246.132-.321.132-.057 0-.114-.038-.152-.113-.341-.682-.947-1.06-1.572-1.06h-.569c-.927 0-1.704.776-1.704 1.703v5.867c0 .927.777 1.703 1.704 1.703h.569c.643 0 1.231-.378 1.592-1.098.037-.075.094-.113.15-.113.077 0 .171.075.303.132l1.005.51c.075.04.113.078.113.134 0 .095-.17.417-.417.738M72.57 21.385c0-.927-.776-1.703-1.706-1.703h-.568c-.927 0-1.705.776-1.705 1.703v5.868c0 .927.778 1.703 1.705 1.703h.568c.93 0 1.706-.776 1.706-1.703v-5.868zm-1.706 9.084h-.568c-2.083 0-3.408-1.325-3.408-3.216v-5.868c0-1.892 1.325-3.217 3.408-3.217h.568c2.086 0 3.411 1.325 3.411 3.217v5.868c0 1.891-1.325 3.216-3.41 3.216zM88.688 30.28h-1.326c-.132 0-.19-.058-.19-.19V26.8c0-1.496.133-3.938.172-4.393l-.076-.018c-.077.285-.265.89-.455 1.325l-2.141 4.75c-.038.076-.094.113-.17.113h-.645c-.074 0-.133-.037-.17-.112l-2.14-4.75c-.19-.418-.38-1.041-.455-1.326l-.075.018c.038.455.17 2.897.17 4.393v3.291c0 .132-.056.19-.19.19h-1.325c-.133 0-.19-.058-.19-.19V18.546c0-.133.057-.189.19-.189h1.211c.077 0 .134.038.172.113l2.86 6.757c.075.17.189.548.227.758h.057c.038-.21.151-.532.247-.758l2.859-6.757c.04-.075.095-.113.17-.113h1.213c.134 0 .19.056.19.189V30.09c0 .132-.056.19-.19.19M100.81 21.575c0-.927-.776-1.703-1.705-1.703h-2.083c-.135 0-.19.057-.19.188v3.217c0 .133.055.19.19.19h2.083c.929 0 1.705-.775 1.705-1.703v-.189zm-1.705 3.406h-2.083c-.135 0-.19.057-.19.19v4.92c0 .133-.056.19-.189.19h-1.326c-.133 0-.19-.057-.19-.19V18.547c0-.132.057-.19.19-.19h3.788c2.083 0 3.41 1.345 3.41 3.408 0 1.834-1.327 3.217-3.41 3.217zM110.602 30.374h-.57c-2.082 0-3.409-1.324-3.409-3.216v-8.706c0-.132.057-.19.19-.19h1.326c.132 0 .19.058.19.19v8.706c0 .927.775 1.702 1.704 1.702h.57c.927 0 1.704-.775 1.704-1.702v-8.706c0-.132.058-.19.19-.19h1.324c.133 0 .19.058.19.19v8.706c0 1.892-1.325 3.216-3.409 3.216M125.565 19.871h-2.178c-.133 0-.19.057-.19.19v10.03c0 .133-.057.19-.19.19h-1.326c-.132 0-.19-.057-.19-.19v-10.03c0-.133-.056-.19-.189-.19h-2.178c-.132 0-.19-.057-.19-.189v-1.136c0-.132.058-.188.19-.188h6.44c.134 0 .19.056.19.188v1.136c0 .132-.056.19-.19.19M137.592 30.28h-6.44c-.132 0-.19-.058-.19-.19V18.546c0-.133.058-.189.19-.189h6.44c.134 0 .19.056.19.189v1.136c0 .133-.056.188-.19.188h-4.735c-.132 0-.19.058-.19.19v3.217c0 .134.058.189.19.189h3.882c.133 0 .19.057.19.19v1.136c0 .131-.057.188-.19.188h-3.882c-.132 0-.19.058-.19.19v3.406c0 .133.058.19.19.19h4.735c.134 0 .19.056.19.189v1.135c0 .132-.056.19-.19.19M149.524 21.575c0-.927-.776-1.704-1.705-1.704h-2.082c-.135 0-.19.057-.19.189v3.217c0 .132.055.19.19.19h2.082c.929 0 1.705-.776 1.705-1.703v-.19zm1.63 8.706h-1.46c-.073 0-.149-.058-.17-.133l-1.76-5.053c-.02-.076-.077-.114-.154-.114h-1.873c-.135 0-.19.057-.19.19v4.92c0 .132-.058.19-.19.19h-1.325c-.134 0-.19-.058-.19-.19V18.546c0-.132.056-.189.19-.189h3.787c2.083 0 3.41 1.325 3.41 3.407v.19c0 1.021-.908 2.213-1.648 2.553-.075.039-.113.077-.113.152 0 .057.077.247.153.455l1.57 4.542c.075.227.152.396.152.473 0 .094-.056.152-.189.152zM163.588 19.871h-4.737c-.133 0-.188.057-.188.19v3.216c0 .133.055.19.188.19h3.885c.131 0 .188.056.188.19v1.135c0 .132-.057.19-.188.19h-3.885c-.133 0-.188.056-.188.187v4.923c0 .132-.056.189-.189.189h-1.327c-.132 0-.189-.057-.189-.19V18.547c0-.132.057-.188.189-.188h6.44c.134 0 .19.056.19.188v1.136c0 .132-.056.19-.19.19M173.058 30.374h-.569c-2.083 0-3.409-1.324-3.409-3.216v-8.706c0-.132.056-.19.19-.19h1.326c.132 0 .189.058.189.19v8.706c0 .927.776 1.702 1.704 1.702h.569c.928 0 1.705-.775 1.705-1.702v-8.706c0-.132.056-.19.189-.19h1.326c.132 0 .19.058.19.19v8.706c0 1.892-1.327 3.216-3.41 3.216M187.642 19.871h-2.179c-.133 0-.188.057-.188.19v10.03c0 .133-.058.19-.19.19h-1.325c-.134 0-.19-.057-.19-.19v-10.03c0-.133-.058-.19-.19-.19h-2.18c-.132 0-.188-.057-.188-.189v-1.136c0-.132.056-.188.189-.188h6.44c.134 0 .19.056.19.188v1.136c0 .132-.056.19-.19.19M196.734 30.374h-.57c-2.082 0-3.41-1.324-3.41-3.216v-8.706c0-.132.057-.19.19-.19h1.326c.133 0 .19.058.19.19v8.706c0 .927.777 1.702 1.705 1.702h.569c.927 0 1.705-.775 1.705-1.702v-8.706c0-.132.056-.19.188-.19h1.326c.133 0 .189.058.189.19v8.706c0 1.892-1.325 3.216-3.408 3.216M211.715 21.575c0-.927-.776-1.704-1.706-1.704h-2.083c-.133 0-.19.057-.19.189v3.217c0 .132.057.19.19.19h2.083c.93 0 1.706-.776 1.706-1.703v-.19zm1.63 8.706h-1.46c-.075 0-.15-.058-.17-.133l-1.761-5.053c-.02-.076-.077-.114-.153-.114h-1.875c-.133 0-.19.057-.19.19v4.92c0 .132-.055.19-.187.19h-1.328c-.133 0-.188-.058-.188-.19V18.546c0-.132.055-.189.188-.189h3.788c2.085 0 3.411 1.325 3.411 3.407v.19c0 1.021-.91 2.213-1.648 2.553-.075.039-.114.077-.114.152 0 .057.077.247.152.455l1.573 4.542c.074.227.15.396.15.473 0 .094-.057.152-.188.152zM225.78 30.28h-6.441c-.133 0-.19-.058-.19-.19V18.546c0-.133.057-.189.19-.189h6.44c.133 0 .19.056.19.189v1.136c0 .133-.057.188-.19.188h-4.736c-.132 0-.19.058-.19.19v3.217c0 .134.058.189.19.189h3.884c.131 0 .189.057.189.19v1.136c0 .131-.058.188-.19.188h-3.883c-.132 0-.19.058-.19.19v3.406c0 .133.058.19.19.19h4.736c.133 0 .19.056.19.189v1.135c0 .132-.057.19-.19.19M235.233 30.47h-.797c-1.515 0-2.369-.607-2.859-1.383-.17-.265-.267-.454-.267-.55 0-.075.02-.112.097-.15l.964-.491c.096-.056.267-.152.34-.152.06 0 .115.038.153.133.322.7.946 1.078 1.572 1.078h.797c.927 0 1.703-.776 1.703-1.702 0-1.194-1.098-1.686-2.292-2.235-1.478-.661-3.125-1.419-3.125-3.633 0-1.893 1.326-3.217 3.41-3.217h.304c1.515 0 2.367.624 2.878 1.381.113.17.265.417.265.51 0 .077-.038.133-.113.172l-1.024.51c-.113.058-.207.114-.283.114-.056 0-.114-.038-.152-.114-.34-.681-.946-1.06-1.571-1.06h-.305c-.927 0-1.704.777-1.704 1.704 0 1.099 1.194 1.514 2.461 2.1 1.422.645 2.956 1.514 2.956 3.768 0 1.89-1.326 3.216-3.408 3.216"/>
        <path fill="#FFF" d="M36.962 17.782c-.877 0-1.816-.688-1.816-1.563 0-.183.063-1.062.063-1.185 0-.252-.502-.438-.876-.438-2.062 0-3.315 2.311-4.816 8.181h3.815l-.564 1.627h-3.686l-1.506 5.826c-2.186 7.496-5.389 11.267-9.97 11.54-2.313.137-3.843-1.336-3.927-2.772-.072-1.183.806-2.24 1.989-2.31.814-.048 1.666.592 1.723 1.525.014.25-.057 1.067-.05 1.256.017.313.282.483.78.452 2.62-.157 3.449-2.854 4.756-8.038l1.993-7.412c-1.213.569-2.476.827-3.925.827-4.38 0-7.255-3-7.255-7.124 0-6.746 6.506-12.996 12.7-12.996 3 0 5.5 1.435 5.5 3.685 0 1.501-1.25 2.812-2.935 2.812-1.379 0-2.13-.75-2.13-1.935 0-.937.751-1.565.751-2.064 0-.561-.624-.937-1.563-.937-3.44 0-7.444 5.31-7.444 10.683 0 3.3 1.8 5.232 4.53 5.248 1.701-.112 2.284-1.156 4.48-4.888 1.625-2.812 3.938-4.686 7.44-4.686 2.378 0 3.88 1.062 3.88 2.685 0 1.126-.813 2.001-1.937 2.001"/>
    </g>
</svg>
