<svg xmlns="http://www.w3.org/2000/svg" viewBox="0 0 1146 1250" stroke-miterlimit="2" stroke-linejoin="round" fill-rule="evenodd" clip-rule="evenodd"><path fill-rule="nonzero" d="m544.372 751.511c.388-4.7-.48-4.995-2.604-.866-10.011 19.446-17.159 35.28-27.558 52.754-12.782 21.474-24.086 38.431-33.894 50.91-1.348 1.696-9.679 11.668-25.028 29.898-1.718 2.046-4.728 3.041-9.032 2.967-25.988-.497-96.952-.608-212.874-.368-11.47.018-23.753-.166-36.83-.572-64.666-2.027-128.87-1.935-192.594.258-.831.019-1.754-.055-2.789-.221-1.089-.203-1.422-.811-.979-1.843 2.106-4.811 5.726-10.543 7.758-14.377 43.683-82.781 67.122-127.221 70.355-133.359 1.163-2.157 3.343-6.304 6.557-12.424.332-.608 1.182-.7 1.625-.166 2.457 2.949 4.692 5.935 6.668 8.958 13.225 20.165 26.081 38.1 38.585 53.805 3.159 3.981 24.271 26.911 29.923 33.713 5.522 6.617 12.818 14.045 21.887 22.285 14.093 12.81 28.685 22.764 43.813 29.86 2.715 1.272 5.449 1.254 8.219-.092 11.212-5.419 22.442-13.087 33.654-22.985 19.006-16.811 36.645-36.202 52.955-58.173 24.547-33.105 45.899-67.703 64.019-103.793 15.201-30.285 27.743-63.814 37.625-100.587 3.195-11.87 5.91-23.851 8.145-35.925 11.692-62.91 13.17-126.299 4.415-190.168-5.006-36.551-13.964-72.919-26.875-109.12-4.414-12.405-18.064-42.837-18.655-44.054-18.859-38.56-40.617-74.688-65.312-108.401-19.302-26.377-41.356-49.713-66.735-70.209-10.38-8.369-18.452-14.046-24.196-17.014-2.106-1.087-4.6-1.106-7.462-.037-10.547 3.945-19.598 10.433-30.163 17.714-5.707 3.926-10.621 7.815-14.777 11.649-23.439 21.659-40.746 39.612-51.939 53.823-17.196 21.88-33.302 43.446-48.319 64.735-.573.83-1.829.719-2.254-.203l-72.848-158.279c-.498-1.069-.147-1.604 1.035-1.604h449.058c1.957 0 3.805.903 4.987 2.452 5.135 6.672 11.064 13.492 16.014 20.496 5.079 7.208 28.574 36.792 35.445 44.294 2.678 2.894 28.223 40.717 36.35 56.053 11.212 21.179 21.186 41.289 29.922 60.293 3.602 7.833 15.83 39.464 18.213 44.68 3.786 8.276 10.38 21.935 19.8 40.994.536 1.106 9.383-9.456 11.009-11.926 6.058-9.106 32.859-39.556 46.767-58.099 5.892-7.871 9.679-12.829 11.36-14.875.387-.479.868-.793 1.477-.959 2.18-.571 4.636-.866 7.388-.866 136.646-.055 285.113-.055 445.42 0 .517 0 .849.553.609 1.014-1.053 2.027-2.235 4.442-3.528 7.244-13.28 28.736-36.184 78.651-68.692 149.727-.462 1.032-.905 1.788-1.33 2.267-.462.516-1.293.461-1.699-.11-14.093-19.926-29.073-40.073-44.976-60.459-7.832-10.046-18.397-21.806-31.696-35.28-11.507-11.668-20.391-20.147-26.671-25.437-9.069-7.649-19.764-15.077-32.121-22.285-3.601-2.101-13.058-7.262-17.122-4.81-10.694 6.525-21.666 14.635-32.878 24.33-19.652 16.995-37.015 35.317-52.068 54.985-16.975 22.174-32.712 45.933-47.211 71.278-6.576 11.502-13.927 24.847-22.054 40.035-.037.056-11.304 19.705-13.262 24.313-27.965 65.914-41.928 137.451-42.039 209.172-.019 15.538.166 27.814.572 36.865 3.029 68.292 18.582 133.986 46.676 197.117 16.494 37.068 38.012 72.587 61.211 105.876 9.993 14.341 20.429 27.815 31.345 40.441 2.918 3.373 45.142 43.501 64.315 55.205 3.269 1.991 18.193-3.262 22.054-5.714 15.903-10.064 30.716-21.861 44.421-35.39 20.004-19.76 40.396-44.404 61.194-73.933 12.8-18.156 20.428-29.16 22.903-33.012.351-.572.739-.59 1.164-.056 1.718 2.175 25.803 48.238 36.498 67.076 6.575 11.576 12.394 22.414 17.455 32.497 3.564 7.133 30.79 56.532 31.584 60.053.277 1.198-.203 1.806-1.44 1.806-230.976-.055-380.237 0-447.765.129-2.863.019-5.154-.922-6.871-2.82-23.495-25.75-43.647-53.694-60.436-83.831-.314-.571-12.265-23.188-17.067-32.718-6.243-12.368-12.708-26.1-19.394-41.233-21.519-48.717-36.812-97.01-45.863-144.88-.351-1.917-.794-3.594-1.33-5.013-.905-2.452-1.311-4.277-1.219-5.475z"></path><path d="m397.912 951.616-.099 14.173c-.016 2.253-1.858 4.07-4.112 4.055l-10.488-.074c-2.254-.015-4.07-1.858-4.055-4.111l.1-14.173c.015-2.254 1.858-4.071 4.111-4.055l10.489.073c2.253.016 4.07 1.858 4.054 4.112z"></path><path fill-rule="nonzero" d="m324.516 1004.68h-11.525c-1.367 0-2.051-.682-2.051-2.065v-12.257c0-1.586.795-2.378 2.365-2.378h11.082c.72 0 1.293-.572 1.293-1.291v-17.4c0-.921.683-1.677 1.607-1.788 4.599-.516 9.641-1.603 15.109-3.262.96-.295 1.921.424 1.921 1.419v21.05c0 .792.628 1.419 1.422 1.419h17.713c1.607 0 2.9 1.29 2.9 2.894v11.502c0 1.456-.72 2.175-2.179 2.175h-18.065c-1.311 0-1.976.664-1.994 1.972-.241 12.627-.074 29.548.498 50.745.166 6.433.813 11.207 1.94 14.322.96 2.71 2.253 4.074 5.264 4.534 4.636.701 8.644.369 12.006-.977 1.754-.718 2.623-.129 2.623 1.77v10.101c0 2.175-1.053 3.539-3.159 4.074-8.256 2.101-26.191 3.17-31.659-4.903-2.308-3.41-3.805-7.3-4.488-11.668-.979-6.396-1.478-13.309-1.459-20.718.018-19.17 0-35.243-.093-48.201 0-.59-.48-1.069-1.071-1.069z"></path><path fill-rule="nonzero" d="m67.276 1073.32 1.2 11.944c.204 1.973-.646 3.263-2.512 3.908-19.985 6.839-45.271 3.668-56.982-16.22-7.887-13.382-9.734-29.179-7.591-44.404 1.256-8.94 3.971-16.332 8.146-22.156 13.188-18.433 33.561-22.156 54.414-16.313 1.976.553 3.362 2.341 3.362 4.405v12.756c0 1.566-.665 1.935-1.995 1.069-2.383-1.53-5.264-2.673-8.626-3.466-18.009-4.221-29.424 1.788-34.208 18.064-2.973 10.046-3.361 20.46-1.2 31.225 1.662 8.239 5.763 14.469 12.32 18.654 9.605 6.138 20.742 4.387 30.587-1.069 1.829-1.014 2.863-.48 3.085 1.603z"></path><path fill-rule="nonzero" d="m101.169 999.428c1.423-1.695 2.919-3.262 4.489-4.718 5.892-5.42 13.151-7.631 21.777-6.636.314.037.48.203.498.516.481 5.29.591 10.857.333 16.7 0 .276-.13.387-.407.35-10.805-1.862-18.618 1.917-23.476 11.336-1.791 3.521-2.9 10.746-3.121 15.373-.831 18.119-1.09 37.27-.776 57.472.018.848-.665 1.549-1.533 1.549h-15.589c-.776 0-1.404-.627-1.404-1.401v-99.259c0-1.77.886-2.655 2.678-2.655h12.375c2.125 0 3.196 1.051 3.196 3.171v7.852c0 .995.314 1.106.96.35z"></path><path fill-rule="nonzero" d="m157.08 1045.23c-.702 0-1.275.516-1.367 1.198-1.219 9.917 2.438 22.303 11.175 27.796 6.317 3.963 13.483 4.977 21.518 3.042 3.122-.756 8.755-3.521 16.864-8.258.258-.147.572.037.572.332v16.939c0 .258-.147.498-.369.609-8.921 4.442-19.283 6.322-31.123 5.658-28.149-1.585-37.588-24.404-38.53-49.159-.48-12.516 1.422-24.018 5.708-34.487 9.715-23.76 43.646-29.456 60.325-9.622 9.383 11.152 10.491 30.524 9.198 44.92-.055.682-.443 1.032-1.145 1.032zm.074-12.94 34.725-.073c.738 0 1.311-.59 1.311-1.309v-5.069c-.018-13.069-7.979-23.649-17.769-23.63h-1.884c-9.808.018-17.713 10.635-17.695 23.704v5.069c0 .719.591 1.308 1.312 1.308z"></path><path fill-rule="nonzero" d="m280.944 1080.2c-8.737 9.677-19.265 13.75-31.548 12.202-17.455-2.212-26.117-12.35-25.97-30.414.13-18.451 12.819-30.229 30.311-32.459 7.425-.94 14.942-1.53 22.552-1.752 1.755-.055 3.196-1.364 3.417-3.078 1.423-11.115-1.939-18.008-10.103-20.681-11.396-3.742-25.379.737-33.653 9.64-1.22 1.309-1.921 1.069-2.088-.719l-1.625-15.944c-.055-.59.166-1.032.683-1.345 7.259-4.387 14.481-6.949 21.629-7.705 11.969-1.272 21.63.332 28.981 4.792 13.557 8.221 15.09 22.304 14.961 36.534-.314 33.104-.443 52.956-.388 59.555.019 1.806-.886 2.709-2.678 2.709h-11.415c-1.681 0-2.512-.829-2.512-2.506v-8.608c0-.553-.185-.627-.554-.221zm-1.736-37.658c-.074-.59-.407-.922-1.016-1.014-14.13-1.806-37.089 2.581-36.055 21.308.388 7.17 3.306 11.815 8.718 13.935 6.871 2.691 13.299 1.788 19.302-2.691 11.027-8.276 10.732-18.783 9.051-31.538z"></path><path fill-rule="nonzero" d="m451.65 1067.9c.498 2.415 1.071 2.433 1.717.055l20.669-75.647c.406-1.493 1.773-2.543 3.325-2.543h13.483c.721 0 1.275.59 1.238 1.308-.166 2.913-.647 5.751-1.459 8.516-.019.037-8.959 30.266-26.838 90.67-.166.608-.573.921-1.201.977-6.077.534-12.412.534-19.025-.037-1.237-.111-2.031-.756-2.382-1.936-6.373-21.713-14.334-48.109-23.92-79.167-2.161-7.041-3.86-13.345-5.061-18.894-.461-2.156.407-3.225 2.605-3.225h13.04c2.069 0 3.343.995 3.842 2.986 2.66 10.801 8.33 31.906 17.03 63.315.812 2.95 1.921 8.737 2.937 13.622z"></path><path fill-rule="nonzero" d="m521.173 1045.12c-.997 0-1.792.83-1.755 1.825.444 10.212 2.291 18.986 9.513 25.548 7.351 6.654 19.228 7.188 28.223 3.686 2.863-1.124 5.947-2.636 9.254-4.571 1.643-.959 2.696-.516 3.158 1.327l2.124 8.627c.591 2.414-.665 4.884-2.974 5.824-14.314 5.77-27.576 6.894-39.767 3.373-16.217-4.663-26.043-21.603-27.595-37.971-1.385-14.488-.369-27.022 4.211-39.759 1.644-4.552 2.605-7.391 2.863-8.478.647-2.784 1.773-4.94 3.38-6.489 4.692-4.534 7.74-7.797 13.798-8.552 1.755-.203 4.747-.59 8.977-1.143 23.845-3.078 36.849 10.562 40.321 32.183.831 5.106 1.201 10.543 1.127 16.276-.056 4.11-1.57 7.004-4.544 8.682-1.644.94-4.488 1.235-8.57.903-12.062-.977-25.989-1.42-41.744-1.291zm.942-30.008c-2.918 4.056-2.9 10.931-2.697 15.926.019.664.37 1.014 1.035 1.051 13.576.59 22.755.442 27.521-.443 1.164-.221 3.491-1.548 6.945-4 3.805-2.672 4.119-6.377 2.216-10.174-1.717-3.41-3.047-7.097-5.652-9.954-5.301-5.806-12.024-7.041-20.17-3.705-.905.369-2.9 2.673-6.003 6.912-.147.203-1.219 1.659-3.195 4.387z"></path><path d="m397.91 991.498-.168 96.48c-.004 1.932-1.575 3.497-3.506 3.494l-11.582-.02c-1.932-.004-3.497-1.575-3.494-3.506l.169-96.48c.003-1.932 1.574-3.498 3.506-3.494l11.582.02c1.931.003 3.497 1.574 3.493 3.506z"></path><path d="m673.014 1108.1.049 14.202c.008 2.185-1.76 3.965-3.944 3.972l-12.549.044c-2.185.008-3.964-1.76-3.972-3.945l-.05-14.202c-.007-2.184 1.76-3.964 3.945-3.972l12.548-.044c2.185-.007 3.965 1.76 3.973 3.945z"></path><path d="m940.964 1110.04-.018 10.654c-.004 2.207-1.8 3.997-4.007 3.993l-8.846-.016c-2.207-.003-3.996-1.799-3.993-4.007l.019-10.653c.004-2.208 1.799-3.997 4.007-3.993l8.845.015c2.208.004 3.997 1.799 3.993 4.007z"></path><g fill-rule="nonzero"><path d="m869.252 1161.17h-12.228c-1.994 0-2.992-.995-2.992-2.967v-8.94c0-1.788.887-2.673 2.678-2.673h12.967c.646 0 .96-.313.96-.958v-17.437c0-1.917.942-3.097 2.808-3.558l13.428-3.299c1.459-.35 2.198.221 2.198 1.732v22.654c0 .498.406.903.905.903h18.748c.443 0 .665.221.665.664v13.603c0 .24-.148.369-.425.369h-18.138c-.795 0-1.423.626-1.441 1.419-.591 25.455-.499 46.192.296 62.246.369 7.373 4.229 10.378 11.562 8.996 2.937-.553 5.08-1.106 6.391-1.659 1.404-.59 2.106-.129 2.106 1.382v11.797c0 1.438-.702 2.304-2.125 2.617-13.779 2.986-31.086 2.857-35.703-12.313-1.127-3.686-1.644-8.497-1.533-14.451.369-19.907.369-39.574.018-59.002-.018-.756-.388-1.125-1.145-1.125z"></path><path d="m1037.56 1158.28c.868 3.041 3.824 18.192 4.082 19.612 1.238 7.059 1.33 16.386.259 27.999-1.053 11.667-3.509 20.515-7.333 26.561-8.81 13.935-26.468 20.386-42.575 16.036-15.977-4.295-25.822-15.52-29.516-33.658-2.013-9.935-2.309-19.851-.849-29.75 1.145-7.778 4.71-16.239 7.61-24.386.96-2.654 7.572-7.447 9.567-9.05 12.376-9.917 26.949-12.958 43.739-9.106 5.984 1.364 13.446 10.304 15.016 15.742zm-13.465 49.601c1.459-13.713 2.18-25.787-.443-38.431-.646-3.06-3.694-9.235-6.483-10.046-7.536-2.175-18.748-.664-25.508 3.834-.979.645-3.14 2.58-6.502 5.788-2.032 1.935-3.288 6.101-3.768 8.792-2.992 17.198-5.504 60.035 23.07 56.496 13.539-1.678 18.341-14.267 19.634-26.433z"></path><path d="m119.012 1144.22c19.616.073 33.413 11.852 38.327 30.155 1.81 6.728 2.696 14.359 2.641 22.893-.019 8.553-.961 16.184-2.826 22.875-5.061 18.267-18.951 29.934-38.548 29.861-19.616-.074-33.414-11.852-38.327-30.156-1.81-6.728-2.697-14.359-2.66-22.893.037-8.553.979-16.165 2.845-22.875 5.061-18.266 18.951-29.934 38.548-29.86zm-22.645 53.233c-.055 14.303 3.14 36.533 22.349 36.607 19.21.055 22.553-22.156 22.59-36.46.055-14.304-3.14-36.533-22.331-36.607-19.209-.055-22.571 22.156-22.608 36.46z"></path><path d="m195.222 1157.52c5.282-8.166 12.8-12.516 22.571-13.05 10.547-.59 18.655 3.852 24.307 13.345.351.571.739.626 1.201.129 4.895-5.18 8.81-10.286 15.109-12.129 8.589-2.507 16.402-1.898 23.439 1.807 13.945 7.354 16.236 21.179 16.402 35.648.166 14.47.111 35.427-.166 62.873-.019 1.272-.665 1.917-1.94 1.917h-14.758c-1.126 0-1.699-.571-1.699-1.696.018-17.639-.018-36.312-.111-55.979-.037-12.073.129-33.013-18.341-29.308-8.737 1.751-13.428 7.687-14.038 17.806-1.034 16.829-1.237 37.566-.591 62.21.019.94-.074 2.691-.277 5.216-.092 1.161-.739 1.751-1.902 1.751h-14.851c-1.108 0-1.662-.553-1.662-1.659-.019-32.92-.093-56.145-.222-69.693-.074-6.912-2.493-11.631-7.24-14.175-4.452-2.377-9.032-2.469-13.742-.276-4.267 1.991-7.259 5.087-8.996 9.272-.868 2.082-1.293 6.101-1.311 12.018-.037 20.109.018 41.03.166 62.781 0 .958-.776 1.751-1.736 1.751h-15.497c-.702 0-1.274-.572-1.274-1.272-.056-13.566-.093-36.073-.148-67.5-.019-7.355-.591-17.29-1.718-29.787-.185-2.046.757-3.078 2.826-3.078h12.782c1.828 0 2.752.922 2.752 2.746v8.129c0 .83.221.885.665.203z"></path><path d="m386.559 1157.19c1.348-1.382 2.955-4.295 4.747-5.935 9.826-9.032 26.672-8.885 36.683-2.009 6.04 4.147 9.697 10.045 10.971 17.676 1.108 6.581 1.626 12.35 1.533 17.309-.314 19.188-.314 39.887-.018 62.062.018.995-.794 1.806-1.792 1.806h-15.072c-1.016 0-1.847-.829-1.847-1.843.037-34.598.037-56.146.019-64.643-.019-10.746-3.011-22.303-16.569-20.847-16.826 1.825-16.217 17.99-16.42 31.907-.277 19.372-.314 37.16-.111 53.325.019 1.161-.942 2.12-2.105 2.12h-14.315c-1.386 0-2.087-.701-2.106-2.083-.203-21.585-.148-44.589.148-68.993.037-3.3-.979-6.857-3.066-10.636-3.805-6.949-15.423-7.022-20.78-2.875-5.061 3.908-7.628 9.843-7.702 17.787-.166 18.377-.148 40.275.055 65.694 0 .553-.443.995-.997.995h-16.901c-.535 0-.794-.258-.794-.793.093-23.372.111-45.546.037-66.504-.055-11.004-.591-21.824-1.625-32.46-.093-.995.702-1.843 1.699-1.843h15.312c.794 0 1.182.387 1.182 1.18v9.99c0 .94.222 1.014.684.184 3.103-5.732 7.443-9.529 13.021-11.372 7.98-2.636 17.067-2.986 24.677 1.714 2.715 1.677 6.188 4.755 10.381 9.271.295.314.646.258 1.071-.184z"></path><path d="m574.923 1155.29c0 1.125.369 1.272 1.089.406 6.151-7.189 13.207-10.912 21.186-11.189 17.196-.571 27.835 7.337 31.917 23.742.832 3.41 1.275 10.027 1.293 19.814.019 4.056.093 23.52.259 58.376.018.885-.72 1.604-1.607 1.604h-16.014c-.517 0-.924-.406-.924-.922.019-19.041-.092-38.376-.332-58.007-.129-10.525-.905-24.128-11.637-27.851-6.243-2.157-15.552.866-19.578 6.672-3.011 4.35-4.6 8.756-4.803 13.235-.831 18.377-.979 40.183-.443 65.435.018.774-.61 1.419-1.385 1.419h-16.587c-.425 0-.776-.35-.776-.792v-98.854c0-1.087.887-1.972 1.977-1.972h13.095c.831 0 1.386.387 1.681 1.143 1.053 2.636 1.589 5.216 1.589 7.741z"></path><path d="m754.051 1164.69c-10.455-5.087-26.801-6.672-35.279 3.189-3.676 4.258-6.04 8.94-7.111 14.009-3.122 14.764-2.642 36.348 9.697 46.597 3.177 2.617 7.148 4.203 11.895 4.756 8.238.958 15.626-1.844 23.254-5.567.776-.387 1.681.203 1.681 1.069v14.93c0 .94-.591 1.788-1.459 2.102-20.853 7.668-44.773 4.626-57.555-14.433-8.385-12.497-8.958-28.423-8.053-43.206.314-5.161 1.441-10.027 3.343-14.58 9.513-22.727 26.949-32.109 52.309-28.165 4.064.627 7.278 1.585 9.66 2.876 1.109.59 1.718 1.825 1.533 3.06l-1.791 12.239c-.203 1.345-.905 1.714-2.124 1.124z"></path><path d="m825.2 1238.57c-.444-.037-1.755.811-3.935 2.543-11.47 9.143-24.64 11.244-38.197 5.843-10.935-4.368-15.922-16.478-15.996-27.556-.129-18.617 14.555-31.262 32.453-33.16 9.291-.977 16.569-1.586 21.87-1.788 2.05-.092 3.158-1.162 3.287-3.226 1.256-18.985-12.523-24.681-28.703-20.405-6.926 1.825-12.671 5.106-17.252 9.88-.073.074-.203.037-.221-.055-1.238-5.548-1.995-11.152-2.254-16.848-.018-.276.13-.553.37-.7 9.512-5.935 19.449-8.811 29.83-8.645 16.309.277 29.867 7.226 34.429 23.575.794 2.821 1.441 8.498 1.94 17.014.35 5.99.461 11.704.332 17.16-.351 15.281-.332 29.695.092 43.243.056 1.769-.812 2.654-2.586 2.654h-12.338c-1.496 0-2.198-.737-2.143-2.23l.259-6.175c.019-.682-.388-1.069-1.237-1.124zm-1.109-39.723c-.092-.423-.443-.737-.886-.774-7.038-.479-14.37.369-21.999 2.526-9.124 2.58-15.312 9.124-15.312 18.414.019 14.672 15.017 19.667 26.432 13.142 6.594-3.779 10.546-9.474 11.895-17.105.923-5.309.886-10.71-.13-16.203z"></path><path d="m1077.97 1157.97c1.866-1.511 4.174-4.626 6.336-6.433 9.179-7.631 19.689-9.253 31.566-4.884 17.436 6.433 17.99 23.796 17.381 39.574-.13 3.134-.222 23.115-.296 59.961 0 1.051-.868 1.917-1.921 1.917h-12.948c-1.108 0-1.699-.553-1.773-1.659-1.422-20.57-1.995-43.519-1.736-68.864.055-4.516-1.053-8.405-3.306-11.667-2.235-3.263-5.468-5.143-9.66-5.604-12.487-1.419-21.87 7.834-22.147 20.018-.203 9.99-.24 31.925-.074 65.804.019 1.309-.646 1.972-1.958 1.972h-15.201c-.739 0-1.348-.608-1.367-1.345-.018-34.193-.055-58.837-.111-73.896-.036-10.857-.443-18.654-1.219-23.354-.351-2.083.518-3.134 2.642-3.134h12.449c1.773 0 2.66.885 2.66 2.673v8.608c0 .571.221.682.683.313z"></path><path d="m68.55 1243.84c.056.387-.092.664-.443.848-4.193 2.341-8.792 3.797-13.835 4.387-18.895 2.193-33.413-3.281-43.516-16.46-10.492-13.696-11.711-34.1-8.46-50.726 3.214-16.387 14.241-31.981 31.123-35.741 9.753-2.157 20.078-1.88 30.975.829 1.663.424 2.826 1.917 2.826 3.632v12.22c0 1.844-.849 2.415-2.549 1.696-7.166-3.023-14.942-4.055-23.31-3.078-11.377 1.309-17.233 10.267-19.652 20.829-2.512 11.004-2.42 21.658.258 31.925 2.087 8.018 6.908 13.861 14.426 17.529 7.517 3.668 17.621 2.452 30.273-3.613.185-.092.296-.037.314.166z"></path><path d="m517.423 1236.95c-3.121 3.558-5.005 5.678-5.633 6.378-3.066 3.41-8.275 5.548-15.645 6.378-9.586 1.106-20.724-1.346-27.078-9.18-4.451-5.493-6.686-11.594-6.741-18.303-.148-22.082-.093-46.874.147-74.357.019-.811.665-1.456 1.478-1.456h15.349c.942 0 1.699.756 1.699 1.696-.166 41.768-.24 62.781-.24 63.039-.166 9.788 1.995 21.492 14.093 22.303 13.632.922 21.02-10.727 21.112-23.225.13-18.045.093-38.634-.074-61.73-.018-1.069.869-1.954 1.94-1.954h15.275c1.09 0 1.644.535 1.625 1.622-.092 13.032-.166 36.017-.258 68.956-.019 5.991.535 15.262 1.644 27.796.203 2.194-.813 3.281-3.029 3.281h-12.616c-2.069 0-3.011-1.032-2.826-3.078l.684-7.889c.092-.959-.222-1.051-.906-.277z"></path></g><path d="m671.173 1150.57v93.323c0 2.253-1.83 4.083-4.083 4.083h-10.378c-2.254 0-4.084-1.83-4.084-4.083v-93.323c0-2.254 1.83-4.083 4.084-4.083h10.378c2.253 0 4.083 1.829 4.083 4.083z"></path><path fill-rule="nonzero" d="m924.867 1248.17c-.369 0-.683-.295-.683-.682v-.258c-.296-55.611-.111-100.697.424-100.697l15.553-.074c.517 0 1.163 45.068 1.459 100.679v.258c0 .387-.296.7-.683.7z"></path></svg>