<svg xmlns="http://www.w3.org/2000/svg" xmlns:xlink="http://www.w3.org/1999/xlink" preserveAspectRatio="xMinYMin" viewBox="0 0 50 50"><defs><path id="a" d="M0 0h50v50H0z"/></defs><g fill="none" fill-rule="evenodd"><path fill="#FFF" d="M0 50h50V0H0z"/><mask id="b" fill="#fff"><use xlink:href="#a"/></mask><path fill="#000" d="M50 29.684V0H0v12.646h5.6c3.012 0 5.902 1.192 8.038 3.315 4.874 5.035 4.874 13.028 0 18.063A11.4 11.4 0 0 1 5.6 37.377H0V50h50V34.238q-.3.331-.623.646a10.706 10.706 0 0 1-14.508 0 10 10 0 0 1-3.077-7.423v-14.03a1.1 1.1 0 0 1 1.062-1.123c.62 0 1.123.503 1.123 1.123v14.03a7.9 7.9 0 0 0 2.485 6.016 8.37 8.37 0 0 0 11.292 0A7.83 7.83 0 0 0 50 29.684m-24.938 6.6a1.11 1.11 0 0 1-1.124 1.093 1.086 1.086 0 0 1-1.1-1.062V13.777a1.11 1.11 0 0 1 1.085-1.131h.008a1.14 1.14 0 0 1 1.123 1.13zM5.6 14.708H0v20.615h5.6a9.3 9.3 0 0 0 6.53-2.8 11.1 11.1 0 0 0 0-15.054 9.26 9.26 0 0 0-6.53-2.761" mask="url(#b)"/></g></svg>