<svg xmlns="http://www.w3.org/2000/svg" xml:space="preserve" fill-rule="evenodd" stroke-linejoin="round" stroke-miterlimit="2" clip-rule="evenodd" preserveAspectRatio="xMinYMin" viewBox="0 0 1250 417"><path fill="#b60002" d="M0 0h1250v416.667H0z"/><path fill="#fffefe" d="M997.542 100.487c-.833 12.552-9.856 22.187-20.136 21.505s-17.949-11.428-17.115-23.979c.834-12.552 9.856-22.187 20.136-21.505s17.949 11.428 17.115 23.979"/><path fill="#fffefe" fill-rule="nonzero" d="M163.542 155.875c-6.75-.708-13.042 1.625-19.417 5.458a1.849 1.849 0 0 1-2.792-1.708L143.708 123c.084-1.375.667-2.417 1.792-3.167 5.875-4 9.708-7.875 18.167-6.583 22.5 3.458 39.666 6.125 51.458 8 3.375.542 5.083 2.542 5.083 5.958v29.375a4.52 4.52 0 0 1-4.958 4.5c-9.333-.791-26.583-2.541-51.708-5.208m89.833-27.375 50.375 6.042a2.49 2.49 0 0 1 2.25 2.5l.167 30.125c0 1.541-1.334 2.708-2.875 2.541l-50.375-6a2.49 2.49 0 0 1-2.25-2.5l-.167-30.166c0-1.542 1.333-2.709 2.875-2.542m-135.708 40.167-.334-25.334c-.041-1.25.542-2.375 1.5-3.125l4.542-3.416c2.583-1.959 6.25-.042 6.125 3.166l-.833 24.875c-.042.875-.334 1.709-.917 2.375l-3.333 3.875c-2.334 2.709-6.709 1.084-6.75-2.416m301.541 61.5c-4.166-.959-5.333.5-3.541 4.375 9.583 20.625 23.375 28.958 43.958 22.5 6.792-2.125 12.042-4.167 15.667-6.084 2.708-1.416 6.041-.291 7.375 2.459 3.166 6.541 4.625 12.166 4.333 16.916a4.63 4.63 0 0 1-2.208 3.667c-25.209 15.208-48.792 17.792-70.709 7.792-31.5-14.375-37.25-56.917-29.083-88.209 8.333-31.958 37.375-56.833 71.958-49.291 38.5 8.375 42.5 57.208 12 77.916-12.75 8.667-32.875 11.834-49.75 7.959M416 203.5c-.167 3.958 1.708 6.25 5.583 6.917 11.959 2.041 21.75-.459 29.375-7.584 9.167-8.541 10.25-20.208 1.917-29.791-2.208-2.542-4.958-4.042-8.292-4.5-17.708-2.459-28 20.583-28.583 34.958m127.875-43.833c1.333 7.916 3.958 8.291 7.833 1.125q15.063-27.688 48-14c4.375 1.833 9.625 6.791 15.667 14.875 3.625 4.833 6.25 11.041 7.792 18.583 4.625 22.625 5.083 40.5 1.458 53.708-10.792 38.959-36.583 56.667-77.375 53.042a3.34 3.34 0 0 0-3.625 3.333v56.584c0 3-1.5 4.5-4.542 4.5H512.75c-2.083 0-3.125-1.042-3.125-3.084V178.208c0-2.041-1-3.916-2.708-5.041-7.25-4.875-10.334-12.167-9.25-21.792a5.396 5.396 0 0 1 4.708-4.708c10.375-1.209 21.458-2.125 33.25-2.792 6-.375 8.833 2.708 8.5 9.208-.208 4.084-.292 6.292-.25 6.584m3 28.208-3.667 62.208c-.375 5.917 4.167 11 10.084 11.375l7.666.459c15.209.875 28.417-13.834 29.584-32.959l.833-14.541c1.167-19.084-10.25-35.292-25.458-36.209l-7.667-.458c-5.917-.333-11 4.167-11.375 10.125m133.542-7.833c3.708-9.709 8.125-19.375 13.291-29 5.042-9.292 14-8.875 24.459-7 3.666.666 5.5 2.875 5.5 6.583v27.333c0 4.209-2.084 6.084-6.292 5.542-2.292-.292-5.958-.292-10.917.042-12.541.833-20.375 20.041-21.625 29.666-2.458 18.792-2.833 40.667-1.125 65.709.125 2.208-.875 3.416-3.083 3.583l-28.958 2.083a2.79 2.79 0 0 1-3-2.791V178.375c0-2.542-1.5-4.833-3.792-5.833q-14.126-6.188-7.125-22.75c.583-1.417 1.792-2.459 3.25-2.792 9.625-2.333 19.667-3 30.042-2.042 5.041.459 7.416 3.25 7.041 8.292q-1.312 19.188.25 26.625c.5 2.375 1.209 2.458 2.084.167m85.25 49.375c-2.084-.542-3.959 1.375-3.417 3.458 4.542 16.833 15.458 25.542 32.708 26.125 6.417.208 14.584-1.875 24.542-6.333 6.625-2.959 10.708-.959 12.292 6l.708 3.166c1.708 7.292-.667 12.584-7.042 15.834-51.125 26.166-99.208-1.834-97.333-58.209.625-18.166 4.25-32.833 10.875-44.041 9.25-15.625 21.083-25.667 35.542-30.042 16.583-5.042 31.458-3.125 44.583 5.75 21.542 14.542 21.333 45.125 4.25 64.125-14.167 15.75-37.917 19.167-57.708 14.167m33.041-57.292c-10.625-6.167-19.833-4-27.666 6.542-5.417 7.291-8.375 16.666-8.834 28.166-.041 1.5 1 2.792 2.459 3.125 19.125 3.917 41.791-2.958 39.916-26.916-.416-5.25-2.375-8.875-5.875-10.917m88.25 3.875c-2.458 9.083 2.042 14.417 10.084 19.667 11 7.166 27.791 15.458 35.708 24.458 20.542 23.375 10.5 56.75-20.583 64.917-17.542 4.625-37.375 3.041-59.5-4.667-6.167-2.167-7.917-6.375-5.209-12.583L851.25 259c2.583-6 6.583-7.208 12.042-3.667 10.083 6.625 20.5 9.209 31.208 7.792 8.375-1.083 12.917-6.042 13.583-14.875.125-1.375-.25-2.625-1.041-3.75q-3.626-5.187-5.375-6.5c-20.417-14.792-46.75-20.125-50.5-51.458-1.167-9.542.416-17.459 4.75-23.667 16.083-22.958 49.5-23.333 74.5-16.75 3.25.875 5.416 3.875 5.208 7.208l-1.042 16.292c-.25 3.667-2.125 5-5.666 4-10.25-2.875-38.584-10.042-41.959 2.375m203.542 88.417c-1.5.041-2.75.875-3.792 2.5-5.166 8.041-6.625 13.25-13.916 16.583q-20.688 9.438-41.25-2.875c-5.709-3.417-9.709-10.375-11.959-20.875-6.375-29.75 3.459-49.292 29.584-58.667 11.166-4.041 23.458-2.75 37.291-1.875 4.042.25 5.959-1.666 5.75-5.708-.291-4.625-1.583-9.167-3.875-13.708-6.958-13.75-36.125-8.875-48.666-6.5q-7.126 1.312-6.25-5.875l1.416-12.084c.417-3.375 2.75-6.166 6-7.125 15.542-4.708 30.375-6.416 44.5-5.083q39.313 3.75 40.5 43.375c.417 15.125-.333 36.667-2.208 64.625-.375 5.708 2.917 9.167 9.875 10.417 1.5.25 2.375 1.125 2.583 2.625.792 5.625.792 10.291-.041 13.916-.25 1.25-1.084 2.334-2.209 2.959-10 5.291-21.041 6.333-33.083 3.166-4.042-1.041-6.25-3.666-6.542-7.833l-.666-9.25c-.125-1.583-1.459-2.792-3.042-2.708m-24.417-48.125c-27.541 6.25-16.041 54.791 9.917 40.583 12.708-7 16.833-23.75 14.75-37.042q-.375-2.311-2.625-3c-7.083-2.083-14.417-2.25-22.042-.541M997.375 259.5l8 4.625c1.083.625 1.792 1.5 2.167 2.708q3.249 10.75-5.625 14.875c-8.875 4.125-17.375 5.292-25.5 3.542-10.625-2.292-15.917-8.833-15.875-19.708.083-50.792.083-89.834.041-117.042 0-2.167 1.625-4 3.75-4.208 6.75-.709 18.5-1.375 25.459 2.5 1.875 1.041 3.208 3.375 4 7.083 1.333 5.917 1.833 13.292 1.541 22.167-.916 26.791-1.541 52.291-1.875 76.583a7.8 7.8 0 0 0 3.917 6.875m-779.542-80.208-.291 117.958c0 4.75-3.667 8.708-8.459 9.083l-54.041 3.917c-5.292.375-9.75-3.792-9.792-9.042l-.583-125.458c-.042-5.292 4.458-9.5 9.708-9.167l54.917 3.584c4.791.291 8.541 4.291 8.541 9.125m30.625 119.875.209-123.792c0-.833.708-1.5 1.541-1.417l49.375 3.75c.709.042 1.292.667 1.292 1.417l-.25 116.5c0 .75-.583 1.375-1.292 1.417l-49.375 3.541c-.791.084-1.5-.583-1.5-1.416M128.667 177.833a2 2 0 0 1 2 2l.166 99.042c0 7.375-2 13.375-4.458 13.375h-1.833c-2.459 0-4.459-5.958-4.459-13.375l-.166-99.042a2 2 0 0 1 2-2z"/></svg>