<svg style="fill-rule:evenodd;clip-rule:evenodd;stroke-linejoin:round;stroke-miterlimit:2;" xml:space="preserve" xmlns:xlink="http://www.w3.org/1999/xlink" xmlns="http://www.w3.org/2000/svg" version="1.1" viewBox="0 0 1067 334" height="100%" width="100%">
    <rect height="333.333" width="1066.67" y="0" x="0"></rect>
    <path style="fill:#f9fafb;fill-rule:nonzero;" d="M811.754,96.451l0.304,0.612l0,0.612c0,4.59 1.225,7.037 4.284,8.567c1.225,0.918 2.141,2.141 2.754,3.059l-0,0.306c1.225,1.836 3.058,2.754 5.508,2.754l3.363,-0c2.141,-0 4.283,-0.306 7.037,-0.306c0.917,0 2.142,-0.612 2.754,-0.918l1.225,-0.918c4.896,-3.365 9.484,-6.731 12.85,-11.014c0.613,-0.612 0.917,-1.224 1.529,-1.836c0.917,-0.918 1.53,-1.836 1.834,-2.754c0.308,-0.611 -0,-2.141 -0.304,-2.753c-0.305,-0.306 -0.917,-0.612 -1.225,-0.612c-0.305,0 -0.613,0 -0.613,0.306c-2.142,1.53 -3.671,3.059 -4.283,4.284c-4.284,7.648 -11.625,8.566 -16.521,8.872l-2.142,0c-1.221,0 -4.896,-0.306 -6.425,-3.059c-1.529,-2.754 0,-5.813 0.613,-7.038c0.612,-1.223 0.916,-2.753 1.225,-3.977c1.529,-9.484 6.729,-16.521 15.296,-21.722c1.225,-0.612 2.141,-0.918 3.062,-0.918c1.221,-0 3.363,0.612 4.588,3.059c0.916,1.53 1.837,1.836 3.67,1.836c0.613,-0 1.225,-0 2.142,-0.306c1.529,-0.306 2.754,-0.918 3.671,-3.671c1.837,-4.284 1.837,-8.261 0.308,-12.239c-0.308,-0.611 -0.308,-0.917 -0.612,-1.529c-1.529,-3.978 -2.754,-7.037 -6.425,-8.261c-1.225,-0.612 -2.754,-0.612 -3.979,-0.612c-2.142,0 -4.284,0.918 -6.73,3.06c-1.529,1.223 -3.058,2.141 -4.591,3.365c-1.221,0.918 -2.446,1.53 -3.671,2.448c-0.304,0.306 -0.613,0.612 -0.917,0.612c-1.225,0.917 -2.754,1.835 -3.366,3.059c-1.53,2.448 -2.446,5.201 -3.671,7.955c-0.613,1.53 -1.225,3.059 -2.142,4.589c-0.612,1.224 -1.225,2.754 -1.833,3.978c-1.838,3.671 -3.367,7.648 -5.817,11.32c-3.058,4.589 -3.975,6.731 -2.75,9.79Zm-23.558,17.746c0.916,-1.224 1.833,-2.754 2.75,-4.284c0.612,-0.918 0.921,-1.835 1.533,-2.753c0.917,-1.53 1.833,-3.06 2.75,-4.59c3.063,-4.589 6.121,-9.178 6.733,-14.685c0.613,-3.366 1.834,-6.731 3.976,-9.485c3.366,-4.589 5.816,-9.79 7.345,-15.909c0.613,-2.142 0.613,-3.672 0,-4.59c-0.921,-1.224 -2.754,-1.835 -6.121,-2.141l-0.916,-0c-3.367,-0 -5.813,2.447 -8.263,4.895c-2.141,2.447 -3.975,3.365 -6.116,3.365c-2.142,0 -3.98,-1.223 -5.509,-3.671c-1.225,-2.142 -3.058,-3.366 -4.896,-3.366c-0.916,0 -1.833,0.306 -3.058,0.918c-4.896,2.448 -6.733,7.037 -8.875,12.238l-0.304,0.918c-0.304,1.224 -0.917,2.142 -1.225,3.366c-1.833,4.895 -3.975,10.096 -7.342,14.992c-3.366,4.589 -5.812,10.096 -7.954,15.603c-1.837,5.813 -5.2,8.872 -10.404,10.097c-7.646,1.529 -14.992,4.283 -22.333,8.26c-0.917,0.612 -2.446,0.918 -3.98,0.918c-1.22,-0 -2.75,-0.306 -3.975,-0.612c-1.529,-0.612 -2.754,-1.53 -3.366,-3.059c-0.613,-1.836 -0.613,-3.978 0.308,-5.507c1.221,-2.142 3.671,-4.59 6.425,-5.202l1.221,-0.306c5.508,-1.224 10.096,-2.447 13.462,-6.425c0.613,-0.917 1.838,-1.529 2.45,-1.835c0.305,-0 0.609,-0.307 0.609,-0.307l1.837,-1.529c2.446,-1.836 4.896,-3.978 7.038,-5.813c0.916,-0.918 2.141,-2.142 3.058,-3.06c1.225,-1.223 2.142,-2.448 3.671,-3.671c2.45,-2.142 3.367,-4.895 3.062,-8.873l0,-0.918c-0.308,-1.835 -0.308,-3.671 -0.308,-5.813c0,-1.836 -0.612,-3.365 -1.529,-4.283c-0.613,-0.612 -1.529,-1.53 -3.058,-1.224l-0.613,0c-3.979,0.612 -7.954,1.53 -11.625,2.448c-1.837,0.306 -3.675,0.918 -5.508,1.223c-4.592,0.918 -7.954,3.672 -11.017,8.567c-1.833,3.06 -3.975,5.813 -6.117,8.567c-1.529,1.836 -2.754,3.671 -4.283,5.507c-0.917,1.224 -1.529,2.754 -2.142,4.283c-0.308,0.612 -0.308,0.918 -0.612,1.53c-0.304,0.612 -0.304,1.224 -0.613,1.836c-0.612,1.53 -1.225,3.365 -2.445,4.589c-1.225,1.53 -3.063,1.836 -4.896,2.448c-0.613,-0 -0.917,0.306 -1.529,0.611l-3.98,1.53l0.309,-4.283l-0,-1.53c-0,-1.529 -0,-3.059 0.608,-4.895c0.613,-1.53 1.534,-3.059 2.142,-4.283c0.921,-1.53 1.837,-3.06 2.142,-4.589c0.308,-1.225 -0,-3.366 -0.609,-5.202c-0.612,-1.53 -1.837,-2.753 -3.366,-3.977c-3.367,-3.06 -6.426,-4.589 -9.18,-4.589l-1.225,-0c-0.916,-0 -2.141,0.611 -3.058,0.917c-1.529,0.306 -2.754,0.918 -4.283,1.224c-4.284,0.612 -6.73,1.53 -8.871,3.978c-1.838,1.835 -3.675,3.671 -5.204,5.507c-1.53,1.224 -2.755,2.753 -4.284,4.283c-1.221,1.224 -2.446,2.754 -3.058,3.977c-1.225,3.06 -2.754,6.12 -3.979,9.179c-0.917,2.448 -2.142,5.201 -3.363,7.649c-0.612,1.224 -1.225,2.447 -1.837,3.365c-0.613,0.918 -1.225,1.836 -1.529,2.754c-0.613,1.224 -0.917,2.753 -1.53,4.895l0,1.224c0,0.918 0,1.836 -0.308,3.059c-1.833,4.896 0.308,7.343 4.592,11.321l0.304,0.306c0.612,0.612 1.529,0.918 2.45,0.918c0.612,-0 1.221,-0 1.833,-0.306c0.921,-0.306 2.142,-0.918 3.063,-1.53c1.529,-0.918 3.362,-1.53 5.2,-2.142c1.225,-0.306 2.446,-0.612 3.671,-0.612c1.529,0 3.058,0.306 4.283,0.918c0.612,0.306 1.529,0.918 1.837,2.448c0.609,1.836 0.305,4.895 -0.92,6.731c-1.834,2.753 -3.975,5.201 -5.813,7.343c-0.612,0.917 -1.529,1.53 -2.142,2.447c-0.612,0.918 -1.529,1.224 -2.754,1.53c-1.221,0.306 -2.754,0.612 -3.975,0.918c-2.754,0.612 -5.204,0.918 -7.954,1.53c-3.062,0.612 -6.121,1.53 -9.179,2.447c-0.921,0.306 -1.838,0.918 -2.754,1.224c-1.225,0.612 -2.45,1.224 -3.979,1.836c-0.613,0.306 -1.53,0.306 -2.142,0.306c-1.833,-0 -3.363,-0.612 -4.588,-1.836c-1.225,-1.224 -1.529,-3.06 -1.225,-4.895c0.309,-1.224 0.309,-2.448 0.613,-3.977c0.612,-4.284 1.225,-8.567 2.754,-12.85c1.529,-3.672 2.754,-7.955 3.975,-11.627c0.921,-2.753 1.838,-5.813 2.754,-8.873c0.309,-1.223 0.921,-2.141 1.225,-3.365c0.917,-2.448 1.838,-5.201 2.754,-7.649c1.225,-3.671 2.142,-7.037 3.367,-10.708l0.917,-3.06c0.612,-1.836 1.225,-3.671 1.529,-5.201c1.225,-3.671 2.446,-7.649 3.671,-11.32c0.612,-1.836 1.529,-3.672 2.141,-5.507c1.225,-2.448 2.142,-4.896 2.755,-7.343c1.225,-5.507 2.141,-11.014 2.754,-16.828c-0,-0.917 -0.917,-2.447 -1.529,-2.753c-3.367,-1.53 -7.038,-2.448 -10.709,-3.366c-1.225,-0.306 -2.141,-0.612 -3.366,-0.917l-2.142,0.611c-0.304,0.306 -0.613,0.306 -0.917,0.612c-0.921,0.612 -1.529,0.918 -2.141,1.53l-0.309,0.306c-2.446,2.448 -4.896,4.589 -6.729,7.343c-0.612,0.918 -1.225,1.53 -1.837,2.448c-2.755,3.671 -5.813,7.648 -7.646,11.626c-1.838,4.283 -3.979,8.872 -7.038,13.462c-1.837,2.753 -3.366,5.813 -4.896,8.872c-0.916,2.142 -2.141,3.978 -3.366,6.119c-0.613,1.224 -1.529,2.142 -2.142,3.06c-0.612,0.918 -1.529,1.835 -1.833,2.753c-1.534,2.754 -2.754,5.814 -4.284,8.567c-1.533,3.06 -2.754,6.119 -4.283,9.179c-1.837,3.671 -4.283,7.649 -7.346,12.238c-1.833,2.753 -3.975,5.201 -5.812,7.343c-1.529,1.53 -3.059,3.365 -5.2,4.589c-1.529,0.918 -3.059,1.53 -4.592,2.142c-0.608,0.306 -1.529,0.612 -2.142,0.917c-0.304,0.307 -0.916,0.307 -1.22,0.612c-1.225,0.613 -2.45,1.53 -3.98,1.53c-1.833,0 -3.366,1.224 -5.2,2.448c-0.916,0.612 -1.529,1.224 -2.45,1.835c-0.608,0.307 -1.529,0.918 -2.141,1.225c-4.284,2.753 -8.871,5.507 -13.767,6.73c-4.896,1.53 -8.567,3.366 -11.933,6.731l-0.304,0.306c-0.917,0.918 -2.142,2.142 -3.671,2.448c-4.592,1.53 -8.263,3.671 -11.625,7.037c-1.225,1.224 -6.734,5.507 -8.263,6.425c-1.529,0.918 -3.058,1.835 -7.341,3.977c-3.367,1.53 -5.509,4.589 -5.509,6.425c0,0.918 0.304,1.53 0.613,1.836c0.304,0.306 0.916,0.306 1.225,0.306c0.304,-0 0.916,-0 1.529,-0.306c4.896,-0.918 5.2,-1.224 7.954,-2.448c0.917,-0.306 1.833,-0.918 3.367,-1.53c2.446,-0.917 7.954,-5.813 11.316,-7.036c3.367,-1.224 6.121,-2.754 8.567,-5.201c2.754,-2.448 5.204,-3.672 7.346,-4.284c3.975,-0.612 7.342,-2.448 9.787,-5.507c3.98,-4.59 8.567,-6.119 12.85,-7.343c0.613,-0.306 1.534,-0.306 2.142,-0.612c0.613,-0.306 1.225,-0.306 1.533,-0.306c1.834,0 3.363,0.918 4.284,2.448c0.916,1.529 0.916,3.365 -0.309,4.895c-1.225,1.836 -2.445,3.671 -3.975,5.507c-0.92,1.224 -1.533,2.142 -2.45,3.366c-0.304,0.612 -0.916,1.223 -1.529,1.835c-0.916,1.224 -2.141,2.448 -2.141,3.672c-1.838,7.037 -5.2,12.85 -10.405,18.357c-1.833,2.141 -6.116,11.932 -8.258,17.439c-1.225,2.754 -2.142,5.201 -2.754,6.425c-1.838,3.672 -3.367,7.649 -3.058,11.627c0.916,-0.612 1.833,-1.225 2.445,-1.836l0.613,-0.612c3.058,-3.366 6.425,-6.731 8.871,-10.402c2.754,-3.672 5.204,-7.65 7.65,-11.321c0.916,-1.224 1.529,-2.447 2.45,-3.671c0.916,-1.53 1.833,-3.06 2.75,-4.59c0.308,-0.611 0.921,-1.529 1.225,-2.141c0.612,-0.918 0.612,-1.53 0.612,-3.06c0.304,-1.835 0.613,-4.283 2.142,-7.649c0.917,-2.141 2.142,-3.977 3.671,-5.201c5.508,-5.201 9.179,-11.932 12.237,-18.051c0.309,-0.918 0.921,-1.836 1.225,-2.753c1.529,-3.06 3.059,-6.425 5.2,-8.873c7.346,-8.261 16.217,-13.156 26.313,-14.074l1.225,-0c2.141,-0 3.975,0.612 4.896,1.836c1.529,1.836 0.916,4.283 0.612,6.119c-1.225,3.977 -1.837,7.954 -2.142,11.932c-0.308,5.201 -3.366,8.567 -7.958,9.79c-2.446,0.612 -4.892,1.53 -7.342,2.754c-4.283,2.142 -8.87,4.589 -13.154,7.037l-1.529,0.918c-2.45,1.53 -4.283,3.671 -4.592,6.119c0,1.224 0,2.753 1.838,4.283c2.142,1.836 4.587,3.366 7.037,4.895c0.917,0.612 2.142,1.224 3.059,2.142c0.612,0.306 1.225,0.612 1.529,1.224c1.529,0.918 2.754,1.835 4.283,2.448c3.367,1.529 4.588,3.977 3.979,7.036c-0.612,2.448 -1.225,4.896 -1.837,7.343c-0.613,2.754 -1.225,5.201 -1.838,7.955c-0.608,2.753 -1.22,4.895 -1.529,6.731c-0.916,3.977 -1.833,7.343 -3.671,15.298c-0.612,2.753 -1.225,7.649 -1.225,12.544l0,2.448c0,2.141 0.309,3.977 -0.304,6.73c-0.612,1.836 -0.612,3.978 -0.612,6.12c-0,0.305 -0,0.917 0.308,1.223c0.304,0.918 0.304,1.836 0.304,2.754c-0.304,5.201 1.529,8.566 5.509,10.708l0.612,-0.306c0.304,-0.612 0.917,-1.224 1.221,-1.836c1.225,-1.835 2.45,-3.671 2.754,-5.201c0.613,-2.142 0.917,-4.589 0.917,-7.037c-0,-1.53 0.308,-2.753 0.308,-4.283c0.304,-1.224 0.304,-2.448 0.613,-3.672c0.612,-4.895 1.22,-10.096 3.362,-14.991l0,-2.142c0,-0.612 0,-1.224 0.308,-1.835c0,-1.53 0.305,-3.366 0.613,-5.202c0.304,-1.835 0.917,-3.059 1.529,-3.977c0.613,-0.918 0.917,-1.836 1.225,-3.671c0,-0.612 0.304,-0.918 0.304,-1.53c0,-0.612 0.304,-1.224 0.304,-1.836c0.309,-1.53 0.309,-3.366 0.613,-5.201c-0,-3.366 0.308,-7.343 2.45,-11.015c1.833,-3.365 3.975,-4.283 5.504,-4.283c1.533,0 3.063,0.612 4.592,2.142c0.916,0.918 1.529,1.836 2.446,2.753c0.308,0.306 0.612,0.612 0.92,0.918c0.305,0.612 0.917,0.918 1.221,1.53c3.367,3.672 6.734,7.649 8.263,12.85c-0,0.306 1.225,1.224 1.833,1.53c0.613,-0 1.533,0.306 2.142,0.306c3.675,-0 7.346,-1.836 10.1,-3.06c6.425,-3.365 6.729,-6.731 6.425,-9.484c-0.613,-4.284 -0,-7.955 1.529,-12.238c1.221,-3.06 2.446,-6.119 3.362,-8.873l0.921,-2.142c0.917,-2.142 1.529,-4.589 2.446,-6.731c1.225,-3.059 2.142,-6.119 3.367,-9.484c0.304,-0.918 0.916,-1.224 1.225,-1.53l0.304,-0.306c-0,-0.306 0.304,-0.612 0.612,-1.224c0.613,-0.918 1.225,-1.835 1.225,-2.447c0.917,-3.06 1.53,-5.813 1.834,-8.261c0.612,-5.507 4.591,-10.096 9.483,-11.014c2.45,-0.612 4.896,-1.53 7.346,-2.754c3.671,-1.836 7.646,-3.366 12.237,-3.671l0.917,-0c1.225,-0 2.45,-0.306 3.979,-0.918c0.613,-0.306 1.529,-0.306 2.142,-0.612c7.037,-1.836 12.85,-3.06 18.354,-4.284c3.979,-0.917 8.263,-1.835 12.242,-2.753l3.058,-0.612c6.729,-1.53 14.379,-3.06 21.721,-4.589l0.612,-0c0.613,-0 1.53,-0 2.45,0.612c0.917,0.306 2.142,0.611 3.059,0.611c2.141,0 4.283,-0.917 6.116,-1.835c0,-0 0.613,-0.612 0.613,-0.918c-0,0 -0.304,-0.306 -0.304,-0.612c-1.225,-0.306 -2.754,-0.306 -4.284,-0.306l-0.916,0c-1.225,0 -2.45,0.306 -3.675,0.306c-1.529,0.306 -2.75,0.306 -4.284,0.306l-11.929,-0c-3.366,0.306 -6.733,0.918 -10.096,1.53c-1.837,0.306 -3.675,0.612 -5.508,0.918l-3.671,0.611c-7.037,1.224 -14.075,2.448 -21.112,3.672c-0.613,0 -1.529,0.306 -2.446,0.612c-1.529,0.306 -3.063,0.918 -4.896,0.918l-3.671,-0c-2.45,-0 -4.896,0.612 -7.65,1.836c-0.916,0.305 -1.837,0.611 -2.754,0.611c-0.917,0 -3.058,0 -4.283,-1.529c-1.834,-1.836 -0.917,-4.59 -0.613,-6.425c0.309,-1.224 1.225,-1.836 1.529,-2.448l0.309,-0.306c0.304,-0.612 0.916,-1.53 1.529,-2.448c1.225,-1.835 2.142,-3.365 2.446,-4.895c1.225,-5.813 4.591,-10.096 7.346,-12.85c0.916,-1.224 2.141,-1.835 3.362,-2.753c0.308,-0.307 0.921,-0.612 1.225,-0.918l1.838,-1.53l1.833,1.53l0.612,0.611l1.53,1.225l-0.613,1.835l-0.304,0.612c-0.304,0.612 -0.304,1.224 -0.613,1.836c-0.916,2.447 -0.612,5.507 0.613,7.649c0.304,0.611 1.225,1.835 2.446,2.141c2.45,0.612 4.896,0.612 7.958,0.612c1.221,-0 2.446,-0 3.671,-0.306c1.529,0 3.058,-0.612 4.896,-1.224c2.141,-0.612 4.283,-1.223 6.729,-1.53c7.342,-0.305 14.075,-3.059 20.804,-8.26c1.838,-1.53 3.367,-2.448 5.2,-2.754c2.45,0 3.979,1.836 5.508,3.672c0.917,1.224 2.142,1.835 3.059,1.835c1.225,0 2.141,-0.917 2.45,-1.835c1.225,-1.836 1.833,-4.283 2.446,-6.731c0.308,-0.612 0.308,-1.53 0.612,-2.142c0.308,-0.918 0.613,-1.835 0.613,-3.06c0.304,-2.141 0.916,-4.283 2.141,-6.425c3.059,-5.2 6.425,-9.79 10.404,-14.379c2.75,-3.366 6.117,-6.425 9.175,-9.485c1.225,-1.224 2.45,-2.447 3.675,-3.671c0.305,-0.306 0.917,-0.918 1.834,-1.224c0.308,0 0.612,0 0.916,-0.306c0.613,-0.306 1.534,-0.306 2.45,-0.306c1.53,0 2.142,0.612 2.755,0.918c1.22,1.53 2.141,4.283 1.529,6.425c-1.225,3.059 -2.754,5.813 -3.979,8.261l-0.613,1.224c-1.221,2.447 -2.446,4.589 -3.671,6.425c-1.833,2.753 -3.975,5.813 -5.812,8.26c-0.917,1.224 -1.834,2.448 -2.754,3.672c-1.53,1.836 -3.059,3.671 -4.284,5.813c-0.304,0.612 -0.304,1.223 -0.304,1.53c0,0.611 0.613,1.223 1.225,1.529c1.221,0.918 2.75,1.224 4.283,1.224c1.221,-0 3.363,-1.224 4.284,-2.753Zm-68.229,-23.253c1.529,-2.142 3.058,-4.895 5.2,-6.731c1.529,-1.224 3.062,-2.142 4.591,-3.059c0.613,-0.306 1.221,-0.612 1.834,-1.224c1.225,-0.612 2.141,-0.918 3.062,-0.918c2.142,-0 3.671,1.224 4.892,3.977l0.612,1.224l-0.916,1.224c-0.305,0.612 -0.613,0.918 -0.917,1.53c-0.921,1.53 -1.838,3.059 -3.063,4.283c-2.141,1.836 -4.587,3.365 -7.033,4.895c-0.612,0.306 -0.921,0.612 -1.533,0.918c-0.917,0.612 -1.834,0.612 -2.75,0.918l-0.613,0l-2.754,0.612l-0.612,-2.753c-0,-0.307 -0,-0.307 -0.305,-0.613c0,-0.917 -0.612,-2.753 0.305,-4.283Zm-122.992,95.457c-0.308,0.612 -0.613,1.224 -0.613,1.836c-0.916,2.448 -1.837,4.589 -3.979,4.895l-1.221,0c-1.837,0 -3.366,-0.306 -4.895,-0.917c-0.613,-0.306 -1.225,-0.306 -2.142,-0.613l-3.671,-0.917l1.834,-3.366c1.529,-2.753 3.979,-5.813 8.262,-5.813c1.221,0 2.446,0 4.283,0.612l3.363,0.918l-1.221,3.365Zm9.787,-59.661c-1.22,0.612 -2.141,0.918 -3.67,1.225c-1.53,-0 -4.284,-0 -5.505,-2.142c-0.92,-1.836 -0.308,-4.59 0.609,-6.119c1.837,-3.06 3.979,-6.119 6.121,-9.179c1.225,-1.835 2.445,-3.671 3.67,-5.507c0.917,-1.224 1.838,-2.448 2.142,-3.671c1.529,-5.202 4.896,-8.567 7.65,-11.015c0.304,-0.306 0.613,-0.612 0.613,-1.224c0.304,-0.611 0.612,-1.223 1.22,-1.835c1.225,-1.53 2.45,-2.754 3.675,-4.284c0.609,-0.612 0.917,-0.917 1.53,-1.529l1.22,-1.53l1.838,0.612l1.529,0.612l2.142,0.917l-0.304,2.142c-0,0.612 -0.309,0.918 -0.309,1.53c-0.304,1.224 -0.304,2.447 -0.916,3.672l-0.305,1.835c-0.92,3.365 -1.837,6.731 -2.754,9.79c-0.308,0.918 -0.612,1.836 -0.921,2.448c-1.529,4.284 -2.75,8.873 -5.2,13.156c-1.225,2.448 -3.67,3.978 -6.116,5.507c-0.613,0.306 -0.921,0.612 -1.534,0.918c-1.529,0.918 -3.362,1.836 -4.891,2.448c-0.613,0.612 -1.225,0.918 -1.534,1.223Zm41.305,50.177c-2.755,6.425 -5.813,13.156 -8.871,19.581c-2.142,4.589 -4.284,9.178 -6.425,13.768c-1.225,2.447 -2.754,3.671 -4.592,3.671c-1.221,0 -2.446,-0.306 -3.671,-1.53c-0.916,-0.917 -1.833,-1.53 -2.754,-2.447c-1.833,-1.53 -3.671,-3.366 -5.812,-4.59c-0.917,-0.611 -2.142,-1.223 -3.363,-1.529l-0.921,-0.306c-2.141,-0.918 -5.812,-3.06 -3.671,-8.873l0,-0.306c0.917,-2.754 1.838,-5.507 2.451,-8.261c0.608,-3.671 1.22,-6.425 3.058,-8.26c1.225,-1.53 2.446,-2.142 7.954,-3.978c2.446,-0.917 5.2,-1.835 7.954,-2.447c2.142,-0.918 3.979,-1.53 4.896,-1.836l1.225,-0.612c1.833,-0.612 2.754,-1.224 4.588,-1.53c0.612,0 1.529,-0.306 2.754,-0.306c2.141,0 3.671,0.612 4.896,1.836c1.833,2.142 1.225,6.119 0.304,7.955Zm29.371,-65.78c-0.305,0.612 -0.609,0.918 -0.917,1.53c-1.833,2.753 -4.283,5.201 -6.425,7.648c-0.917,0.918 -1.833,1.836 -2.754,2.754c-0.613,0.918 -1.529,1.224 -2.446,1.836c-1.529,0.918 -3.671,2.142 -5.813,2.142c-1.837,-0 -3.67,-0.612 -4.895,-2.142c-3.059,-3.365 -1.225,-7.037 -0,-9.179c0.304,-0.306 0.304,-0.611 0.304,-0.918c3.366,-7.036 7.954,-12.85 12.546,-18.663c1.225,-1.53 2.445,-3.059 3.67,-4.283c0.917,-1.224 3.671,-3.365 5.813,-3.365l1.225,-0c1.833,0.611 3.058,2.447 3.671,3.671c0.304,0.306 0.304,0.918 0.612,1.224l0.304,0.612l0,0.611c1.225,6.732 -2.141,11.933 -4.895,16.522Zm347.258,15.603c-2.142,-2.141 -3.671,-3.059 -5.813,-3.365c-1.225,-0 -2.45,-0.306 -3.366,-0.612c-1.225,-0.306 -2.142,-0.612 -3.059,-0.612l-0.612,0c-0.917,0 -1.529,0.306 -1.838,0.918c-0.304,0.612 -0.304,1.224 0,1.836c0.613,1.835 1.838,2.447 4.284,3.365l1.225,0.306c2.45,0.612 4.591,1.224 6.425,1.224c1.529,-0 2.45,-0.306 3.058,-1.53l-0.304,-1.53Zm-30.596,-4.895c-2.446,-0.612 -4.896,-0.918 -7.65,-0.918l-1.221,0c-17.133,-1.835 -29.679,-1.835 -34.575,-1.835c-1.529,-0 -3.058,-0 -4.283,0.306c-3.671,0.306 -7.342,0.917 -11.013,1.224c-3.366,0.305 -6.733,0.918 -10.095,1.223l-1.838,0c-1.529,0 -3.058,0 -4.587,-0.305c-1.53,-0 -2.755,-0.307 -4.284,-0.307c-1.225,0 -2.45,0.307 -3.979,0.612c-0.917,0 -1.529,0.306 -2.446,0.306l-3.366,0.612l-0,-4.589c-0,-0.918 -0,-1.836 0.304,-2.754c0.308,-1.53 0.612,-3.365 1.225,-4.895c0.308,-0.612 0.304,-1.53 0.612,-2.142c0.304,-0.918 0.304,-1.529 0.613,-2.447c0.304,-1.836 0.612,-3.978 1.529,-5.813c0.612,-1.224 1.529,-2.448 2.446,-3.366c0.612,-0.612 1.225,-1.224 1.533,-1.835c0.917,-2.754 1.529,-5.507 2.142,-8.567c0.304,-1.224 0.304,-2.142 0.608,-3.366c0,-0.612 0.308,-1.223 0.308,-2.141c0,-1.224 0.305,-2.142 0.613,-3.366c0.612,-2.447 1.529,-4.895 2.142,-7.037c0.612,-1.529 0.916,-3.059 1.529,-4.589c0.304,-0.918 0.612,-2.142 0.916,-3.06c0.613,-1.835 0.917,-3.671 1.53,-5.507c1.225,-3.671 2.141,-6.425 0.92,-9.484c-1.225,-3.06 -4.895,-5.201 -8.566,-5.201l-0.309,-0c-3.366,-0 -6.116,1.835 -6.729,4.589c-0.921,3.365 -2.141,7.649 -3.366,11.626c-1.53,4.283 -3.059,8.261 -4.588,12.544l-1.225,3.06l-0.308,0.612c-0.609,1.529 -1.221,3.059 -2.142,4.283c-1.833,2.448 -3.671,4.589 -5.504,6.731l-1.529,1.836c-0.613,0.612 -1.225,1.53 -2.146,2.141c-0.917,0.612 -2.142,0.918 -3.058,0.918c-0.613,0 -1.225,0 -1.834,-0.612c-1.533,-0.917 -2.754,-3.365 -2.141,-5.201c0.612,-2.754 1.529,-5.813 2.141,-7.955c0.609,-2.447 1.529,-4.895 2.142,-7.037c0.612,-1.529 0.917,-3.059 1.529,-4.589c0.304,-0.918 0.613,-2.142 0.917,-3.059c0.916,-2.754 1.837,-5.814 2.45,-8.567c0.608,-3.06 0.608,-3.978 0.304,-4.283c-1.225,-1.836 -3.367,-2.754 -5.813,-2.754c-0.92,-0 -1.837,0.306 -2.754,0.612c-2.141,0.918 -3.366,1.836 -3.058,5.813c0.304,2.754 -0.308,6.119 -1.533,8.567c-1.221,2.753 -2.446,5.201 -2.138,7.954c0.304,3.672 -0.004,8.873 -4.287,13.462c-0.917,0.918 -1.53,2.754 -2.142,4.59c-0.304,0.917 -0.304,2.141 -0.608,3.059c-0.309,1.53 -0.613,3.366 -1.225,4.896c-1.53,3.977 -0.309,7.342 3.975,9.484c1.225,0.612 2.45,0.918 3.979,1.53l0.916,0.306c1.225,0.305 2.142,0.612 3.063,0.612c1.833,-0 3.362,-0.918 4.892,-2.754c0.612,-0.918 1.533,-2.142 2.145,-3.06c1.53,-2.141 3.059,-4.283 4.892,-6.425c0.921,-1.223 2.45,-1.529 3.675,-1.529l0.608,-0l3.063,-0.918l0.304,3.059l0,0.918c0.304,0.918 0.304,2.448 0,3.672l-0.304,0.917c-1.529,4.284 -3.063,8.261 -3.063,12.545c0,5.201 -5.812,9.178 -10.708,9.178c-0.608,-0 -1.529,-0 -2.142,-0.306c-2.445,-0.612 -5.2,-0.612 -7.341,-0.612l-0.613,0c-0.612,0 -1.529,0 -2.141,0.306c-0.917,0 -1.834,0.306 -2.755,0.306l-14.379,0c-2.446,0 -4.283,0 -6.116,0.306c-5.205,0.306 -10.1,0.918 -15.3,1.836c-2.142,0.306 -3.975,0.612 -6.117,0.918c-1.533,0.306 -2.754,0.306 -4.283,0.306c-2.142,0.305 -3.98,0.306 -5.817,0.612c-2.446,0.305 -4.588,0.918 -7.033,1.529c-2.755,0.612 -5.509,1.224 -8.263,1.53c-3.058,0.612 -6.425,0.918 -9.483,1.224c-3.063,0.306 -5.813,0.612 -8.875,1.224c-1.221,0.306 -1.834,0.918 -2.142,1.529c-0.304,0.918 -0.304,1.836 0.308,2.754c4.588,6.425 11.93,9.79 18.355,12.85c1.837,0.918 3.366,1.836 4.895,3.365c1.53,1.224 2.755,2.448 3.98,3.672c0.612,0.612 1.225,1.224 1.833,1.836c0.308,0.306 0.612,0.612 0.921,0.917c0.916,0.613 1.833,1.53 2.754,2.754c1.833,3.06 4.892,5.201 8.567,7.343c1.22,0.612 2.445,1.836 3.362,2.753c1.838,1.53 3.979,3.978 6.425,6.425c1.225,1.53 2.45,3.06 3.367,4.284c0.612,0.918 0.916,1.53 1.529,2.448c0.612,1.223 1.529,2.447 2.45,3.365c2.75,2.753 6.425,4.589 11.317,5.813c1.533,0.306 2.754,0.612 3.979,0.306c3.058,-0 5.2,-1.224 7.037,-3.671c1.529,-2.142 3.975,-3.366 6.117,-4.59l0.308,-0.306c2.142,-1.224 3.367,-2.447 4.284,-4.283c1.837,-3.671 3.975,-7.649 6.729,-11.626c2.141,-2.754 4.283,-5.507 6.425,-7.955c0.921,-0.918 1.837,-2.142 2.754,-3.06c-0,-0.305 0.308,-0.611 0.308,-0.917c0.304,-0.918 0.917,-2.142 1.221,-3.06c0.921,-2.142 1.533,-3.977 2.45,-6.119c0.304,-1.224 0.917,-2.448 1.225,-3.365c1.833,-4.59 3.671,-9.485 5.2,-14.074c1.225,-4.284 4.283,-5.202 6.425,-5.202c0.917,0 1.833,0.001 3.058,0.307c3.98,0.918 7.65,1.529 11.321,1.529c2.446,0 5.2,-0.306 7.65,-0.918c3.975,-0.918 8.259,-1.529 12.238,-2.141l0.916,-0c3.059,-0.306 5.509,-0.612 7.955,-0.612l1.529,-0c8.875,-0 32.125,2.447 35.187,3.06c1.221,-0 2.754,0.305 3.975,0.611c1.529,0.306 3.063,0.612 4.284,0.612c1.225,0 1.837,-0.306 2.45,-0.918c0.916,-0.918 1.529,-2.141 1.529,-3.365c-0.917,-1.224 -1.838,-2.754 -3.367,-3.06Zm-107.083,9.791l-0.917,1.224c-0.613,0.612 -0.917,1.223 -1.225,1.835c-0.612,0.918 -1.225,1.53 -2.142,2.448c-1.225,1.53 -2.445,3.059 -3.67,4.589c-3.367,4.895 -6.121,8.873 -7.955,12.238c-1.225,2.448 -2.45,4.284 -3.67,6.731c-0.613,1.224 -0.921,2.142 -1.226,2.754c-0.612,1.224 -0.916,2.142 -1.837,3.365c-1.221,1.836 -2.446,2.448 -3.058,3.06c-0.613,0.612 -1.225,0.918 -1.838,2.142c-0.304,0.611 -0.608,1.223 -1.221,1.835c-0.612,0.918 -1.225,1.836 -1.529,2.448c-1.225,3.06 -3.367,3.671 -4.591,3.671c-1.53,0 -2.755,-0.611 -4.284,-1.835c-0.917,-0.918 -1.529,-1.53 -2.141,-2.448c-0.305,-0.612 -0.917,-0.918 -1.226,-1.53c-3.362,-3.671 -6.425,-6.731 -9.787,-9.79c-3.671,-3.672 -7.65,-7.343 -12.85,-11.932c-0.921,-0.918 -1.837,-1.53 -3.367,-2.448l-0.916,-0.612c-2.142,-1.224 -4.592,-2.754 -7.038,-3.977c-1.837,-0.918 -3.979,-1.53 -6.425,-2.448c-0.917,-0.306 -1.837,-0.612 -3.058,-0.918l-4.284,-1.53l3.363,-3.059c2.754,-2.448 5.813,-2.754 8.262,-2.754c0.613,0 1.53,0 1.834,-0.305c4.591,-0.613 9.487,-1.225 14.687,-1.53c2.142,-0.306 4.284,-0.306 6.425,-0.306c1.838,-0 3.979,-0 5.813,-0.306c3.058,-0.306 6.425,-0.612 9.483,-0.918l3.063,-0.306l0.304,-0c0.308,-0.306 0.917,-0.306 1.529,-0.612c3.063,-0.306 5.813,-0.612 8.875,-0.918c2.446,-0.306 4.896,-0.612 7.646,-0.918c2.45,-0.306 4.592,-0.611 7.037,-0.918c2.45,-0.306 4.592,-0.611 7.038,-0.918l0.612,0c0.917,0 1.53,0.307 2.142,0.307c0.308,-0 0.612,0.305 1.225,0.305l4.283,0.918l-3.366,3.366Z"></path>
    <path style="fill:#f9fafb;fill-rule:nonzero;" d="M185.465,67.384l-57.52,0l0,14.38l-11.32,0l0,79.854l11.32,-0l0,11.626l57.52,0l-0,-11.626l14.379,-0l0,-79.854l-14.379,0l-0,-14.38Zm8.872,19.887l0,69.146l-14.38,-0l0,11.626l-46.504,-0l-0,-11.626l-11.321,-0l0,-69.146l11.321,0l-0,-14.38l46.504,0l0,14.38l14.38,0Zm-51.706,59.967l31.513,-0l0,-53.848l-31.513,0l0,53.848Zm5.507,-48.34l20.499,-0l0,43.139l-20.499,-0l0,-43.139Zm-80.771,-45.893l-14.38,-0l-0,29.065l-11.32,0l-0,28.148l11.626,-0l-0.306,63.332l31.513,0l0.306,-63.332l20.193,-0l-0.306,-28.148l-20.193,0l0,-8.873l26.006,0l-0,-31.819l-43.139,0l-0,11.627Zm5.201,-6.119l32.431,-0l-0,20.498l-26.006,0l-0,19.887l20.193,0l-0,17.134l-20.193,-0l-0.306,63.332l-20.499,-0l0.306,-63.332l-11.626,-0l-0,-17.134l11.32,0l0,-29.065l14.38,-0l-0,-11.32Zm208.66,20.498l-57.519,0l-0,14.38l-11.321,0l0,79.854l11.321,-0l-0,11.626l57.519,0l-0,-11.626l14.38,-0l-0,-79.854l-14.38,0l-0,-14.38Zm8.872,19.887l0,69.146l-14.38,-0l0,11.626l-46.504,-0l-0,-11.626l-11.321,-0l0,-69.146l11.321,0l-0,-14.38l46.504,0l0,14.38l14.38,0Zm-52.012,59.967l31.514,-0l-0,-53.848l-31.514,0l0,53.848Zm5.507,-48.34l20.499,-0l0,43.139l-20.499,-0l0,-43.139Zm186.326,48.034l31.512,0l0,-20.499l-31.512,0l-0,20.499Zm5.507,-14.992l20.499,0l-0,9.485l-20.499,0l-0,-9.485Zm102.189,-64.556l-0,14.38l-6.121,0l-0,-14.38l-31.204,0l-0,105.86l31.204,0l-0,-63.026l11.629,-0l0,-11.626l26.004,-0l0,-31.208l-31.512,0Zm26.004,26.006l-26.004,0l-0,11.32l-11.625,0l-0,63.027l-20.196,-0l-0,-94.846l20.196,0l-0,14.38l17.133,0l0,-14.38l20.496,0l-0,20.499Zm-87.5,-26.006l-60.58,0l-0,31.514l40.08,-0l-0,5.507l-40.08,-0l-0,11.32l-11.32,0l-0,45.587l14.379,-0l0,11.626l33.961,-0l0,-10.402l6.118,-0l0,10.402l29.067,-0l-0,-93.01l-11.625,0l-0,-12.544Zm5.812,18.051l0,81.996l-18.05,-0l0,-10.403l-17.135,0l-0,10.403l-22.946,-0l-0,-11.626l-14.38,-0l-0,-34.573l11.626,0l-0,-11.32l40.081,-0l0,-16.522l-40.081,0l-0,-20.499l49.26,0l0,12.544l11.625,0Zm-147.775,61.803l31.512,-0l0.307,-54.154l-31.514,0l0,54.154l-0.305,-0Zm5.507,-48.34l20.805,-0l-0.307,43.139l-20.498,-0l-0,-43.139Zm40.385,-31.514l-40.385,0l-0,-26.006l-31.207,0l-0,131.866l71.592,0l0,-11.626l11.627,-0l-0,-79.854l-11.627,0l0,-14.38Zm6.12,19.887l-0,69.146l-11.627,-0l0,11.626l-60.578,-0l-0,-121.157l20.192,-0l0,26.005l40.386,0l0,14.38l11.627,0Z"></path>
</svg>
