<svg xmlns="http://www.w3.org/2000/svg" fill-rule="evenodd" stroke-linejoin="round" stroke-miterlimit="2" clip-rule="evenodd" preserveAspectRatio="xMinYMin" viewBox="0 0 1067 334"><path d="M0 0h1066.67v333.333H0z"/><path fill="#f9fafb" fill-rule="nonzero" d="m811.754 96.451.304.612v.612c0 4.59 1.225 7.037 4.284 8.567 1.225.918 2.141 2.141 2.754 3.059v.306c1.225 1.836 3.058 2.754 5.508 2.754h3.363c2.141 0 4.283-.306 7.037-.306.917 0 2.142-.612 2.754-.918l1.225-.918c4.896-3.365 9.484-6.731 12.85-11.014.613-.612.917-1.224 1.529-1.836q1.377-1.377 1.834-2.754c.308-.611 0-2.141-.304-2.753-.305-.306-.917-.612-1.225-.612-.305 0-.613 0-.613.306-2.142 1.53-3.671 3.059-4.283 4.284-4.284 7.648-11.625 8.566-16.521 8.872h-2.142c-1.221 0-4.896-.306-6.425-3.059s0-5.813.613-7.038c.612-1.223.916-2.753 1.225-3.977 1.529-9.484 6.729-16.521 15.296-21.722 1.225-.612 2.141-.918 3.062-.918 1.221 0 3.363.612 4.588 3.059.916 1.53 1.837 1.836 3.67 1.836.613 0 1.225 0 2.142-.306 1.529-.306 2.754-.918 3.671-3.671 1.837-4.284 1.837-8.261.308-12.239-.308-.611-.308-.917-.612-1.529-1.529-3.978-2.754-7.037-6.425-8.261-1.225-.612-2.754-.612-3.979-.612-2.142 0-4.284.918-6.73 3.06-1.529 1.223-3.058 2.141-4.591 3.365-1.221.918-2.446 1.53-3.671 2.448-.304.306-.613.612-.917.612-1.225.917-2.754 1.835-3.366 3.059-1.53 2.448-2.446 5.201-3.671 7.955-.613 1.53-1.225 3.059-2.142 4.589-.612 1.224-1.225 2.754-1.833 3.978-1.838 3.671-3.367 7.648-5.817 11.32-3.058 4.589-3.975 6.731-2.75 9.79m-23.558 17.746c.916-1.224 1.833-2.754 2.75-4.284.612-.918.921-1.835 1.533-2.753l2.75-4.59c3.063-4.589 6.121-9.178 6.733-14.685.613-3.366 1.834-6.731 3.976-9.485 3.366-4.589 5.816-9.79 7.345-15.909q.92-3.213 0-4.59c-.921-1.224-2.754-1.835-6.121-2.141h-.916c-3.367 0-5.813 2.447-8.263 4.895-2.141 2.447-3.975 3.365-6.116 3.365q-3.214 0-5.509-3.671c-1.225-2.142-3.058-3.366-4.896-3.366-.916 0-1.833.306-3.058.918-4.896 2.448-6.733 7.037-8.875 12.238l-.304.918c-.304 1.224-.917 2.142-1.225 3.366-1.833 4.895-3.975 10.096-7.342 14.992-3.366 4.589-5.812 10.096-7.954 15.603-1.837 5.813-5.2 8.872-10.404 10.097-7.646 1.529-14.992 4.283-22.333 8.26-.917.612-2.446.918-3.98.918-1.22 0-2.75-.306-3.975-.612-1.529-.612-2.754-1.53-3.366-3.059-.613-1.836-.613-3.978.308-5.507 1.221-2.142 3.671-4.59 6.425-5.202l1.221-.306c5.508-1.224 10.096-2.447 13.462-6.425.613-.917 1.838-1.529 2.45-1.835.305 0 .609-.307.609-.307l1.837-1.529c2.446-1.836 4.896-3.978 7.038-5.813l3.058-3.06c1.225-1.223 2.142-2.448 3.671-3.671 2.45-2.142 3.367-4.895 3.062-8.873v-.918c-.308-1.835-.308-3.671-.308-5.813 0-1.836-.612-3.365-1.529-4.283-.613-.612-1.529-1.53-3.058-1.224h-.613c-3.979.612-7.954 1.53-11.625 2.448-1.837.306-3.675.918-5.508 1.223-4.592.918-7.954 3.672-11.017 8.567-1.833 3.06-3.975 5.813-6.117 8.567-1.529 1.836-2.754 3.671-4.283 5.507-.917 1.224-1.529 2.754-2.142 4.283-.308.612-.308.918-.612 1.53s-.304 1.224-.613 1.836c-.612 1.53-1.225 3.365-2.445 4.589-1.225 1.53-3.063 1.836-4.896 2.448-.613 0-.917.306-1.529.611l-3.98 1.53.309-4.283v-1.53c0-1.529 0-3.059.608-4.895.613-1.53 1.534-3.059 2.142-4.283.921-1.53 1.837-3.06 2.142-4.589.308-1.225 0-3.366-.609-5.202-.612-1.53-1.837-2.753-3.366-3.977q-5.05-4.59-9.18-4.589h-1.225c-.916 0-2.141.611-3.058.917-1.529.306-2.754.918-4.283 1.224-4.284.612-6.73 1.53-8.871 3.978-1.838 1.835-3.675 3.671-5.204 5.507-1.53 1.224-2.755 2.753-4.284 4.283-1.221 1.224-2.446 2.754-3.058 3.977-1.225 3.06-2.754 6.12-3.979 9.179-.917 2.448-2.142 5.201-3.363 7.649-.612 1.224-1.225 2.447-1.837 3.365-.613.918-1.225 1.836-1.529 2.754-.613 1.224-.917 2.753-1.53 4.895v1.224c0 .918 0 1.836-.308 3.059-1.833 4.896.308 7.343 4.592 11.321l.304.306c.612.612 1.529.918 2.45.918.612 0 1.221 0 1.833-.306.921-.306 2.142-.918 3.063-1.53 1.529-.918 3.362-1.53 5.2-2.142 1.225-.306 2.446-.612 3.671-.612 1.529 0 3.058.306 4.283.918.612.306 1.529.918 1.837 2.448.609 1.836.305 4.895-.92 6.731-1.834 2.753-3.975 5.201-5.813 7.343-.612.917-1.529 1.53-2.142 2.447-.612.918-1.529 1.224-2.754 1.53-1.221.306-2.754.612-3.975.918-2.754.612-5.204.918-7.954 1.53-3.062.612-6.121 1.53-9.179 2.447-.921.306-1.838.918-2.754 1.224-1.225.612-2.45 1.224-3.979 1.836-.613.306-1.53.306-2.142.306q-2.75 0-4.588-1.836c-1.225-1.224-1.529-3.06-1.225-4.895.309-1.224.309-2.448.613-3.977.612-4.284 1.225-8.567 2.754-12.85 1.529-3.672 2.754-7.955 3.975-11.627.921-2.753 1.838-5.813 2.754-8.873.309-1.223.921-2.141 1.225-3.365.917-2.448 1.838-5.201 2.754-7.649 1.225-3.671 2.142-7.037 3.367-10.708l.917-3.06c.612-1.836 1.225-3.671 1.529-5.201 1.225-3.671 2.446-7.649 3.671-11.32.612-1.836 1.529-3.672 2.141-5.507q1.837-3.672 2.755-7.343a148 148 0 0 0 2.754-16.828c0-.917-.917-2.447-1.529-2.753-3.367-1.53-7.038-2.448-10.709-3.366-1.225-.306-2.141-.612-3.366-.917l-2.142.611c-.304.306-.613.306-.917.612-.921.612-1.529.918-2.141 1.53l-.309.306c-2.446 2.448-4.896 4.589-6.729 7.343-.612.918-1.225 1.53-1.837 2.448-2.755 3.671-5.813 7.648-7.646 11.626-1.838 4.283-3.979 8.872-7.038 13.462-1.837 2.753-3.366 5.813-4.896 8.872-.916 2.142-2.141 3.978-3.366 6.119-.613 1.224-1.529 2.142-2.142 3.06-.612.918-1.529 1.835-1.833 2.753-1.534 2.754-2.754 5.814-4.284 8.567-1.533 3.06-2.754 6.119-4.283 9.179-1.837 3.671-4.283 7.649-7.346 12.238-1.833 2.753-3.975 5.201-5.812 7.343-1.529 1.53-3.059 3.365-5.2 4.589-1.529.918-3.059 1.53-4.592 2.142-.608.306-1.529.612-2.142.917-.304.307-.916.307-1.22.612-1.225.613-2.45 1.53-3.98 1.53-1.833 0-3.366 1.224-5.2 2.448-.916.612-1.529 1.224-2.45 1.835-.608.307-1.529.918-2.141 1.225-4.284 2.753-8.871 5.507-13.767 6.73-4.896 1.53-8.567 3.366-11.933 6.731l-.304.306c-.917.918-2.142 2.142-3.671 2.448-4.592 1.53-8.263 3.671-11.625 7.037-1.225 1.224-6.734 5.507-8.263 6.425s-3.058 1.835-7.341 3.977c-3.367 1.53-5.509 4.589-5.509 6.425 0 .918.304 1.53.613 1.836.304.306.916.306 1.225.306.304 0 .916 0 1.529-.306 4.896-.918 5.2-1.224 7.954-2.448.917-.306 1.833-.918 3.367-1.53 2.446-.917 7.954-5.813 11.316-7.036 3.367-1.224 6.121-2.754 8.567-5.201 2.754-2.448 5.204-3.672 7.346-4.284 3.975-.612 7.342-2.448 9.787-5.507 3.98-4.59 8.567-6.119 12.85-7.343.613-.306 1.534-.306 2.142-.612.613-.306 1.225-.306 1.533-.306 1.834 0 3.363.918 4.284 2.448.916 1.529.916 3.365-.309 4.895-1.225 1.836-2.445 3.671-3.975 5.507-.92 1.224-1.533 2.142-2.45 3.366-.304.612-.916 1.223-1.529 1.835-.916 1.224-2.141 2.448-2.141 3.672-1.838 7.037-5.2 12.85-10.405 18.357-1.833 2.141-6.116 11.932-8.258 17.439-1.225 2.754-2.142 5.201-2.754 6.425-1.838 3.672-3.367 7.649-3.058 11.627.916-.612 1.833-1.225 2.445-1.836l.613-.612c3.058-3.366 6.425-6.731 8.871-10.402 2.754-3.672 5.204-7.65 7.65-11.321.916-1.224 1.529-2.447 2.45-3.671l2.75-4.59c.308-.611.921-1.529 1.225-2.141.612-.918.612-1.53.612-3.06.304-1.835.613-4.283 2.142-7.649.917-2.141 2.142-3.977 3.671-5.201 5.508-5.201 9.179-11.932 12.237-18.051.309-.918.921-1.836 1.225-2.753 1.529-3.06 3.059-6.425 5.2-8.873 7.346-8.261 16.217-13.156 26.313-14.074h1.225c2.141 0 3.975.612 4.896 1.836 1.529 1.836.916 4.283.612 6.119-1.225 3.977-1.837 7.954-2.142 11.932-.308 5.201-3.366 8.567-7.958 9.79q-3.668.918-7.342 2.754a276 276 0 0 0-13.154 7.037l-1.529.918c-2.45 1.53-4.283 3.671-4.592 6.119 0 1.224 0 2.753 1.838 4.283 2.142 1.836 4.587 3.366 7.037 4.895.917.612 2.142 1.224 3.059 2.142.612.306 1.225.612 1.529 1.224 1.529.918 2.754 1.835 4.283 2.448 3.367 1.529 4.588 3.977 3.979 7.036l-1.837 7.343c-.613 2.754-1.225 5.201-1.838 7.955-.608 2.753-1.22 4.895-1.529 6.731-.916 3.977-1.833 7.343-3.671 15.298-.612 2.753-1.225 7.649-1.225 12.544v2.448c0 2.141.309 3.977-.304 6.73-.612 1.836-.612 3.978-.612 6.12 0 .305 0 .917.308 1.223.304.918.304 1.836.304 2.754-.304 5.201 1.529 8.566 5.509 10.708l.612-.306c.304-.612.917-1.224 1.221-1.836 1.225-1.835 2.45-3.671 2.754-5.201.613-2.142.917-4.589.917-7.037 0-1.53.308-2.753.308-4.283.304-1.224.304-2.448.613-3.672.612-4.895 1.22-10.096 3.362-14.991v-2.142c0-.612 0-1.224.308-1.835 0-1.53.305-3.366.613-5.202.304-1.835.917-3.059 1.529-3.977.613-.918.917-1.836 1.225-3.671 0-.612.304-.918.304-1.53s.304-1.224.304-1.836c.309-1.53.309-3.366.613-5.201 0-3.366.308-7.343 2.45-11.015 1.833-3.365 3.975-4.283 5.504-4.283 1.533 0 3.063.612 4.592 2.142.916.918 1.529 1.836 2.446 2.753l.92.918c.305.612.917.918 1.221 1.53 3.367 3.672 6.734 7.649 8.263 12.85 0 .306 1.225 1.224 1.833 1.53.613 0 1.533.306 2.142.306 3.675 0 7.346-1.836 10.1-3.06 6.425-3.365 6.729-6.731 6.425-9.484-.613-4.284 0-7.955 1.529-12.238 1.221-3.06 2.446-6.119 3.362-8.873l.921-2.142c.917-2.142 1.529-4.589 2.446-6.731 1.225-3.059 2.142-6.119 3.367-9.484.304-.918.916-1.224 1.225-1.53l.304-.306c0-.306.304-.612.612-1.224.613-.918 1.225-1.835 1.225-2.447q1.377-4.59 1.834-8.261c.612-5.507 4.591-10.096 9.483-11.014 2.45-.612 4.896-1.53 7.346-2.754 3.671-1.836 7.646-3.366 12.237-3.671h.917c1.225 0 2.45-.306 3.979-.918.613-.306 1.529-.306 2.142-.612 7.037-1.836 12.85-3.06 18.354-4.284 3.979-.917 8.263-1.835 12.242-2.753l3.058-.612c6.729-1.53 14.379-3.06 21.721-4.589h.612c.613 0 1.53 0 2.45.612.917.306 2.142.611 3.059.611 2.141 0 4.283-.917 6.116-1.835 0 0 .613-.612.613-.918 0 0-.304-.306-.304-.612-1.225-.306-2.754-.306-4.284-.306h-.916c-1.225 0-2.45.306-3.675.306-1.529.306-2.75.306-4.284.306h-11.929c-3.366.306-6.733.918-10.096 1.53l-5.508.918-3.671.611-21.112 3.672c-.613 0-1.529.306-2.446.612-1.529.306-3.063.918-4.896.918h-3.671c-2.45 0-4.896.612-7.65 1.836-.916.305-1.837.611-2.754.611s-3.058 0-4.283-1.529c-1.834-1.836-.917-4.59-.613-6.425.309-1.224 1.225-1.836 1.529-2.448l.309-.306c.304-.612.916-1.53 1.529-2.448 1.225-1.835 2.142-3.365 2.446-4.895 1.225-5.813 4.591-10.096 7.346-12.85.916-1.224 2.141-1.835 3.362-2.753.308-.307.921-.612 1.225-.918l1.838-1.53 1.833 1.53.612.611 1.53 1.225-.613 1.835-.304.612c-.304.612-.304 1.224-.613 1.836-.916 2.447-.612 5.507.613 7.649.304.611 1.225 1.835 2.446 2.141 2.45.612 4.896.612 7.958.612 1.221 0 2.446 0 3.671-.306 1.529 0 3.058-.612 4.896-1.224 2.141-.612 4.283-1.223 6.729-1.53 7.342-.305 14.075-3.059 20.804-8.26 1.838-1.53 3.367-2.448 5.2-2.754 2.45 0 3.979 1.836 5.508 3.672.917 1.224 2.142 1.835 3.059 1.835 1.225 0 2.141-.917 2.45-1.835 1.225-1.836 1.833-4.283 2.446-6.731.308-.612.308-1.53.612-2.142.308-.918.613-1.835.613-3.06.304-2.141.916-4.283 2.141-6.425 3.059-5.2 6.425-9.79 10.404-14.379 2.75-3.366 6.117-6.425 9.175-9.485l3.675-3.671c.305-.306.917-.918 1.834-1.224.308 0 .612 0 .916-.306.613-.306 1.534-.306 2.45-.306 1.53 0 2.142.612 2.755.918 1.22 1.53 2.141 4.283 1.529 6.425-1.225 3.059-2.754 5.813-3.979 8.261l-.613 1.224q-1.833 3.67-3.671 6.425c-1.833 2.753-3.975 5.813-5.812 8.26q-1.375 1.836-2.754 3.672c-1.53 1.836-3.059 3.671-4.284 5.813-.304.612-.304 1.223-.304 1.53 0 .611.613 1.223 1.225 1.529 1.221.918 2.75 1.224 4.283 1.224 1.221 0 3.363-1.224 4.284-2.753m-68.229-23.253c1.529-2.142 3.058-4.895 5.2-6.731 1.529-1.224 3.062-2.142 4.591-3.059.613-.306 1.221-.612 1.834-1.224 1.225-.612 2.141-.918 3.062-.918 2.142 0 3.671 1.224 4.892 3.977l.612 1.224-.916 1.224c-.305.612-.613.918-.917 1.53-.921 1.53-1.838 3.059-3.063 4.283-2.141 1.836-4.587 3.365-7.033 4.895-.612.306-.921.612-1.533.918-.917.612-1.834.612-2.75.918h-.613l-2.754.612-.612-2.753c0-.307 0-.307-.305-.613 0-.917-.612-2.753.305-4.283m-122.992 95.457c-.308.612-.613 1.224-.613 1.836-.916 2.448-1.837 4.589-3.979 4.895h-1.221c-1.837 0-3.366-.306-4.895-.917-.613-.306-1.225-.306-2.142-.613l-3.671-.917 1.834-3.366c1.529-2.753 3.979-5.813 8.262-5.813 1.221 0 2.446 0 4.283.612l3.363.918zm9.787-59.661c-1.22.612-2.141.918-3.67 1.225-1.53 0-4.284 0-5.505-2.142-.92-1.836-.308-4.59.609-6.119 1.837-3.06 3.979-6.119 6.121-9.179 1.225-1.835 2.445-3.671 3.67-5.507.917-1.224 1.838-2.448 2.142-3.671 1.529-5.202 4.896-8.567 7.65-11.015.304-.306.613-.612.613-1.224.304-.611.612-1.223 1.22-1.835 1.225-1.53 2.45-2.754 3.675-4.284.609-.612.917-.917 1.53-1.529l1.22-1.53 1.838.612 1.529.612 2.142.917-.304 2.142c0 .612-.309.918-.309 1.53-.304 1.224-.304 2.447-.916 3.672l-.305 1.835c-.92 3.365-1.837 6.731-2.754 9.79-.308.918-.612 1.836-.921 2.448-1.529 4.284-2.75 8.873-5.2 13.156-1.225 2.448-3.67 3.978-6.116 5.507-.613.306-.921.612-1.534.918-1.529.918-3.362 1.836-4.891 2.448-.613.612-1.225.918-1.534 1.223m41.305 50.177a558 558 0 0 1-8.871 19.581l-6.425 13.768q-1.836 3.67-4.592 3.671c-1.221 0-2.446-.306-3.671-1.53-.916-.917-1.833-1.53-2.754-2.447-1.833-1.53-3.671-3.366-5.812-4.59-.917-.611-2.142-1.223-3.363-1.529l-.921-.306c-2.141-.918-5.812-3.06-3.671-8.873v-.306c.917-2.754 1.838-5.507 2.451-8.261.608-3.671 1.22-6.425 3.058-8.26 1.225-1.53 2.446-2.142 7.954-3.978 2.446-.917 5.2-1.835 7.954-2.447 2.142-.918 3.979-1.53 4.896-1.836l1.225-.612c1.833-.612 2.754-1.224 4.588-1.53.612 0 1.529-.306 2.754-.306 2.141 0 3.671.612 4.896 1.836 1.833 2.142 1.225 6.119.304 7.955m29.371-65.78c-.305.612-.609.918-.917 1.53-1.833 2.753-4.283 5.201-6.425 7.648q-1.374 1.377-2.754 2.754c-.613.918-1.529 1.224-2.446 1.836-1.529.918-3.671 2.142-5.813 2.142-1.837 0-3.67-.612-4.895-2.142-3.059-3.365-1.225-7.037 0-9.179.304-.306.304-.611.304-.918 3.366-7.036 7.954-12.85 12.546-18.663 1.225-1.53 2.445-3.059 3.67-4.283.917-1.224 3.671-3.365 5.813-3.365h1.225c1.833.611 3.058 2.447 3.671 3.671.304.306.304.918.612 1.224l.304.612v.611c1.225 6.732-2.141 11.933-4.895 16.522m347.258 15.603c-2.142-2.141-3.671-3.059-5.813-3.365-1.225 0-2.45-.306-3.366-.612-1.225-.306-2.142-.612-3.059-.612h-.612q-1.375 0-1.838.918a1.96 1.96 0 0 0 0 1.836c.613 1.835 1.838 2.447 4.284 3.365l1.225.306c2.45.612 4.591 1.224 6.425 1.224 1.529 0 2.45-.306 3.058-1.53zm-30.596-4.895c-2.446-.612-4.896-.918-7.65-.918h-1.221c-17.133-1.835-29.679-1.835-34.575-1.835-1.529 0-3.058 0-4.283.306-3.671.306-7.342.917-11.013 1.224-3.366.305-6.733.918-10.095 1.223h-1.838c-1.529 0-3.058 0-4.587-.305-1.53 0-2.755-.307-4.284-.307-1.225 0-2.45.307-3.979.612-.917 0-1.529.306-2.446.306l-3.366.612v-4.589c0-.918 0-1.836.304-2.754.308-1.53.612-3.365 1.225-4.895.308-.612.304-1.53.612-2.142.304-.918.304-1.529.613-2.447.304-1.836.612-3.978 1.529-5.813.612-1.224 1.529-2.448 2.446-3.366.612-.612 1.225-1.224 1.533-1.835.917-2.754 1.529-5.507 2.142-8.567.304-1.224.304-2.142.608-3.366 0-.612.308-1.223.308-2.141 0-1.224.305-2.142.613-3.366.612-2.447 1.529-4.895 2.142-7.037.612-1.529.916-3.059 1.529-4.589.304-.918.612-2.142.916-3.06.613-1.835.917-3.671 1.53-5.507 1.225-3.671 2.141-6.425.92-9.484-1.225-3.06-4.895-5.201-8.566-5.201h-.309c-3.366 0-6.116 1.835-6.729 4.589a400 400 0 0 1-3.366 11.626c-1.53 4.283-3.059 8.261-4.588 12.544l-1.225 3.06-.308.612c-.609 1.529-1.221 3.059-2.142 4.283-1.833 2.448-3.671 4.589-5.504 6.731l-1.529 1.836c-.613.612-1.225 1.53-2.146 2.141-.917.612-2.142.918-3.058.918-.613 0-1.225 0-1.834-.612-1.533-.917-2.754-3.365-2.141-5.201.612-2.754 1.529-5.813 2.141-7.955.609-2.447 1.529-4.895 2.142-7.037.612-1.529.917-3.059 1.529-4.589.304-.918.613-2.142.917-3.059.916-2.754 1.837-5.814 2.45-8.567.608-3.06.608-3.978.304-4.283-1.225-1.836-3.367-2.754-5.813-2.754-.92 0-1.837.306-2.754.612-2.141.918-3.366 1.836-3.058 5.813.304 2.754-.308 6.119-1.533 8.567-1.221 2.753-2.446 5.201-2.138 7.954.304 3.672-.004 8.873-4.287 13.462-.917.918-1.53 2.754-2.142 4.59-.304.917-.304 2.141-.608 3.059-.309 1.53-.613 3.366-1.225 4.896-1.53 3.977-.309 7.342 3.975 9.484 1.225.612 2.45.918 3.979 1.53l.916.306c1.225.305 2.142.612 3.063.612 1.833 0 3.362-.918 4.892-2.754.612-.918 1.533-2.142 2.145-3.06 1.53-2.141 3.059-4.283 4.892-6.425.921-1.223 2.45-1.529 3.675-1.529h.608l3.063-.918.304 3.059v.918c.304.918.304 2.448 0 3.672l-.304.917c-1.529 4.284-3.063 8.261-3.063 12.545 0 5.201-5.812 9.178-10.708 9.178-.608 0-1.529 0-2.142-.306-2.445-.612-5.2-.612-7.341-.612h-.613c-.612 0-1.529 0-2.141.306-.917 0-1.834.306-2.755.306h-14.379c-2.446 0-4.283 0-6.116.306-5.205.306-10.1.918-15.3 1.836-2.142.306-3.975.612-6.117.918-1.533.306-2.754.306-4.283.306-2.142.305-3.98.306-5.817.612-2.446.305-4.588.918-7.033 1.529-2.755.612-5.509 1.224-8.263 1.53-3.058.612-6.425.918-9.483 1.224-3.063.306-5.813.612-8.875 1.224-1.221.306-1.834.918-2.142 1.529-.304.918-.304 1.836.308 2.754 4.588 6.425 11.93 9.79 18.355 12.85 1.837.918 3.366 1.836 4.895 3.365 1.53 1.224 2.755 2.448 3.98 3.672q.92.918 1.833 1.836c.308.306.612.612.921.917q1.373.919 2.754 2.754c1.833 3.06 4.892 5.201 8.567 7.343 1.22.612 2.445 1.836 3.362 2.753 1.838 1.53 3.979 3.978 6.425 6.425 1.225 1.53 2.45 3.06 3.367 4.284.612.918.916 1.53 1.529 2.448.612 1.223 1.529 2.447 2.45 3.365 2.75 2.753 6.425 4.589 11.317 5.813 1.533.306 2.754.612 3.979.306 3.058 0 5.2-1.224 7.037-3.671 1.529-2.142 3.975-3.366 6.117-4.59l.308-.306c2.142-1.224 3.367-2.447 4.284-4.283 1.837-3.671 3.975-7.649 6.729-11.626 2.141-2.754 4.283-5.507 6.425-7.955.921-.918 1.837-2.142 2.754-3.06 0-.305.308-.611.308-.917.304-.918.917-2.142 1.221-3.06.921-2.142 1.533-3.977 2.45-6.119.304-1.224.917-2.448 1.225-3.365 1.833-4.59 3.671-9.485 5.2-14.074 1.225-4.284 4.283-5.202 6.425-5.202.917 0 1.833.001 3.058.307 3.98.918 7.65 1.529 11.321 1.529 2.446 0 5.2-.306 7.65-.918 3.975-.918 8.259-1.529 12.238-2.141h.916c3.059-.306 5.509-.612 7.955-.612h1.529c8.875 0 32.125 2.447 35.187 3.06 1.221 0 2.754.305 3.975.611 1.529.306 3.063.612 4.284.612 1.225 0 1.837-.306 2.45-.918.916-.918 1.529-2.141 1.529-3.365-.917-1.224-1.838-2.754-3.367-3.06m-107.083 9.791-.917 1.224c-.613.612-.917 1.223-1.225 1.835-.612.918-1.225 1.53-2.142 2.448-1.225 1.53-2.445 3.059-3.67 4.589-3.367 4.895-6.121 8.873-7.955 12.238-1.225 2.448-2.45 4.284-3.67 6.731-.613 1.224-.921 2.142-1.226 2.754-.612 1.224-.916 2.142-1.837 3.365-1.221 1.836-2.446 2.448-3.058 3.06-.613.612-1.225.918-1.838 2.142-.304.611-.608 1.223-1.221 1.835-.612.918-1.225 1.836-1.529 2.448-1.225 3.06-3.367 3.671-4.591 3.671-1.53 0-2.755-.611-4.284-1.835-.917-.918-1.529-1.53-2.141-2.448-.305-.612-.917-.918-1.226-1.53-3.362-3.671-6.425-6.731-9.787-9.79-3.671-3.672-7.65-7.343-12.85-11.932-.921-.918-1.837-1.53-3.367-2.448l-.916-.612c-2.142-1.224-4.592-2.754-7.038-3.977-1.837-.918-3.979-1.53-6.425-2.448-.917-.306-1.837-.612-3.058-.918l-4.284-1.53 3.363-3.059c2.754-2.448 5.813-2.754 8.262-2.754.613 0 1.53 0 1.834-.305 4.591-.613 9.487-1.225 14.687-1.53 2.142-.306 4.284-.306 6.425-.306 1.838 0 3.979 0 5.813-.306 3.058-.306 6.425-.612 9.483-.918l3.063-.306h.304c.308-.306.917-.306 1.529-.612 3.063-.306 5.813-.612 8.875-.918 2.446-.306 4.896-.612 7.646-.918 2.45-.306 4.592-.611 7.037-.918 2.45-.306 4.592-.611 7.038-.918h.612c.917 0 1.53.307 2.142.307.308 0 .612.305 1.225.305l4.283.918z"/><path fill="#f9fafb" fill-rule="nonzero" d="M185.465 67.384h-57.52v14.38h-11.32v79.854h11.32v11.626h57.52v-11.626h14.379V81.764h-14.379zm8.872 19.887v69.146h-14.38v11.626h-46.504v-11.626h-11.321V87.271h11.321v-14.38h46.504v14.38zm-51.706 59.967h31.513V93.39h-31.513zm5.507-48.34h20.499v43.139h-20.499zM67.367 53.005h-14.38V82.07h-11.32v28.148h11.626l-.306 63.332H84.5l.306-63.332h20.193l-.306-28.148H84.5v-8.873h26.006V41.378H67.367zm5.201-6.119h32.431v20.498H78.993v19.887h20.193v17.134H78.993l-.306 63.332H58.188l.306-63.332H46.868V87.271h11.32V58.206h14.38zm208.66 20.498h-57.519v14.38h-11.321v79.854h11.321v11.626h57.519v-11.626h14.38V81.764h-14.38zm8.872 19.887v69.146h-14.38v11.626h-46.504v-11.626h-11.321V87.271h11.321v-14.38h46.504v14.38zm-52.012 59.967h31.514V93.39h-31.514zm5.507-48.34h20.499v43.139h-20.499zm186.326 48.034h31.512v-20.499h-31.512zm5.507-14.992h20.499v9.485h-20.499zm102.189-64.556v14.38h-6.121v-14.38h-31.204v105.86h31.204v-63.026h11.629V98.592h26.004V67.384zm26.004 26.006h-26.004v11.32h-11.625v63.027h-20.196V72.891h20.196v14.38h17.133v-14.38h20.496zm-87.5-26.006h-60.58v31.514h40.08v5.507h-40.08v11.32h-11.32v45.587H418.6v11.626h33.961v-10.402h6.118v10.402h29.067v-93.01h-11.625zm5.812 18.051v81.996h-18.05v-10.403h-17.135v10.403h-22.946v-11.626h-14.38v-34.573h11.626v-11.32h40.081V93.39h-40.081V72.891h49.26v12.544zm-147.775 61.803h31.512l.307-54.154h-31.514v54.154zm5.507-48.34h20.805l-.307 43.139h-20.498zm40.385-31.514h-40.385V41.378h-31.207v131.866h71.592v-11.626h11.627V81.764H380.05zm6.12 19.887v69.146h-11.627v11.626h-60.578V46.886h20.192v26.005h40.386v14.38z"/></svg>