<?xml version="1.0" encoding="UTF-8" standalone="no"?>
<!DOCTYPE svg PUBLIC "-//W3C//DTD SVG 1.1//EN" "http://www.w3.org/Graphics/SVG/1.1/DTD/svg11.dtd">
<svg width="100%" height="100%" viewBox="0 0 1667 921" version="1.1" xmlns="http://www.w3.org/2000/svg" xmlns:xlink="http://www.w3.org/1999/xlink" xml:space="preserve" xmlns:serif="http://www.serif.com/" style="fill-rule:evenodd;clip-rule:evenodd;stroke-linejoin:round;stroke-miterlimit:2;">
    <g>
        <path d="M113.518,770.162l86.227,-0.133l0.08,-0l0.478,-0.239l0.185,-0.504l0,-104.456l0.133,-0.425l0.425,-0.133l25.3,0l0.531,0.186l0.159,0.504l0,254.889l-0.265,0.664l-0.664,0.265l-24.53,0l-0.425,-0.079l-0.345,-0.239l-0.239,-0.345l-0.08,-0.425l0,-124.843l-0.292,-0.717l-0.716,-0.292l-85.962,-0.026l-85.961,0.026l-0.399,0.08l-0.451,0.371l-0.159,0.558l-0,124.843l-0.08,0.425l-0.239,0.345l-0.345,0.239l-0.425,0.079l-24.53,0l-0.664,-0.265l-0.265,-0.664l-0,-254.889l0.186,-0.531l0.504,-0.159l25.3,0l0.425,0.133l0.133,0.425l-0,104.456l0.186,0.477l0.424,0.239l0.133,0.027l86.227,0.133Z" style="fill:#132f33;fill-rule:nonzero;"/>
        <path d="M348.386,920.727l-25.619,0.08l-0.504,-0.133l-0.345,-0.345l-0.159,-0.478l0.079,-0.478l117.899,-254.517l0.371,-0.425l0.531,-0.159l24.929,0.053l0.531,0.159l0.371,0.425l117.872,254.464l0.08,0.399l-0.053,0.398l-0.372,0.451l-0.584,0.186l-26.787,-0.053l-0.531,-0.16l-0.371,-0.424l-36.557,-79.477l-0.371,-0.425l-0.531,-0.159l-131.916,-0l-0.531,0.159l-0.371,0.425l-36.158,79.45l-0.399,0.451l-0.504,0.133Zm48.529,-106.314l-0.106,0.584l0.186,0.557l0.451,0.425l0.558,0.133l108.845,0.186l0.452,-0.08l0.371,-0.239l0.266,-0.345l0.106,-0.425l-0.106,-0.584l-54.211,-119.507l-0.345,-0.451l-0.478,-0.239l-0.531,-0l-0.477,0.239l-0.346,0.424l-54.635,119.322Z" style="fill:#132f33;fill-rule:nonzero;"/>
        <path d="M707.311,897.208l161.596,0.08l0.664,0.212l0.345,0.398l0.133,0.531l-0.027,21.21l-0.079,0.425l-0.266,0.371l-0.371,0.266l-0.425,0.079l-187.932,0l-0.424,-0.079l-0.372,-0.266l-0.266,-0.371l-0.079,-0.425l-0.053,-254.252l0.079,-0.425l0.266,-0.371l0.371,-0.266l0.425,-0.079l24.159,0.026l0.69,0.239l0.345,0.398l0.106,0.505l-0.026,230.652l0.079,0.425l0.266,0.372l0.371,0.265l0.425,0.08Z" style="fill:#132f33;fill-rule:nonzero;"/>
        <rect x="960.417" y="663.927" width="26.388" height="256.482" style="fill:#132f33;"/>
        <path d="M1145.91,840.719l-36.184,79.451l-0.372,0.424l-0.531,0.16l-25.618,0.026l-0.638,-0.212l-0.345,-0.558l0.053,-0.663l117.872,-254.464l0.266,-0.345l0.637,-0.239l24.902,-0.053l0.531,0.159l0.371,0.425l117.952,254.57l0.08,0.478l-0.16,0.478l-0.345,0.345l-0.504,0.132l-26.813,-0.053l-0.399,-0.079l-0.504,-0.505l-36.53,-79.503l-0.292,-0.372l-0.398,-0.186l-0.212,-0.026l-131.916,0.026l-0.531,0.16l-0.372,0.398l0,0.026Zm11.575,-26.465l-0.106,0.663l0.133,0.478l0.292,0.372l0.398,0.265l0.478,0.08l108.368,0.212l0.637,-0.186l0.478,-0.424l0.212,-0.638l-0.106,-0.637l-53.972,-119.082l-0.478,-0.558l-0.663,-0.212l-0.717,0.159l-0.504,0.505l-0.054,0.106l-54.396,118.897Z" style="fill:#132f33;fill-rule:nonzero;"/>
        <path d="M1543.72,800.556l-18.371,-21.581l-18.61,-22.537l-18.875,-23.44l-19.141,-24.422l-0.956,-1.008l-0.372,-0.186l-0.292,-0.027l-0.239,0.213l-0.185,0.371l-0.133,1.381l-0,210.372l-0.08,0.425l-0.212,0.345l-0.345,0.212l-0.425,0.08l-24.052,-0l-0.637,-0.08l-0.452,-0.265l-0.265,-0.478l-0.106,-0.637l-0,-253.588l0.106,-0.638l0.265,-0.477l0.478,-0.266l0.637,-0.106l21.504,-0l0.903,0.106l0.876,0.319l0.743,0.504l0.637,0.637l23.946,30.58l24.105,29.997l24.292,29.359l24.477,28.749l18.344,21.581l18.61,22.511l18.876,23.466l19.14,24.395l0.956,1.009l0.372,0.212l0.318,-0l0.213,-0.186l0.186,-0.398l0.132,-1.38l0,-210.373l0.08,-0.398l0.239,-0.345l0.345,-0.239l0.398,-0.079l24.053,-0l0.637,0.079l0.451,0.292l0.292,0.451l0.08,0.638l-0,253.588l-0.08,0.663l-0.292,0.452l-0.451,0.265l-0.664,0.106l-21.504,0l-0.902,-0.106l-0.85,-0.318l-0.77,-0.478l-0.637,-0.664l-23.919,-30.58l-24.132,-29.97l-24.291,-29.359l-24.451,-28.749Z" style="fill:#132f33;fill-rule:nonzero;"/>
    </g>
    <g>
        <rect x="532.255" y="0.159" width="11.362" height="448.405" style="fill:#ff5033;"/>
        <rect x="582.935" y="0.398" width="34.565" height="448.405" style="fill:#ff5033;"/>
        <rect x="657.03" y="0.504" width="66.582" height="448.246" style="fill:#ff5033;"/>
        <rect x="943.241" y="0.265" width="66.794" height="448.299" style="fill:#ff5033;"/>
        <rect x="1049.54" y="0" width="34.512" height="448.352" style="fill:#ff5033;"/>
        <rect x="1123.66" y="0.212" width="10.513" height="448.352" style="fill:#ff5033;"/>
        <rect x="773.017" y="178.04" width="121.111" height="91.635" style="fill:#ff5033;"/>
    </g>
</svg>
