<svg xmlns="http://www.w3.org/2000/svg" fill-rule="evenodd" stroke-linejoin="round" stroke-miterlimit="2" clip-rule="evenodd" preserveAspectRatio="xMinYMin" viewBox="0 0 1667 921"><path fill="#132f33" fill-rule="nonzero" d="m113.518 770.162 86.227-.133h.08l.478-.239.185-.504V664.83l.133-.425.425-.133h25.3l.531.186.159.504v254.889l-.265.664-.664.265h-24.53l-.425-.079-.345-.239-.239-.345-.08-.425V794.849l-.292-.717-.716-.292-85.962-.026-85.961.026-.399.08-.451.371-.159.558v124.843l-.08.425-.239.345-.345.239-.425.079H.929l-.664-.265-.265-.664V664.962l.186-.531.504-.159h25.3l.425.133.133.425v104.456l.186.477.424.239.133.027zm234.868 150.565-25.619.08-.504-.133-.345-.345-.159-.478.079-.478 117.899-254.517.371-.425.531-.159 24.929.053.531.159.371.425 117.872 254.464.08.399-.053.398-.372.451-.584.186-26.787-.053-.531-.16-.371-.424-36.557-79.477-.371-.425-.531-.159H386.349l-.531.159-.371.425-36.158 79.45-.399.451zm48.529-106.314-.106.584.186.557.451.425.558.133 108.845.186.452-.08.371-.239.266-.345.106-.425-.106-.584-54.211-119.507-.345-.451-.478-.239h-.531l-.477.239-.346.424zm310.396 82.795 161.596.08.664.212.345.398.133.531-.027 21.21-.079.425-.266.371-.371.266-.425.079H680.949l-.424-.079-.372-.266-.266-.371-.079-.425-.053-254.252.079-.425.266-.371.371-.266.425-.079 24.159.026.69.239.345.398.106.505-.026 230.652.079.425.266.372.371.265z"/><path fill="#132f33" d="M960.417 663.927h26.388v256.482h-26.388z"/><path fill="#132f33" fill-rule="nonzero" d="m1145.91 840.719-36.184 79.451-.372.424-.531.16-25.618.026-.638-.212-.345-.558.053-.663 117.872-254.464.266-.345.637-.239 24.902-.053.531.159.371.425 117.952 254.57.08.478-.16.478-.345.345-.504.132-26.813-.053-.399-.079-.504-.505-36.53-79.503-.292-.372-.398-.186-.212-.026-131.916.026-.531.16-.372.398zm11.575-26.465-.106.663.133.478.292.372.398.265.478.08 108.368.212.637-.186.478-.424.212-.638-.106-.637-53.972-119.082-.478-.558-.663-.212-.717.159-.504.505-.054.106zm386.235-13.698-18.371-21.581-18.61-22.537-18.875-23.44-19.141-24.422-.956-1.008-.372-.186-.292-.027-.239.213-.185.371-.133 1.381v210.372l-.08.425-.212.345-.345.212-.425.08h-24.052l-.637-.08-.452-.265-.265-.478-.106-.637V665.706l.106-.638.265-.477.478-.266.637-.106h21.504l.903.106.876.319.743.504.637.637 23.946 30.58 24.105 29.997 24.292 29.359 24.477 28.749 18.344 21.581 18.61 22.511 18.876 23.466 19.14 24.395.956 1.009.372.212h.318l.213-.186.186-.398.132-1.38V665.307l.08-.398.239-.345.345-.239.398-.079h24.053l.637.079.451.292.292.451.08.638v253.588l-.08.663-.292.452-.451.265-.664.106h-21.504l-.902-.106-.85-.318-.77-.478-.637-.664-23.919-30.58-24.132-29.97-24.291-29.359z"/><path fill="#ff5033" d="M532.255.159h11.362v448.405h-11.362zm50.68.239H617.5v448.405h-34.565zm74.095.106h66.582V448.75H657.03zM943.241.265h66.794v448.299h-66.794zM1049.54 0h34.512v448.352h-34.512zm74.12.212h10.513v448.352h-10.513zM773.017 178.04h121.111v91.635H773.017z"/></svg>