<?xml version="1.0" encoding="UTF-8"?><svg id="Artwork" xmlns="http://www.w3.org/2000/svg" viewBox="0 0 228.94 34.17"><defs><style>.cls-1{fill:#2dbad7;}.cls-2{fill:#002776;}</style></defs><g><path class="cls-2" d="M88.64,2.02c.16-.14-11.29,17.96-11.34,17.92v10.22c.05,.14-9.56,.14-9.51,0v-10.22S56.29,1.88,56.45,2.02c-.16-.14,10.13-.14,10.19,0-.06-.14,5.91,9.28,5.91,9.33,0-.05,5.97-9.47,5.91-9.33,.06-.14,10.35-.14,10.19,0"/><path class="cls-2" d="M51.23,2.02c.05-.14-9.84-.14-9.79,0-.05-.14-11.42,28.29-11.26,28.14-.16,.14,9.53,.14,9.63,0,.03-.12,1.34-3.87,1.39-3.97-.05,.1,10.01,.1,9.96,0,.05,.1,1.28,3.85,1.31,3.97,.09,.14,10.03,.14,9.87,0,.16,.14-11.05-28.28-11.1-28.14Zm-7.66,17.37s2.76-7.92,2.76-7.88c0-.04,2.62,7.92,2.59,7.88,.03,.04-5.38,.04-5.35,0Z"/><path class="cls-2" d="M103.08,11.84c-3.06-.51-6.08-.35-6.32-1.62-.25-1.17,1.35-1.44,2.55-1.38,2.5-.11,6.08,.99,8.17,1.79,.01-.02,4.07-6.35,4.07-6.35-3.48-1.85-8.77-2.97-13.8-2.6-6.55,.49-10.48,4.54-10.25,9.26,.02,6.06,5.98,7.84,8.89,8.33,4.25,.82,7.54,.46,7.41,2.07-.02,1.1-2.06,1.46-4.24,1.32-2.47,0-5.87-.72-8.96-2.63l-4.24,6.59c4.88,3.45,10.73,4.21,15.35,3.87,6.15-.56,10.85-3.46,11.29-8.48,.92-6.75-4.52-9.4-9.91-10.18"/><path class="cls-2" d="M23.32,1.92c-2.46,0-4.61,.03-4.54,.1V11.39H9.39V2.02c.07-.07-2.08-.1-4.54-.1S-.07,1.95,0,2.02V30.17c0,.07,2.42,.1,4.85,.1s4.55-.03,4.54-.1v-9.39h9.39v9.39c0,.07,2.11,.1,4.54,.1s4.86-.03,4.85-.1V2.02c.07-.07-2.39-.1-4.85-.1"/><g><path class="cls-2" d="M124.92,1.93h1.32l2.7,9.42,2.67-9.45h1.05l2.68,9.45,2.7-9.42h1.26l-3.42,11.53h-1.08l-2.68-9.24-2.68,9.24h-1.08l-3.43-11.53Z"/><path class="cls-2" d="M139.18,9.19v-.11c0-2.49,1.6-4.38,3.79-4.38s3.78,1.88,3.78,4.37v.1c0,2.49-1.6,4.4-3.79,4.4s-3.78-1.88-3.78-4.37Zm6.38-.02v-.08c0-1.91-1.14-3.34-2.6-3.34s-2.57,1.42-2.57,3.32v.08c0,1.91,1.13,3.34,2.58,3.34s2.58-1.44,2.58-3.32Z"/><path class="cls-2" d="M148.35,4.85h1.18v1.88c.51-1.19,1.54-2.06,2.93-1.99v1.28h-.07c-1.59,0-2.86,1.11-2.86,3.3v4.06h-1.18V4.85Z"/><path class="cls-2" d="M153.99,1.57h1.18v7.93l3.78-4.64h1.42l-2.99,3.58,3.11,4.94h-1.39l-2.52-4.01-1.41,1.65v2.35h-1.18V1.57Z"/><path class="cls-2" d="M161.97,1.71h1.31v1.39h-1.31V1.71Zm.07,3.14h1.18V13.37h-1.18V4.85Z"/><path class="cls-2" d="M165.57,4.85h1.18v1.39c.47-.85,1.24-1.55,2.52-1.55,1.73,0,2.78,1.19,2.78,3.11v5.58h-1.18v-5.25c0-1.52-.72-2.37-1.96-2.37s-2.16,.98-2.16,2.44v5.18h-1.18V4.85Z"/><path class="cls-2" d="M173.9,14.94l.47-.95c.8,.52,1.77,.83,2.75,.83,1.6,0,2.6-.85,2.6-2.55v-1.24c-.59,.95-1.46,1.75-2.81,1.75-1.73,0-3.35-1.44-3.35-4.01v-.07c0-2.57,1.64-4.02,3.37-4.02,1.36,0,2.22,.78,2.8,1.68v-1.52h1.18v7.39c0,1.16-.33,2.03-.93,2.63-.65,.65-1.62,.98-2.83,.98-1.14,0-2.24-.29-3.24-.92Zm5.85-6.18v-.05c0-1.83-1.26-2.96-2.57-2.96s-2.42,1.1-2.42,2.96v.03c0,1.85,1.1,2.98,2.42,2.98s2.57-1.14,2.57-2.96Z"/><path class="cls-2" d="M187.96,5.9h-1.05v-1.03h1.05v-.78c0-.88,.25-1.55,.65-1.98,.39-.39,.95-.61,1.65-.61,.46,0,.8,.07,1.13,.16v1.05c-.34-.1-.64-.16-.96-.16-.85,0-1.29,.52-1.29,1.6v.72h2.22v1.03h-2.21v7.47h-1.19V5.9Z"/><path class="cls-2" d="M191.77,9.19v-.11c0-2.49,1.6-4.38,3.79-4.38s3.78,1.88,3.78,4.37v.1c0,2.49-1.6,4.4-3.79,4.4s-3.78-1.88-3.78-4.37Zm6.38-.02v-.08c0-1.91-1.14-3.34-2.6-3.34s-2.57,1.42-2.57,3.32v.08c0,1.91,1.13,3.34,2.58,3.34s2.58-1.44,2.58-3.32Z"/><path class="cls-2" d="M201.23,4.85h1.18v1.88c.51-1.19,1.54-2.06,2.93-1.99v1.28h-.07c-1.59,0-2.86,1.11-2.86,3.3v4.06h-1.18V4.85Z"/><path class="cls-2" d="M131.07,21.69h1.26l-3.03,8.67c-.61,1.77-1.34,2.37-2.49,2.37-.54,0-1.05-.13-1.54-.39l.36-.98c.33,.18,.69,.31,1.11,.31,.64,0,1.05-.36,1.47-1.46l-3.27-8.52h1.28l2.55,7.02,2.29-7.02Z"/><path class="cls-2" d="M132.86,26.02v-.11c0-2.49,1.6-4.38,3.79-4.38s3.78,1.88,3.78,4.37v.1c0,2.49-1.6,4.4-3.79,4.4s-3.78-1.88-3.78-4.37Zm6.38-.02v-.08c0-1.91-1.14-3.34-2.6-3.34s-2.57,1.42-2.57,3.32v.08c0,1.91,1.13,3.34,2.58,3.34s2.58-1.44,2.58-3.32Z"/><path class="cls-2" d="M141.79,27.28v-5.59h1.18v5.25c0,1.52,.72,2.37,1.96,2.37s2.16-.96,2.16-2.42v-5.2h1.18v8.52h-1.18v-1.39c-.47,.85-1.24,1.55-2.52,1.55-1.73,0-2.78-1.19-2.78-3.09Z"/><path class="cls-2" d="M150.6,21.69h1.18v1.88c.51-1.19,1.54-2.06,2.93-1.99v1.28h-.07c-1.59,0-2.86,1.11-2.86,3.3v4.06h-1.18v-8.52Z"/><path class="cls-2" d="M160.95,28.23v-5.49h-1.03v-1.05h1.03v-2.49h1.18v2.49h2.22v1.05h-2.22v5.3c0,.9,.49,1.23,1.23,1.23,.33,0,.65-.08,1-.23v1.01c-.38,.18-.78,.29-1.28,.29-1.21,0-2.13-.59-2.13-2.11Z"/><path class="cls-2" d="M165.39,26.02v-.11c0-2.49,1.6-4.38,3.79-4.38s3.78,1.88,3.78,4.37v.1c0,2.49-1.6,4.4-3.79,4.4s-3.78-1.88-3.78-4.37Zm6.38-.02v-.08c0-1.91-1.14-3.34-2.6-3.34s-2.57,1.42-2.57,3.32v.08c0,1.91,1.13,3.34,2.58,3.34s2.58-1.44,2.58-3.32Z"/><path class="cls-2" d="M174.86,21.69h1.18v1.36c.47-.8,1.16-1.52,2.39-1.52,1.14,0,1.95,.62,2.35,1.55,.52-.83,1.31-1.55,2.62-1.55,1.65,0,2.71,1.14,2.71,3.12v5.56h-1.18v-5.25c0-1.55-.69-2.37-1.85-2.37s-2.01,.88-2.01,2.42v5.2h-1.18v-5.27c0-1.52-.69-2.35-1.85-2.35s-2.01,1-2.01,2.44v5.18h-1.18v-8.52Z"/><path class="cls-2" d="M187.66,26.02v-.11c0-2.49,1.6-4.38,3.79-4.38s3.78,1.88,3.78,4.37v.1c0,2.49-1.6,4.4-3.79,4.4s-3.78-1.88-3.78-4.37Zm6.38-.02v-.08c0-1.91-1.14-3.34-2.6-3.34s-2.57,1.42-2.57,3.32v.08c0,1.91,1.13,3.34,2.58,3.34s2.58-1.44,2.58-3.32Z"/><path class="cls-2" d="M196.83,21.69h1.18v1.88c.51-1.19,1.54-2.06,2.93-1.99v1.28h-.07c-1.59,0-2.86,1.11-2.86,3.3v4.06h-1.18v-8.52Z"/><path class="cls-2" d="M202.47,21.69h1.18v1.88c.51-1.19,1.54-2.06,2.93-1.99v1.28h-.07c-1.59,0-2.86,1.11-2.86,3.3v4.06h-1.18v-8.52Z"/><path class="cls-2" d="M207.45,26.02v-.11c0-2.49,1.6-4.38,3.79-4.38s3.78,1.88,3.78,4.37v.1c0,2.49-1.6,4.4-3.79,4.4s-3.78-1.88-3.78-4.37Zm6.38-.02v-.08c0-1.91-1.14-3.34-2.6-3.34s-2.57,1.42-2.57,3.32v.08c0,1.91,1.13,3.34,2.58,3.34s2.58-1.44,2.58-3.32Z"/><path class="cls-2" d="M215.66,21.69h1.24l1.88,6.79,1.95-6.8h1l1.95,6.8,1.9-6.79h1.19l-2.55,8.59h-1.06l-1.93-6.64-1.95,6.64h-1.06l-2.55-8.59Z"/></g></g><g><polygon class="cls-1" points="9.39 11.39 18.78 11.39 9.39 2 9.39 11.39"/><polygon class="cls-1" points="9.39 30.17 18.78 20.78 9.39 20.78 9.39 30.17"/><polygon class="cls-1" points="18.78 11.39 18.78 20.78 23.47 16.09 18.78 11.39"/></g></svg>