<svg xmlns="http://www.w3.org/2000/svg" fill-rule="evenodd" stroke-linejoin="round" stroke-miterlimit="2" clip-rule="evenodd" preserveAspectRatio="xMinYMin" viewBox="0 0 267 67"><path fill="#ff6200" d="M192.319 24.515c-.379-.717-1.265 0-2.151-.38 0 .38 0 .718.548 1.055a2.9 2.9 0 0 1 1.603-.675m1.393-9.367c0-.338-.338-.717-.844-1.055h-4.304c0 .717.549 1.055 1.055 1.055 0 .717.549.844.717 1.055.549.38.718.38 1.266 0 .506.38.717-.338.844 0 0 1.055 0 1.561-.127 2.405-.211 1.266-1.265 1.097-2.151 1.603 0 .549-.549 1.435 0 1.983.548-.379.886-.548 1.772-.886 0-.548.548-1.097 1.266-1.434 0-1.604.506-3.123.506-4.726m8.017 10.211v-.844h-1.772l-.169.169zM191.222 9.114c-.168-1.687-2.109-1.898-2.995-2.574h-.718c-1.392.507-1.687 1.941-1.898 3.081.506 1.603 1.519.548 2.236 1.603.717-.506 2.532-1.772 3.375-2.11m3.924 1.941c-.337-.337-1.434.169-1.94.38-.718.169-1.266.675-1.266 1.266h1.941c.211-.591.928-1.266 1.265-1.646m8.735 3.755s.379 0 0-.168l-3.756-.549c-.337.549-1.266.549-1.266 1.055h-.337c.38 1.435.38 2.954.38 4.557.717.169 1.434.506 1.434 1.603.675.338 1.393.507 2.11 1.055.295-.169.422-.717.633-1.266-.675-.844-2.236-.337-2.236-1.941l-1.055-.337c0-1.055 0-2.11-.169-2.785l.169-.169c0 .169.169.338.548.718.675 0 1.393.168 2.11-.422.295-.127.295-1.013.633-1.013.295 0 .633 0 .844-.338zm-2.701-2.109c0-.591-.169-.591-.337-.591-.886 0-.886-1.392-1.604-1.055-.337 0-.717-.337-1.266 0 0 .169 0 .169.38.169.886 0 .549 1.266 1.266 1.435h1.561zm5.907-1.097c.38-.886.38-2.49-.337-3.334-.38-.675-1.266-1.054-2.11-1.73l-1.266.676c-.633.379-.97 1.054-.97 1.898 1.139.507 2.405 1.941 2.953 2.996h.507c.506-.506.844 0 1.265-.506zm-36.455 49.071c-.169 0-.717-.506-1.266-.506-.506 1.055 0 1.772 0 2.996 0 .548-.169 1.097-.169 1.097-.337 0-.97-.718-1.097-1.435V60l1.477-1.941c1.055.675 1.392 1.73 1.055 2.616m4.557-1.941c0 .718-.169 1.435-.549 1.941-.169-.675-.675-1.561-1.519-1.561-.717 1.392-.886 1.941-.169 4.051-.548.548-.886.717-1.603 1.097-.38-.718-.38-1.983-.38-2.659 0-1.265.211-2.531.549-3.544.548-.548.886-1.434 1.434-1.814h1.857c-.844 0-.844.759-.844 1.266.506.168 1.224.379 1.224 1.223m6.244 1.055c0 1.435-2.32 3.376-2.32 3.376 0-.844.548-1.941.548-2.996 0 0-.759-.717-1.434-.717-.549.337-.549.717-.718 1.265-.548 1.055-1.603 2.11-1.772 3.165-.169 0-.169-.169-.169-.169 0-1.772.169-4.81 1.224-6.034.886-1.054 1.603-1.054 2.658-1.223l.886.169-.675 1.054c.675.422 1.772 1.055 1.772 2.11m4.853-1.688-.507 1.688-1.139-3.164c-1.434-1.266-3.038-1.435-3.924-2.152-.717-.169-.717.337-1.055 0 0-.338 0-.886.507-1.435h1.054l1.097.549c.507.548 1.773.548 1.773 1.603 0 .169-.169.337.337 1.055l1.688.422.169 1.392zm2.616-2.531-1.266 1.055c-.295-.38 0-1.266-.506-1.815 0-.337.379-.506.211-.675-.211-.38-2.195-1.097-2.195-1.097-.717-.506-1.603-1.055-2.32-1.772-.675-.169-1.266.169-2.11.38v-.38c.338-.717.338-1.603 1.435-1.603.506 0 1.223 0 1.561.548.717 0 1.097.717 1.603.886.802.844 1.477 1.266 2.026 1.604 0 .506.168.886.506 1.054 1.055 0 .717 1.055 1.055 1.772zm.928-5.528-.211 2.659c-.338-1.266-1.266-2.532-2.278-2.532-.549-.506-1.055-1.013-1.266-1.561-.422-.549-.929 0-1.646-.549-.717 0-1.603 0-2.278.549v-.549l1.223-1.434c1.266.211 2.743 0 3.038.928.929.506 1.815 1.055 1.983 1.392v.549c.338.169 1.055.337 1.435.548m-.928-8.987-.675 2.574c-.886.717-2.11.38-3.081.38 1.266-.38 2.363-1.899 3.081-2.954.168-.211.337 0 .675 0m-2.49-2.11a3.8 3.8 0 0 1-1.772 2.954c0-1.055.506-1.941.506-2.827.465-.169.971-.506 1.266-.169zm-1.983-2.7c-.844.844-1.772 1.266-2.11 2.321a3.5 3.5 0 0 0-.337-1.435c.169-.717.675-1.097.844-1.266zm12.869 13.418c-.717.548-1.266.548-2.109.379l-1.097-1.434h2.658zm-3.586-8.102c-.506 1.097-1.055 2.11-2.11 2.448-.548 0-1.434.337-2.531 0 .548-.38 1.097-.549 1.814-1.013l1.434-1.435zm16.244 18.566-.548.548c-.506-.506-.169-1.941-1.055-2.11-.886 0-1.603-.843-1.983-1.054l.717-.338s.38-.169.718 0c.379.338.717.506.717.886.38.506.886 0 1.266.506.168.549.337 1.266.168 1.604zm-13.037-17.131c-.169 1.013-.718 1.35-1.604 2.574-.506.38-1.603.548-2.658 1.055.169-.507.717-.675 1.055-1.266.38-.507 1.097-1.35 1.266-1.899.886-.464 1.265-.464 1.941-.464m-8.524-6.245a6.03 6.03 0 0 1-2.784-2.194 5.8 5.8 0 0 1-.465-2.11c.633 0 1.14.507 1.266.844v.169c.929 1.097 1.815 1.899 1.983 3.291m13.713 12.743h-.379c-.169 0-1.393-.549-1.772-.886-.169-.549-.169-1.055-.169-1.055h1.392zm14.009 8.185a14 14 0 0 0-.718 2.11c-.379-1.055-.717-2.616-1.983-2.616-.168-.717-.337-.928-1.055-1.435l-1.35-.211c.169.718 1.182.718.507 1.646.675.506 1.223.506 1.561 1.392.337.549 0 1.266.169 1.604l-1.055.506c0-.844.168-2.616-1.013-2.953-1.055.337-1.266-1.097-1.941-1.477-.337 0-.337-.844-.886-.507-.886.507-1.983 0-2.869.507l.886-1.435c.717-.506 1.435-.337 2.152-.506l1.434-.169c1.393 0 2.616.675 4.009 1.266.717.337 1.055.844 1.055 1.603.379.169 1.097.169 1.097.675m-25.401-23.628-.548 2.194c-.549-1.097-1.055-2.068-1.266-3.291l1.814 1.055zm3.376 5.063c-1.055-1.097-1.984-1.983-1.984-3.08.549 0 1.098 0 1.604.38 0 .886.38 1.603.38 2.658zm20.253 15.021c-.718-.548-1.815-.548-2.152-1.434-.675-.169-1.182-.169-2.068-.169-.717.169-1.603.169-2.32.169-.169 0 0-.169-.338-.338-1.097.338-2.11.338-3.207 1.392l.844-2.109c.76 0 1.266-.38 1.646-.38.717-.169 1.266-.169 1.772-.169v.169c1.941 0 4.219-.169 5.654 1.435zm-10.633-10.126a3.5 3.5 0 0 1-1.983.675c-1.055-.844-1.772-1.857-2.827-3.291l2.827.548c.506.338 1.519 1.519 1.983 2.068m-5.907-7.764c0 1.266-.169 2.827-1.393 3.375l-.38-1.772c.549-.379 1.055-.717 1.773-1.603m16.16 14.346c-.844 0-1.604 0-2.11-.928-.211 0-.506-.507-.675-.169-.844.717-1.772-.549-2.827-.338a3.5 3.5 0 0 1-1.983 1.055v-.169c0-.548.38-1.097 1.097-1.434 1.055.337 1.941-1.983 2.996-.718.548.169 1.055.169 1.392.169 1.266.549 1.561 1.604 2.11 2.532m4.093 6.582h-.169c-.338-.548-.549-.928-.886-.928.548-1.941-.549-3.544-.886-5.148v-.548c.548.886 1.941 1.814 1.772 2.658.169 1.603.169 3.038.169 3.966m-16.329-18.101c-.886-.506-2.49-.717-2.11-1.772.338-.886.844-1.055 1.224-1.393.168 1.224.337 2.11.886 3.165m-18.144-22.869-.928 1.055c.169 1.687-.506 2.953-.506 4.557l-.929-2.827c.211-.718.38-1.393.929-2.237l1.392-.548zm26.371 26.793h-.548c-1.941.633-3.544-.549-5.148-1.603.844-.338 2.11-.549 3.207-.549l.506 1.097c.549.169 1.435.717 1.983 1.055m-9.113-14.346c-.169 1.097-.507 2.7-1.604 3.376 0-.676-.337-1.013-.717-1.562-.169 0 0 .549-.169.549 0 .337-.337 1.055-.337 1.772-.38.169-1.097.506-1.815.169v-.549c-.169-.337-.169-1.055-.169-1.392l-.168-.211c-.549.211-.549.548-.549.886-.169.38-.506.717-.506 1.266a2.5 2.5 0 0 1-1.603-.549v-1.603c0-.338 0-.338-.169-.338l-.929.844c-.717-.506-.843-1.941-.843-2.827a10.3 10.3 0 0 1 8.523-.169c.337.169.717.169 1.055.38zm5.021 9.705c-.718.211-1.983.548-2.321-.338-.97-1.603-.464-3.038 0-4.177.338 1.013.549 2.067.717 2.953.169.676 1.266 1.055 1.604 1.562m-22.701-24.642-1.265.38.211-.886c.337-.548.506-1.097 1.054-1.603zm29.705 27.342c-.717 0-1.899 0-2.616-.549a6.1 6.1 0 0 1-1.941-1.434c.717-.506 1.603-.506 1.941-.717.717.717 1.35 1.983 2.616 2.7m-4.937-5.021c-.844.211-1.603-.675-2.447-1.055-.422-.97-.422-2.025-.717-2.532.717.507 2.278.507 1.941 2.11 0 .422.717.802 1.265 1.477zm14.557 12.574c0 1.055-.675 1.941-.844 3.038 0-1.097-.211-1.983-.886-2.701 0-.337.506-.337.169-.844 0 0-1.013-.548-1.013-1.265 0-.718.675-1.266 1.013-1.773 0-.211.717.338.717 1.393 0 .169 0 .717-.211 1.097-.169.506 1.055.506 1.055 1.055m4.093 1.941c0 .886-1.055 1.983-1.435 2.658.422-.844.422-2.658 0-2.658-.337-.169-1.055 0-1.055-.338 0-.548.211-1.266.211-1.603 0-.718-.548-1.055-.548-1.435 0-1.055 1.266-1.266 1.603-1.941.169.718.169 1.393.169 2.321 0 .337.548 1.392 0 2.278 0 .549 1.055.211 1.055.718m-14.43-16.54c-1.013 0-2.237.548-2.785-.549.379-.169.717-.675 1.055-1.055zm4.978 4.008-.843.338c-1.984 0-2.912-.507-3.798-1.266.717 0 1.646-.844 1.646-.844.844.844 2.109 1.603 2.995 1.772m-7.173-11.055a16.8 16.8 0 0 0-7.046-2.236c0 .506 0 1.055-.169 1.224 2.068 1.012 4.009 1.898 5.781 3.46v1.603a13.93 13.93 0 0 0-5.907-4.051c-.211.338-.844.675-1.055 1.393-1.266-.844-2.658-1.772-4.093-1.941-.548 0-.886-1.857-.886-1.857a2.95 2.95 0 0 0 1.772-1.814h.717c.549 0 .549-.338.549-.844 0-1.097-2.321-1.097-3.376-1.097-1.265 0-2.151 0-2.869.549-.337 0-.168.506-.168.843 0 .211.506.549.506.549.38 0 .717-.338 1.097-.338-.211 1.055.169 1.604 1.266 2.11l-.211 1.73c-2.11 0-3.545.844-5.148 1.603-.548-.379-.886-.886-1.266-1.434-2.109.717-5.738 3.544-5.738 3.544v-1.266c1.603-1.392 3.629-2.109 5.19-2.953v-1.182c-.675-.38-1.393 0-2.11 0-1.477.169-3.08.844-4.135 1.688 0-.464-.169-1.181-.169-1.181a10.8 10.8 0 0 1 6.625-1.604v-.717c-.211-.338-.211-.844-.549-.844-1.055-1.097-2.11-2.7-2.11-3.797l.676-.296c-.338-1.012-.718-3.671 0-4.557a5.56 5.56 0 0 1-2.321-2.109c-.38-.929-.717-1.477-.886-2.448.506-1.054.844-1.434 1.392-2.489.296 0 .802-.169.971-.506.844-.211 1.392-1.097 2.447-.549.717 0 1.435.338 1.983.549 0 .337 0 .506.338.843 1.054 0 1.054 1.098 1.603 1.984.549.168 1.055.168 1.435.168 1.054.338 1.94.338 2.32.844 1.393-.844 2.827-1.012 4.431-.844.168-.548.548-1.265.717-2.109.169.506.169 0 .548 0 .633-.549 1.435-1.435 2.701-1.097.675.548 1.941.211 2.658 1.097.506.675.844 1.73 1.435 2.573-.549 1.055 0 2.49-1.097 2.996l-1.055 1.097c-.38 0-.38.338-.886.338.506 1.266.168 3.038-.38 4.219.38-.169.886-.169.886-.675.211.169 0 .506 0 .675v.507c0 .886-.506 1.772-1.266 2.489-.295 1.055-1.223 2.532-2.363 2.658v.38c2.574 0 4.726.717 7.173 1.941v1.181zm13.671 17.089c0 .337-.548.675-.717.675 0 0-.886-.844-1.055-1.688-.169-.717.506-1.941.506-1.941.169 0 .38.338.549.338.169.169 0 .717.169 1.266.548.337.886.97.548 1.35m14.262 12.236c0 .084-.338.422-.338.422-.801-.422-1.266-.591-2.363-.591 0-.717-.548-1.603-.886-1.603-1.097 0-.928.717-1.772.717l1.561-1.603c.211-.38.211-.38.549-.38.548.38.717.549 1.266.549 0 .379 0 .548-.211 1.054.548.38.886-.168 1.223.38.507.169.971.338.971 1.055m-16.582-16.076c0 .506-.338.675-.676 1.055 0 0-.675-.886-.675-1.266 0-.717 0-1.055.169-1.603.506.548 1.182 1.266 1.182 1.814m6.919 5.232c0 1.055-.168 2.321-.168 3.544-.507 0-.507-.337-.507-1.054-.211-1.055-.548-1.941-.928-3.038-.338-1.393-1.266-2.532-1.941-4.178-.169-.717-1.055-1.054-1.772-1.603.844 0 1.772 0 2.489.717 0 .38.169.549.718 1.055 1.265 0 .844 1.604 1.941 2.321-.507.464-.718.844-1.055 1.181.548.338 1.055.507 1.266 1.055zm-9.071-10.042c-.549.549-1.983.675-3.038-.211l1.434-.591c.507.422 1.266.591 1.604.802m-3.924-4.008c-.211.717-.886 0-1.055 0h-1.646c-.169-.38-.337-.549-.337-.886.717-.169 1.266-.549 1.772-.169.38.506.717 1.055 1.266 1.055m15.485 13.881c0 .718-.338 1.266-.169 1.941-.338-1.055-1.055-2.109-1.435-3.164 0-.211-.168-.211.211-.38.169 0 .844 0 .844.169.211.337.549.886.549 1.434m8.945 7.3c0 .675-.169.844-.38 1.772-1.223-.169-1.223-1.603-1.392-1.772-.844-1.097-2.026-.169-2.869-.169-.38-1.097.168-1.097.168-1.814.507 0 1.055-.338 1.562 0 .843-.338 1.308.548 2.194.548.168.338.548 1.266.717 1.435m3.544 4.979c-.337.548-.337.548-.506 1.055 0-.844-1.097-1.393-1.814-2.827l.717-1.266c.548.337 1.266.886 1.266 1.772 0 0-.169.422 0 .759 0 .169.337.169.337.507m-29.24-30.127c-1.055 0-1.604-.506-2.11-1.519 0-.548-.211-1.265 0-2.109.338.717.338 1.055.675 1.392.718-.337.718.549.886.717.211.465.549 1.013.549 1.519m15.19 13.08c-1.604-.886-2.532-2.489-3.967-4.092 1.435 0 1.815 1.434 2.87 1.603.379.338.717.549 1.054 1.055v1.434zm11.054 10.043c-1.265 0-.548-2.49-3.122-2.49-.506 0-.844.886-1.561 1.097q.065-.635.169-1.266c0-.337.168-1.054.886-1.434 1.308 0 .97.548 2.025.886.506.211.844.548 1.603.548zm4.22 2.32c0 1.055 0 1.435-.507 2.321l-1.054-1.603c.337-.549.337-1.266.844-2.11.21 0 .759 1.224.759 1.392zm-34.135-33.881-.338 1.772-1.434.38.886-3.882c.38.675.886 1.35.886 1.687zm30.801 27.637c-.548-.169-1.814-.338-1.814-.844 0-.718-.337-.929-1.223-.929-.633 0-1.14.211-2.195.549 0 0-.506-.717-.675-1.392.338-.211 1.688-.549 2.363-.549 1.224 0 2.447 0 2.447.549 0 .675 1.097.843 1.097 2.616m1.604-3.798c-1.266 0-2.532-.38-2.701-.886-.337-.38 0-1.097-.843-1.097-.422 0-.929.549-.929.549-.337.168-1.308-.549-1.308 0 0 .886-.675 1.265-1.561 1.265-.337 0-.717 0-1.055-.211v-1.772c2.279 0 2.11-.717 3.123-.717.633 0 1.139.38 1.687.38.886 0 .38-.38 1.266-.38s1.266.717 1.772.886c0 .549.549 1.266.549 1.983m-.549-3.924c-1.434-.844-3.544-1.434-4.725-1.434-.675 0-2.785.886-3.502 1.603l-.338-1.561c1.055-.169 1.055-1.055 1.772-1.055.506 0 1.266-.169 1.688-.169.506 0 .844-.337 1.013-.337.843 0 .506.843 1.054.843.549 0 .886-.337 1.266-.337.886 0 1.604 1.434 1.772 2.532zm-4.092-3.924c-.971 0-1.14-.126-1.815-.126-.886 0-1.941.295-2.489 1.181-.38-.675-.169-1.055 0-1.477.548-.548 1.434-1.266 2.109-1.266 1.224 0 2.195.886 2.195 1.688m.168-2.532c-1.139-.421-1.814-.928-2.869-.928-.337 0-1.983.549-2.11.886-.548-.717.338-2.109 1.055-2.489.718-.338 1.055-.169 1.393 0 0 1.055 1.223.548 1.856.886.338.548.507.886.675 1.603zm4.262-20.337h-1.941c-.338-.506-.886 0-1.266 0-.337 0-.506 0-1.223-.506 1.054 0 1.603-.549 2.489-.886.717.506 1.435.717 1.941 1.392m5.359 3.798a1.9 1.9 0 0 0-1.604-1.098c-.506-.717-1.266-1.603-1.941-1.603.507 0 1.266-.548 2.11-.548.38.886 1.097 1.434 1.266 2.109l.169 1.097zm-46.456 44.556c-.211 0 .169.38-1.603-1.392-.38 0-.886 1.055-.886 1.392 0 1.435.337 3.376.844 4.81h1.434c0-1.603.211-3.375.211-4.81m3.755.169c0-.675-.548-.844-1.265-.844-.338 0-1.14.506-1.14.844 0 .717-.337 4.641-.337 4.641h1.139c.549-1.603 1.603-3.713 1.603-4.641m23.291-2.11-1.814.169c.717.38.717 1.266.717 1.435 0 .506-.337 1.054-.717 1.434-.338-.38-.338-.928-.717-1.434-.338 0-.507.844-.507 1.265 0 1.562.718 2.827 1.266 3.882h1.561c-.168-1.434-.548-2.658-.548-4.261 0-.886.548-1.941.717-2.532zm38.228-16.118c0-7.721-3.207-15.527-8.861-21.139-2.531-2.532-5.232-3.713-7.341-6.16-1.098-1.055-1.899-2.11-2.616-3.544a8.8 8.8 0 0 0-2.532-1.984l.591 1.604h-.169c-.928 0-1.815-.507-2.532-1.055l.717-.717c-.168-.338-.717-.338-1.054-.338-2.87-.464-5.486 1.055-8.228 1.603v.338c1.772.549 2.11 2.658 3.08 3.755h1.055c.337 0 .844.338 1.266.338 0-.338-.422-1.055-.422-1.055.422-.38.759-.38 1.097 0 .886.548 2.109-.38 3.038 1.055-1.055 0-2.11 0-3.038.548 0 .169.548.507.379.844-.886-.337-1.983 0-2.32-.675l-.169.169c1.055 1.266 2.658 2.236 4.219 2.785 2.363.337 4.304-.718 6.54-.211 8.017 3.924 13.756 13.08 13.756 22.236 0 13.08-7.469 18.27-12.152 18.27-.844 0-2.236-.549-2.785-1.055.549-1.814.844-3.924.844-7.173 0-7.553-2.954-15.738-7.046-19.915-1.984-1.941-4.093-3.545-6.287-3.545-1.055 0-2.11 0-2.827.886-.886.718-1.435 2.11-1.266 3.038-1.393 1.055-3.713 1.604-5.485 1.604-1.983 0-4.431-.718-6.667-2.532v-2.574c-.506-.211-2.278-1.266-1.392-2.11.548.211.886.507 1.097.676-.211-1.182-.211-2.574-1.097-3.671-.338 0-.844 0-1.393-.338-.548-.548-1.097-1.266-1.097-2.11.549.844 1.435.507 1.983 1.055-.886-2.152-.548-3.038-2.152-6.16-.379-1.603-1.983-2.489-3.038-3.544-.506-.38-.717-.886-1.35-.886-.717-.211-.717-1.097-.717-1.604.211 0 .717.338 1.055.507-1.055-2.405-1.772-5.064-4.051-6.498l-.548.38h-2.869c.379-.38 1.097-.549 1.645-.887-.548-.548-.928-.717-1.983-.717-.464.169-1.139.717-1.814.717h-.169c0-.548-.169-1.265.844-1.603a9.4 9.4 0 0 0-3.165 0c-.169.886-.717 1.435-.717 2.11-.506.38-.717.928-1.266 1.434 0-1.054.549-2.109.76-3.206-.718.211-1.604.717-1.984.717a13 13 0 0 0-3.924-1.392c1.098.675.549 1.94.718 2.827l-.718-.38c-.168-.675-1.054-1.224-1.223-2.11-1.055 0-1.772.338-2.658.886v.169c.506 0 1.265.548 1.603 1.055-1.266 0-2.152-.507-3.376-.507 0 0 0-.168-.168-.168-.507.168-.971.675-1.308 1.055-1.266 1.054-2.11 1.94-2.659 3.544.338 0 .844 0 1.055.169-.717.168-1.055 1.054-1.772 1.265v2.574c-.548.549-1.266 1.055-1.603 2.11a31.7 31.7 0 0 0-1.097 9.536c-.169.717-.507.886-.844 1.097v2.742s1.055-1.012 1.603-1.35v2.236c-.759 0-1.266.886-1.266 1.435 0 .717.169 1.435.169 2.11 0 .379 0 .379.169.717 0-.338.38-.717.928-.844 0 0 .338-.422 1.055-.422-.548.549-.717 1.266-1.055 1.983l-.548.549s-.211.337-.211.506c.759 3.671 1.814 6.878 3.249 10.338-1.435 2.32-3.038 6.751-4.093 11.012-.928-.844-2.152-1.055-3.249-1.055-.97.169-2.025.549-2.743 1.604-1.097-.549-2.531-.338-3.206.379-1.435 1.266-1.435 1.941-1.435 2.996a3.67 3.67 0 0 0-1.097 2.49c0 1.603.169 2.658 1.097 4.092h26.667c-.211-.506-.549-1.265-.886-1.603-.549-1.055-.169-2.489-.169-3.544.506-1.055 1.055-2.11 1.772-2.996.169-.548 0-.548.169-.717l1.265-.211c.676 0 1.224-.507 2.11-.507.549.718.549-.548 1.435-.928 1.941-.337 3.797 0 4.81 1.435 0 .211.211.211.211.422h-.928c-.971-.422-2.11-.929-3.376-.422 0 .422-.169.422-.169.928v.886c.675 0 1.266.675 1.899 1.055.338-.549 1.308-1.055 2.025-1.055.844 0 2.11.506 2.11 1.941v1.941c.717.717 1.603.886 2.532 1.266-.38.675-.929.675-1.435.675h-1.435c-.168-.169-.548-.169-.548-.717-.506.717-.844 1.434-1.266 2.151h20.675l-.928-1.603c-.338-1.055-.338-2.489-.338-3.544l1.941-2.658c1.055 0 1.983-.338 3.924-.507.338-.548 0-.759 1.604-.759 1.265 0 2.109.211 2.489.422.169.337.169.337 0 .675-.38.337-1.055-.338-1.603-.169-.38.338.168.506.168.886.38.338-1.603-.38-1.603-.38l-.506 1.435 1.055 1.055c.337.506-.549 1.055-.549 1.603-.338-.169-1.055-.717-1.055-.548-.38 1.434 0 2.658-.169 4.092h1.941l.169-3.037c.169-1.773 2.321-4.937 3.587-4.937.675 0 1.265.337 1.73.717.337.675 1.139 1.055 1.139 1.393 0 .337-.464.548-1.266.548-.38 0-.38-.548-.928-.886l-1.055 1.055s1.266 1.055 1.266 1.772c0 .886-.211 1.266-.718 1.772l-1.097-2.11c-.506 0-1.392 1.055-1.392 1.562 0 .717-.38 1.097-.38 2.151h10.886c1.266 0 2.321-.337 3.587-1.054h2.109c4.389 0 7.806-1.266 10.971-4.473a24.7 24.7 0 0 0 6.793-17.299zm-68.312 22.954a11.7 11.7 0 0 1-1.055-4.642c0-.844 0-2.109.507-2.953l-1.941.337c-.549.675-.718 1.055-.718 1.393l.886-.338c.169 0 .38.338.549.675-.169.886-1.266.886-1.603 1.266-.549 1.772 1.054 2.827 1.265 4.262z"/><path fill="#006" d="M147.763 48.523V61.35a44.85 44.85 0 0 1-20.464 5.317c-18.481 0-29.62-11.013-29.62-24.895 0-14.978 12.7-27.426 28.945-27.426 4.05 0 7.046.718 10.211 1.772 2.278.718 3.713 1.604 5.105 1.604 1.266 0 1.603-2.11 1.772-3.376h1.772l1.561 17.3h-2.109a16.9 16.9 0 0 0-4.557-8.228 18.15 18.15 0 0 0-13.249-5.148c-11.097 0-17.637 8.861-17.637 22.236 0 13.165 7.932 22.279 18.565 22.279 3.123 0 5.95-.717 9.494-2.321V47.3c0-4.304-.717-5.907-6.751-5.907v-1.941h22.447v1.941c-5.654 0-5.485 1.814-5.485 7.173M86.244 27.469v38.312h-2.996L45.316 26.245c.169 1.055.169 1.941.169 2.996v24.05c0 7.469 0 10.127 6.751 10.127v1.983h-17.89V63.46c6.709 0 6.709-3.207 6.709-10.127V25.907c0-4.135 0-8.565-7.047-8.565v-1.983h16.751l31.224 32.405c-.211-.844-.211-1.393-.211-2.658V27.511c0-7.131.168-10.127-6.498-10.127v-1.983H93.08v1.983c-6.54 0-6.878 2.827-6.878 10.127M0 65.443v-1.941c4.219 0 7.257-.38 7.257-6.624V24.009c-.042-6.456-2.32-6.625-7.257-6.625v-1.983h25.063v1.983c-5.19 0-7.299.169-7.299 6.583v32.911c0 6.244 2.658 6.624 7.257 6.624v1.941z"/></svg>