<svg style="fill-rule:evenodd;clip-rule:evenodd;stroke-linejoin:round;stroke-miterlimit:2;" xml:space="preserve" xmlns:xlink="http://www.w3.org/1999/xlink" xmlns="http://www.w3.org/2000/svg" version="1.1" viewBox="0 0 267 67" height="100%" width="100%">
    <g>
        <path style="fill:#ff6200;" d="M192.319,24.515c-0.379,-0.717 -1.265,0 -2.151,-0.38c-0,0.38 -0,0.718 0.548,1.055c0.452,-0.385 1.012,-0.621 1.603,-0.675Zm1.393,-9.367c-0,-0.338 -0.338,-0.717 -0.844,-1.055l-4.304,0c0,0.717 0.549,1.055 1.055,1.055c0,0.717 0.549,0.844 0.717,1.055c0.549,0.38 0.718,0.38 1.266,-0c0.506,0.38 0.717,-0.338 0.844,-0c0,1.055 0,1.561 -0.127,2.405c-0.211,1.266 -1.265,1.097 -2.151,1.603c-0,0.549 -0.549,1.435 -0,1.983c0.548,-0.379 0.886,-0.548 1.772,-0.886c-0,-0.548 0.548,-1.097 1.266,-1.434c-0,-1.604 0.506,-3.123 0.506,-4.726Zm8.017,10.211l-0,-0.844l-1.772,0l-0.169,0.169l1.941,0.675Zm-10.507,-16.245c-0.168,-1.687 -2.109,-1.898 -2.995,-2.574l-0.718,0c-1.392,0.507 -1.687,1.941 -1.898,3.081c0.506,1.603 1.519,0.548 2.236,1.603c0.717,-0.506 2.532,-1.772 3.375,-2.11Zm3.924,1.941c-0.337,-0.337 -1.434,0.169 -1.94,0.38c-0.718,0.169 -1.266,0.675 -1.266,1.266l1.941,-0c0.211,-0.591 0.928,-1.266 1.265,-1.646Zm8.735,3.755c-0,0 0.379,0 -0,-0.168l-3.756,-0.549c-0.337,0.549 -1.266,0.549 -1.266,1.055l-0.337,0c0.38,1.435 0.38,2.954 0.38,4.557c0.717,0.169 1.434,0.506 1.434,1.603c0.675,0.338 1.393,0.507 2.11,1.055c0.295,-0.169 0.422,-0.717 0.633,-1.266c-0.675,-0.844 -2.236,-0.337 -2.236,-1.941l-1.055,-0.337c-0,-1.055 -0,-2.11 -0.169,-2.785l0.169,-0.169c-0,0.169 0.169,0.338 0.548,0.718c0.675,-0 1.393,0.168 2.11,-0.422c0.295,-0.127 0.295,-1.013 0.633,-1.013c0.295,0 0.633,0 0.844,-0.338l-0.042,0Zm-2.701,-2.109c0,-0.591 -0.169,-0.591 -0.337,-0.591c-0.886,0 -0.886,-1.392 -1.604,-1.055c-0.337,0 -0.717,-0.337 -1.266,0c0,0.169 0,0.169 0.38,0.169c0.886,-0 0.549,1.266 1.266,1.435l1.561,-0l0,0.042Zm5.907,-1.097c0.38,-0.886 0.38,-2.49 -0.337,-3.334c-0.38,-0.675 -1.266,-1.054 -2.11,-1.73l-1.266,0.676c-0.633,0.379 -0.97,1.054 -0.97,1.898c1.139,0.507 2.405,1.941 2.953,2.996l0.507,0c0.506,-0.506 0.844,0 1.265,-0.506l-0.042,-0Zm-36.455,49.071c-0.169,0 -0.717,-0.506 -1.266,-0.506c-0.506,1.055 -0,1.772 -0,2.996c-0,0.548 -0.169,1.097 -0.169,1.097c-0.337,-0 -0.97,-0.718 -1.097,-1.435l0,-2.827l1.477,-1.941c1.055,0.675 1.392,1.73 1.055,2.616Zm4.557,-1.941c-0,0.718 -0.169,1.435 -0.549,1.941c-0.169,-0.675 -0.675,-1.561 -1.519,-1.561c-0.717,1.392 -0.886,1.941 -0.169,4.051c-0.548,0.548 -0.886,0.717 -1.603,1.097c-0.38,-0.718 -0.38,-1.983 -0.38,-2.659c0,-1.265 0.211,-2.531 0.549,-3.544c0.548,-0.548 0.886,-1.434 1.434,-1.814l1.857,-0c-0.844,-0 -0.844,0.759 -0.844,1.266c0.506,0.168 1.224,0.379 1.224,1.223Zm6.244,1.055c0,1.435 -2.32,3.376 -2.32,3.376c-0,-0.844 0.548,-1.941 0.548,-2.996c0,-0 -0.759,-0.717 -1.434,-0.717c-0.549,0.337 -0.549,0.717 -0.718,1.265c-0.548,1.055 -1.603,2.11 -1.772,3.165c-0.169,-0 -0.169,-0.169 -0.169,-0.169c0,-1.772 0.169,-4.81 1.224,-6.034c0.886,-1.054 1.603,-1.054 2.658,-1.223l0.886,0.169l-0.675,1.054c0.675,0.422 1.772,1.055 1.772,2.11Zm4.853,-1.688l-0.507,1.688l-1.139,-3.164c-1.434,-1.266 -3.038,-1.435 -3.924,-2.152c-0.717,-0.169 -0.717,0.337 -1.055,-0c0,-0.338 0,-0.886 0.507,-1.435l1.054,0l1.097,0.549c0.507,0.548 1.773,0.548 1.773,1.603c-0,0.169 -0.169,0.337 0.337,1.055l1.688,0.422l0.169,1.392l-0,0.042Zm2.616,-2.531l-1.266,1.055c-0.295,-0.38 -0,-1.266 -0.506,-1.815c-0,-0.337 0.379,-0.506 0.211,-0.675c-0.211,-0.38 -2.195,-1.097 -2.195,-1.097c-0.717,-0.506 -1.603,-1.055 -2.32,-1.772c-0.675,-0.169 -1.266,0.169 -2.11,0.38l0,-0.38c0.338,-0.717 0.338,-1.603 1.435,-1.603c0.506,-0 1.223,-0 1.561,0.548c0.717,0 1.097,0.717 1.603,0.886c0.802,0.844 1.477,1.266 2.026,1.604c-0,0.506 0.168,0.886 0.506,1.054c1.055,0 0.717,1.055 1.055,1.772l-0,0.043Zm0.928,-5.528l-0.211,2.659c-0.338,-1.266 -1.266,-2.532 -2.278,-2.532c-0.549,-0.506 -1.055,-1.013 -1.266,-1.561c-0.422,-0.549 -0.929,-0 -1.646,-0.549c-0.717,0 -1.603,0 -2.278,0.549l-0,-0.549l1.223,-1.434c1.266,0.211 2.743,-0 3.038,0.928c0.929,0.506 1.815,1.055 1.983,1.392l0,0.549c0.338,0.169 1.055,0.337 1.435,0.548Zm-0.928,-8.987l-0.675,2.574c-0.886,0.717 -2.11,0.38 -3.081,0.38c1.266,-0.38 2.363,-1.899 3.081,-2.954c0.168,-0.211 0.337,0 0.675,0Zm-2.49,-2.11c-0.084,1.211 -0.744,2.31 -1.772,2.954c0,-1.055 0.506,-1.941 0.506,-2.827c0.465,-0.169 0.971,-0.506 1.266,-0.169l0,0.042Zm-1.983,-2.7c-0.844,0.844 -1.772,1.266 -2.11,2.321c-0.01,-0.497 -0.125,-0.986 -0.337,-1.435c0.169,-0.717 0.675,-1.097 0.844,-1.266l1.603,0.38Zm12.869,13.418c-0.717,0.548 -1.266,0.548 -2.109,0.379l-1.097,-1.434l2.658,-0l0.548,1.055Zm-3.586,-8.102c-0.506,1.097 -1.055,2.11 -2.11,2.448c-0.548,-0 -1.434,0.337 -2.531,-0c0.548,-0.38 1.097,-0.549 1.814,-1.013l1.434,-1.435l1.393,0Zm16.244,18.566l-0.548,0.548c-0.506,-0.506 -0.169,-1.941 -1.055,-2.11c-0.886,0 -1.603,-0.843 -1.983,-1.054l0.717,-0.338c0,0 0.38,-0.169 0.718,0c0.379,0.338 0.717,0.506 0.717,0.886c0.38,0.506 0.886,0 1.266,0.506c0.168,0.549 0.337,1.266 0.168,1.604l0,-0.042Zm-13.037,-17.131c-0.169,1.013 -0.718,1.35 -1.604,2.574c-0.506,0.38 -1.603,0.548 -2.658,1.055c0.169,-0.507 0.717,-0.675 1.055,-1.266c0.38,-0.507 1.097,-1.35 1.266,-1.899c0.886,-0.464 1.265,-0.464 1.941,-0.464Zm-8.524,-6.245c-1.126,-0.436 -2.097,-1.2 -2.784,-2.194c-0.286,-0.668 -0.444,-1.383 -0.465,-2.11c0.633,0 1.14,0.507 1.266,0.844l0,0.169c0.929,1.097 1.815,1.899 1.983,3.291Zm13.713,12.743l-0.379,-0c-0.169,-0 -1.393,-0.549 -1.772,-0.886c-0.169,-0.549 -0.169,-1.055 -0.169,-1.055l1.392,-0l0.928,1.941Zm14.009,8.185c-0.294,0.684 -0.534,1.389 -0.718,2.11c-0.379,-1.055 -0.717,-2.616 -1.983,-2.616c-0.168,-0.717 -0.337,-0.928 -1.055,-1.435l-1.35,-0.211c0.169,0.718 1.182,0.718 0.507,1.646c0.675,0.506 1.223,0.506 1.561,1.392c0.337,0.549 -0,1.266 0.169,1.604l-1.055,0.506c-0,-0.844 0.168,-2.616 -1.013,-2.953c-1.055,0.337 -1.266,-1.097 -1.941,-1.477c-0.337,-0 -0.337,-0.844 -0.886,-0.507c-0.886,0.507 -1.983,0 -2.869,0.507l0.886,-1.435c0.717,-0.506 1.435,-0.337 2.152,-0.506l1.434,-0.169c1.393,0 2.616,0.675 4.009,1.266c0.717,0.337 1.055,0.844 1.055,1.603c0.379,0.169 1.097,0.169 1.097,0.675Zm-25.401,-23.628l-0.548,2.194c-0.549,-1.097 -1.055,-2.068 -1.266,-3.291l1.814,1.055l0,0.042Zm3.376,5.063c-1.055,-1.097 -1.984,-1.983 -1.984,-3.08c0.549,-0 1.098,-0 1.604,0.38c-0,0.886 0.38,1.603 0.38,2.658l-0,0.042Zm20.253,15.021c-0.718,-0.548 -1.815,-0.548 -2.152,-1.434c-0.675,-0.169 -1.182,-0.169 -2.068,-0.169c-0.717,0.169 -1.603,0.169 -2.32,0.169c-0.169,-0 -0,-0.169 -0.338,-0.338c-1.097,0.338 -2.11,0.338 -3.207,1.392l0.844,-2.109c0.76,-0 1.266,-0.38 1.646,-0.38c0.717,-0.169 1.266,-0.169 1.772,-0.169l-0,0.169c1.941,-0 4.219,-0.169 5.654,1.435l0.169,1.434Zm-10.633,-10.126c-0.577,0.422 -1.269,0.657 -1.983,0.675c-1.055,-0.844 -1.772,-1.857 -2.827,-3.291l2.827,0.548c0.506,0.338 1.519,1.519 1.983,2.068Zm-5.907,-7.764c-0,1.266 -0.169,2.827 -1.393,3.375l-0.38,-1.772c0.549,-0.379 1.055,-0.717 1.773,-1.603Zm16.16,14.346c-0.844,-0 -1.604,-0 -2.11,-0.928c-0.211,-0 -0.506,-0.507 -0.675,-0.169c-0.844,0.717 -1.772,-0.549 -2.827,-0.338c-0.527,0.56 -1.224,0.931 -1.983,1.055l-0,-0.169c-0,-0.548 0.38,-1.097 1.097,-1.434c1.055,0.337 1.941,-1.983 2.996,-0.718c0.548,0.169 1.055,0.169 1.392,0.169c1.266,0.549 1.561,1.604 2.11,2.532Zm4.093,6.582l-0.169,0c-0.338,-0.548 -0.549,-0.928 -0.886,-0.928c0.548,-1.941 -0.549,-3.544 -0.886,-5.148l-0,-0.548c0.548,0.886 1.941,1.814 1.772,2.658c0.169,1.603 0.169,3.038 0.169,3.966Zm-16.329,-18.101c-0.886,-0.506 -2.49,-0.717 -2.11,-1.772c0.338,-0.886 0.844,-1.055 1.224,-1.393c0.168,1.224 0.337,2.11 0.886,3.165Zm-18.144,-22.869l-0.928,1.055c0.169,1.687 -0.506,2.953 -0.506,4.557l-0.929,-2.827c0.211,-0.718 0.38,-1.393 0.929,-2.237l1.392,-0.548l0.042,-0Zm26.371,26.793l-0.548,-0c-1.941,0.633 -3.544,-0.549 -5.148,-1.603c0.844,-0.338 2.11,-0.549 3.207,-0.549l0.506,1.097c0.549,0.169 1.435,0.717 1.983,1.055Zm-9.113,-14.346c-0.169,1.097 -0.507,2.7 -1.604,3.376c0,-0.676 -0.337,-1.013 -0.717,-1.562c-0.169,0 -0,0.549 -0.169,0.549c0,0.337 -0.337,1.055 -0.337,1.772c-0.38,0.169 -1.097,0.506 -1.815,0.169l0,-0.549c-0.169,-0.337 -0.169,-1.055 -0.169,-1.392l-0.168,-0.211c-0.549,0.211 -0.549,0.548 -0.549,0.886c-0.169,0.38 -0.506,0.717 -0.506,1.266c-0.582,0.01 -1.15,-0.184 -1.603,-0.549l-0,-1.603c-0,-0.338 -0,-0.338 -0.169,-0.338l-0.929,0.844c-0.717,-0.506 -0.843,-1.941 -0.843,-2.827c2.681,-1.284 5.792,-1.346 8.523,-0.169c0.337,0.169 0.717,0.169 1.055,0.38l-0,-0.042Zm5.021,9.705c-0.718,0.211 -1.983,0.548 -2.321,-0.338c-0.97,-1.603 -0.464,-3.038 -0,-4.177c0.338,1.013 0.549,2.067 0.717,2.953c0.169,0.676 1.266,1.055 1.604,1.562Zm-22.701,-24.642l-1.265,0.38l0.211,-0.886c0.337,-0.548 0.506,-1.097 1.054,-1.603l0,2.109Zm29.705,27.342c-0.717,0 -1.899,0 -2.616,-0.549c-0.737,-0.343 -1.397,-0.831 -1.941,-1.434c0.717,-0.506 1.603,-0.506 1.941,-0.717c0.717,0.717 1.35,1.983 2.616,2.7Zm-4.937,-5.021c-0.844,0.211 -1.603,-0.675 -2.447,-1.055c-0.422,-0.97 -0.422,-2.025 -0.717,-2.532c0.717,0.507 2.278,0.507 1.941,2.11c-0,0.422 0.717,0.802 1.265,1.477l-0.042,-0Zm14.557,12.574c0,1.055 -0.675,1.941 -0.844,3.038c0,-1.097 -0.211,-1.983 -0.886,-2.701c0,-0.337 0.506,-0.337 0.169,-0.844c-0,0 -1.013,-0.548 -1.013,-1.265c0,-0.718 0.675,-1.266 1.013,-1.773c-0,-0.211 0.717,0.338 0.717,1.393c0,0.169 0,0.717 -0.211,1.097c-0.169,0.506 1.055,0.506 1.055,1.055Zm4.093,1.941c-0,0.886 -1.055,1.983 -1.435,2.658c0.422,-0.844 0.422,-2.658 0,-2.658c-0.337,-0.169 -1.055,-0 -1.055,-0.338c0,-0.548 0.211,-1.266 0.211,-1.603c0,-0.718 -0.548,-1.055 -0.548,-1.435c-0,-1.055 1.266,-1.266 1.603,-1.941c0.169,0.718 0.169,1.393 0.169,2.321c-0,0.337 0.548,1.392 -0,2.278c-0,0.549 1.055,0.211 1.055,0.718Zm-14.43,-16.54c-1.013,-0 -2.237,0.548 -2.785,-0.549c0.379,-0.169 0.717,-0.675 1.055,-1.055l1.73,1.604Zm4.978,4.008l-0.843,0.338c-1.984,-0 -2.912,-0.507 -3.798,-1.266c0.717,-0 1.646,-0.844 1.646,-0.844c0.844,0.844 2.109,1.603 2.995,1.772Zm-7.173,-11.055c-2.154,-1.258 -4.561,-2.022 -7.046,-2.236c0,0.506 0,1.055 -0.169,1.224c2.068,1.012 4.009,1.898 5.781,3.46l-0,1.603c-1.582,-1.842 -3.619,-3.239 -5.907,-4.051c-0.211,0.338 -0.844,0.675 -1.055,1.393c-1.266,-0.844 -2.658,-1.772 -4.093,-1.941c-0.548,-0 -0.886,-1.857 -0.886,-1.857c0.833,-0.307 1.485,-0.974 1.772,-1.814l0.717,-0c0.549,-0 0.549,-0.338 0.549,-0.844c-0,-1.097 -2.321,-1.097 -3.376,-1.097c-1.265,-0 -2.151,-0 -2.869,0.549c-0.337,-0 -0.168,0.506 -0.168,0.843c-0,0.211 0.506,0.549 0.506,0.549c0.38,-0 0.717,-0.338 1.097,-0.338c-0.211,1.055 0.169,1.604 1.266,2.11l-0.211,1.73c-2.11,-0 -3.545,0.844 -5.148,1.603c-0.548,-0.379 -0.886,-0.886 -1.266,-1.434c-2.109,0.717 -5.738,3.544 -5.738,3.544l-0,-1.266c1.603,-1.392 3.629,-2.109 5.19,-2.953l-0,-1.182c-0.675,-0.38 -1.393,0 -2.11,0c-1.477,0.169 -3.08,0.844 -4.135,1.688c0,-0.464 -0.169,-1.181 -0.169,-1.181c1.977,-1.236 4.302,-1.798 6.625,-1.604l-0,-0.717c-0.211,-0.338 -0.211,-0.844 -0.549,-0.844c-1.055,-1.097 -2.11,-2.7 -2.11,-3.797l0.676,-0.296c-0.338,-1.012 -0.718,-3.671 -0,-4.557c-0.96,-0.466 -1.766,-1.198 -2.321,-2.109c-0.38,-0.929 -0.717,-1.477 -0.886,-2.448c0.506,-1.054 0.844,-1.434 1.392,-2.489c0.296,-0 0.802,-0.169 0.971,-0.506c0.844,-0.211 1.392,-1.097 2.447,-0.549c0.717,0 1.435,0.338 1.983,0.549c0,0.337 0,0.506 0.338,0.843c1.054,0 1.054,1.098 1.603,1.984c0.549,0.168 1.055,0.168 1.435,0.168c1.054,0.338 1.94,0.338 2.32,0.844c1.393,-0.844 2.827,-1.012 4.431,-0.844c0.168,-0.548 0.548,-1.265 0.717,-2.109c0.169,0.506 0.169,-0 0.548,-0c0.633,-0.549 1.435,-1.435 2.701,-1.097c0.675,0.548 1.941,0.211 2.658,1.097c0.506,0.675 0.844,1.73 1.435,2.573c-0.549,1.055 -0,2.49 -1.097,2.996l-1.055,1.097c-0.38,0 -0.38,0.338 -0.886,0.338c0.506,1.266 0.168,3.038 -0.38,4.219c0.38,-0.169 0.886,-0.169 0.886,-0.675c0.211,0.169 -0,0.506 -0,0.675l-0,0.507c-0,0.886 -0.506,1.772 -1.266,2.489c-0.295,1.055 -1.223,2.532 -2.363,2.658l0,0.38c2.574,-0 4.726,0.717 7.173,1.941l0,1.181l0.042,0Zm13.671,17.089c0,0.337 -0.548,0.675 -0.717,0.675c-0,-0 -0.886,-0.844 -1.055,-1.688c-0.169,-0.717 0.506,-1.941 0.506,-1.941c0.169,0 0.38,0.338 0.549,0.338c0.169,0.169 -0,0.717 0.169,1.266c0.548,0.337 0.886,0.97 0.548,1.35Zm14.262,12.236c-0,0.084 -0.338,0.422 -0.338,0.422c-0.801,-0.422 -1.266,-0.591 -2.363,-0.591c0,-0.717 -0.548,-1.603 -0.886,-1.603c-1.097,-0 -0.928,0.717 -1.772,0.717l1.561,-1.603c0.211,-0.38 0.211,-0.38 0.549,-0.38c0.548,0.38 0.717,0.549 1.266,0.549c-0,0.379 -0,0.548 -0.211,1.054c0.548,0.38 0.886,-0.168 1.223,0.38c0.507,0.169 0.971,0.338 0.971,1.055Zm-16.582,-16.076c-0,0.506 -0.338,0.675 -0.676,1.055c0,-0 -0.675,-0.886 -0.675,-1.266c0,-0.717 0,-1.055 0.169,-1.603c0.506,0.548 1.182,1.266 1.182,1.814Zm6.919,5.232c0,1.055 -0.168,2.321 -0.168,3.544c-0.507,0 -0.507,-0.337 -0.507,-1.054c-0.211,-1.055 -0.548,-1.941 -0.928,-3.038c-0.338,-1.393 -1.266,-2.532 -1.941,-4.178c-0.169,-0.717 -1.055,-1.054 -1.772,-1.603c0.844,0 1.772,0 2.489,0.717c0,0.38 0.169,0.549 0.718,1.055c1.265,0 0.844,1.604 1.941,2.321c-0.507,0.464 -0.718,0.844 -1.055,1.181c0.548,0.338 1.055,0.507 1.266,1.055l-0.043,0Zm-9.071,-10.042c-0.549,0.549 -1.983,0.675 -3.038,-0.211l1.434,-0.591c0.507,0.422 1.266,0.591 1.604,0.802Zm-3.924,-4.008c-0.211,0.717 -0.886,-0 -1.055,-0l-1.646,-0c-0.169,-0.38 -0.337,-0.549 -0.337,-0.886c0.717,-0.169 1.266,-0.549 1.772,-0.169c0.38,0.506 0.717,1.055 1.266,1.055Zm15.485,13.881c-0,0.718 -0.338,1.266 -0.169,1.941c-0.338,-1.055 -1.055,-2.109 -1.435,-3.164c0,-0.211 -0.168,-0.211 0.211,-0.38c0.169,0 0.844,0 0.844,0.169c0.211,0.337 0.549,0.886 0.549,1.434Zm8.945,7.3c-0,0.675 -0.169,0.844 -0.38,1.772c-1.223,-0.169 -1.223,-1.603 -1.392,-1.772c-0.844,-1.097 -2.026,-0.169 -2.869,-0.169c-0.38,-1.097 0.168,-1.097 0.168,-1.814c0.507,-0 1.055,-0.338 1.562,-0c0.843,-0.338 1.308,0.548 2.194,0.548c0.168,0.338 0.548,1.266 0.717,1.435Zm3.544,4.979c-0.337,0.548 -0.337,0.548 -0.506,1.055c-0,-0.844 -1.097,-1.393 -1.814,-2.827l0.717,-1.266c0.548,0.337 1.266,0.886 1.266,1.772c-0,-0 -0.169,0.422 -0,0.759c-0,0.169 0.337,0.169 0.337,0.507Zm-29.24,-30.127c-1.055,0 -1.604,-0.506 -2.11,-1.519c0,-0.548 -0.211,-1.265 0,-2.109c0.338,0.717 0.338,1.055 0.675,1.392c0.718,-0.337 0.718,0.549 0.886,0.717c0.211,0.465 0.549,1.013 0.549,1.519Zm15.19,13.08c-1.604,-0.886 -2.532,-2.489 -3.967,-4.092c1.435,-0 1.815,1.434 2.87,1.603c0.379,0.338 0.717,0.549 1.054,1.055l0,1.434l0.043,0Zm11.054,10.043c-1.265,-0 -0.548,-2.49 -3.122,-2.49c-0.506,0 -0.844,0.886 -1.561,1.097c0.043,-0.423 0.1,-0.845 0.169,-1.266c-0,-0.337 0.168,-1.054 0.886,-1.434c1.308,-0 0.97,0.548 2.025,0.886c0.506,0.211 0.844,0.548 1.603,0.548l0,2.659Zm4.22,2.32c-0,1.055 -0,1.435 -0.507,2.321l-1.054,-1.603c0.337,-0.549 0.337,-1.266 0.844,-2.11c0.21,-0 0.759,1.224 0.759,1.392l-0.042,0Zm-34.135,-33.881l-0.338,1.772l-1.434,0.38l0.886,-3.882c0.38,0.675 0.886,1.35 0.886,1.687l0,0.043Zm30.801,27.637c-0.548,-0.169 -1.814,-0.338 -1.814,-0.844c0,-0.718 -0.337,-0.929 -1.223,-0.929c-0.633,0 -1.14,0.211 -2.195,0.549c0,-0 -0.506,-0.717 -0.675,-1.392c0.338,-0.211 1.688,-0.549 2.363,-0.549c1.224,0 2.447,0 2.447,0.549c0,0.675 1.097,0.843 1.097,2.616Zm1.604,-3.798c-1.266,0 -2.532,-0.38 -2.701,-0.886c-0.337,-0.38 0,-1.097 -0.843,-1.097c-0.422,0 -0.929,0.549 -0.929,0.549c-0.337,0.168 -1.308,-0.549 -1.308,-0c0,0.886 -0.675,1.265 -1.561,1.265c-0.337,0 -0.717,0 -1.055,-0.211l0,-1.772c2.279,0 2.11,-0.717 3.123,-0.717c0.633,-0 1.139,0.38 1.687,0.38c0.886,-0 0.38,-0.38 1.266,-0.38c0.886,-0 1.266,0.717 1.772,0.886c0,0.549 0.549,1.266 0.549,1.983Zm-0.549,-3.924c-1.434,-0.844 -3.544,-1.434 -4.725,-1.434c-0.675,-0 -2.785,0.886 -3.502,1.603l-0.338,-1.561c1.055,-0.169 1.055,-1.055 1.772,-1.055c0.506,-0 1.266,-0.169 1.688,-0.169c0.506,0 0.844,-0.337 1.013,-0.337c0.843,-0 0.506,0.843 1.054,0.843c0.549,0 0.886,-0.337 1.266,-0.337c0.886,-0 1.604,1.434 1.772,2.532l0,-0.085Zm-4.092,-3.924c-0.971,0 -1.14,-0.126 -1.815,-0.126c-0.886,-0 -1.941,0.295 -2.489,1.181c-0.38,-0.675 -0.169,-1.055 -0,-1.477c0.548,-0.548 1.434,-1.266 2.109,-1.266c1.224,0 2.195,0.886 2.195,1.688Zm0.168,-2.532c-1.139,-0.421 -1.814,-0.928 -2.869,-0.928c-0.337,0 -1.983,0.549 -2.11,0.886c-0.548,-0.717 0.338,-2.109 1.055,-2.489c0.718,-0.338 1.055,-0.169 1.393,-0c-0,1.055 1.223,0.548 1.856,0.886c0.338,0.548 0.507,0.886 0.675,1.603l0,0.042Zm4.262,-20.337l-1.941,0c-0.338,-0.506 -0.886,0 -1.266,0c-0.337,0 -0.506,0 -1.223,-0.506c1.054,-0 1.603,-0.549 2.489,-0.886c0.717,0.506 1.435,0.717 1.941,1.392Zm5.359,3.798c-0.293,-0.632 -0.91,-1.054 -1.604,-1.098c-0.506,-0.717 -1.266,-1.603 -1.941,-1.603c0.507,0 1.266,-0.548 2.11,-0.548c0.38,0.886 1.097,1.434 1.266,2.109l0.169,1.097l-0,0.043Zm-46.456,44.556c-0.211,0 0.169,0.38 -1.603,-1.392c-0.38,-0 -0.886,1.055 -0.886,1.392c-0,1.435 0.337,3.376 0.844,4.81l1.434,0c0,-1.603 0.211,-3.375 0.211,-4.81Zm3.755,0.169c0,-0.675 -0.548,-0.844 -1.265,-0.844c-0.338,0 -1.14,0.506 -1.14,0.844c0,0.717 -0.337,4.641 -0.337,4.641l1.139,0c0.549,-1.603 1.603,-3.713 1.603,-4.641Zm23.291,-2.11l-1.814,0.169c0.717,0.38 0.717,1.266 0.717,1.435c0,0.506 -0.337,1.054 -0.717,1.434c-0.338,-0.38 -0.338,-0.928 -0.717,-1.434c-0.338,-0 -0.507,0.844 -0.507,1.265c0,1.562 0.718,2.827 1.266,3.882l1.561,0c-0.168,-1.434 -0.548,-2.658 -0.548,-4.261c-0,-0.886 0.548,-1.941 0.717,-2.532l0.042,0.042Zm38.228,-16.118c-0,-7.721 -3.207,-15.527 -8.861,-21.139c-2.531,-2.532 -5.232,-3.713 -7.341,-6.16c-1.098,-1.055 -1.899,-2.11 -2.616,-3.544c-0.714,-0.812 -1.573,-1.485 -2.532,-1.984l0.591,1.604l-0.169,-0c-0.928,-0 -1.815,-0.507 -2.532,-1.055l0.717,-0.717c-0.168,-0.338 -0.717,-0.338 -1.054,-0.338c-2.87,-0.464 -5.486,1.055 -8.228,1.603l-0,0.338c1.772,0.549 2.11,2.658 3.08,3.755l1.055,0c0.337,0 0.844,0.338 1.266,0.338c-0,-0.338 -0.422,-1.055 -0.422,-1.055c0.422,-0.38 0.759,-0.38 1.097,-0c0.886,0.548 2.109,-0.38 3.038,1.055c-1.055,-0 -2.11,-0 -3.038,0.548c-0,0.169 0.548,0.507 0.379,0.844c-0.886,-0.337 -1.983,0 -2.32,-0.675l-0.169,0.169c1.055,1.266 2.658,2.236 4.219,2.785c2.363,0.337 4.304,-0.718 6.54,-0.211c8.017,3.924 13.756,13.08 13.756,22.236c-0,13.08 -7.469,18.27 -12.152,18.27c-0.844,-0 -2.236,-0.549 -2.785,-1.055c0.549,-1.814 0.844,-3.924 0.844,-7.173c-0,-7.553 -2.954,-15.738 -7.046,-19.915c-1.984,-1.941 -4.093,-3.545 -6.287,-3.545c-1.055,0 -2.11,0 -2.827,0.886c-0.886,0.718 -1.435,2.11 -1.266,3.038c-1.393,1.055 -3.713,1.604 -5.485,1.604c-1.983,-0 -4.431,-0.718 -6.667,-2.532l0,-2.574c-0.506,-0.211 -2.278,-1.266 -1.392,-2.11c0.548,0.211 0.886,0.507 1.097,0.676c-0.211,-1.182 -0.211,-2.574 -1.097,-3.671c-0.338,-0 -0.844,-0 -1.393,-0.338c-0.548,-0.548 -1.097,-1.266 -1.097,-2.11c0.549,0.844 1.435,0.507 1.983,1.055c-0.886,-2.152 -0.548,-3.038 -2.152,-6.16c-0.379,-1.603 -1.983,-2.489 -3.038,-3.544c-0.506,-0.38 -0.717,-0.886 -1.35,-0.886c-0.717,-0.211 -0.717,-1.097 -0.717,-1.604c0.211,0 0.717,0.338 1.055,0.507c-1.055,-2.405 -1.772,-5.064 -4.051,-6.498l-0.548,0.38l-2.869,-0c0.379,-0.38 1.097,-0.549 1.645,-0.887c-0.548,-0.548 -0.928,-0.717 -1.983,-0.717c-0.464,0.169 -1.139,0.717 -1.814,0.717l-0.169,0c-0,-0.548 -0.169,-1.265 0.844,-1.603c-1.047,-0.179 -2.118,-0.179 -3.165,0c-0.169,0.886 -0.717,1.435 -0.717,2.11c-0.506,0.38 -0.717,0.928 -1.266,1.434c0,-1.054 0.549,-2.109 0.76,-3.206c-0.718,0.211 -1.604,0.717 -1.984,0.717c-1.225,-0.671 -2.55,-1.141 -3.924,-1.392c1.098,0.675 0.549,1.94 0.718,2.827l-0.718,-0.38c-0.168,-0.675 -1.054,-1.224 -1.223,-2.11c-1.055,0 -1.772,0.338 -2.658,0.886l-0,0.169c0.506,-0 1.265,0.548 1.603,1.055c-1.266,-0 -2.152,-0.507 -3.376,-0.507c0,0 0,-0.168 -0.168,-0.168c-0.507,0.168 -0.971,0.675 -1.308,1.055c-1.266,1.054 -2.11,1.94 -2.659,3.544c0.338,-0 0.844,-0 1.055,0.169c-0.717,0.168 -1.055,1.054 -1.772,1.265l0,2.574c-0.548,0.549 -1.266,1.055 -1.603,2.11c-0.847,3.105 -1.217,6.32 -1.097,9.536c-0.169,0.717 -0.507,0.886 -0.844,1.097l-0,2.742c-0,0 1.055,-1.012 1.603,-1.35l0,2.236c-0.759,0 -1.266,0.886 -1.266,1.435c0,0.717 0.169,1.435 0.169,2.11c0,0.379 0,0.379 0.169,0.717c0,-0.338 0.38,-0.717 0.928,-0.844c0,0 0.338,-0.422 1.055,-0.422c-0.548,0.549 -0.717,1.266 -1.055,1.983l-0.548,0.549c-0,-0 -0.211,0.337 -0.211,0.506c0.759,3.671 1.814,6.878 3.249,10.338c-1.435,2.32 -3.038,6.751 -4.093,11.012c-0.928,-0.844 -2.152,-1.055 -3.249,-1.055c-0.97,0.169 -2.025,0.549 -2.743,1.604c-1.097,-0.549 -2.531,-0.338 -3.206,0.379c-1.435,1.266 -1.435,1.941 -1.435,2.996c-0.671,0.659 -1.064,1.55 -1.097,2.49c0,1.603 0.169,2.658 1.097,4.092l26.667,0c-0.211,-0.506 -0.549,-1.265 -0.886,-1.603c-0.549,-1.055 -0.169,-2.489 -0.169,-3.544c0.506,-1.055 1.055,-2.11 1.772,-2.996c0.169,-0.548 -0,-0.548 0.169,-0.717l1.265,-0.211c0.676,-0 1.224,-0.507 2.11,-0.507c0.549,0.718 0.549,-0.548 1.435,-0.928c1.941,-0.337 3.797,0 4.81,1.435c-0,0.211 0.211,0.211 0.211,0.422l-0.928,-0c-0.971,-0.422 -2.11,-0.929 -3.376,-0.422c0,0.422 -0.169,0.422 -0.169,0.928l0,0.886c0.675,0 1.266,0.675 1.899,1.055c0.338,-0.549 1.308,-1.055 2.025,-1.055c0.844,0 2.11,0.506 2.11,1.941l-0,1.941c0.717,0.717 1.603,0.886 2.532,1.266c-0.38,0.675 -0.929,0.675 -1.435,0.675l-1.435,-0c-0.168,-0.169 -0.548,-0.169 -0.548,-0.717c-0.506,0.717 -0.844,1.434 -1.266,2.151l20.675,0l-0.928,-1.603c-0.338,-1.055 -0.338,-2.489 -0.338,-3.544l1.941,-2.658c1.055,-0 1.983,-0.338 3.924,-0.507c0.338,-0.548 0,-0.759 1.604,-0.759c1.265,-0 2.109,0.211 2.489,0.422c0.169,0.337 0.169,0.337 -0,0.675c-0.38,0.337 -1.055,-0.338 -1.603,-0.169c-0.38,0.338 0.168,0.506 0.168,0.886c0.38,0.338 -1.603,-0.38 -1.603,-0.38l-0.506,1.435l1.055,1.055c0.337,0.506 -0.549,1.055 -0.549,1.603c-0.338,-0.169 -1.055,-0.717 -1.055,-0.548c-0.38,1.434 0,2.658 -0.169,4.092l1.941,0l0.169,-3.037c0.169,-1.773 2.321,-4.937 3.587,-4.937c0.675,-0 1.265,0.337 1.73,0.717c0.337,0.675 1.139,1.055 1.139,1.393c-0,0.337 -0.464,0.548 -1.266,0.548c-0.38,0 -0.38,-0.548 -0.928,-0.886l-1.055,1.055c-0,-0 1.266,1.055 1.266,1.772c-0,0.886 -0.211,1.266 -0.718,1.772l-1.097,-2.11c-0.506,0 -1.392,1.055 -1.392,1.562c-0,0.717 -0.38,1.097 -0.38,2.151l10.886,0c1.266,0 2.321,-0.337 3.587,-1.054l2.109,-0c4.389,-0 7.806,-1.266 10.971,-4.473c4.43,-4.659 6.869,-10.87 6.793,-17.299l-0,-0.085Zm-68.312,22.954c-0.667,-1.458 -1.026,-3.038 -1.055,-4.642c0,-0.844 0,-2.109 0.507,-2.953l-1.941,0.337c-0.549,0.675 -0.718,1.055 -0.718,1.393l0.886,-0.338c0.169,0 0.38,0.338 0.549,0.675c-0.169,0.886 -1.266,0.886 -1.603,1.266c-0.549,1.772 1.054,2.827 1.265,4.262l2.11,-0Z"></path>
        <path style="fill:#006;" d="M147.763,48.523l-0,12.827c-6.3,3.378 -13.317,5.201 -20.464,5.317c-18.481,-0 -29.62,-11.013 -29.62,-24.895c-0,-14.978 12.7,-27.426 28.945,-27.426c4.05,0 7.046,0.718 10.211,1.772c2.278,0.718 3.713,1.604 5.105,1.604c1.266,-0 1.603,-2.11 1.772,-3.376l1.772,0l1.561,17.3l-2.109,-0c-0.709,-3.119 -2.289,-5.973 -4.557,-8.228c-3.531,-3.445 -8.319,-5.305 -13.249,-5.148c-11.097,0 -17.637,8.861 -17.637,22.236c-0,13.165 7.932,22.279 18.565,22.279c3.123,-0 5.95,-0.717 9.494,-2.321l-0,-13.164c-0,-4.304 -0.717,-5.907 -6.751,-5.907l-0,-1.941l22.447,-0l-0,1.941c-5.654,-0 -5.485,1.814 -5.485,7.173m-61.519,-21.097l0,38.312l-2.996,-0l-37.932,-39.536c0.169,1.055 0.169,1.941 0.169,2.996l-0,24.05c-0,7.469 -0,10.127 6.751,10.127l-0,1.983l-17.89,-0l-0,-1.941c6.709,-0 6.709,-3.207 6.709,-10.127l-0,-27.426c-0,-4.135 -0,-8.565 -7.047,-8.565l0,-1.983l16.751,-0l31.224,32.405c-0.211,-0.844 -0.211,-1.393 -0.211,-2.658l-0,-17.595c-0,-7.131 0.168,-10.127 -6.498,-10.127l-0,-1.983l17.806,0l-0,1.983c-6.54,0 -6.878,2.827 -6.878,10.127m-86.202,37.932l0,-1.941c4.219,0 7.257,-0.38 7.257,-6.624l0,-32.869c-0.042,-6.456 -2.32,-6.625 -7.257,-6.625l0,-1.983l25.063,0l0,1.983c-5.19,0 -7.299,0.169 -7.299,6.583l-0,32.911c-0,6.244 2.658,6.624 7.257,6.624l-0,1.941l-25.021,0"></path>
    </g>
</svg>
