<svg style="fill-rule:evenodd;clip-rule:evenodd;stroke-miterlimit:10;" xml:space="preserve" xmlns:xlink="http://www.w3.org/1999/xlink" xmlns="http://www.w3.org/2000/svg" version="1.1" viewBox="0 0 7209 1500" height="100%" width="100%">
    <g>
        <path style="fill-rule:nonzero;" d="M0,1364.22l0,-1025.83l256.25,0l0,641.25l641.25,-641.25l384.583,0l-1025.83,1025.83l-256.25,0Zm897.5,0l-256.25,-256.666l192.5,-192.5l448.75,448.75l-385,-0l0,0.416Z"></path>
        <path style="fill-rule:nonzero;" d="M1402.5,1364.22l0,-1025.83l256.25,0l0,769.167l897.5,-0l0,256.666l-1153.75,0Z"></path>
        <path style="fill-rule:nonzero;" d="M2932.92,1364.22l-256.25,-256.666l-0,-769.167l256.25,256.25l-0,512.917l256.25,-0l256.666,256.666l-512.916,0Zm769.583,126.25l-512.917,-510.833l384.584,0l128.333,128.333l128.333,0l0,-512.916l-769.583,-0l-256.667,-256.25l1025.83,-0l256.25,256.25l-0,641.25l-127.917,127.916l128.333,126.25l-384.583,0Z"></path>
        <path style="fill-rule:nonzero;" d="M4463.75,1364.22l-256.667,-256.666l0,-769.167l1282.08,0l-0,256.667l-256.25,256.25l-0,-256.25l-769.167,-0l0,512.916l1025.83,0l0,256.667l-1025.83,0l0,-0.417Z"></path>
    </g>
    <g>
        <path style="fill-rule:nonzero;stroke:#000;stroke-width:33.33px;" d="M5808.33,712.967c9.584,-4.166 14.167,-6.25 20,-8.75l5.417,-4.166l34.167,-20l11.25,-6.25l7.083,-4.584l12.083,-7.916l3.334,-0.834l2.5,-2.5l19.166,-11.25l5.417,-1.666l1.667,-0l3.333,-3.334l4.583,-3.333l11.25,-6.25l3.334,-3.333l5.416,-4.167l9.584,-4.167l7.083,-4.166l15,-9.584c1.667,-1.666 3.333,-2.5 4.583,-2.5l4.584,-3.333l6.25,0.833l5.416,3.334l1.667,4.583l-0.833,7.917l-7.917,7.083l-5.417,0.833l-1.666,1.667c-14.167,9.583 -22.084,14.167 -32.5,20l-15,8.75l-5.417,5.417l-10.417,6.25l-0.833,0.833c-5.417,2.5 -10.417,5.417 -14.167,8.75c-3.333,1.667 -4.583,4.167 -6.25,5.417l-10.416,7.916l-17.5,8.75l-5.417,4.167l-4.167,2.5l-13.333,8.75l-2.5,1.667c-2.5,0.833 -4.583,3.333 -7.083,4.166l-9.584,5.417c-1.666,0.833 -4.583,4.167 -4.583,4.167l-11.25,6.25l-7.083,4.583l-0.834,0.833c-4.583,2.5 -9.583,6.25 -14.166,8.75l-18.334,10.417l-9.583,5.417l-6.25,3.333l-12.083,4.167l-11.25,4.166l-2.5,0.834l-12.084,6.25l-6.25,0.833l-21.25,9.583l-3.333,1.667l-1.667,0l-2.5,2.5l-9.583,2.5l-4.583,-0.833l-2.5,-1.667l-16.667,-5.417c-1.667,0 -6.25,-0.833 -7.083,-0.833l-5.417,-12.083c-2.5,-4.167 -7.083,-12.5 -7.917,-20c-0.833,-9.584 0,-19.167 4.167,-28.334l-0,-1.666l0.833,-4.584l3.334,-7.916l7.083,-14.167l4.167,-12.083c0.833,-2.5 2.5,-2.5 3.333,-4.584l5.417,-11.25l5.416,-7.916c0.834,-2.5 3.334,-4.167 4.167,-6.25l8.75,-12.084l2.5,-2.5l4.583,-10.416l3.334,-0l10.416,-15l3.334,-4.584l4.583,-7.916l4.167,-8.75l14.166,-20l0.834,-1.667l31.666,-44.583c0.834,-2.5 2.5,-3.334 3.334,-5.417l7.083,-11.25l7.917,-11.25l3.333,-3.333l-0,-0.417l14.167,-20l3.333,-3.333c0.833,-1.667 3.333,-2.5 4.167,-4.167l3.333,-4.583l4.583,-6.25l1.667,-1.667c0.833,-1.667 0.833,-2.5 0.833,-3.333l4.584,-5.417c-0,-1.667 0.833,-4.167 0.833,-4.583l7.083,-8.75l4.584,-4.167l5.416,-8.75l10.417,-14.167l5.417,-6.25l5.416,-7.916c1.667,-3.334 5.417,-7.917 9.584,-12.5l5.416,-9.584l5.417,-6.25l4.583,-6.25c2.5,-3.333 5.417,-7.083 5.417,-7.083l5.417,-6.25l0.833,-0.833l-0,-2.5l3.333,-6.25l13.334,-18.334l1.666,-1.666c0,-0.834 0.834,-2.5 0.834,-2.5l10.416,-13.334l5.417,-7.083l3.333,-3.333l27.084,-38.75l3.333,-3.334c3.333,-5.416 7.917,-12.083 11.25,-16.666l5.417,-4.584c1.666,-3.333 5.416,-7.916 7.083,-10.416l4.167,-4.167l8.75,-14.167l4.583,-6.25l2.5,-4.583l7.083,-9.583l4.584,-4.584l4.166,-5.416l3.334,-4.584l6.25,-7.083l11.25,-10.417l8.75,-8.75l8.75,-9.583l4.583,-3.333l6.25,-6.25l5.417,-4.167l4.166,-2.5c7.917,-4.583 11.25,-6.25 18.334,-6.25c4.583,0 10.416,1.667 15.833,7.917c11.25,13.333 3.333,27.916 -1.667,31.666l-9.583,8.75l-16.667,12.084l-6.25,4.583l-7.083,4.583l-7.917,7.084l-10.416,9.583l-14.167,14.167l-18.333,26.25l-7.917,7.916l-7.917,12.084l-7.083,7.083l-10.417,14.167l-5.416,4.583l-16.667,23.75l-10.417,10.417l-12.5,17.5l-15.833,22.083l-5.417,5.417c-10.416,15.833 -22.916,31.666 -33.333,47.5l-5.417,7.916l-4.583,8.75l-8.75,8.75l-8.75,10.417l-21.25,27.083c-0,1.667 -0.833,3.334 -0.833,4.584l-7.084,9.583c-0.833,0.833 -2.5,1.667 -2.5,2.5l-7.916,11.25l-4.167,4.167l-2.5,4.166l-1.667,2.5l-14.166,20l-6.25,9.584c-0.834,1.666 -1.667,4.166 -1.667,4.583l-6.25,12.083l-7.917,11.25l-6.25,11.25l-9.583,9.584l-6.25,11.25l-4.583,4.166l-7.084,12.084c-1.666,2.5 -4.166,4.166 -5.416,7.083l-12.084,16.667l-7.916,14.166c-0.834,0.834 -0.834,0.834 -0.834,1.667l-3.333,6.25l-7.083,13.333l-4.167,4.167l-20,37.083l-3.333,7.917c-0.834,0.833 -1.667,4.167 -1.667,4.583l-2.5,10.417l-3.333,6.25l-2.5,8.75l-0,0.833l3.333,3.334l0.833,-0l7.084,4.166l2.5,0l10.416,-3.333l3.334,-2.5l9.583,-3.333l8.75,-4.167l15,-5.417l2.5,-1.666l7.917,-2.5l4.166,-2.5l14.167,-6.25l6.25,-2.5l14.167,-7.084l17.916,-10Z"></path>
        <path style="fill-rule:nonzero;stroke:#000;stroke-width:33.33px;" d="M6216.67,641.301l6.25,-8.75l6.25,-7.084l0.833,0l7.917,-8.75l2.5,-3.333l-0.834,0l-9.583,2.5l-22.083,8.75l-7.917,1.667l-24.583,14.166l-6.25,4.167l-5.417,2.5l-5.417,3.333l-18.333,8.75l-20.417,12.084l-5.416,2.5l-14.167,6.25l-0.833,0.833l-11.25,6.25l-3.334,0.833c-4.583,2.5 -9.583,6.25 -14.166,8.75l-4.584,3.334l-7.916,5.416l-4.584,1.667c-0.833,0.833 -5.416,2.5 -6.25,2.5c-5.416,3.333 -11.25,6.25 -16.666,10.417l-15,7.916l-7.084,0l-9.583,4.167l-5.417,-0.833c-1.666,1.666 -3.333,0.833 -7.083,2.5c-1.667,0.833 -4.167,4.166 -4.167,4.166l-15.833,5.417l-5.417,0.833l-13.333,5.417l-4.583,0.833l-5.417,-0.833c-15.833,1.667 -28.333,-1.667 -33.333,-14.167c-4.167,-11.25 -0,-25.416 5.416,-38.75l4.167,-11.25l4.583,-5.416c0,-0 0.834,-0.834 0.834,-1.667l6.25,-9.583l5.416,-7.917l7.917,-9.583l9.583,-9.584l3.334,-4.166l7.083,-5.417l8.75,-7.917l36.667,-32.5l11.25,-8.75l5.416,-5.416l9.584,-7.917l1.666,-0.833l6.25,-4.167l15.834,-14.167l13.333,-11.25l5.417,-4.583l12.083,-6.25l0.833,-0.833l7.084,-3.334l2.5,-0.833c2.5,-0.833 4.583,-3.333 12.5,-5.417l28.333,-14.166l7.083,-3.334l4.584,-1.666c4.583,-0.834 8.75,-3.334 13.333,-4.167l3.333,-2.5l7.917,-0.833l4.583,-1.667l5.417,-1.667l12.083,0l17.5,2.5c0.834,0.834 3.334,1.667 4.167,1.667l8.75,7.083l0.833,7.917l-1.666,7.083c-2.5,6.25 -13.334,20.417 -30,19.167c-1.667,0 -4.167,0.833 -5.417,0.833l-30.833,0l-5.417,0.834l-4.583,1.666l-10.417,3.334l-13.333,4.166l-17.5,7.084l-20.417,11.25l-4.167,2.5l-10.416,7.083l-35.834,26.25l-2.5,2.5l-7.083,7.917l-7.083,7.083l-5.417,3.333l-6.25,5.417l-1.667,1.667l-7.916,6.25l-0,1.666l-7.917,9.584l-9.583,8.75l-0,0.833l-4.584,5.417l-3.333,4.166l-1.667,2.5c0,0.834 -0.833,2.5 -0.833,2.5l-4.583,4.584l-3.334,4.166l-8.75,12.084l-4.583,10.416l-2.5,4.584l-4.167,4.583l-2.5,3.333l-0.833,1.667l0,5.417c5.417,-1.667 8.75,-4.584 14.167,-6.25l7.083,-1.667l12.083,-4.167l5.417,-0.833l27.917,-12.5l4.166,-2.5l7.084,-4.167l10.416,-3.333l4.584,-2.5c6.25,-2.5 6.25,-1.667 20,-9.583l5.416,-4.167l7.084,-4.167l2.5,-2.5l4.583,-0.833l9.583,-4.583l6.25,-3.334l5.417,-3.333l21.25,-11.25l5.417,-4.167l23.75,-11.25l3.333,-0.833l13.333,-6.25l9.584,-7.083l12.5,-6.25l4.166,-3.334l6.25,-4.166l4.167,-3.334l9.583,-6.25l12.084,-7.083l24.583,-5.417l11.25,0l8.75,1.667l7.917,4.583l0.833,0.834c4.167,1.666 8.75,4.583 13.333,12.5l0,4.583l-0.833,2.5l-3.333,4.583l-1.667,7.917l-7.083,4.583l-3.334,3.334l-7.083,10.416l-6.25,5.417l-16.667,19.167l-1.666,2.5l-7.917,11.25l-2.5,4.583l-1.667,4.167c-0.833,2.5 -2.5,2.5 -2.5,3.333c2.5,0 4.167,-0.833 7.084,-0.833l7.916,-0.834l3.334,0l10.416,-2.5l8.75,-1.666l4.584,-1.667l10.416,-2.5l27.917,-7.917l4.167,-1.666l7.083,-1.667l9.583,-3.333l7.084,-3.334l3.333,-0.833l3.333,-2.5l27.917,-7.083l7.083,-2.5l2.5,-2.5l38.75,-11.25l7.084,-1.667l15.833,-4.583c0.833,-0 5.417,-0 6.25,0.833c2.5,0.833 7.083,1.667 7.917,1.667l-0,13.333l-7.917,7.083l-8.75,0l-12.083,3.334l-9.584,4.583l-4.583,0l-11.25,3.333l-4.583,1.667l-19.167,8.75l-13.333,6.25l-15.834,4.583l-17.5,6.25l-4.583,1.667l-3.333,0.833l-6.25,4.584l-7.084,2.5l-4.583,1.666l-6.25,4.167l-3.333,1.667l-20,7.916l-6.25,3.334l-21.25,7.916l-8.75,3.334c-1.667,0.833 -4.584,3.333 -5.417,3.333l-12.083,3.333l-10.417,0l-7.083,-0.833l-4.167,-1.667l-5.417,-1.666l-7.083,-7.917l0,-7.917c-0.833,-4.166 -1.667,-8.75 0,-12.083l4.167,-8.75l-0,-1.667l7.083,-9.583l2.5,-4.167l6.25,-7.916l14.167,-21.25Z"></path>
        <path style="fill-rule:nonzero;stroke:#000;stroke-width:33.33px;" d="M6527.5,630.467l-20,18.334c-1.667,0.833 -5.417,5.416 -7.083,7.083l-13.334,12.5l-7.083,5.417l-17.5,17.5l-9.583,12.083l-7.084,7.917l-18.333,21.25l-7.917,9.583l-4.583,6.25c-1.667,1.667 -3.333,5.417 -4.583,7.083l-0.834,1.667l0,7.083l-1.666,7.917l-1.667,4.167l-7.917,12.5l-17.5,4.583l-12.5,-1.667l-9.583,-10.416l-0.833,-6.25l0.833,-15.834l3.333,-19.166l2.5,-2.5l6.25,-15.834c0,-0.833 1.667,-4.166 1.667,-4.583l15,-24.583l3.333,-5.417l2.5,-3.333c2.5,-5.417 6.25,-10.417 8.75,-15.834l13.334,-18.333l5.416,-9.583l30,-51.667c4.584,-9.583 10.417,-17.5 15,-27.083l12.084,-16.667l5.416,-7.917l26.25,-39.583l5.417,-7.917c4.583,-6.25 7.917,-12.5 12.083,-19.166c6.25,-10.417 14.167,-21.25 24.584,-35.834l2.5,-4.166l16.666,-26.25l4.584,-6.25l4.583,-9.584l9.583,-10.416l2.5,-7.084l9.584,-10.416l6.25,-8.75l16.666,-23.75l2.5,-6.25l12.084,-19.167l2.5,-7.917l16.666,-22.083l6.25,-13.333l20.417,-32.5l20,-34.167l11.25,-20l17.5,-29.167l4.583,-12.083l6.25,-15.833l3.334,-9.584l4.583,-15.833l3.333,-13.333l2.5,-15.834c0,-1.666 1.667,-4.583 1.667,-6.25l6.25,-15.833c4.167,-8.75 12.5,-18.333 30,-17.5c10.417,0 15,9.583 16.667,19.167l-0,5.416l-1.667,6.25l-1.667,5.417l-7.916,17.5l-5.417,22.917l-6.25,12.083l-5.417,12.083c-0.833,3.334 -3.333,6.25 -5.416,12.084l-5.417,14.166c-0,0.834 -1.667,3.334 -2.5,4.584l-7.917,17.5l-6.25,12.5l-10.833,17.5l-12.083,17.5l-7.084,12.083l-0.833,0.833l-4.583,8.75c-0.834,2.5 -1.667,5.417 -1.667,6.25l-10.417,12.5l0,1.667l-14.166,20l-13.334,22.917l-7.916,12.083l-4.584,6.25c-9.583,12.5 -15,20.417 -18.333,27.083l-0,0.834l-4.583,7.083l-3.334,3.333l-13.333,20.417l-12.083,18.333l-7.917,7.917l-6.25,9.583l-0,0.834l-8.75,15l-11.25,18.333l-13.333,22.083l-16.667,25.417l-37.917,46.667l-1.666,3.333l-5.417,13.333l-27.083,35.834l-4.167,6.25l-22.917,44.583l-8.75,14.167l-4.166,8.75l4.166,-4.167l2.5,-3.333l22.084,-22.084l8.75,-7.083l14.166,-12.5l4.167,-6.25l15,-12.5l3.333,-0.833l16.667,-17.5l4.583,-3.334l8.75,-4.583l11.25,-7.917l7.917,-5.416l3.333,-3.334l7.084,-4.583c-0,-0.833 0.833,-2.5 0.833,-2.5l12.083,-7.083l4.167,-2.5l20.417,-12.5l7.916,-4.584l0.834,-0.833l6.25,-4.167l5.416,-4.583l9.584,-6.25l1.666,0l10.417,-7.083l21.25,-5l30.833,-12.5l7.084,-1.667c9.583,-1.667 16.666,-5.417 30,-4.583l3.333,-0.834l21.25,1.667c9.583,2.5 19.167,7.083 30,13.333c4.583,3.334 6.25,7.084 6.25,12.5l-1.667,12.5l0.834,4.584l-4.584,13.333c-0.833,4.167 -3.333,8.75 -4.166,12.5l-6.25,11.25l-5.417,4.583l-10.417,14.167l-2.5,4.167l-7.916,7.916l-27.084,25.417l-13.333,12.083l-5.417,5.417l-28.333,23.75l-12.083,9.583l-10.417,6.25l-4.583,3.334l-2.5,2.5l-11.25,8.75l-7.084,2.5l-8.75,5.416l-3.333,2.5l-6.25,3.334l-10.417,5.416l-4.166,1.667l-4.167,3.333c-12.5,7.917 -27.083,15 -45.833,21.25l-9.584,3.334l-4.583,2.5l-5.417,0.833l-3.333,0l-9.583,4.167l-11.25,3.333l-7.917,2.5l-9.583,1.667l-9.584,2.5l-15.833,0.833l-5.417,-0.833l-5.416,-1.667l-4.584,-0.833l-7.916,-4.167l-5.417,-4.583c-3.333,-4.584 -4.167,-9.584 -3.333,-12.084l7.083,-11.25l9.583,-4.166l8.75,-0.834l3.334,0l4.166,0.834l5.417,3.333l7.083,1.667c4.167,-0 7.917,0.833 11.25,0.833c1.667,0 3.334,0 6.25,-0.833l20,-1.667l14.167,-4.583l26.25,-9.584l11.25,-6.25l4.167,-1.666l14.166,-7.084c1.667,-1.666 2.5,-4.166 3.334,-4.583l12.5,-4.167l3.333,-4.166l11.25,-7.084l4.167,-3.333l8.75,-4.167l2.5,-1.666l12.083,-9.584l15.833,-7.916l12.084,-7.917c12.5,-10.417 22.083,-19.167 27.916,-24.583l10.417,-10.417c5.417,-4.583 6.25,-4.583 15,-13.333c-0,-0.834 1.667,-4.167 2.5,-4.584l6.25,-6.25l5.417,-6.25l5.416,-4.166c6.25,-7.084 13.334,-15 16.667,-20.417l0.833,-0.833c0,-1.667 1.667,-4.167 1.667,-5.417l2.5,-4.583c0.833,-0.834 1.667,-1.667 1.667,-2.5l-0,-4.584l-0.834,-2.5l-4.166,-8.75l-7.917,-7.916l-5.417,-0.834l-5.416,0c-9.584,0.834 -20.417,4.584 -32.5,8.75l-2.5,0.834l-21.25,7.916l-7.084,4.167l-4.583,0.833l-15.833,7.084l-4.167,2.5l-2.5,0.833c-0.833,0.833 -1.667,0.833 -1.667,0.833l-13.333,7.084l-42.5,26.25l-4.583,4.583l-5.417,7.917l-9.583,4.166l-7.917,5.417l-14.167,9.583c-4.583,3.334 -9.583,7.084 -12.5,10.417l-7.916,7.917l-12.917,6.666Z"></path>
        <path style="fill-rule:nonzero;stroke:#000;stroke-width:33.33px;" d="M7185,522.551c-0.833,1.666 -0.833,3.333 -0.833,4.166c-0,5.417 -0,10.417 -7.084,18.334c-4.166,5.416 -13.333,14.166 -23.75,9.583l-8.75,-4.167l-10.416,-10.416l-1.667,-5.417l-1.667,-4.167l0,-6.25l1.667,-4.583l-0.833,-7.083l-1.667,-4.167l-2.5,-1.667l-4.167,-3.333l-4.583,-1.667c-3.333,0 -5.417,-0.833 -8.75,-0.833l-18.333,0c-4.167,-0.833 -7.084,0 -23.75,4.167l-12.084,4.166l-40.416,12.084l-12.084,4.583l-11.25,6.25l-6.25,2.5l-9.583,2.5l-15,6.25l-4.167,1.667l-18.333,9.583l-11.25,7.917l-3.333,3.333l-11.25,5.417l-4.584,4.166l-3.333,2.5l-4.583,3.334l-2.5,2.5l-6.25,8.75l-7.084,4.583l-3.333,3.333l-8.75,5.417c-2.5,3.333 -4.583,7.083 -4.583,9.583l1.666,3.334l2.5,3.333l11.25,11.25l4.167,2.5l7.917,4.583c3.333,0.834 7.083,3.334 10.416,4.167l7.917,4.167l5.417,3.333c1.666,0.833 5.416,1.667 7.083,1.667l7.083,4.583l17.5,7.083c2.5,0 6.25,1.667 8.75,1.667l8.75,1.667l7.084,3.333l1.666,0l3.334,2.5l15,4.583c2.5,0 4.583,0.834 7.083,0.834l4.167,2.5c5.416,0.833 12.083,3.333 18.333,4.166c3.333,0 8.75,1.667 12.083,1.667l17.5,4.167l17.5,8.75l7.917,12.083l0.833,10.417l-0.833,5.416l-5.417,6.25l-7.083,6.25l-12.5,5.417l-4.167,0l-4.583,3.333l-11.25,3.334l-1.667,-0.834l-7.916,2.5l-20.417,1.667l-35.833,2.5l-10.417,0l-31.667,1.667l-9.583,-0l-10.417,0.833l-12.083,-0.833l-9.583,2.5l-13.334,-0l-20.416,-1.667l-12.5,0l-7.917,0.833l0.833,0l-14.166,2.5l-4.167,0l-11.25,2.5l-6.25,0c-4.583,0.834 -9.583,3.334 -14.167,4.167l-10.416,2.5l-9.584,0.833l-8.75,0.834l-20,4.583l-4.166,0.833l-11.25,1.667l-3.334,0l-3.333,1.667l-5.417,0.833l-7.083,-7.917l-1.667,-5.416l3.334,-5.417l7.083,-2.5l7.917,-3.333l20,-4.584l10.416,-1.666l11.25,-2.5l9.584,-1.667l22.083,-8.75l10.417,0l6.25,-1.667l12.083,0.834l8.75,-0.834l6.25,-1.666l16.667,-1.667l13.333,-1.667l12.083,-0.833l16.667,-1.667l11.25,0l6.25,-1.666l2.5,0.833l5.417,0c2.5,0 2.5,-0.833 4.583,-0.833c0.833,-0.834 5.417,-2.5 7.083,-3.334l20.417,-1.666l12.083,-3.334l27.917,0l4.583,-1.666l7.917,-0l-6.25,-2.5l-8.75,-4.167l-7.083,-2.5c-2.5,0 -5.417,-1.667 -7.084,-1.667l-4.166,-0.833l-20.417,-10.417c-1.667,0 -2.5,-1.666 -3.333,-1.666l-7.084,-3.334l-12.083,-5.416l-7.917,-3.334c-2.5,-0.833 -1.666,-2.5 -4.583,-3.333c-4.583,-1.667 -6.25,-3.333 -19.167,-6.25c-5.416,-1.667 -8.75,-3.333 -13.333,-7.083l-1.667,-0.834c-1.666,0 -4.166,-0.833 -4.583,-0.833l-7.083,-2.5c-1.667,0 -4.167,-0.833 -4.584,-0.833l-5.416,-4.584l-3.334,-2.5l0.834,0.834l-7.917,-5.417l-10.417,-10.417l-2.5,-9.583l0,-4.583l0.834,-6.25c0.833,-4.167 3.333,-7.917 7.083,-14.167l1.667,-2.5c-0,-0.833 1.666,-3.333 1.666,-4.167l9.584,-12.083l9.583,-10.417l6.25,-7.083l3.333,-2.5c0.834,-0.833 3.334,-4.583 3.334,-5.417l7.083,-4.166l2.5,-2.5l9.583,-7.084l11.25,-6.25l12.5,-7.083l4.167,-2.5l12.083,-6.25l0.834,-0.833l5.416,-2.5l3.334,-2.5l13.333,-7.084l4.583,-0.833l17.5,-6.25l7.084,-3.333l6.25,-1.667l21.25,-6.25l13.333,-4.167l17.5,-6.25l5.417,-1.666l4.166,-0.834c0,0 0.834,0 3.334,-0.833l7.916,-1.667c4.584,-1.666 9.584,-2.5 14.167,-3.333l21.25,-2.5l30,0l15.833,3.333l4.584,0.834l10.416,3.333l10.417,7.083l5.417,6.25l1.666,3.334l2.5,8.75l1.667,7.916l0,7.084Z"></path>
    </g>
</svg>
