<svg xmlns="http://www.w3.org/2000/svg" fill-rule="evenodd" stroke-miterlimit="10" clip-rule="evenodd" preserveAspectRatio="xMinYMin" viewBox="0 0 7209 1500"><path fill-rule="nonzero" d="M0 1364.22V338.39h256.25v641.25L897.5 338.39h384.583L256.253 1364.22H.003zm897.5 0-256.25-256.666 192.5-192.5 448.75 448.75h-385zm505 0V338.39h256.25v769.167h897.5v256.666H1402.5zm1530.42 0-256.25-256.666V338.387l256.25 256.25v512.917h256.25l256.666 256.666zm769.583 126.25-512.917-510.833h384.584l128.333 128.333h128.333V595.054h-769.583l-256.667-256.25h1025.83l256.25 256.25v641.25l-127.917 127.916 128.333 126.25h-384.583zm761.247-126.25-256.667-256.666V338.387h1282.08v256.667l-256.25 256.25v-256.25h-769.167v512.916h1025.83v256.667h-1025.83v-.417z"/><g fill-rule="nonzero" stroke="#000" stroke-width="33.33"><path d="M5808.33 712.967c9.584-4.166 14.167-6.25 20-8.75l5.417-4.166 34.167-20 11.25-6.25 7.083-4.584 12.083-7.916 3.334-.834 2.5-2.5 19.166-11.25 5.417-1.666h1.667l3.333-3.334 4.583-3.333 11.25-6.25 3.334-3.333 5.416-4.167 9.584-4.167 7.083-4.166 15-9.584c1.667-1.666 3.333-2.5 4.583-2.5l4.584-3.333 6.25.833 5.416 3.334 1.667 4.583-.833 7.917-7.917 7.083-5.417.833-1.666 1.667c-14.167 9.583-22.084 14.167-32.5 20l-15 8.75-5.417 5.417-10.417 6.25-.833.833c-5.417 2.5-10.417 5.417-14.167 8.75-3.333 1.667-4.583 4.167-6.25 5.417l-10.416 7.916-17.5 8.75-5.417 4.167-4.167 2.5-13.333 8.75-2.5 1.667c-2.5.833-4.583 3.333-7.083 4.166l-9.584 5.417c-1.666.833-4.583 4.167-4.583 4.167l-11.25 6.25-7.083 4.583-.834.833c-4.583 2.5-9.583 6.25-14.166 8.75l-18.334 10.417-9.583 5.417-6.25 3.333-12.083 4.167-11.25 4.166-2.5.834-12.084 6.25-6.25.833-21.25 9.583-3.333 1.667h-1.667l-2.5 2.5-9.583 2.5-4.583-.833-2.5-1.667-16.667-5.417c-1.667 0-6.25-.833-7.083-.833l-5.417-12.083c-2.5-4.167-7.083-12.5-7.917-20-.833-9.584 0-19.167 4.167-28.334v-1.666l.833-4.584 3.334-7.916 7.083-14.167 4.167-12.083c.833-2.5 2.5-2.5 3.333-4.584l5.417-11.25 5.416-7.916c.834-2.5 3.334-4.167 4.167-6.25l8.75-12.084 2.5-2.5 4.583-10.416h3.334l10.416-15 3.334-4.584 4.583-7.916 4.167-8.75 14.166-20 .834-1.667 31.666-44.583c.834-2.5 2.5-3.334 3.334-5.417l7.083-11.25 7.917-11.25 3.333-3.333v-.417l14.167-20 3.333-3.333c.833-1.667 3.333-2.5 4.167-4.167l3.333-4.583 4.583-6.25 1.667-1.667c.833-1.667.833-2.5.833-3.333l4.584-5.417c0-1.667.833-4.167.833-4.583l7.083-8.75 4.584-4.167 5.416-8.75 10.417-14.167 5.417-6.25 5.416-7.916c1.667-3.334 5.417-7.917 9.584-12.5l5.416-9.584 5.417-6.25 4.583-6.25c2.5-3.333 5.417-7.083 5.417-7.083l5.417-6.25.833-.833v-2.5l3.333-6.25 13.334-18.334 1.666-1.666c0-.834.834-2.5.834-2.5l10.416-13.334 5.417-7.083 3.333-3.333 27.084-38.75 3.333-3.334c3.333-5.416 7.917-12.083 11.25-16.666l5.417-4.584c1.666-3.333 5.416-7.916 7.083-10.416l4.167-4.167 8.75-14.167 4.583-6.25 2.5-4.583 7.083-9.583 4.584-4.584 4.166-5.416 3.334-4.584 6.25-7.083 11.25-10.417 8.75-8.75 8.75-9.583 4.583-3.333 6.25-6.25 5.417-4.167 4.166-2.5c7.917-4.583 11.25-6.25 18.334-6.25 4.583 0 10.416 1.667 15.833 7.917 11.25 13.333 3.333 27.916-1.667 31.666l-9.583 8.75-16.667 12.084-6.25 4.583-7.083 4.583-7.917 7.084-10.416 9.583-14.167 14.167-18.333 26.25-7.917 7.916-7.917 12.084-7.083 7.083-10.417 14.167-5.416 4.583-16.667 23.75-10.417 10.417-12.5 17.5-15.833 22.083-5.417 5.417c-10.416 15.833-22.916 31.666-33.333 47.5l-5.417 7.916-4.583 8.75-8.75 8.75-8.75 10.417-21.25 27.083c0 1.667-.833 3.334-.833 4.584l-7.084 9.583c-.833.833-2.5 1.667-2.5 2.5l-7.916 11.25-4.167 4.167-2.5 4.166-1.667 2.5-14.166 20-6.25 9.584c-.834 1.666-1.667 4.166-1.667 4.583l-6.25 12.083-7.917 11.25-6.25 11.25-9.583 9.584-6.25 11.25-4.583 4.166-7.084 12.084c-1.666 2.5-4.166 4.166-5.416 7.083l-12.084 16.667-7.916 14.166c-.834.834-.834.834-.834 1.667l-3.333 6.25-7.083 13.333-4.167 4.167-20 37.083-3.333 7.917c-.834.833-1.667 4.167-1.667 4.583l-2.5 10.417-3.333 6.25-2.5 8.75v.833l3.333 3.334h.833l7.084 4.166h2.5l10.416-3.333 3.334-2.5 9.583-3.333 8.75-4.167 15-5.417 2.5-1.666 7.917-2.5 4.166-2.5 14.167-6.25 6.25-2.5 14.167-7.084z"/><path d="m6216.67 641.301 6.25-8.75 6.25-7.084h.833l7.917-8.75 2.5-3.333h-.834l-9.583 2.5-22.083 8.75-7.917 1.667-24.583 14.166-6.25 4.167-5.417 2.5-5.417 3.333-18.333 8.75-20.417 12.084-5.416 2.5-14.167 6.25-.833.833-11.25 6.25-3.334.833c-4.583 2.5-9.583 6.25-14.166 8.75l-4.584 3.334-7.916 5.416-4.584 1.667c-.833.833-5.416 2.5-6.25 2.5-5.416 3.333-11.25 6.25-16.666 10.417l-15 7.916h-7.084l-9.583 4.167-5.417-.833c-1.666 1.666-3.333.833-7.083 2.5-1.667.833-4.167 4.166-4.167 4.166l-15.833 5.417-5.417.833-13.333 5.417-4.583.833-5.417-.833c-15.833 1.667-28.333-1.667-33.333-14.167-4.167-11.25 0-25.416 5.416-38.75l4.167-11.25 4.583-5.416s.834-.834.834-1.667l6.25-9.583 5.416-7.917 7.917-9.583 9.583-9.584 3.334-4.166 7.083-5.417 8.75-7.917 36.667-32.5 11.25-8.75 5.416-5.416 9.584-7.917 1.666-.833 6.25-4.167 15.834-14.167 13.333-11.25 5.417-4.583 12.083-6.25.833-.833 7.084-3.334 2.5-.833c2.5-.833 4.583-3.333 12.5-5.417l28.333-14.166 7.083-3.334 4.584-1.666c4.583-.834 8.75-3.334 13.333-4.167l3.333-2.5 7.917-.833 4.583-1.667 5.417-1.667h12.083l17.5 2.5c.834.834 3.334 1.667 4.167 1.667l8.75 7.083.833 7.917-1.666 7.083c-2.5 6.25-13.334 20.417-30 19.167-1.667 0-4.167.833-5.417.833h-30.833l-5.417.834-4.583 1.666-10.417 3.334-13.333 4.166-17.5 7.084-20.417 11.25-4.167 2.5-10.416 7.083-35.834 26.25-2.5 2.5-7.083 7.917-7.083 7.083-5.417 3.333-6.25 5.417-1.667 1.667-7.916 6.25v1.666l-7.917 9.584-9.583 8.75v.833l-4.584 5.417-3.333 4.166-1.667 2.5c0 .834-.833 2.5-.833 2.5l-4.583 4.584-3.334 4.166-8.75 12.084-4.583 10.416-2.5 4.584-4.167 4.583-2.5 3.333-.833 1.667v5.417c5.417-1.667 8.75-4.584 14.167-6.25l7.083-1.667 12.083-4.167 5.417-.833 27.917-12.5 4.166-2.5 7.084-4.167 10.416-3.333 4.584-2.5c6.25-2.5 6.25-1.667 20-9.583l5.416-4.167 7.084-4.167 2.5-2.5 4.583-.833 9.583-4.583 6.25-3.334 5.417-3.333 21.25-11.25 5.417-4.167 23.75-11.25 3.333-.833 13.333-6.25 9.584-7.083 12.5-6.25 4.166-3.334 6.25-4.166 4.167-3.334 9.583-6.25 12.084-7.083 24.583-5.417h11.25l8.75 1.667 7.917 4.583.833.834c4.167 1.666 8.75 4.583 13.333 12.5v4.583l-.833 2.5-3.333 4.583-1.667 7.917-7.083 4.583-3.334 3.334-7.083 10.416-6.25 5.417-16.667 19.167-1.666 2.5-7.917 11.25-2.5 4.583-1.667 4.167c-.833 2.5-2.5 2.5-2.5 3.333 2.5 0 4.167-.833 7.084-.833l7.916-.834h3.334l10.416-2.5 8.75-1.666 4.584-1.667 10.416-2.5 27.917-7.917 4.167-1.666 7.083-1.667 9.583-3.333 7.084-3.334 3.333-.833 3.333-2.5 27.917-7.083 7.083-2.5 2.5-2.5 38.75-11.25 7.084-1.667 15.833-4.583c.833 0 5.417 0 6.25.833 2.5.833 7.083 1.667 7.917 1.667v13.333l-7.917 7.083h-8.75l-12.083 3.334-9.584 4.583h-4.583l-11.25 3.333-4.583 1.667-19.167 8.75-13.333 6.25-15.834 4.583-17.5 6.25-4.583 1.667-3.333.833-6.25 4.584-7.084 2.5-4.583 1.666-6.25 4.167-3.333 1.667-20 7.916-6.25 3.334-21.25 7.916-8.75 3.334c-1.667.833-4.584 3.333-5.417 3.333l-12.083 3.333h-10.417l-7.083-.833-4.167-1.667-5.417-1.666-7.083-7.917v-7.917c-.833-4.166-1.667-8.75 0-12.083l4.167-8.75v-1.667l7.083-9.583 2.5-4.167 6.25-7.916z"/><path d="m6527.5 630.467-20 18.334c-1.667.833-5.417 5.416-7.083 7.083l-13.334 12.5-7.083 5.417-17.5 17.5-9.583 12.083-7.084 7.917-18.333 21.25-7.917 9.583-4.583 6.25c-1.667 1.667-3.333 5.417-4.583 7.083l-.834 1.667v7.083l-1.666 7.917-1.667 4.167-7.917 12.5-17.5 4.583-12.5-1.667-9.583-10.416-.833-6.25.833-15.834 3.333-19.166 2.5-2.5 6.25-15.834c0-.833 1.667-4.166 1.667-4.583l15-24.583 3.333-5.417 2.5-3.333c2.5-5.417 6.25-10.417 8.75-15.834l13.334-18.333 5.416-9.583 30-51.667c4.584-9.583 10.417-17.5 15-27.083l12.084-16.667 5.416-7.917 26.25-39.583 5.417-7.917c4.583-6.25 7.917-12.5 12.083-19.166 6.25-10.417 14.167-21.25 24.584-35.834l2.5-4.166 16.666-26.25 4.584-6.25 4.583-9.584 9.583-10.416 2.5-7.084 9.584-10.416 6.25-8.75 16.666-23.75 2.5-6.25 12.084-19.167 2.5-7.917 16.666-22.083 6.25-13.333 20.417-32.5 20-34.167 11.25-20 17.5-29.167 4.583-12.083 6.25-15.833 3.334-9.584 4.583-15.833 3.333-13.333 2.5-15.834c0-1.666 1.667-4.583 1.667-6.25l6.25-15.833c4.167-8.75 12.5-18.333 30-17.5 10.417 0 15 9.583 16.667 19.167v5.416l-1.667 6.25-1.667 5.417-7.916 17.5-5.417 22.917-6.25 12.083-5.417 12.083c-.833 3.334-3.333 6.25-5.416 12.084l-5.417 14.166c0 .834-1.667 3.334-2.5 4.584l-7.917 17.5-6.25 12.5-10.833 17.5-12.083 17.5-7.084 12.083-.833.833-4.583 8.75c-.834 2.5-1.667 5.417-1.667 6.25l-10.417 12.5v1.667l-14.166 20-13.334 22.917-7.916 12.083-4.584 6.25c-9.583 12.5-15 20.417-18.333 27.083v.834l-4.583 7.083-3.334 3.333L6630 379.634l-12.083 18.333-7.917 7.917-6.25 9.583v.834l-8.75 15-11.25 18.333-13.333 22.083-16.667 25.417-37.917 46.667-1.666 3.333-5.417 13.333-27.083 35.834-4.167 6.25-22.917 44.583-8.75 14.167-4.166 8.75 4.166-4.167 2.5-3.333 22.084-22.084 8.75-7.083 14.166-12.5 4.167-6.25 15-12.5 3.333-.833 16.667-17.5 4.583-3.334 8.75-4.583 11.25-7.917 7.917-5.416 3.333-3.334 7.084-4.583c0-.833.833-2.5.833-2.5l12.083-7.083 4.167-2.5 20.417-12.5 7.916-4.584.834-.833 6.25-4.167 5.416-4.583 9.584-6.25h1.666l10.417-7.083 21.25-5 30.833-12.5 7.084-1.667c9.583-1.667 16.666-5.417 30-4.583l3.333-.834 21.25 1.667c9.583 2.5 19.167 7.083 30 13.333 4.583 3.334 6.25 7.084 6.25 12.5l-1.667 12.5.834 4.584-4.584 13.333c-.833 4.167-3.333 8.75-4.166 12.5l-6.25 11.25-5.417 4.583-10.417 14.167-2.5 4.167-7.916 7.916-27.084 25.417-13.333 12.083-5.417 5.417-28.333 23.75-12.083 9.583-10.417 6.25-4.583 3.334-2.5 2.5-11.25 8.75-7.084 2.5-8.75 5.416-3.333 2.5-6.25 3.334-10.417 5.416-4.166 1.667-4.167 3.333c-12.5 7.917-27.083 15-45.833 21.25l-9.584 3.334-4.583 2.5-5.417.833H6535l-9.583 4.167-11.25 3.333-7.917 2.5-9.583 1.667-9.584 2.5-15.833.833-5.417-.833-5.416-1.667-4.584-.833-7.916-4.167-5.417-4.583c-3.333-4.584-4.167-9.584-3.333-12.084l7.083-11.25 9.583-4.166 8.75-.834h3.334l4.166.834 5.417 3.333 7.083 1.667c4.167 0 7.917.833 11.25.833 1.667 0 3.334 0 6.25-.833l20-1.667 14.167-4.583 26.25-9.584 11.25-6.25 4.167-1.666 14.166-7.084c1.667-1.666 2.5-4.166 3.334-4.583l12.5-4.167 3.333-4.166 11.25-7.084 4.167-3.333 8.75-4.167 2.5-1.666 12.083-9.584 15.833-7.916 12.084-7.917a687 687 0 0 0 27.916-24.583l10.417-10.417c5.417-4.583 6.25-4.583 15-13.333 0-.834 1.667-4.167 2.5-4.584l6.25-6.25 5.417-6.25 5.416-4.166c6.25-7.084 13.334-15 16.667-20.417l.833-.833c0-1.667 1.667-4.167 1.667-5.417l2.5-4.583c.833-.834 1.667-1.667 1.667-2.5v-4.584l-.834-2.5-4.166-8.75-7.917-7.916-5.417-.834h-5.416c-9.584.834-20.417 4.584-32.5 8.75l-2.5.834-21.25 7.916-7.084 4.167-4.583.833-15.833 7.084-4.167 2.5-2.5.833c-.833.833-1.667.833-1.667.833L6645 547.551l-42.5 26.25-4.583 4.583-5.417 7.917-9.583 4.166-7.917 5.417-14.167 9.583c-4.583 3.334-9.583 7.084-12.5 10.417l-7.916 7.917zM7185 522.551c-.833 1.666-.833 3.333-.833 4.166 0 5.417 0 10.417-7.084 18.334-4.166 5.416-13.333 14.166-23.75 9.583l-8.75-4.167-10.416-10.416-1.667-5.417-1.667-4.167v-6.25l1.667-4.583-.833-7.083-1.667-4.167-2.5-1.667-4.167-3.333-4.583-1.667c-3.333 0-5.417-.833-8.75-.833h-18.333c-4.167-.833-7.084 0-23.75 4.167l-12.084 4.166-40.416 12.084-12.084 4.583-11.25 6.25-6.25 2.5-9.583 2.5-15 6.25-4.167 1.667-18.333 9.583-11.25 7.917-3.333 3.333-11.25 5.417-4.584 4.166-3.333 2.5-4.583 3.334-2.5 2.5-6.25 8.75-7.084 4.583-3.333 3.333-8.75 5.417c-2.5 3.333-4.583 7.083-4.583 9.583l1.666 3.334 2.5 3.333 11.25 11.25 4.167 2.5 7.917 4.583c3.333.834 7.083 3.334 10.416 4.167l7.917 4.167 5.417 3.333c1.666.833 5.416 1.667 7.083 1.667l7.083 4.583 17.5 7.083c2.5 0 6.25 1.667 8.75 1.667l8.75 1.667 7.084 3.333h1.666l3.334 2.5 15 4.583c2.5 0 4.583.834 7.083.834l4.167 2.5c5.416.833 12.083 3.333 18.333 4.166 3.333 0 8.75 1.667 12.083 1.667l17.5 4.167 17.5 8.75 7.917 12.083.833 10.417-.833 5.416-5.417 6.25-7.083 6.25-12.5 5.417h-4.167l-4.583 3.333-11.25 3.334-1.667-.834-7.916 2.5-20.417 1.667-35.833 2.5h-10.417l-31.667 1.667h-9.583l-10.417.833-12.083-.833-9.583 2.5h-13.334l-20.416-1.667h-12.5l-7.917.833h.833l-14.166 2.5h-4.167l-11.25 2.5h-6.25c-4.583.834-9.583 3.334-14.167 4.167l-10.416 2.5-9.584.833-8.75.834-20 4.583-4.166.833-11.25 1.667h-3.334l-3.333 1.667-5.417.833-7.083-7.917-1.667-5.416 3.334-5.417 7.083-2.5 7.917-3.333 20-4.584 10.416-1.666 11.25-2.5 9.584-1.667 22.083-8.75h10.417l6.25-1.667 12.083.834 8.75-.834 6.25-1.666 16.667-1.667 13.333-1.667 12.083-.833 16.667-1.667h11.25l6.25-1.666 2.5.833h5.417c2.5 0 2.5-.833 4.583-.833.833-.834 5.417-2.5 7.083-3.334l20.417-1.666 12.083-3.334h27.917l4.583-1.666h7.917l-6.25-2.5-8.75-4.167-7.083-2.5c-2.5 0-5.417-1.667-7.084-1.667l-4.166-.833-20.417-10.417c-1.667 0-2.5-1.666-3.333-1.666l-7.084-3.334-12.083-5.416-7.917-3.334c-2.5-.833-1.666-2.5-4.583-3.333-4.583-1.667-6.25-3.333-19.167-6.25-5.416-1.667-8.75-3.333-13.333-7.083l-1.667-.834c-1.666 0-4.166-.833-4.583-.833l-7.083-2.5c-1.667 0-4.167-.833-4.584-.833l-5.416-4.584-3.334-2.5.834.834-7.917-5.417-10.417-10.417-2.5-9.583v-4.583l.834-6.25c.833-4.167 3.333-7.917 7.083-14.167l1.667-2.5c0-.833 1.666-3.333 1.666-4.167l9.584-12.083 9.583-10.417 6.25-7.083 3.333-2.5c.834-.833 3.334-4.583 3.334-5.417l7.083-4.166 2.5-2.5 9.583-7.084 11.25-6.25 12.5-7.083 4.167-2.5 12.083-6.25.834-.833 5.416-2.5 3.334-2.5 13.333-7.084 4.583-.833 17.5-6.25 7.084-3.333 6.25-1.667 21.25-6.25 13.333-4.167 17.5-6.25 5.417-1.666 4.166-.834s.834 0 3.334-.833l7.916-1.667c4.584-1.666 9.584-2.5 14.167-3.333l21.25-2.5h30l15.833 3.333 4.584.834 10.416 3.333 10.417 7.083 5.417 6.25 1.666 3.334 2.5 8.75 1.667 7.916z"/></g></svg>