<svg viewBox="0 0 147 76.5" height="76.5pt" width="147pt" overflow="visible" version="1.1" xmlns="http://www.w3.org/2000/svg" xmlns:xlink="http://www.w3.org/1999/xlink" fill-rule="evenodd" stroke-linejoin="bevel" stroke-width="0.501">
 <defs>
	</defs>
 <g transform="scale(1 -1)" font-size="16" font-family="Times New Roman" stroke="black" fill="none" id="Document">
  <g transform="translate(0 -76.5)" id="Spread">
   <g id="Layer 1">
    <g stroke="none" stroke-linecap="round" font-family="Avalon" font-weight="bold" font-size="15.751" id="Group">
     <g stroke-miterlimit="79.8403193612775" fill="#000000" stroke-width="0.394" stroke-linejoin="round" fill-rule="nonzero" id="Group_1">
      <g id="Group_2">
       <path marker-end="none" marker-start="none" d="M 1.18,5.559 C 1.185,4.777 1.328,4.05 1.61,3.378 C 1.891,2.706 2.284,2.118 2.786,1.612 C 3.291,1.109 3.876,0.714 4.544,0.432 C 5.214,0.148 5.936,0.005 6.712,0 C 7.479,0.005 8.193,0.149 8.857,0.434 C 9.524,0.716 10.108,1.11 10.612,1.61 C 11.116,2.113 11.512,2.696 11.796,3.358 C 12.08,4.021 12.225,4.733 12.23,5.496 C 12.225,6.259 12.08,6.971 11.796,7.634 C 11.512,8.296 11.116,8.879 10.612,9.382 C 10.108,9.882 9.524,10.276 8.857,10.559 C 8.193,10.843 7.479,10.987 6.712,10.992 C 5.951,10.986 5.238,10.842 4.57,10.557 C 3.905,10.274 3.319,9.882 2.81,9.384 C 2.303,8.883 1.906,8.307 1.618,7.654 C 1.331,7.001 1.185,6.302 1.18,5.559 Z M 3.135,5.527 C 3.138,6.029 3.233,6.498 3.419,6.935 C 3.605,7.372 3.862,7.756 4.19,8.091 C 4.518,8.423 4.897,8.685 5.329,8.873 C 5.759,9.06 6.22,9.156 6.712,9.159 C 7.208,9.156 7.671,9.06 8.1,8.872 C 8.529,8.684 8.906,8.421 9.233,8.087 C 9.559,7.751 9.813,7.364 9.996,6.921 C 10.179,6.479 10.272,6.005 10.275,5.496 C 10.272,4.987 10.179,4.513 9.996,4.071 C 9.813,3.629 9.56,3.241 9.235,2.905 C 8.91,2.571 8.534,2.308 8.107,2.12 C 7.68,1.932 7.22,1.836 6.728,1.833 C 6.225,1.836 5.756,1.932 5.323,2.12 C 4.887,2.309 4.507,2.574 4.18,2.909 C 3.853,3.247 3.598,3.637 3.415,4.084 C 3.231,4.531 3.138,5.01 3.135,5.527 Z"></path>
       <path marker-end="none" marker-start="none" d="M 13.812,0.204 L 19.503,0.204 L 19.503,2.036 L 15.767,2.036 L 15.767,4.548 L 19.344,4.548 L 19.344,6.378 L 15.767,6.378 L 15.767,8.956 L 19.503,8.956 L 19.503,10.788 L 13.812,10.788 L 13.812,0.204 Z"></path>
       <path marker-end="none" marker-start="none" d="M 22.31,0.204 L 24.265,0.204 L 24.265,8.956 L 26.22,8.956 L 26.22,10.788 L 20.355,10.788 L 20.355,8.956 L 22.31,8.956 L 22.31,0.204 Z"></path>
       <path marker-end="none" marker-start="none" d="M 27.355,0.204 L 29.31,0.204 L 29.31,10.788 L 27.355,10.788 L 27.355,0.204 Z"></path>
       <path marker-end="none" marker-start="none" d="M 31.519,0.204 L 33.474,0.204 L 33.474,4.848 L 36.801,0.204 L 39.103,0.204 L 35.114,5.59 L 39.103,10.788 L 36.801,10.788 L 33.474,6.207 L 33.474,10.788 L 31.519,10.788 L 31.519,0.204 Z"></path>
       <path marker-end="none" marker-start="none" d="M 39.988,0.204 L 45.679,0.204 L 45.679,2.036 L 41.943,2.036 L 41.943,4.548 L 45.521,4.548 L 45.521,6.378 L 41.943,6.378 L 41.943,8.956 L 45.679,8.956 L 45.679,10.788 L 39.988,10.788 L 39.988,0.204 Z"></path>
       <path marker-end="none" marker-start="none" d="M 47.271,0.204 L 49.226,0.204 L 49.226,4.248 L 52.048,0.204 L 54.413,0.204 L 51.559,4.122 C 51.819,4.184 52.045,4.25 52.238,4.319 C 52.429,4.389 52.603,4.472 52.757,4.567 C 52.913,4.662 53.065,4.777 53.215,4.912 C 53.442,5.114 53.638,5.356 53.802,5.633 C 53.966,5.912 54.093,6.212 54.183,6.534 C 54.272,6.856 54.317,7.184 54.319,7.519 C 54.317,7.997 54.221,8.446 54.03,8.869 C 53.84,9.291 53.563,9.662 53.199,9.982 C 52.986,10.171 52.75,10.325 52.493,10.443 C 52.236,10.561 51.944,10.649 51.619,10.705 C 51.294,10.761 50.922,10.788 50.503,10.788 L 47.271,10.788 L 47.271,0.204 Z M 49.226,5.733 L 49.226,8.956 L 50.487,8.956 C 50.868,8.954 51.198,8.887 51.478,8.757 C 51.758,8.626 51.975,8.44 52.13,8.202 C 52.283,7.965 52.361,7.683 52.364,7.361 C 52.359,6.85 52.191,6.452 51.861,6.168 C 51.531,5.884 51.068,5.737 50.471,5.733 L 49.226,5.733 Z"></path>
       <path marker-end="none" marker-start="none" d="M 58.087,2.117 L 59.507,2.117 L 59.507,4.787 L 62.187,4.787 L 62.187,6.209 L 59.507,6.209 L 59.507,8.894 L 58.087,8.894 L 58.087,6.209 L 55.423,6.209 L 55.423,4.787 L 58.087,4.787 L 58.087,2.117 Z"></path>
       <path marker-end="none" marker-start="none" d="M 63.746,0.204 L 65.701,0.204 L 65.701,4.25 L 66.379,4.25 C 66.785,4.249 67.128,4.256 67.408,4.269 C 67.687,4.282 67.924,4.307 68.118,4.343 C 68.313,4.378 68.487,4.429 68.638,4.498 C 68.789,4.564 68.94,4.65 69.09,4.756 C 69.381,4.958 69.63,5.207 69.839,5.499 C 70.048,5.791 70.209,6.116 70.322,6.469 C 70.434,6.825 70.492,7.195 70.494,7.582 C 70.492,8.155 70.369,8.672 70.126,9.131 C 69.884,9.592 69.534,9.97 69.074,10.266 C 68.916,10.372 68.756,10.459 68.596,10.527 C 68.436,10.596 68.257,10.649 68.061,10.687 C 67.865,10.725 67.634,10.751 67.368,10.766 C 67.1,10.781 66.782,10.788 66.411,10.788 L 63.746,10.788 L 63.746,0.204 Z M 65.701,6.082 L 65.701,8.956 L 66.411,8.956 C 66.668,8.956 66.866,8.953 67.006,8.947 C 67.145,8.942 67.26,8.93 67.35,8.911 C 67.438,8.893 67.535,8.866 67.64,8.83 C 67.919,8.731 68.137,8.569 68.296,8.346 C 68.455,8.123 68.536,7.863 68.539,7.566 C 68.537,7.37 68.498,7.182 68.421,7.004 C 68.344,6.827 68.238,6.672 68.104,6.538 C 67.969,6.404 67.815,6.305 67.64,6.24 C 67.492,6.185 67.312,6.145 67.098,6.12 C 66.885,6.094 66.629,6.082 66.331,6.082 L 65.701,6.082 Z"></path>
       <path marker-end="none" marker-start="none" d="M 69.988,0.204 L 72.148,0.204 L 73.314,2.939 L 77.066,2.939 L 78.186,0.204 L 80.346,0.204 L 75.916,10.788 L 74.386,10.788 L 69.988,0.204 Z M 74.024,4.771 L 75.159,8.024 L 76.294,4.771 L 74.024,4.771 Z"></path>
       <path marker-end="none" marker-start="none" d="M 81.305,0.204 L 83.26,0.204 L 83.26,4.248 L 86.083,0.204 L 88.447,0.204 L 85.593,4.122 C 85.853,4.184 86.08,4.25 86.272,4.319 C 86.463,4.389 86.637,4.472 86.792,4.567 C 86.947,4.662 87.099,4.777 87.249,4.912 C 87.476,5.114 87.672,5.356 87.836,5.633 C 88.001,5.912 88.128,6.212 88.217,6.534 C 88.306,6.856 88.351,7.184 88.353,7.519 C 88.351,7.997 88.255,8.446 88.065,8.869 C 87.874,9.291 87.597,9.662 87.233,9.982 C 87.02,10.171 86.785,10.325 86.527,10.443 C 86.27,10.561 85.979,10.649 85.653,10.705 C 85.328,10.761 84.956,10.788 84.537,10.788 L 81.305,10.788 L 81.305,0.204 Z M 83.26,5.733 L 83.26,8.956 L 84.521,8.956 C 84.902,8.954 85.232,8.887 85.512,8.757 C 85.792,8.626 86.01,8.44 86.164,8.202 C 86.317,7.965 86.395,7.683 86.398,7.361 C 86.393,6.85 86.225,6.452 85.895,6.168 C 85.565,5.884 85.102,5.737 84.505,5.733 L 83.26,5.733 Z"></path>
       <path marker-end="none" marker-start="none" d="M 90.971,0.204 L 92.926,0.204 L 92.926,8.956 L 94.88,8.956 L 94.88,10.788 L 89.016,10.788 L 89.016,8.956 L 90.971,8.956 L 90.971,0.204 Z"></path>
       <path marker-end="none" marker-start="none" d="M 96.016,0.204 L 97.971,0.204 L 97.971,7.897 L 102.4,0.204 L 104.592,0.204 L 104.592,10.788 L 102.637,10.788 L 102.637,3.079 L 98.239,10.788 L 96.016,10.788 L 96.016,0.204 Z"></path>
       <path marker-end="none" marker-start="none" d="M 106.547,0.204 L 112.239,0.204 L 112.239,2.036 L 108.502,2.036 L 108.502,4.548 L 112.081,4.548 L 112.081,6.378 L 108.502,6.378 L 108.502,8.956 L 112.239,8.956 L 112.239,10.788 L 106.547,10.788 L 106.547,0.204 Z"></path>
       <path marker-end="none" marker-start="none" d="M 113.831,0.204 L 115.786,0.204 L 115.786,4.248 L 118.608,0.204 L 120.972,0.204 L 118.119,4.122 C 118.379,4.184 118.605,4.25 118.797,4.319 C 118.988,4.389 119.163,4.472 119.317,4.567 C 119.473,4.662 119.625,4.777 119.775,4.912 C 120.002,5.114 120.198,5.356 120.362,5.633 C 120.526,5.912 120.653,6.212 120.742,6.534 C 120.831,6.856 120.876,7.184 120.878,7.519 C 120.876,7.997 120.78,8.446 120.59,8.869 C 120.4,9.291 120.123,9.662 119.759,9.982 C 119.546,10.171 119.31,10.325 119.053,10.443 C 118.795,10.561 118.504,10.649 118.179,10.705 C 117.854,10.761 117.482,10.788 117.063,10.788 L 113.831,10.788 L 113.831,0.204 Z M 115.786,5.733 L 115.786,8.956 L 117.047,8.956 C 117.428,8.954 117.758,8.887 118.038,8.757 C 118.318,8.626 118.535,8.44 118.689,8.202 C 118.842,7.965 118.92,7.683 118.923,7.361 C 118.918,6.85 118.75,6.452 118.421,6.168 C 118.091,5.884 117.628,5.737 117.031,5.733 L 115.786,5.733 Z"></path>
       <path marker-end="none" marker-start="none" d="M 125.34,0.204 L 127.5,0.204 L 128.666,2.939 L 132.418,2.939 L 133.537,0.204 L 135.698,0.204 L 131.267,10.788 L 129.739,10.788 L 125.34,0.204 Z M 129.375,4.771 L 130.511,8.024 L 131.646,4.771 L 129.375,4.771 Z"></path>
       <path marker-end="none" marker-start="none" d="M 135.727,5.497 C 135.732,4.73 135.881,4.016 136.173,3.352 C 136.465,2.689 136.87,2.107 137.388,1.605 C 137.908,1.105 138.508,0.712 139.192,0.431 C 139.877,0.148 140.614,0.005 141.402,0 C 142.007,0.003 142.592,0.096 143.16,0.282 C 143.727,0.47 144.255,0.735 144.738,1.082 C 145.222,1.427 145.639,1.842 145.992,2.321 C 146.337,2.8 146.592,3.306 146.756,3.84 C 146.92,4.372 147.001,4.956 147,5.592 L 140.111,5.592 L 140.111,3.761 L 144.541,3.761 C 144.339,3.364 144.08,3.02 143.762,2.734 C 143.446,2.447 143.089,2.224 142.691,2.068 C 142.293,1.913 141.868,1.834 141.418,1.833 C 140.891,1.835 140.402,1.929 139.951,2.113 C 139.498,2.297 139.103,2.556 138.764,2.884 C 138.425,3.215 138.161,3.599 137.972,4.039 C 137.781,4.478 137.685,4.953 137.681,5.466 C 137.682,5.773 137.726,6.087 137.811,6.404 C 137.897,6.722 138.015,7.023 138.168,7.312 C 138.321,7.599 138.501,7.851 138.707,8.071 C 139.036,8.42 139.426,8.689 139.878,8.876 C 140.329,9.063 140.806,9.158 141.308,9.159 C 141.693,9.158 142.064,9.099 142.416,8.983 C 142.768,8.866 143.091,8.699 143.385,8.479 C 143.68,8.261 143.934,7.999 144.147,7.692 L 146.48,7.692 C 146.307,8.164 146.05,8.6 145.707,9 C 145.366,9.401 144.965,9.748 144.503,10.047 C 144.042,10.344 143.541,10.574 143.005,10.741 C 142.469,10.905 141.92,10.989 141.355,10.992 C 140.578,10.987 139.85,10.842 139.172,10.556 C 138.495,10.273 137.899,9.878 137.382,9.376 C 136.867,8.872 136.464,8.289 136.172,7.628 C 135.881,6.966 135.732,6.256 135.727,5.497 Z"></path>
      </g>
     </g>
     <path stroke-miterlimit="79.8403193612775" marker-end="none" marker-start="none" stroke-linejoin="miter" stroke-width="2.068" fill="#49b700" d="M 17.337,21.963 C 13.851,23.391 10.812,25.398 8.222,27.981 C 5.633,30.565 3.619,33.6 2.184,37.084 C 0.748,40.568 0.021,44.376 0,48.509 C 0.025,52.441 0.766,56.097 2.227,59.478 C 3.691,62.858 5.726,65.82 8.333,68.366 C 10.939,70.912 13.976,72.899 17.44,74.325 C 20.902,75.751 24.648,76.476 28.676,76.5 C 32.743,76.477 36.522,75.746 40.007,74.307 C 43.491,72.868 46.543,70.86 49.162,68.284 C 51.778,65.709 53.82,62.706 55.285,59.271 C 56.514,56.385 57.235,53.296 57.448,50.002 L 63.724,50.002 L 63.724,75.366 L 81.518,75.366 C 84.395,75.371 86.867,75.237 88.929,74.964 C 90.992,74.691 92.769,74.255 94.262,73.657 C 95.755,73.057 97.086,72.273 98.257,71.301 C 100.301,69.606 101.879,67.508 102.99,65.006 C 104.099,62.507 104.662,59.775 104.675,56.811 C 104.664,54.01 104.159,51.384 103.162,48.931 C 102.166,46.478 100.748,44.384 98.907,42.647 C 97.729,41.538 96.396,40.636 94.909,39.942 C 93.423,39.247 91.709,38.736 89.77,38.412 C 87.833,38.087 85.596,37.926 83.063,37.93 L 77.047,37.93 L 77.047,20.84 L 63.724,20.84 L 63.724,38.085 L 55.727,38.085 C 55.589,37.713 55.441,37.345 55.286,36.981 C 53.822,33.559 51.783,30.562 49.172,27.992 C 46.558,25.42 43.515,23.415 40.041,21.978 C 36.567,20.54 32.804,19.81 28.757,19.786 C 24.631,19.808 20.825,20.533 17.337,21.963 Z M 36.444,34.211 C 38.641,35.612 40.382,37.51 41.665,39.904 C 42.95,42.3 43.604,45.005 43.634,48.021 C 43.604,51.091 42.94,53.841 41.637,56.273 C 40.337,58.704 38.568,60.629 36.336,62.047 C 34.103,63.465 31.576,64.19 28.757,64.221 C 25.938,64.191 23.412,63.483 21.179,62.098 C 18.946,60.713 17.178,58.836 15.878,56.467 C 14.574,54.096 13.909,51.417 13.881,48.428 C 13.907,45.279 14.57,42.478 15.869,40.025 C 17.166,37.573 18.948,35.64 21.215,34.228 C 23.48,32.815 26.076,32.095 29.001,32.067 C 31.766,32.097 34.248,32.812 36.444,34.211 Z M 86.679,50.555 C 87.714,50.793 88.568,51.192 89.239,51.757 C 89.896,52.343 90.412,53.067 90.783,53.927 C 91.156,54.788 91.345,55.696 91.353,56.649 C 91.344,57.693 91.118,58.682 90.671,59.613 C 90.226,60.547 89.613,61.27 88.834,61.784 C 88.196,62.231 87.337,62.561 86.262,62.773 C 85.187,62.984 83.823,63.089 82.167,63.088 L 77.047,63.088 L 77.047,50.209 L 82.654,50.209 C 84.301,50.204 85.642,50.319 86.679,50.555 Z"></path>
    </g>
   </g>
  </g>
 </g>
</svg>
