<svg xmlns="http://www.w3.org/2000/svg" xml:space="preserve" fill-rule="evenodd" stroke-linejoin="round" stroke-miterlimit="2" clip-rule="evenodd" preserveAspectRatio="xMinYMin" viewBox="0 0 1709 209"><path fill="#0076b0" fill-rule="nonzero" d="M1706.88 44.374h-43.033v44.254h-44.297v43.03c0 .803.66 1.457 1.457 1.457h62.656l24.674-24.657V45.831a1.47 1.47 0 0 0-1.457-1.457"/><path fill="#f6a000" fill-rule="nonzero" d="M1576.62 88.747h43.033V44.488h44.297V1.457A1.47 1.47 0 0 0 1662.492 0h-62.656l-24.674 24.663V87.29c0 .797.655 1.457 1.458 1.457"/><path fill="#525252" fill-rule="nonzero" d="M1.481 67.477h9.993l52.68 69.293 52.679-69.293h9.595v137.026h-9.794V82.549l-49.343 64.984h-6.264L11.275 82.549v121.954H1.481z"/><path fill="#525252" fill-rule="nonzero" d="M118.12 203.017h6.828l-.001-134.06h-7.374l-53.414 70.26-53.419-70.26H2.961v134.06h6.833V78.172l51.957 67.887h4.8l51.569-67.916v124.88zm9.794 2.966h-12.755V86.954l-47.133 62.059h-7.745l-47.52-62.098v119.073H0V65.991h12.209l51.945 68.337 51.944-68.331h11.816v139.991zm165.931-50.026-34.662-76.539-34.862 76.539h69.529zm-39.167-89.266h9.009l61.887 137.817h-10.187l-18.017-39.934h-76.574l-18.017 39.934h-10.181l62.08-137.811z"/><path fill="#525252" fill-rule="nonzero" d="M226.628 154.477h64.916l-32.367-71.473-32.549 71.467zm69.523 2.96h-74.125l37.168-81.604zm20.198 45.58h6.93L262.73 68.177h-7.095l-60.743 134.84h6.931l18.017-39.934h78.486zm11.514 2.966H314.43l-18.017-39.929h-74.654l-18.017 39.929h-13.439l63.419-140.771h10.927zm79.552-129.502h-48.961v-9.004h107.71v9.004h-48.955v128.022h-9.794z"/><path fill="#525252" fill-rule="nonzero" d="M408.895 203.017h6.828V74.996h48.961v-6.039H359.94v6.039h48.955zm9.795 2.966h-12.756V77.961h-48.961v-11.97h110.678v11.97H418.69zm98.183-69.993c0-41.306 30.158-70.864 69.131-70.864 14.885 0 28.005 3.529 39.166 10.769v10.376c-11.548-7.444-23.894-11.748-38.967-11.748-33.102 0-59.342 25.842-59.342 61.467s26.24 61.66 59.536 61.66c16.451 0 30.351-5.089 41.911-14.287v10.763c-11.361 8.424-25.46 12.722-42.31 12.722-38.773 0-69.13-29.552-69.13-70.864"/><path fill="#525252" fill-rule="nonzero" d="M586.004 66.606c-38.563 0-67.65 29.825-67.65 69.384s29.087 69.378 67.65 69.378c16.058 0 29.788-4.03 40.818-11.993v-7.024c-11.651 8.481-25.238 12.779-40.431 12.779-34.782 0-61.016-27.145-61.016-63.14 0-35.887 26.149-62.952 60.823-62.952 13.575 0 25.556 3.364 37.492 10.558v-6.893c-10.632-6.699-23.302-10.097-37.686-10.097m0 141.727c-40.26 0-70.617-31.106-70.617-72.343 0-41.243 30.363-72.344 70.617-72.344 15.267 0 28.717 3.7 39.975 11.003l.678.438v13.899l-2.29-1.474c-12.197-7.854-24.326-11.509-38.169-11.509-32.983 0-57.856 25.79-57.856 59.987 0 34.305 24.959 60.18 58.055 60.18 15.557 0 29.343-4.702 40.983-13.968l2.408-1.918v14.588l-.603.444c-11.651 8.64-26.177 13.017-43.181 13.017M697.609 67.477h9.795V126.2h88.321V67.477h9.794v137.026h-9.794v-69.099h-88.321v69.099h-9.795z"/><path fill="#525252" fill-rule="nonzero" d="M797.211 203.017h6.822V68.957h-6.822v58.723h-91.293V68.957h-6.822v134.06h6.822v-69.099h91.293zm9.794 2.966H794.25v-69.1h-85.36v69.1h-12.761V65.991h12.755v58.723h85.36V65.991H807v139.997zM921.236 76.481h-48.961v-9.004h107.71v9.004H931.03v128.022h-9.794z"/><path fill="#525252" fill-rule="nonzero" d="M922.722 203.017h6.822V74.996h48.961v-6.039H873.761v6.039h48.961zm9.795 2.966h-12.756V77.961h-48.972v-11.97h110.683v11.97h-48.955zm113.837-138.506h92.051v9.004h-82.256V126.2h67.951v9.204h-67.951v60.094h85.382v9.005h-95.177z"/><path fill="#525252" fill-rule="nonzero" d="M1047.84 203.017h92.216v-6.033h-85.389v-63.066h67.958v-6.238h-67.958V74.996h82.257v-6.039h-89.084zm95.182 2.966h-98.143V65.991h95.011v11.97h-82.256v46.753h67.952v12.169h-67.952v57.13h85.383v11.97zm57.452-69.993c0-41.306 30.157-70.864 69.13-70.864 14.885 0 28.005 3.529 39.172 10.769v10.376c-11.559-7.444-23.894-11.748-38.973-11.748-33.096 0-59.341 25.842-59.341 61.467s26.245 61.66 59.535 61.66c16.446 0 30.351-5.089 41.911-14.287v10.763c-11.366 8.424-25.465 12.722-42.298 12.722-38.779 0-69.136-29.552-69.136-70.864"/><path fill="#525252" fill-rule="nonzero" d="M1269.61 66.606c-38.569 0-67.65 29.825-67.65 69.384s29.081 69.378 67.65 69.378c16.058 0 29.782-4.036 40.818-11.993v-7.024c-11.657 8.481-25.244 12.779-40.431 12.779-34.782 0-61.016-27.145-61.016-63.14 0-35.887 26.143-62.952 60.822-62.952 13.576 0 25.557 3.364 37.493 10.558v-6.893c-10.632-6.699-23.308-10.097-37.686-10.097m0 141.727c-40.26 0-70.623-31.106-70.623-72.343 0-41.243 30.363-72.344 70.623-72.344 15.267 0 28.717 3.7 39.975 11.003l.678.438v13.899l-2.284-1.474c-12.203-7.854-24.332-11.509-38.176-11.509-32.982 0-57.855 25.79-57.855 59.987 0 34.305 24.953 60.18 58.049 60.18 15.552 0 29.344-4.702 40.994-13.968l2.403-1.918v14.588l-.603.444c-11.657 8.64-26.183 13.017-43.181 13.017m111.6-140.856h9.794V126.2h88.321V67.477h9.794v137.026h-9.794v-69.099h-88.321v69.099h-9.794z"/><path fill="#525252" fill-rule="nonzero" d="M1480.81 203.017h6.828V68.957h-6.828v58.723h-91.288V68.957h-6.827v134.06h6.827v-69.099h91.288zm9.795 2.966h-12.756v-69.1h-85.36v69.1h-12.761V65.991h12.756v58.723h85.359V65.991h12.762v139.997z"/></svg>