<svg xmlns="http://www.w3.org/2000/svg" preserveAspectRatio="xMinYMin" viewBox="0 0 2500 300"><g fill="#656767"><path d="M150 0a150 150 0 1 0 150 150A150.143 150.143 0 0 0 150 0m0 295.857A145.857 145.857 0 1 1 295.857 150 146 146 0 0 1 150 295.857"/><path d="M238 138.571c-2-4.428-.715-7.285-1.286-10.428s-3.857-10-6.143-15.429c-1-2.428 5.429-1.857.572-10.857 0-.286 6.714-2.857 0-7.857a37.7 37.7 0 0 1-8.572-9.572 1.43 1.43 0 0 1 0-1.857c3.857-3.428 4-8.285-.143-10.714s-6.428 0-9.571 2c-1 .714-1.571 1.143-2.714.714l-2.572-1.714c3.857-3.714 4.715-7.428 4.429-8s-6.572-1.857-14.572 1.429l-.571-.429c3.286-5.571 1.429-9.571 1.286-9.857H198a115.7 115.7 0 0 1 17.714-19h.143c.286-.429.428-.857-.286-1.286l-1.428-.857A132 132 0 0 0 18.143 150c0 42.143 21.428 82.714 56.285 108a19.3 19.3 0 0 0 4 2.285A1.57 1.57 0 0 0 80 260l.428-.715a1.43 1.43 0 0 0 .43-1.142c0-1-1.287-1.858-3-4.286a39.57 39.57 0 0 1-6.715-21.572 31.57 31.57 0 0 1 6.428-19.57c5.286 5.57 16.715 15.57 16.429 24.856s-9.857 9.714-7.714 17.429c1.285 4.857 4.857 2.857 5.571 6.571 1 6.286 9.571 10.429 13.286 9.857 1-.143 1.714.572 3.428 2.429s8.857 2.286 11.715 1.714 5.857 2 11.428 1.286 8.714-1.286 11.714-1.286 32.143-.428 51.429 2.572c3.429.571 4.429-1 3-3.572-7-12.286-8-22.571-4-35.714 7.143.571 17.429 2.428 30.857-5.714A15.71 15.71 0 0 0 232 219.57c-.143-3-1.429-6.714-.715-9.571s1.858-3.857 3-4.572c5.143-3.714 1.43-6.571.572-6.857a4.857 4.857 0 0 0 1.571-6.571c-1-1-3.857-8.857-.571-10.429s7.571-2.571 11.571-4.428a6.43 6.43 0 0 0 3.429-8.572c-2-5.143-12.572-29.428-12.857-30M92.428 255.857c-1 .286-4.142.428-3.428-3.857s3.286-3.715 4.714-2.286-1 4-1.286 6.143M216.714 76c1.714-1.143 3.571-1.572 4.714-.572 3.715 3.715-4.143 5.858-2.571 8.715a43.9 43.9 0 0 0 10.714 12c1.714 1.428 2 4.428-4.714 5.857s-33.714 8.428-48 23.571c-17.857 18.857-29.143 43.286-30.714 40s-5.143-4-4.572-5c25.572-44 65.715-78.714 75.143-84.571m11.714 31c-1.428 4.143-13 7.857-12.428 5s0-3.143.857-3.286 5-1.571 10.714-3c.572-.143 1.286.143.857 1.286M199 114.57c-.286-1.714 12.143-5.857 12.571-4.714s-2.571 8.571-6.714 10-6.714 1.286-6.571.571a15.7 15.7 0 0 0 .714-5.857m-29 65.143c-5.714 3.572-8.857-3.143-9.714-4.428a5.29 5.29 0 0 1-.715-4.429c.429-2 .715-4.714-.571-13.286-.572-3.857 7.143-13.143 9-14.857s4.428.857 4.571 3.714c.429 5.143-2.571 8-5.571 10.286S162.57 163 163.286 164a2.143 2.143 0 0 0 2.714-1.286c2.143-4.714 8.571-7 9.571-9.571s.429-6.286.286-8 1.286-1.715 2.286-1.572 2 2 2.571 3.857c4.143 10.715-6.143 17.143-7.857 19.715S174.428 177 170 179.714m8.714-41.571c-3.143 2.143-7.571-.715-6.714-2a62.4 62.4 0 0 1 16.428-15.715c4.858-3 5.429-3.285 5.715-1.571a15.14 15.14 0 0 1-3.715 10.714c-3.285 3.572-6.571 3.286-8.285 3.715s-1.143 3.285-3.429 4.857m-27.571 36.571c-1.429-.286-2-3-1.715-4.143s4.429-7.428 5.715-9.143a.714.714 0 0 1 1.143.429c.857 5.857 0 14-5.143 12.857m46-105.857a25.3 25.3 0 0 1 10.714-2.286c1.143.143-2.714 6.857-9.429 9.715s-12.142 3.571-12.714 3.285 5.857-8.285 11.429-10.714m-119 111.857c-2.143-2.428-4-3.714-4.143-3.571a32 32 0 0 0-5.143 12.714A93.4 93.4 0 0 1 58.143 150c-2-50.572 40.428-91.286 92.143-91.143a81.1 81.1 0 0 1 32 6.572A44.7 44.7 0 0 0 177 74.857c0-2.714-.714-4.857-.572-6.571s-7.285 1.285-13.857 11.857a28.4 28.4 0 0 0-3.143 7.571c-.142-4-1-7-1.285-7A23 23 0 0 0 146 93.286a32 32 0 0 0-1.572 4.857c-.285-2.715-1-4.572-1.285-4.572s-8.429 3.286-12.286 12.715a22 22 0 0 0-1.571 6.571c-.715-3.286-2-5.286-2.429-4.857-2.714 3.428-8.143 5-10.857 13.714a18.9 18.9 0 0 0-1 6c-1.143-2.857-2.857-4.571-3.286-4.571s-8.714 7.857-10 15.571A22.6 22.6 0 0 0 102 147c-1.572-2.572-3.572-4.286-4.429-6.857-1.285.714-8.143 7.143-8.285 15.285a28.1 28.1 0 0 0 1 8.715c-2.286-4.143-5.429-6-5.858-5.857s-5.714 5.857-6.857 15.857a16.9 16.9 0 0 0 .572 6.571M184 66.857c4-4.857 10.857-8.714 11.714-8.286s-1.143 8-5.571 12.286-11.572 8.857-12.286 8.714 2.429-8.428 6.143-12.714m-13.286 18.571a30 30 0 0 0-8 9.143c-.714 1.286-2.714-7.143 2.429-15.143 3.143-5 9.428-9.428 9.285-8.857s3 9.429-3.714 14.857m-14.428 10.715c-4.858 7.285-5.143 4.714-10.429 11.857-.286.286-.286-9.286 1.571-13.429 3-6.714 8.143-10.571 8.858-10.714s2.714 8.286 0 12.286m-15.858 14.428c-2.428 4.286-4.714 3.286-8.857 9.572-.428.571-1.571-5.143 1-13A18 18 0 0 1 141 97.286c.857-.143 2.428 8.142-.572 13.285m-14.714 15.286c-2.571 5.571-4.143 5.714-7.143 9.143-.428.571-2.571-5.286-.571-12.572s5.714-8 7.571-10 2.857 7.572.143 13.429m-12 9.429a14.7 14.7 0 0 1-.571 4.285c-1.857 6.143-5.572 8.857-7.572 11.572a22.4 22.4 0 0 1-2.285-8.286 21.7 21.7 0 0 1 7.428-16c1.143 0 3 4.571 3 8.429m-12.143 18.285A21.3 21.3 0 0 1 94.286 169a25.3 25.3 0 0 1-3.143-10.857c-.286-9 3.428-12.143 5.143-13.857.714 2.571 5.285 4.571 5.285 9.285m-17.285 9c2.571 1.286 5.571 4.857 5.857 11.715s-4.572 12.428-6.572 13.428c-1.285-5.286-3.714-6.286-3.714-11.428a25.7 25.7 0 0 1 4.429-13.715m10.428 17.857c6.572-2.857 13.714-2.428 14-2.142s-2.143 8.428-8.428 11.714-13.572 3.857-14.286 3 2.143-9.714 8.714-12.572m-.571-4.857c.428-2.143 4.285-9.285 10.143-11.857a26.3 26.3 0 0 1 13.428-2.143c.714.286-2.428 8-8.286 10.857s-9.285 1.286-15.285 3.143M104 158.714c.286-.571 5-9.143 10.571-11.714a25 25 0 0 1 12.715-2c.428.143-2.572 7.714-8.858 10.857s-14.714 3.571-14.428 2.857m12.714-17c-.428-.286 6.286-9.143 12-11.857a22.3 22.3 0 0 1 12-1.429c.429.429-2.714 7.858-9.286 10.715a34.6 34.6 0 0 1-14.714 2.571M132 124.857c-.286-.286 4.857-9 10.571-11.286s11-.143 12.715 0-1.858 6.429-9.429 9.143S133 125.286 132 124.857m17.143-16.286c.143-.428 5.857-8.428 11.571-10.428a23.43 23.43 0 0 1 13.143-.286c.714.286-4 7.143-11 9.286S149 109 149.143 108.57m17.285-14.143c-.714-.428 6.143-8.142 11.715-10.285A25.7 25.7 0 0 1 190 82.714c.428.286-3.572 7-10.143 9.572S167.286 95 166.428 94.428m-94.714 156C40.857 225.857 22.286 188.714 22.286 150A127.57 127.57 0 0 1 209.143 36.857a.571.571 0 0 1 .143 1 139 139 0 0 0-14.572 16.286 104.4 104.4 0 0 0-44.714-10A106.143 106.143 0 0 0 44.143 150a103 103 0 0 0 25.571 68.857A33 33 0 0 0 67 232.285a36.57 36.57 0 0 0 4.714 18.143M72 215h-.143a98.86 98.86 0 0 1-23.428-65 101.714 101.714 0 0 1 101.57-101.571 100.1 100.1 0 0 1 42.287 9.142 32.3 32.3 0 0 0-5.858 3.715A90.1 90.1 0 0 0 150 54a96.143 96.143 0 0 0-96 96c0 23 7.143 43.143 21.143 60-.715 1.286-1.857 3-3.143 5m5-8c-1.857-1.714-5.857-6.143-6.286-11.857v-.857c0-6.143 2.714-12.286 3.429-12.858s7.571 4.715 7.714 12.429A20.57 20.57 0 0 1 77 207m11.428-10.286c5.572-2.571 13.715-2 13.286-1.571s-2.571 8.285-8.857 11.428a17.3 17.3 0 0 1-12.429 1.857c3.286-3.714 2.572-9.142 8-11.714m7.429 66.429c-.857-3.858-.571-9 .714-10.429s7-1.714 7.143-.143-1.571 7.714.429 14.572c-.429 1-6.572.571-8.286-4m.429-15.858c-.429-2.857 2.285-5.571 2.285-11.714s-9.428-18-15.857-24.714A27.9 27.9 0 0 0 94 208.143c9.428-4.429 11.286-14.429 11.571-14.857a15.7 15.7 0 0 0-5.428-.572l1.143-.571c9.142-5 11.571-15.715 11.142-15.857a24.3 24.3 0 0 0-5.714-.429l2.857-1c9.715-3.857 12.429-14.714 12.143-15.143a23 23 0 0 0-5-.571l2.714-1.143c8.858-4.429 12-14.429 11.572-14.714a15 15 0 0 0-4.714-.572 34 34 0 0 0 6.428-2.143c9.572-4.143 12.714-13.285 12.286-13.714a15.6 15.6 0 0 0-4.286-.714 49 49 0 0 0 6.286-1.857c9.428-3.143 13.143-12.143 12.571-12.286l-5.285-1.143a35 35 0 0 0 9.428-1.857c10.143-3.429 13.714-9.572 14-12.286a8.6 8.6 0 0 0-3.286-1.143 42 42 0 0 0 6.715-1.714c9.428-3.857 13.428-13.286 13.714-14a42 42 0 0 0 5.571-2.286l2.715-1.285 2.285 1.571c1.429.857 2 1.143 1.286 1.714C174.286 107.143 150 142.143 139.428 159c-.285.571-.857.428-1.857.428-11.285-.857-17.714 12.715-12.714 25.429-.571 2.571-6 7.571-6.429 7.857s-1.428 2 .429 1.857 6-4.571 7.714-6.428c.572.857 3.143 2.857 1.857 4a91 91 0 0 1-19.857 15c-3.714 1.714 6 3 22.429-11.857 1-.858 2.143 3.428 3.571 5.285-2.857 9.286 4.143 27.286 3 32.857a4 4 0 0 1-4 3.857c-16.285.429-17.857-.428-26.143 2-3.857 1.143-2.857 3.715-.142 3s6.571-2.142 24.142-1c4.429.143 9.286-.857 9.286-8.142s-5.143-26.286-3.428-29a9.86 9.86 0 0 0 5 2c-.286 6.428 10 27.142 5.428 38.571-1.714 4.286-9.143 3.857-22 2.571-21.857-2.142-29 2.572-29.428 0m50.142 14.143c-8.428 2.857-11.857-7-10.428-9.143s6.286 1.429 10.428-1.285 5 8.714 0 10.428m-38.571 6.143c-1.143-5.286-1.571-14.286.571-16.428s7-1.286 6.858.285c-.429 6.143-3 13.143 1.714 20.143 1.857 2.714-7.429 3.143-9.143-4m16.286 6C121.857 273 115.57 263 120.714 251c.429-1.143 8.286-.429 9.714 0s-1.142 9.714 9.715 14c1 .428-.143 12.571-16 8.571m67.428-33.286c-3.571 12.572-5.428 17.572 0 31.286.715 1.857 1.286 3.286-.285 3-11-2-13.429-3.714-48.143-.857-2.429.286.857-4.857.428-8.286 3.143-.428 8.286-1.857 9.286-7s-3-10.857-2.571-11.714c5-9.571-.286-20.143-4.429-38-.429-1.714.571-2.428 1.286-1.571 22.285 24.142 36.428 28.857 44.143 31.142.714.286.571 1.143.285 2m57-65.857c-4.714 4.143-11.857 4.429-14.714 7s-2.143 3.572-.572 7.429 1.572 2.429-1.57 3.286-5.858 8.285-12.572 7c-2.572-.429-.715 1.143.285 1.285 3.715.429 5.286-.714 6.572-2s3.143-3.428 5.143-4.142 4.142-.715 4.285.857-2.714 3-3.857 3.571c1.429.714 5.572 2.714 2 5.143s-6.571-.714-7-1-2.428-.286-1.857.429 7.429 1.857 6.429 3.142c-5 6.715-.858 10.715-2.429 17.572s-11 10.714-18.286 12c-24.857 4.428-49-16.572-63.142-32.572 1.285-3 1.142-6.857-.143-5.428s-1 3.428-4 4.143c-5.572 1.428-8.143-8.429-9.857-10.143-6.858-6.714-9.572-16.286-5.572-24.714s12.857-6.715 16.286-1.572 2.428 10 4.857 11.857 6.857.286 7.714 0S159 183.714 168 183.428s8.428-15.285 9.857-16.571c12.286-12 6-22.714 3.714-25.143s1.429-5.143 2.143-5.286a18.57 18.57 0 0 0 13.429-11s12-.285 16.285-8.857c1.143-2.285 4.715 2.143 12.715-4.143a1.143 1.143 0 0 1 2 .429c5.285 12.714 7.428 16.143 7 22.571s12.428 30.715 13.428 33 1.143 4.858 0 6" class="minerva-base-style"/><path d="M219.714 128.571c-7 .286-15.143 8.857-17.714 10s-1.857 2.143-.286 1.572S210.143 133.428 217 131s5.143 2.571 7.143 2.286-.429-4.858-4.429-4.715m1.571 6.857c-.57.143.572 3.143-2.428 3.286-6.571.429-11.857 6.714-15.857 8.572a18.4 18.4 0 0 1-5.429 2 .434.434 0 0 0 .143.857c16.714 2.285 23.143 1.571 23.286 1s-.857-1.715-.572-2.429a16.14 16.14 0 0 0 .143-7.857c-.286-1.143 2.572-.429 2.572-1.857s-.858-3.714-1.858-3.572m-2.57 13.286c-.287 1.286-7.858.714-11.858.286-1 0-2.571-.143.429-2s5.857-4 10.285-4.857a1.14 1.14 0 0 1 1.143.857 15.1 15.1 0 0 1 0 5.714m21.856 23.857c-1.286 0-6.428 2.286-8.428 3.572s-6.286 3.857-6-1.143c.142-1.857 1.285-6.286 1.285-7.572s-1.428-1-1.571 0a53 53 0 0 1-1 7.572c-.572 2.571 1.714 5.714 5.143 3.857s6.857-4.143 10.428-4.857c.857-.143 1-1.429.143-1.429m-97 18.286c-1-.429-.714 1.714-2 1.429s-.285-1.858-2.571-4.286-4-1.714-6.143-5.143-.429-17.143 4.429-15.429 2.285 7.143 1.428 11.429 3.572 4 4 3-1.571-1.286-2-2.714 5-10.857-2.571-13.429c-5.429-1.857-9.143 5.143-8.429 12.714A11.43 11.43 0 0 0 137 188.571c3.286 1.143.857 5.715 5.286 5.715 2 0 2.428-3 1.285-3.429m44-143.143c.286.143.429 0 .715-.143l9.285-11.857a.714.714 0 0 0-.285-.857l-1.572-.571a.57.57 0 0 0-.714.143l-9.286 11.857c-.286.285-.143.714.286.857zm-17.285-4.857 1.571.429a.71.71 0 0 0 .714-.429L178 29.43a.57.57 0 0 0-.429-.858l-1.714-.285h-.429L169.857 42a.57.57 0 0 0 .429.857M151.143 41h1.571c.286.143.572-.143.572-.429l1.428-14.285a.714.714 0 0 0-.571-.715h-1.572c-.428 0-.571.286-.714.572l-1.286 14.286a.57.57 0 0 0 .572.571m-18.572 1.429 1.572-.286c.285 0 .571-.286.428-.572l-2.714-14.142c0-.286-.286-.572-.571-.429h-1.715c-.285.143-.571.429-.428.714l2.714 14.143c0 .429.286.572.714.572m-19.143 4.428.715.286 1.571-.572a.57.57 0 0 0 .429-.857l-6.572-12.857a.57.57 0 0 0-.714-.286l-1.429.429a.57.57 0 0 0-.428.857zM95.714 55c.143.286.429.286.714.143l1.429-.857a.57.57 0 0 0 .143-.857l-9.572-11c-.285-.286-.57-.286-.714-.143l-1.428.857c-.429.143-.429.571-.143.857zM79.143 66.714c.285.143.571.143.714-.143l1.286-1a.714.714 0 0 0 0-1L69 56.143h-.714L67 57.286a.714.714 0 0 0 0 1zM64.857 81.571a.57.57 0 0 0 .572-.285L66.57 80c.286-.286.143-.714-.285-.857l-14-5.429c-.286-.143-.572-.143-.715.143l-1 1.286a.571.571 0 0 0 .286 1zM38.286 96.857l15 2.143c.285 0 .571-.143.571-.429l.857-1.428a.57.57 0 0 0-.428-.857l-15-2.143-.715.285A7.7 7.7 0 0 1 37.857 96a.57.57 0 0 0 .429.857m-8.143 22.714 15.286-1.428a.43.43 0 0 0 .428-.429 11 11 0 0 0 .572-1.571.571.571 0 0 0-.572-.857l-15.428 1.428-.572.429-.428 1.714c0 .429.285.857.714.714m11.571 18.286c0-.571.143-1.286.143-1.857s-.286-.714-.714-.572l-14.857 5.143c-.286.143-.429.286-.429.572s-.143 1.143-.143 1.714a.571.571 0 0 0 .857.571l14.715-5.142a.43.43 0 0 0 .428-.429m-.428 20.429v-1.858a.714.714 0 0 0-1-.571l-13.429 9c-.286 0-.286.286-.286.571s.143 1.143.143 1.715a.714.714 0 0 0 1 .428l13.429-8.857c.143-.143.286-.286.143-.428m3.428 20.285-.428-1.857a.571.571 0 0 0-1-.286l-11 12.143c-.143.143-.286.429-.143.572s.428 1.143.571 1.714a.571.571 0 0 0 1 .286l10.857-12c.143-.143.143-.286.143-.572m5.572 18.143-7.715 14.714c-.142.143 0 .429 0 .572l1 1.714a.571.571 0 0 0 1-.143L52.286 199c0-.143.143-.286 0-.572l-.857-1.714a.714.714 0 0 0-1.143 0m11 16.572c-.286-.43-1-.286-1 .142l-4.143 17.143c-.143.286 0 .429 0 .572l1.428 1.428a.571.571 0 0 0 1-.143l4-17c.143-.143 0-.285 0-.428z" class="minerva-base-style"/></g><path fill="#656767" d="M372.166 78.495h16.594l15.828 44.971 15.734-44.971h16.672v62H424.26v-16.951l1.265-29.262-16.625 46.213h-8.718l-16.594-46.166 1.281 29.215v16.951h-12.703zm124.063 62-4.282-12.719h-22.25l-4.234 12.719h-13.5l22.937-62h11.766l23.063 62zm-15.454-46.339-7.656 23.339h15.406zm53.891-15.661 11.547 21.369 11.562-21.369h14.594l-17.937 30.741 18.406 31.259h-14.781l-11.844-21.715-11.844 21.715h-14.765l18.406-31.259-17.953-30.741zm107.328 40.297h-11.125v21.703h-12.703v-62h24.031q6.953 0 12.219 2.564t8.102 7.281 2.836 10.745q0 9.151-6.204 14.429t-17.156 5.278m-11.125-30.016v19.719h11.328q5.047 0 7.688-2.415t2.64-6.91q0-4.607-2.664-7.461t-7.367-2.933zm65-10.281v51.797h26.953v10.203h-39.656v-62zm82.36 62-4.282-12.719h-22.25l-4.234 12.719h-13.5l22.937-62h11.766l23.063 62zm-15.454-46.339-7.656 23.339h15.406zm93.5-15.661v62h-12.703l-24.703-40.804v40.804h-12.703v-62h12.703l24.75 40.883V78.495zm55.563 41.625h12.703q-.719 9.953-7.344 15.664t-17.453 5.711q-11.859 0-18.648-7.937t-6.789-21.791v-3.747q0-8.846 3.132-15.579 3.133-6.732 8.954-10.339 5.82-3.607 13.507-3.607 10.672 0 17.188 5.719 6.516 5.718 7.531 16.047h-12.687q-.469-5.969-3.328-8.657t-8.704-2.687q-6.343 0-9.492 4.513-3.148 4.514-3.242 14.006v4.622q0 9.911 3.031 14.494t9.547 4.584q5.875 0 8.774-2.688 2.898-2.687 3.32-8.328m64.453 20.375-15.828-24.875-6.594 7.154v17.721h-12.703v-62h12.703v28.099l5.578-7.705 15.703-20.394h15.61l-21.875 27.549 22.515 34.451zm72.375-62v62h-12.687v-62zm70.609 0v62h-12.703l-24.703-40.804v40.804h-12.703v-62h12.703l24.75 40.883V78.495zm51.844 46.037q0-3.566-2.539-5.473t-9.141-4.032-10.46-4.192q-10.485-5.629-10.485-15.191 0-4.975 2.813-8.87 2.812-3.894 8.078-6.087 5.265-2.192 11.828-2.192 6.609 0 11.766 2.387 5.156 2.386 8.015 6.716t2.86 9.85h-12.688q0-4.19-2.672-6.509t-7.484-2.319q-4.656 0-7.242 1.945t-2.586 5.11q0 2.979 3.031 4.986t8.906 3.782q10.828 3.238 15.781 8.049 4.954 4.81 4.954 11.971 0 7.971-6.047 12.502-6.047 4.53-16.297 4.53-7.11 0-12.946-2.589t-8.906-7.097-3.07-10.433h12.734q0 10.088 12.188 10.088 4.531 0 7.07-1.822t2.539-5.11m76.422-46.037v10.281h-18.859v51.719h-12.703V88.776h-18.625V78.495zm29.125 0v62h-12.687v-62zm65.875 0v10.281h-18.859v51.719h-12.703V88.776h-18.625V78.495zm49.516 0h12.75v40.933q0 10.198-6.328 16.133t-17.297 5.934q-10.782 0-17.133-5.761-6.352-5.761-6.477-15.833V78.495h12.703v41.082q0 6.126 2.899 8.92 2.898 2.795 8.008 2.795 10.718 0 10.875-11.368zm78.484 0v10.281h-18.859v51.719h-12.703V88.776h-18.625V78.495zm52.703 25v9.937h-24.375v16.86h28.594v10.203h-41.297v-62h41.219v10.281h-28.516v14.719zm-1123.359 90.01v5.359H379.01v21.641h-6.563v-50h30.828v5.406H379.01v17.594zm51.844.965v3.132q0 7.293-2.461 12.731t-6.977 8.305-10.531 2.867q-5.875 0-10.422-2.883t-7.055-8.219-2.586-12.349v-3.584q0-7.152 2.5-12.645t7.063-8.406q4.562-2.914 10.437-2.914 5.985 0 10.547 2.883t7.024 8.352 2.461 12.73m-6.532 3.614v-3.675q0-8.828-3.554-13.546-3.555-4.717-9.946-4.717-6.218 0-9.789 4.717-3.57 4.718-3.679 13.095v3.643q0 8.548 3.609 13.437t9.922 4.889q6.359 0 9.844-4.617 3.484-4.616 3.593-13.226m48.297 22.421-10.797-20.625H471.01v20.625h-6.594v-50h16.469q8.406 0 12.937 3.794 4.532 3.794 4.532 11.041 0 4.614-2.516 8.029t-6.984 5.117l11.687 21.604v.415zm-22.484-44.594v18.594h10.078q4.891 0 7.781-2.496 2.891-2.495 2.891-6.67 0-4.544-2.758-6.971-2.758-2.426-7.945-2.457zm66.031-5.406v44.641h23.578v5.359h-30.172v-50zm62.531 21v5.375H578.01v18.266h25.047v5.359h-31.61v-50h31.266v5.406H578.01v15.594zm50.61 5v17.914q-2.532 3.558-7.055 5.322t-10.539 1.764q-6.094 0-10.805-2.852t-7.297-8.094q-2.586-5.244-2.648-12.162v-4.332q0-11.219 5.242-17.39 5.242-6.17 14.758-6.17 7.781 0 12.531 3.984t5.813 11.297h-6.563q-1.844-9.875-11.75-9.875-6.594 0-10 4.617t-3.437 13.367v4.049q0 8.345 3.828 13.266t10.359 4.92q3.688 0 6.461-.794 2.774-.795 4.57-2.671v-10.832h-11.515v-5.328zm46.5 24-4.766-12.594h-20.844l-4.687 12.594h-6.766l19.016-50h5.734l19.031 50zm-15.188-41.868-8.437 23.868h16.922zm37.547-8.132v44.641h23.578v5.359h-30.172v-50zm92.656 0v50h-6.609V197.88H780.01v22.625h-6.563v-50h6.563v22h25.078v-22zm21.782 0v50h-6.563v-50zm29.625 28.188q-8.438-2.415-12.282-5.945-3.843-3.529-3.843-8.702 0-5.875 4.695-9.708t12.211-3.833q5.14 0 9.156 1.984 4.016 1.985 6.219 5.469t2.203 7.625h-6.594q0-4.516-2.875-7.094t-8.109-2.578q-4.844 0-7.563 2.124t-2.718 5.903q0 3.034 2.578 5.126t8.781 3.827 9.711 3.831 5.195 4.896 1.688 6.587q0 6.034-4.711 9.667t-12.617 3.633q-5.125 0-9.571-1.969t-6.851-5.383q-2.407-3.414-2.407-7.757h6.594q0 4.515 3.336 7.125 3.336 2.609 8.899 2.609 5.203 0 7.968-2.109 2.766-2.11 2.766-5.752t-2.563-5.636q-2.562-1.992-9.296-3.94m63.718-28.188v5.406h-15.984v44.594h-6.531v-44.594h-15.969v-5.406zm47.907 23.965v3.132q0 7.293-2.461 12.731t-6.977 8.305-10.531 2.867q-5.875 0-10.422-2.883t-7.055-8.219-2.586-12.349v-3.584q0-7.152 2.5-12.645t7.063-8.406q4.562-2.914 10.437-2.914 5.985 0 10.547 2.883t7.024 8.352 2.461 12.73m-6.532 3.614v-3.675q0-8.828-3.554-13.546-3.555-4.717-9.946-4.717-6.218 0-9.789 4.717-3.57 4.718-3.679 13.095v3.643q0 8.548 3.609 13.437t9.922 4.889q6.359 0 9.844-4.617 3.484-4.616 3.593-13.226m47.297 22.421-10.797-20.625H993.01v20.625h-6.594v-50h16.469q8.406 0 12.937 3.794 4.532 3.794 4.532 11.041 0 4.614-2.516 8.029t-6.984 5.117l11.687 21.604v.415zm-22.484-44.594v18.594h10.078q4.891 0 7.781-2.496 2.891-2.495 2.891-6.67 0-4.544-2.758-6.971-2.758-2.426-7.945-2.457zm40.687-5.406 12.922 25.102 12.985-25.102h7.453l-17.157 31.35v18.65h-6.562v-18.65l-17.156-31.35zm94.985 50-4.766-12.594h-20.844l-4.687 12.594h-6.766l19.016-50h5.734l19.031 50zm-15.188-41.868-8.437 23.868h16.922zm69.203-8.132v50h-6.609l-25.047-38.524v38.524h-6.594v-50h6.594l25.125 38.697v-38.697zm28.516 50h-13.766v-50h14.047q6.485 0 11.477 2.881t7.711 8.21q2.718 5.33 2.75 12.221v3.203q0 7.064-2.719 12.386t-7.758 8.179-11.742 2.92m.453-44.594h-7.656v39.235h6.906q7.578 0 11.805-4.747 4.226-4.748 4.226-13.519v-2.923q0-8.52-3.984-13.251-3.984-4.732-11.297-4.795m61.375-5.406v44.641h23.578v5.359h-30.172v-50zm61.531 21v5.375h-21.562v18.266h25.047v5.359h-31.61v-50h31.266v5.406h-24.703v15.594zm51.61 5v17.914q-2.532 3.558-7.055 5.322t-10.539 1.764q-6.094 0-10.805-2.852t-7.297-8.094q-2.586-5.244-2.648-12.162v-4.332q0-11.219 5.242-17.39 5.242-6.17 14.758-6.17 7.781 0 12.531 3.984t5.813 11.297h-6.563q-1.844-9.875-11.75-9.875-6.594 0-10 4.617t-3.437 13.367v4.049q0 8.345 3.828 13.266t10.359 4.92q3.688 0 6.461-.794 2.774-.795 4.57-2.671v-10.832h-11.515v-5.328zm45.5 24-4.766-12.594h-20.844l-4.687 12.594h-6.766l19.016-50h5.734l19.031 50zm-15.188-41.868-8.437 23.868h16.922zm38.547-8.132v44.641h23.578v5.359h-30.172v-50zm86.781 0v5.406h-15.984v44.594h-6.531v-44.594h-15.969v-5.406zm47.875 0v50h-6.609V197.88h-25.078v22.625h-6.563v-50h6.563v22h25.078v-22zm42.875 21v5.375h-21.562v18.266h25.047v5.359h-31.61v-50h31.266v5.406h-24.703v15.594zm53.157 2.965v3.132q0 7.293-2.461 12.731t-6.977 8.305-10.531 2.867q-5.875 0-10.422-2.883t-7.055-8.219-2.586-12.349v-3.584q0-7.152 2.5-12.645t7.063-8.406q4.562-2.914 10.437-2.914 5.985 0 10.547 2.883t7.024 8.352 2.461 12.73m-6.532 3.614v-3.675q0-8.828-3.554-13.546-3.555-4.717-9.946-4.717-6.218 0-9.789 4.717-3.57 4.718-3.679 13.095v3.643q0 8.548 3.609 13.437t9.922 4.889q6.359 0 9.844-4.617 3.484-4.616 3.593-13.226m48.297 22.421-10.797-20.625h-11.687v20.625h-6.594v-50h16.469q8.406 0 12.937 3.794 4.532 3.794 4.532 11.041 0 4.614-2.516 8.029t-6.984 5.117l11.687 21.604v.415zm-22.484-44.594v18.594h10.078q4.891 0 7.781-2.496 2.891-2.495 2.891-6.67 0-4.544-2.758-6.971-2.758-2.426-7.945-2.457zm39.687-5.406 12.922 25.102 12.985-25.102h7.453l-17.157 31.35v18.65h-6.562v-18.65l-17.156-31.35z"/></svg>