<svg xmlns="http://www.w3.org/2000/svg" preserveAspectRatio="xMinYMin" viewBox="0 0 1024 166"><path fill="#707272" d="M0 126.98v-.79L21.42 17.5q.2-1 .61-.07l35.75 81.83q.29.67.58 0l35.68-81.64q.47-1.06.69.07l21.32 108.62q.1.55-.45.57-6.48.32-12.87.07a.35.35 0 0 1-.33-.29L90.22 57.82q-.18-1.03-.61-.07L58.3 128.8a.25.25 0 0 1-.46 0L26.51 57.71q-.4-.93-.58.07l-12.2 68.9q-.06.28-.35.28zm671.34-52.887a55.51 55.32-.1 0 1-55.413 55.417 55.51 55.32-.1 0 1-55.607-55.223 55.51 55.32-.1 0 1 55.413-55.417 55.51 55.32-.1 0 1 55.607 55.223m-55.445 42.727a42.85 42.36 89.9 0 0 42.285-42.924 42.85 42.36 89.9 0 0-42.435-42.776 42.85 42.36 89.9 0 0-42.285 42.924 42.85 42.36 89.9 0 0 42.435 42.776M760.36 19.27q.28 0 .53.67 21.01 55.15 29.13 76.14.29.74.58 0l29.25-74.7a.43.42-78.4 0 1 .39-.27h13.74a.28.27-79 0 1 .25.38L790.6 130.58a.31.31 0 0 1-.57 0q-16.4-42.51-29.48-76.34-.04-.11-.19-.11-.16 0-.2.11-13.08 33.83-29.48 76.34a.31.31 0 0 1-.57 0L686.48 21.49a.28.27 79 0 1 .25-.38h13.74a.43.42 78.4 0 1 .39.27l29.25 74.7q.29.74.58 0 8.12-20.99 29.13-76.14.25-.67.54-.67M340.44 65.94q.19 0 .3-.19 8.21-14.31 25.44-44.17.28-.47.83-.47h14.23a.25.25 0 0 1 .22.38l-34.13 59.12q-.26.45-.26.97v44.86q0 .5-.5.51-1.63.05-6.12.05-4.5 0-6.13-.05-.5-.01-.5-.51l-.01-44.86q0-.52-.26-.97L299.4 21.5a.25.25 0 0 1 .22-.38h14.23q.55 0 .83.47 17.24 29.85 25.45 44.16.11.19.31.19m83.13 9.48.01 51.23a.35.35 0 0 1-.35.35l-12.65-.01a.35.35 0 0 1-.35-.35V21.46a.35.35 0 0 1 .35-.35h50.76a.35.35 0 0 1 .35.35v11.51a.35.35 0 0 1-.35.35h-37.42a.35.35 0 0 0-.35.35l.01 28.91a.35.35 0 0 0 .35.35h36.1a.35.35 0 0 1 .35.35v11.44a.35.35 0 0 1-.35.35h-36.11a.35.35 0 0 0-.35.35m83.97 39.45 31.48.01a.36.36 0 0 1 .36.36v11.4a.36.36 0 0 1-.36.36h-44.73a.36.36 0 0 1-.36-.36V21.47a.36.36 0 0 1 .36-.36l12.53.01a.36.36 0 0 1 .36.36v93.03a.36.36 0 0 0 .36.36m368.03-81.22.01 28.84a.33.33 0 0 0 .33.33h41.76a.33.33 0 0 1 .33.33v11.46a.33.33 0 0 1-.33.33l-41.76-.01a.33.33 0 0 0-.33.33v39.28a.33.33 0 0 0 .33.33l43.01.01a.33.33 0 0 1 .33.33l.01 11.46a.33.33 0 0 1-.33.33h-56.37a.33.33 0 0 1-.33-.33V21.44a.33.33 0 0 1 .33-.33h56.35a.33.33 0 0 1 .33.33l.02 11.55a.33.33 0 0 1-.33.33H875.9a.33.33 0 0 0-.33.33m148.43 93.1v.14l-15.61.01q-.53 0-.83-.43l-30.55-43.81q-.29-.42-.8-.42h-4.43q-.46 0-.46.46v43.77q0 .53-.53.53H958.5q-.5 0-.5-.5V21.58q0-.46.45-.46 17.92-.11 26.3.31 5.34.26 11.69 2.19c10.89 3.31 17.89 12.82 19.33 24.22q1.59 12.67-6.71 23.21-6.29 8.01-17.84 9.84-.55.09-.22.55zm-52.66-93.23-.06 37.26a.29.29 0 0 0 .29.29l10.47.02a21.48 17.23.1 0 0 21.51-17.19v-3.38a21.48 17.23.1 0 0-21.45-17.27l-10.47-.02a.29.29 0 0 0-.29.29"/><path fill="#e55204" d="M239.55 41.81a1.39 1.38-43.8 0 0-2.01-.04q-4.22 4.26-6.33 6.95-25.94 33.21-48.23 69.28-.94 1.53-3.58 6.79-1.25 2.49-.49 4 1.4 2.74 4.28 3.3 5.41 1.06 12.08.77c11.3-.49 24.33-2.69 35.3-5.25q6.92-1.62 12.33-1.68 12.07-.14 22.13.9c4.74.49 12.37 3.19 13.18 8.67.72 4.91-6.26 11.65-10.98 12.11q-1.01.1-2.74-.58-8.13-3.17-15.56.63-11.1 5.68-21.81 14.22c-.89.71-3.91 1.77-5.19 2.04q-7.91 1.72-16.61 1.82-4.55.06-8.72-1.57c-6.74-2.63-13.15-6.07-19.66-9.72q-5.29-2.95-10.56-7.25c-6.37-5.2-11.97-10.13-17.5-15.86q-2.23-2.33-4.99-7.01-4.03-6.83-5.88-10.99-2.9-6.54.28-13.94.21-.48.68-.69 18.3-8.05 36.63-22.38c27.72-21.68 53.78-48.1 77.37-74.35.78-.87 2.8-1.51 4.11-1.31q4.42.7 6.12 4 .95 1.84 1.7 6.77 1.79 11.74 2.95 21.27 1.56 12.79 3.3 19.66c3.95 15.57 10.18 29.5 17.45 42.65q3.3 5.97.26 10.46c-3.08 4.56-10.26 6.43-15.85 6.06-3.93-.25-7.24-5.4-9.36-8.9q-3.63-5.98-9.37-16.89-2.86-5.43-4.61-11.62-1.89-6.63-6.48-24.96-1.17-4.65-3.64-7.36"/></svg>