<svg viewBox="0.00 0.00 1024.00 166.00" version="1.1" xmlns="http://www.w3.org/2000/svg">
<g fill="#707272">
<path d="M 0.00 126.98
  L 0.00 126.19
  L 21.42 17.50
  Q 21.62 16.50 22.03 17.43
  L 57.78 99.26
  Q 58.07 99.93 58.36 99.26
  L 94.04 17.62
  Q 94.51 16.56 94.73 17.69
  L 116.05 126.31
  Q 116.15 126.86 115.60 126.88
  Q 109.12 127.20 102.73 126.95
  A 0.35 0.35 0.0 0 1 102.40 126.66
  L 90.22 57.82
  Q 90.04 56.79 89.61 57.75
  L 58.30 128.80
  A 0.25 0.25 0.0 0 1 57.84 128.80
  L 26.51 57.71
  Q 26.11 56.78 25.93 57.78
  L 13.73 126.68
  Q 13.67 126.96 13.38 126.96
  L 0.00 126.98
  Z"></path>
<path d="M 671.3399 74.0931
  A 55.51 55.32 -0.1 0 1 615.9266 129.5099
  A 55.51 55.32 -0.1 0 1 560.3201 74.2869
  A 55.51 55.32 -0.1 0 1 615.7334 18.8701
  A 55.51 55.32 -0.1 0 1 671.3399 74.0931
  Z
  M 615.8948 116.8199
  A 42.85 42.36 89.9 0 0 658.1799 73.8961
  A 42.85 42.36 89.9 0 0 615.7452 31.1201
  A 42.85 42.36 89.9 0 0 573.4601 74.0439
  A 42.85 42.36 89.9 0 0 615.8948 116.8199
  Z"></path>
<path d="M 760.36 19.27
  Q 760.64 19.27 760.89 19.94
  Q 781.90 75.09 790.02 96.08
  Q 790.31 96.82 790.60 96.08
  L 819.85 21.38
  A 0.43 0.42 -78.4 0 1 820.24 21.11
  L 833.98 21.11
  A 0.28 0.27 -79.0 0 1 834.23 21.49
  L 790.60 130.58
  A 0.31 0.31 0.0 0 1 790.03 130.58
  Q 773.63 88.07 760.55 54.24
  Q 760.51 54.13 760.36 54.13
  Q 760.20 54.13 760.16 54.24
  Q 747.08 88.07 730.68 130.58
  A 0.31 0.31 0.0 0 1 730.11 130.58
  L 686.48 21.49
  A 0.28 0.27 79.0 0 1 686.73 21.11
  L 700.47 21.11
  A 0.43 0.42 78.4 0 1 700.86 21.38
  L 730.11 96.08
  Q 730.40 96.82 730.69 96.08
  Q 738.81 75.09 759.82 19.94
  Q 760.07 19.27 760.36 19.27
  Z"></path>
<path d="M 340.44 65.94
  Q 340.63 65.94 340.74 65.75
  Q 348.95 51.44 366.18 21.58
  Q 366.46 21.11 367.01 21.11
  L 381.24 21.11
  A 0.25 0.25 0.0 0 1 381.46 21.49
  L 347.33 80.61
  Q 347.07 81.06 347.07 81.58
  L 347.07 126.44
  Q 347.07 126.94 346.57 126.95
  Q 344.94 127.00 340.45 127.00
  Q 335.95 127.00 334.32 126.95
  Q 333.82 126.94 333.82 126.44
  L 333.81 81.58
  Q 333.81 81.06 333.55 80.61
  L 299.40 21.50
  A 0.25 0.25 0.0 0 1 299.62 21.12
  L 313.85 21.12
  Q 314.40 21.12 314.68 21.59
  Q 331.92 51.44 340.13 65.75
  Q 340.24 65.94 340.44 65.94
  Z"></path>
<path d="M 423.57 75.42
  L 423.58 126.65
  A 0.35 0.35 0.0 0 1 423.23 127.00
  L 410.58 126.99
  A 0.35 0.35 0.0 0 1 410.23 126.64
  L 410.23 21.46
  A 0.35 0.35 0.0 0 1 410.58 21.11
  L 461.34 21.11
  A 0.35 0.35 0.0 0 1 461.69 21.46
  L 461.69 32.97
  A 0.35 0.35 0.0 0 1 461.34 33.32
  L 423.92 33.32
  A 0.35 0.35 0.0 0 0 423.57 33.67
  L 423.58 62.58
  A 0.35 0.35 0.0 0 0 423.93 62.93
  L 460.03 62.93
  A 0.35 0.35 0.0 0 1 460.38 63.28
  L 460.38 74.72
  A 0.35 0.35 0.0 0 1 460.03 75.07
  L 423.92 75.07
  A 0.35 0.35 0.0 0 0 423.57 75.42
  Z"></path>
<path d="M 507.54 114.87
  L 539.02 114.88
  A 0.36 0.36 0.0 0 1 539.38 115.24
  L 539.38 126.64
  A 0.36 0.36 0.0 0 1 539.02 127.00
  L 494.29 127.00
  A 0.36 0.36 0.0 0 1 493.93 126.64
  L 493.93 21.47
  A 0.36 0.36 0.0 0 1 494.29 21.11
  L 506.82 21.12
  A 0.36 0.36 0.0 0 1 507.18 21.48
  L 507.18 114.51
  A 0.36 0.36 0.0 0 0 507.54 114.87
  Z"></path>
<path d="M 875.57 33.65
  L 875.58 62.49
  A 0.33 0.33 0.0 0 0 875.91 62.82
  L 917.67 62.82
  A 0.33 0.33 0.0 0 1 918.00 63.15
  L 918.00 74.61
  A 0.33 0.33 0.0 0 1 917.67 74.94
  L 875.91 74.93
  A 0.33 0.33 0.0 0 0 875.58 75.26
  L 875.58 114.54
  A 0.33 0.33 0.0 0 0 875.91 114.87
  L 918.92 114.88
  A 0.33 0.33 0.0 0 1 919.25 115.21
  L 919.26 126.67
  A 0.33 0.33 0.0 0 1 918.93 127.00
  L 862.56 127.00
  A 0.33 0.33 0.0 0 1 862.23 126.67
  L 862.23 21.44
  A 0.33 0.33 0.0 0 1 862.56 21.11
  L 918.91 21.11
  A 0.33 0.33 0.0 0 1 919.24 21.44
  L 919.26 32.99
  A 0.33 0.33 0.0 0 1 918.93 33.32
  L 875.90 33.32
  A 0.33 0.33 0.0 0 0 875.57 33.65
  Z"></path>
<path d="M 1024.00 126.75
  Q 1024.00 126.82 1024.00 126.89
  L 1008.39 126.90
  Q 1007.86 126.90 1007.56 126.47
  L 977.01 82.66
  Q 976.72 82.24 976.21 82.24
  L 971.78 82.24
  Q 971.32 82.24 971.32 82.70
  L 971.32 126.47
  Q 971.32 127.00 970.79 127.00
  L 958.50 127.00
  Q 958.00 127.00 958.00 126.50
  L 958.00 21.58
  Q 958.00 21.12 958.45 21.12
  Q 976.37 21.01 984.75 21.43
  Q 990.09 21.69 996.44 23.62
  C 1007.33 26.93 1014.33 36.44 1015.77 47.84
  Q 1017.36 60.51 1009.06 71.05
  Q 1002.77 79.06 991.22 80.89
  Q 990.67 80.98 991.00 81.44
  L 1024.00 126.75
  Z
  M 971.34 33.52
  L 971.28 70.78
  A 0.29 0.29 0.0 0 0 971.57 71.07
  L 982.04 71.09
  A 21.48 17.23 0.1 0 0 1003.55 53.90
  L 1003.55 50.52
  A 21.48 17.23 0.1 0 0 982.10 33.25
  L 971.63 33.23
  A 0.29 0.29 0.0 0 0 971.34 33.52
  Z"></path>
</g>
<path d="M 239.55 41.81
  A 1.39 1.38 -43.8 0 0 237.54 41.77
  Q 233.32 46.03 231.21 48.72
  Q 205.27 81.93 182.98 118.00
  Q 182.04 119.53 179.40 124.79
  Q 178.15 127.28 178.91 128.79
  Q 180.31 131.53 183.19 132.09
  Q 188.60 133.15 195.27 132.86
  C 206.57 132.37 219.60 130.17 230.57 127.61
  Q 237.49 125.99 242.90 125.93
  Q 254.97 125.79 265.03 126.83
  C 269.77 127.32 277.40 130.02 278.21 135.50
  C 278.93 140.41 271.95 147.15 267.23 147.61
  Q 266.22 147.71 264.49 147.03
  Q 256.36 143.86 248.93 147.66
  Q 237.83 153.34 227.12 161.88
  C 226.23 162.59 223.21 163.65 221.93 163.92
  Q 214.02 165.64 205.32 165.74
  Q 200.77 165.80 196.60 164.17
  C 189.86 161.54 183.45 158.10 176.94 154.45
  Q 171.65 151.50 166.38 147.20
  C 160.01 142.00 154.41 137.07 148.88 131.34
  Q 146.65 129.01 143.89 124.33
  Q 139.86 117.50 138.01 113.34
  Q 135.11 106.80 138.29 99.40
  Q 138.50 98.92 138.97 98.71
  Q 157.27 90.66 175.60 76.33
  C 203.32 54.65 229.38 28.23 252.97 1.98
  C 253.75 1.11 255.77 0.47 257.08 0.67
  Q 261.50 1.37 263.20 4.67
  Q 264.15 6.51 264.90 11.44
  Q 266.69 23.18 267.85 32.71
  Q 269.41 45.50 271.15 52.37
  C 275.10 67.94 281.33 81.87 288.60 95.02
  Q 291.90 100.99 288.86 105.48
  C 285.78 110.04 278.60 111.91 273.01 111.54
  C 269.08 111.29 265.77 106.14 263.65 102.64
  Q 260.02 96.66 254.28 85.75
  Q 251.42 80.32 249.67 74.13
  Q 247.78 67.50 243.19 49.17
  Q 242.02 44.52 239.55 41.81
  Z" fill="#e55204"></path>
</svg>
