<svg xmlns="http://www.w3.org/2000/svg" preserveAspectRatio="xMinYMin" viewBox="0 0 500.915 93.895"><g data-name="2019-02-11_Logo_RGB"><path fill="#7cbb5a" d="M346.767 93.895H41.3A41.3 41.3 0 0 1 0 52.595v-52.6h383.734Z"/><path fill="#25282b" d="M459.616 93.895H346.767L383.733.009h75.883a41.3 41.3 0 0 1 41.3 41.3v11.289a41.3 41.3 0 0 1-41.3 41.297"/><g fill="#fff"><path d="m59.915 62.767-.046-19.208-9.422 15.823h-3.324l-9.376-15.413v18.8h-6.965V30.752h6.132l11.982 19.9 11.8-19.9h6.08l.092 32.015Z" data-name="Pfad 319"/><path d="M103.844 56.822v5.945H79.062V30.752h24.2v5.945H86.426v6.954h14.866v5.761H86.426v7.41Z" data-name="Pfad 320"/><path d="M136.036 46.257h6.77v12.994a19.4 19.4 0 0 1-6.037 3.017 23.4 23.4 0 0 1-6.908 1.052 18.7 18.7 0 0 1-8.962-2.125 15.84 15.84 0 0 1-6.245-5.9 17.21 17.21 0 0 1 0-17.059 15.76 15.76 0 0 1 6.291-5.9 19.05 19.05 0 0 1 9.054-2.128 19.8 19.8 0 0 1 7.637 1.419 15.1 15.1 0 0 1 5.758 4.111l-4.752 4.39a11 11 0 0 0-8.278-3.612 11.3 11.3 0 0 0-5.445 1.272 9.2 9.2 0 0 0-3.7 3.615 11.38 11.38 0 0 0 0 10.657 9.37 9.37 0 0 0 3.679 3.633 10.9 10.9 0 0 0 5.375 1.306 12 12 0 0 0 5.767-1.367Z" data-name="Pfad 321"/><path d="M177.544 55.908H162.68l-2.836 6.859h-7.591l14.269-32.015h7.318l14.323 32.015h-7.778Zm-2.33-5.626-5.077-12.264-5.074 12.264Z" data-name="Pfad 322"/><path d="M219.765 32.172a10.95 10.95 0 0 1 4.826 4.023 12.07 12.07 0 0 1 0 12.325 10.76 10.76 0 0 1-4.826 4.026 18 18 0 0 1-7.386 1.4h-6.439v8.827h-7.419V30.752h13.858a17.75 17.75 0 0 1 7.386 1.42m-2.72 14.29a5.01 5.01 0 0 0 1.738-4.093 5.15 5.15 0 0 0-1.738-4.139 7.8 7.8 0 0 0-5.077-1.441h-6.028v11.113h6.037a7.75 7.75 0 0 0 5.068-1.444Z" data-name="Pfad 323"/><path d="M254.631 55.908h-14.864l-2.836 6.859h-7.591l14.269-32.015h7.318l14.315 32.015h-7.775Zm-2.333-5.626-5.077-12.264-5.074 12.264Z" data-name="Pfad 324"/><path d="m296.007 62.767-6.175-8.919h-6.812v8.919h-7.41V30.752h13.858a17.8 17.8 0 0 1 7.386 1.42 10.97 10.97 0 0 1 4.826 4.023 11.1 11.1 0 0 1 1.693 6.175 10.44 10.44 0 0 1-6.586 10.109l7.181 10.289Zm-1.876-24.528a7.8 7.8 0 0 0-5.074-1.441h-6.037v11.16h6.037a7.7 7.7 0 0 0 5.074-1.462 5.78 5.78 0 0 0 0-8.266Z" data-name="Pfad 325"/><path d="M321.528 36.789h-10.247v-6.037h27.9v6.037h-10.246v25.978h-7.407Z" data-name="Pfad 326"/></g><g fill="#fff"><path d="M413.954 43s3.351-9.974 10.017-14.474c7.021-4.8 18.607-4.115 20.033-4.053-.711 0-4.157.11-9.578 5.028-3.1 2.784-6.132 8.959-6.132 8.959l-10.881 27.186-12.359-.028Z" data-name="Pfad 1"/><path d="M456.556 43.087s2.569-6.233 1.867-11.228c-.408-3.032-3.731-4.7-3.731-4.7s10.351-5.264 14.787 3.955c1.95 4.047-.267 11.586-1.1 14.079l-1.971 4.927-.659 1.665c-.475.947-3.281 6.23-6.08 8.778-4.823 4.387-8.214 5.034-9.4 5.09l-2.673-.064Z" data-name="Pfad 2"/><path d="M428.156 43.019s3.351-9.974 10.017-14.474c7.021-4.8 18.607-4.115 20.033-4.053-.711 0-4.157.11-9.578 5.028-3.1 2.784-6.132 8.959-6.132 8.959l-10.9 27.186-12.359-.028Z" data-name="Pfad 3"/><path d="M436.627 78.211a23.9 23.9 0 0 1-9.339 3.425l15.483-38.588s3.649-10.21 10.253-14.717c.307-.239 3.621 1.671 3.79 5.415a26.5 26.5 0 0 1-1.263 7.426l-9.744 24.936c-1.552 3.2-4.6 8.962-9.179 12.1" data-name="Pfad 4"/><path d="M399.692 42.954s3.351-9.977 10.017-14.478c7.024-4.8 18.61-4.115 20.036-4.053-.715 0-4.161.11-9.578 5.028-3.1 2.784-6.132 8.959-6.132 8.959l-10.881 27.189-12.362-.031Z" data-name="Pfad 5"/></g></g></svg>