<svg xmlns="http://www.w3.org/2000/svg" fill-rule="evenodd" stroke-linejoin="round" stroke-miterlimit="2" clip-rule="evenodd" preserveAspectRatio="xMinYMin" viewBox="0 0 128 31"><path fill="#6464e1" d="M26.629 7.981a7 7 0 0 0-.707-.033q-1.698 0-2.937.832a14.7 14.7 0 0 0-2.361 1.987q-.645-1.359-1.749-2.089c-1.104-.73-1.704-.73-2.904-.73q-1.664 0-2.853.764a13.5 13.5 0 0 0-2.241 1.817h-.136l-.339-2.174H6.326v16.846h4.992V13.823q1.563-1.63 2.853-1.63 1.087 0 1.58.679.492.68.492 2.514v9.815h4.992V13.823q1.631-1.63 2.887-1.63 1.087 0 1.58.679.492.68.492 2.514V25.1a14.4 14.4 0 0 1-11.4 5.58C6.822 30.68.36 24.218.36 16.246S6.822 1.812 14.794 1.812c4.897 0 9.225 2.439 11.835 6.169m11.248 17.627q-1.8 0-3.362-.594a7.75 7.75 0 0 1-2.717-1.732q-1.155-1.138-1.8-2.768c-.645-1.63-.646-2.332-.646-3.736q0-2.038.68-3.685c.68-1.647 1.047-2.026 1.783-2.785a7.8 7.8 0 0 1 2.53-1.749 7.4 7.4 0 0 1 2.955-.611q1.8 0 3.141.611a6.2 6.2 0 0 1 2.242 1.698q.9 1.087 1.341 2.565.441 1.476.442 3.209a12 12 0 0 1-.204 2.207H34.175q.34 1.834 1.511 2.7 1.173.867 2.87.867 1.8 0 3.634-1.121l1.664 3.022a11 11 0 0 1-2.869 1.393 10.1 10.1 0 0 1-3.108.509m-3.736-10.664h6.079q0-1.427-.645-2.309t-2.173-.883q-1.19 0-2.089.781c-.899.781-.991 1.324-1.172 2.411m17.808 10.664q-1.291 0-2.174-.407-.883-.408-1.409-1.138c-.526-.73-.606-1.075-.764-1.766q-.238-1.036-.238-2.326V1.393h4.992v18.781q0 .781.289 1.087.288.306.594.306h.289q.119 0 .323-.068l.611 3.702a5.3 5.3 0 0 1-1.036.288q-.628.12-1.477.119m9.52 0q-1.664 0-3.413-.645c-1.749-.645-2.179-.996-3.039-1.698l2.241-3.125q1.155.884 2.208 1.325c1.053.441 1.415.441 2.139.441q1.121 0 1.63-.373.51-.373.51-1.053 0-.408-.289-.73a3 3 0 0 0-.781-.595 8 8 0 0 0-1.104-.492 26 26 0 0 1-1.256-.492 16 16 0 0 1-1.563-.714 6.6 6.6 0 0 1-1.426-1.002 4.9 4.9 0 0 1-1.053-1.392q-.407-.798-.407-1.851 0-1.155.458-2.14.459-.984 1.308-1.664c.849-.68 1.245-.809 2.037-1.07q1.19-.39 2.649-.39 1.936 0 3.397.662t2.547 1.478l-2.242 2.988a8.8 8.8 0 0 0-1.8-1.053 4.5 4.5 0 0 0-1.766-.373q-1.902 0-1.902 1.324 0 .408.272.697.272.288.73.526.459.237 1.053.458l1.24.459q.815.306 1.613.696a6.7 6.7 0 0 1 1.46.968q.662.578 1.07 1.41t.408 1.986q0 1.155-.442 2.14a4.7 4.7 0 0 1-1.324 1.715q-.884.73-2.174 1.155c-1.29.425-1.856.424-2.989.424m9.521-.407V8.355h4.993v16.846zm2.479-19.325q-1.256 0-2.071-.73t-.815-1.885c.001-1.155.271-1.392.815-1.868Q72.213.68 73.469.68q1.291 0 2.089.713.798.714.798 1.868c0 1.154-.266 1.398-.798 1.885s-1.228.73-2.089.73m13.665 19.732q-1.766 0-3.278-.594-1.511-.594-2.632-1.715c-1.121-1.121-1.336-1.67-1.766-2.768s-.645-2.349-.645-3.753.238-2.655.713-3.753q.713-1.646 1.919-2.768 1.206-1.12 2.802-1.715c1.596-.595 2.173-.594 3.328-.594q1.563 0 2.768.509 1.206.51 2.157 1.291l-2.344 3.226q-1.189-.984-2.275-.985-1.834 0-2.887 1.291c-1.053 1.291-1.053 2.026-1.053 3.498s.357 2.638 1.07 3.498q1.07 1.291 2.7 1.291a3.7 3.7 0 0 0 1.579-.357q.765-.356 1.444-.866l1.969 3.261q-1.256 1.086-2.717 1.545a9.5 9.5 0 0 1-2.852.458m14.241 0a8.3 8.3 0 0 1-3.09-.594 7.8 7.8 0 0 1-2.633-1.715q-1.137-1.12-1.817-2.768-.678-1.647-.679-3.753c-.001-2.106.227-2.655.679-3.753q.68-1.646 1.817-2.768a7.8 7.8 0 0 1 2.633-1.715 8.3 8.3 0 0 1 6.164 0 7.9 7.9 0 0 1 2.615 1.715q1.137 1.121 1.817 2.768c.68 1.647.679 2.349.679 3.753s-.226 2.655-.679 3.753-1.059 2.021-1.817 2.768q-1.138 1.12-2.615 1.715c-1.477.595-2.01.594-3.074.594m0-4.041q1.529 0 2.31-1.291.78-1.29.781-3.498c.001-2.208-.261-2.638-.781-3.498q-.781-1.29-2.31-1.291-1.562 0-2.326 1.291t-.764 3.498c0 2.208.254 2.638.764 3.498q.764 1.291 2.326 1.291m11.049 3.634V8.355h4.076l.339 2.14h.136a13.7 13.7 0 0 1 2.377-1.783q1.291-.764 3.023-.764 2.75 0 3.991 1.8 1.239 1.8 1.239 4.992v10.461h-4.992v-9.815q0-1.835-.493-2.514-.492-.678-1.579-.679-.95 0-1.63.425c-.68.425-.951.685-1.494 1.205v11.378z"/></svg>