<?xml version="1.0" encoding="UTF-8" standalone="no"?>
<!DOCTYPE svg PUBLIC "-//W3C//DTD SVG 1.1//EN" "http://www.w3.org/Graphics/SVG/1.1/DTD/svg11.dtd">
<svg xmlns="http://www.w3.org/2000/svg" version="1.1" viewBox="0.00 0.00 834.00 155.00">
<g stroke-width="2.00" fill="none" stroke-linecap="butt">
<path stroke="#80a7d1" vector-effect="non-scaling-stroke" d="
  M 275.20 0.00
  L 246.77 3.94
  C 246.42 3.99 246.24 4.19 246.24 4.54
  L 246.24 8.26
  C 246.24 8.69 246.46 8.91 246.89 8.90
  C 249.45 8.87 251.56 9.24 253.23 10.01
  C 255.20 10.93 256.51 12.06 257.15 13.41
  C 258.33 15.89 258.93 18.54 258.94 21.35
  C 259.01 35.25 259.02 61.80 258.99 101.00
  C 258.99 102.99 258.62 104.96 258.37 106.93
  C 257.70 112.16 253.75 114.64 246.54 114.37
  C 246.35 114.36 246.26 114.45 246.26 114.64
  L 246.26 119.04
  C 246.26 119.19 246.38 119.32 246.53 119.32
  L 289.23 119.32
  C 289.75 119.32 290.01 119.06 290.01 118.54
  L 290.01 115.06
  C 290.01 114.61 289.79 114.39 289.34 114.40
  C 279.47 114.48 277.38 110.34 277.35 101.17
  C 277.32 89.66 277.29 83.61 277.28 83.04
  C 277.15 77.53 277.59 73.27 278.60 70.25
  C 281.15 62.58 285.40 56.45 291.35 51.87
  C 295.50 48.66 302.78 48.71 305.25 54.28
  C 307.45 59.25 307.58 65.37 307.65 71.05
  C 307.75 78.88 307.74 89.77 307.61 103.71
  C 307.54 111.92 303.41 114.34 295.49 114.45
  C 295.16 114.46 295.00 114.63 295.00 114.96
  L 295.00 118.79
  C 295.00 119.14 295.18 119.32 295.53 119.32
  L 338.21 119.32
  C 338.58 119.32 338.76 119.14 338.76 118.78
  L 338.76 114.94
  C 338.76 114.59 338.58 114.40 338.22 114.39
  C 332.87 114.24 327.96 113.56 326.72 107.52
  C 326.51 106.47 326.32 104.54 326.16 101.75
  C 325.94 97.89 325.92 84.22 326.09 60.75
  C 326.15 51.39 323.98 42.15 313.75 39.35
  C 306.77 37.44 300.19 37.79 294.00 40.38
  C 287.31 43.18 281.31 49.94 277.85 56.38
  C 277.47 57.09 277.28 57.04 277.28 56.23
  L 277.29 0.00"
/>
<path stroke="#80a7d1" vector-effect="non-scaling-stroke" d="
  M 510.14 0.00
  L 481.88 3.88
  C 481.28 3.97 480.98 4.31 480.98 4.91
  L 480.98 7.99
  C 480.98 8.58 481.27 8.88 481.86 8.89
  C 483.48 8.93 484.46 8.97 484.79 9.02
  C 488.65 9.52 491.27 11.33 492.66 14.44
  C 493.33 15.95 493.66 18.82 493.67 23.06
  C 493.68 64.13 493.72 90.44 493.79 102.00
  C 493.80 104.11 493.56 106.14 493.05 108.08
  C 491.57 113.74 486.64 114.33 481.51 114.44
  C 481.17 114.45 481.00 114.62 481.00 114.96
  L 481.00 118.79
  C 481.00 119.14 481.18 119.32 481.53 119.32
  L 524.47 119.32
  C 524.83 119.32 525.01 119.14 525.01 118.78
  L 525.01 114.99
  C 525.01 114.62 524.83 114.43 524.46 114.42
  C 518.38 114.21 513.95 113.60 512.68 106.81
  C 512.40 105.30 512.26 103.78 512.26 102.25
  C 512.33 68.16 512.35 34.08 512.30 0.00"
/>
<path stroke="#b7b7b9" vector-effect="non-scaling-stroke" d="
  M 834.00 62.41
  C 833.35 59.10 832.54 56.28 831.57 53.94
  C 827.08 43.11 816.27 38.38 804.99 38.21
  C 799.51 38.13 794.89 38.54 791.14 39.44
  C 779.84 42.16 771.98 49.61 768.80 60.82
  C 766.40 69.29 766.01 78.40 767.64 88.14
  C 769.67 100.30 776.05 110.85 786.97 116.28
  C 800.84 123.18 818.45 121.93 832.69 116.52
  C 832.89 116.44 832.99 116.29 832.99 116.08
  L 832.99 109.32
  C 832.99 109.16 832.84 109.06 832.69 109.11
  C 825.66 111.57 819.84 112.60 815.25 112.20
  C 803.12 111.14 794.82 104.79 790.33 93.14
  C 787.66 86.23 786.37 79.19 786.46 72.02
  C 786.46 71.68 786.63 71.51 786.97 71.51
  L 834.00 71.50"
/>
<path stroke="#b7b7b9" vector-effect="non-scaling-stroke" d="
  M 734.96 155.00
  C 743.82 154.15 751.91 151.39 759.23 146.72
  C 763.94 143.72 767.50 140.04 769.92 135.69
  C 772.39 131.25 773.29 126.64 772.61 121.85
  C 771.47 113.76 766.90 108.50 758.91 106.07
  C 755.14 104.92 751.17 104.33 747.01 104.28
  C 743.64 104.25 734.42 104.23 719.33 104.24
  C 710.65 104.24 709.78 98.26 714.25 92.21
  C 714.47 91.90 714.76 91.81 715.11 91.94
  C 720.58 93.89 727.13 94.49 734.74 93.72
  C 748.96 92.30 760.49 82.97 760.78 67.83
  C 760.83 65.14 760.79 63.22 760.65 62.07
  C 759.86 55.78 757.10 50.61 752.35 46.58
  C 752.09 46.36 752.03 46.09 752.18 45.77
  C 753.20 43.56 754.44 41.99 755.89 41.06
  C 756.51 40.66 757.31 40.63 757.96 40.98
  C 759.65 41.88 761.95 43.72 764.03 44.09
  C 770.29 45.22 775.52 41.50 775.95 35.01
  C 776.49 26.97 769.16 22.60 761.93 25.18
  C 754.59 27.80 750.06 35.94 747.27 42.13
  C 747.13 42.44 746.90 42.54 746.58 42.43
  C 746.07 42.25 745.02 41.81 743.41 41.11
  C 739.38 39.36 735.17 38.40 730.78 38.24
  C 717.04 37.72 702.58 42.48 697.98 56.74
  C 696.25 62.13 695.99 67.73 697.21 73.56
  C 698.46 79.53 701.90 84.43 707.53 88.27
  C 707.92 88.54 707.97 88.86 707.66 89.23
  C 704.36 93.18 700.89 97.44 699.21 102.44
  C 697.95 106.17 697.81 109.21 698.79 111.58
  C 699.49 113.27 698.93 114.07 697.10 113.98
  C 695.83 113.91 695.01 113.86 694.62 113.82
  C 692.71 113.63 691.37 112.70 690.60 111.04
  C 689.57 108.84 689.05 106.66 689.05 104.51
  C 689.00 80.00 688.96 66.76 688.94 64.81
  C 688.83 53.15 685.48 42.52 672.75 39.49
  C 666.70 38.05 659.80 37.80 652.04 38.73
  C 642.70 39.85 629.52 44.46 628.53 55.24
  C 628.18 59.03 629.40 61.82 632.19 63.61
  C 637.51 67.02 646.02 66.33 647.99 59.26
  C 648.44 57.65 649.11 55.16 650.00 51.79
  C 650.93 48.26 653.07 46.15 656.44 45.44
  C 664.88 43.67 669.48 49.24 670.20 57.04
  C 670.70 62.45 670.87 68.16 670.70 74.19
  C 670.69 74.53 670.51 74.70 670.17 74.70
  C 665.28 74.73 659.48 75.34 652.79 76.53
  C 641.04 78.63 627.07 84.49 625.42 97.83
  C 624.61 104.33 626.43 109.78 630.87 114.18
  C 636.66 119.92 645.04 122.02 653.08 120.54
  C 659.96 119.28 665.78 115.93 670.55 110.48
  C 670.77 110.23 671.19 110.34 671.26 110.67
  C 672.59 117.21 676.61 120.62 683.32 120.90
  C 689.47 121.16 695.44 120.34 701.23 118.43
  C 703.60 117.65 703.77 117.98 701.75 119.43
  C 699.73 120.87 697.70 123.03 695.65 125.91
  C 689.25 134.90 695.04 144.84 703.35 149.43
  C 709.04 152.57 715.38 154.43 722.37 155.00"
/>
<path stroke="#80a7d1" vector-effect="non-scaling-stroke" d="
  M 0.00 119.31
  L 39.78 119.33
  C 40.33 119.33 40.60 119.06 40.60 118.51
  L 40.60 114.92
  C 40.60 114.35 40.31 114.02 39.74 113.95
  C 35.16 113.38 29.43 114.00 27.50 109.24
  C 26.74 107.37 26.36 105.20 26.36 102.75
  C 26.32 64.06 26.30 37.46 26.31 22.94
  C 26.31 21.90 26.49 21.87 26.84 22.85
  L 61.11 119.01
  C 61.18 119.22 61.33 119.32 61.54 119.32
  L 73.52 119.32
  C 73.81 119.32 74.06 119.14 74.16 118.87
  C 92.59 67.36 103.79 35.70 107.78 23.89
  C 108.02 23.18 108.15 22.79 108.18 22.74
  C 108.72 21.63 108.99 21.69 108.99 22.90
  C 109.02 62.53 109.02 88.73 108.98 101.50
  C 108.97 105.23 108.40 107.99 107.27 109.79
  C 105.93 111.94 103.99 113.15 101.44 113.40
  C 99.94 113.55 97.68 113.75 94.67 114.02
  C 94.52 114.03 94.44 114.12 94.44 114.27
  L 94.44 119.01
  C 94.44 119.18 94.58 119.32 94.76 119.32
  L 181.76 119.32
  C 182.14 119.32 182.33 119.13 182.33 118.75
  L 182.33 114.96
  C 182.33 114.61 182.15 114.43 181.80 114.42
  C 179.34 114.35 177.72 114.24 176.93 114.08
  C 172.74 113.25 170.40 110.71 169.91 106.46
  C 169.54 103.14 169.35 101.01 169.34 100.07
  C 169.32 81.40 169.32 60.92 169.33 38.65
  C 169.33 38.35 169.06 38.12 168.76 38.16
  L 138.46 42.30
  C 138.32 42.32 138.25 42.40 138.25 42.54
  L 138.25 47.04
  C 138.25 47.25 138.35 47.34 138.56 47.33
  C 146.77 46.88 150.90 50.53 150.95 58.28
  C 151.02 68.41 151.03 83.07 150.97 102.26
  C 150.97 104.88 150.49 108.93 149.06 110.80
  C 145.80 115.05 138.82 114.76 134.04 113.57
  C 130.41 112.66 128.49 110.10 127.94 106.56
  C 127.53 103.95 127.33 101.51 127.33 99.25
  C 127.28 55.55 127.33 30.72 127.49 24.75
  C 127.58 21.56 127.68 19.47 127.80 18.50
  C 128.80 10.66 134.71 10.14 141.30 10.37
  C 141.54 10.38 141.74 10.18 141.74 9.94
  L 141.74 5.20
  C 141.74 4.86 141.57 4.69 141.23 4.69
  L 104.01 4.69
  C 103.63 4.69 103.37 4.87 103.24 5.23
  L 70.81 96.05
  C 70.64 96.51 70.48 96.51 70.32 96.05
  L 37.95 5.21
  C 37.85 4.94 37.66 4.80 37.37 4.80
  L 0.00 4.74"
/>
<path stroke="#80a7d1" vector-effect="non-scaling-stroke" d="
  M 171.83 14.36
  C 171.83 8.13 166.78 3.08 160.55 3.08
  C 154.32 3.08 149.27 8.13 149.27 14.36
  C 149.27 20.59 154.32 25.64 160.55 25.64
  C 166.78 25.64 171.83 20.59 171.83 14.36"
/>
<path stroke="#b7b7b9" vector-effect="non-scaling-stroke" d="
  M 572.67 68.95
  C 580.70 69.20 588.08 69.01 594.81 68.39
  C 598.98 68.00 603.27 67.01 607.67 65.40
  C 618.80 61.35 624.99 53.23 626.25 41.03
  C 627.55 28.58 623.75 16.39 612.63 10.35
  C 607.18 7.40 601.05 5.68 594.24 5.20
  C 592.59 5.09 590.10 4.97 586.75 4.85
  C 584.30 4.76 568.22 4.71 538.51 4.71
  C 538.16 4.71 537.99 4.89 537.99 5.24
  L 537.99 9.78
  C 537.99 10.09 538.26 10.34 538.57 10.32
  C 540.15 10.21 542.17 10.31 544.62 10.63
  C 551.04 11.47 552.43 16.42 552.44 22.01
  C 552.49 56.27 552.50 82.70 552.47 101.30
  C 552.46 107.26 551.33 112.80 544.26 113.53
  C 542.22 113.74 540.30 113.88 538.50 113.97
  C 538.15 113.99 537.98 114.17 537.98 114.52
  L 537.98 118.76
  C 537.98 119.11 538.16 119.29 538.51 119.29
  L 586.25 119.29
  C 586.62 119.29 586.80 119.11 586.80 118.74
  L 586.80 114.68
  C 586.80 114.33 586.54 114.03 586.19 114.00
  C 579.97 113.39 573.70 113.90 572.86 105.73
  C 572.50 102.29 572.32 100.04 572.32 98.99
  C 572.29 91.40 572.28 81.51 572.29 69.31
  C 572.29 69.11 572.46 68.94 572.67 68.95"
/>
<path stroke="#80a7d1" vector-effect="non-scaling-stroke" d="
  M 239.68 117.00
  C 240.11 116.81 240.32 116.49 240.32 116.03
  L 240.32 110.04
  C 240.32 109.70 239.99 109.45 239.66 109.54
  C 232.67 111.39 227.95 112.30 225.49 112.28
  C 214.66 112.18 206.91 107.33 202.23 97.73
  C 196.81 86.63 195.92 72.62 197.87 60.50
  C 199.28 51.75 203.07 44.46 212.95 45.21
  C 216.45 45.47 218.67 48.43 219.04 51.55
  C 219.85 58.27 220.98 65.60 228.95 65.99
  C 236.28 66.34 242.05 61.53 240.47 53.98
  C 238.44 44.23 226.69 39.49 217.76 38.52
  C 198.97 36.48 182.79 44.32 178.56 63.84
  C 176.82 71.85 176.76 80.34 178.39 89.31
  C 183.13 115.47 202.98 123.45 227.42 120.34
  C 231.67 119.80 235.76 118.69 239.68 117.00"
/>
<path stroke="#80a7d1" vector-effect="non-scaling-stroke" d="
  M 382.91 74.67
  C 375.18 74.84 367.77 75.84 360.66 77.65
  C 354.75 79.15 349.87 81.43 346.02 84.50
  C 335.58 92.80 335.11 107.54 345.51 115.82
  C 348.54 118.23 351.95 119.79 355.73 120.48
  C 366.20 122.40 376.45 118.49 383.31 110.50
  C 383.53 110.24 383.95 110.35 384.02 110.68
  C 385.33 117.09 389.21 120.48 395.67 120.86
  C 402.28 121.25 408.83 120.29 415.31 117.98
  C 415.77 117.82 416.00 117.49 416.00 117.00
  L 416.00 112.98
  C 416.00 112.59 415.60 112.32 415.24 112.46
  C 410.78 114.19 404.93 115.66 402.91 109.86
  C 402.11 107.57 401.71 105.21 401.72 102.76
  C 401.79 84.91 401.76 71.70 401.64 63.13
  C 401.59 59.77 401.10 56.48 400.15 53.26
  C 397.90 45.65 392.88 41.03 385.10 39.42
  C 374.98 37.33 365.16 37.81 355.63 40.86
  C 349.26 42.91 342.37 47.30 341.38 54.47
  C 340.30 62.32 346.40 66.41 353.53 65.42
  C 357.49 64.87 359.97 62.65 360.97 58.74
  C 361.88 55.16 362.54 52.65 362.94 51.21
  C 363.79 48.14 365.80 46.26 368.99 45.56
  C 374.02 44.45 377.78 45.58 380.27 48.93
  C 381.69 50.85 382.64 54.02 383.11 58.45
  C 383.52 62.32 383.68 65.67 383.61 68.51
  C 383.54 71.15 383.48 73.04 383.43 74.17
  C 383.42 74.50 383.24 74.66 382.91 74.67"
/>
<path stroke="#80a7d1" vector-effect="non-scaling-stroke" d="
  M 428.56 71.93
  C 428.57 71.72 428.73 71.56 428.94 71.56
  L 475.97 71.56
  C 476.32 71.56 476.51 71.38 476.53 71.03
  C 476.96 60.43 473.72 48.89 464.37 42.93
  C 457.30 38.42 448.69 37.84 440.07 38.38
  C 422.42 39.46 411.72 50.51 409.34 67.69
  C 407.85 78.48 408.83 91.15 413.69 100.69
  C 419.58 112.28 429.61 118.89 443.77 120.53
  C 454.30 121.75 464.64 120.40 474.81 116.49
  C 474.93 116.44 474.99 116.36 474.99 116.23
  L 474.99 109.30
  C 474.99 109.15 474.85 109.05 474.71 109.10
  C 468.30 111.43 462.50 112.45 457.29 112.15
  C 436.15 110.93 428.32 89.94 428.56 71.93"
/>
<path stroke="#80a7d1" vector-effect="non-scaling-stroke" d="
  M 0.00 113.99
  C 3.94 113.82 6.53 113.60 7.78 113.32
  C 12.95 112.15 14.15 107.10 14.19 102.25
  C 14.29 87.52 14.30 60.72 14.21 21.83
  C 14.20 19.30 13.89 17.22 13.26 15.60
  C 11.18 10.18 4.89 10.38 0.00 10.28"
/>
<path stroke="#b7b7b9" vector-effect="non-scaling-stroke" d="
  M 572.38 23.56
  C 572.27 31.69 572.25 43.72 572.32 59.65
  C 572.32 60.04 572.51 60.24 572.90 60.25
  C 575.93 60.36 580.71 60.15 587.24 59.63
  C 594.91 59.01 600.22 55.93 603.18 50.39
  C 604.83 47.29 605.74 43.28 605.89 38.36
  C 606.25 27.26 603.97 16.80 591.47 14.56
  C 586.48 13.67 581.77 13.54 577.34 14.17
  C 575.48 14.44 574.04 15.67 573.38 17.40
  C 572.75 19.04 572.41 21.09 572.38 23.56"
/>
<path stroke="#b7b7b9" vector-effect="non-scaling-stroke" d="
  M 715.12 66.13
  C 715.05 74.86 716.90 87.19 728.46 87.29
  C 740.01 87.40 742.09 75.10 742.17 66.38
  C 742.25 57.65 740.40 45.32 728.84 45.21
  C 717.28 45.11 715.21 57.40 715.12 66.13"
/>
<path stroke="#b7b7b9" vector-effect="non-scaling-stroke" d="
  M 648.49 107.76
  C 651.32 110.17 655.02 110.72 659.57 109.42
  C 665.45 107.74 668.98 103.48 670.16 96.64
  C 670.85 92.60 670.97 87.81 670.51 82.27
  C 670.50 82.17 670.48 82.10 670.44 82.07
  C 670.41 82.04 670.39 82.01 670.36 81.99
  C 670.33 81.97 670.30 81.94 670.27 81.92
  C 670.23 81.89 670.16 81.88 670.06 81.89
  C 664.52 82.33 659.81 83.23 655.94 84.57
  C 649.38 86.84 645.75 91.02 645.05 97.09
  C 644.50 101.80 645.65 105.35 648.49 107.76"
/>
<path stroke="#b7b7b9" vector-effect="non-scaling-stroke" d="
  M 712.22 140.82
  C 715.59 143.97 719.65 145.90 724.40 146.59
  C 735.09 148.17 748.50 144.84 754.93 135.99
  C 757.22 132.86 757.61 129.80 756.12 126.82
  C 754.03 122.63 747.40 121.35 742.99 121.32
  C 737.68 121.28 726.83 121.27 710.44 121.30
  C 710.09 121.30 709.83 121.45 709.65 121.74
  C 705.23 128.72 706.09 135.08 712.22 140.82"
/>
<path stroke="#80a7d1" vector-effect="non-scaling-stroke" d="
  M 361.26 107.77
  C 362.79 109.06 364.46 109.78 366.27 109.93
  C 374.56 110.58 379.93 106.90 382.37 98.90
  C 383.52 95.17 383.82 89.61 383.27 82.23
  C 383.26 82.16 383.24 82.10 383.20 82.05
  C 383.19 82.04 383.17 82.01 383.13 81.98
  C 383.09 81.94 383.06 81.92 383.05 81.92
  C 382.99 81.89 382.93 81.87 382.86 81.88
  C 375.49 82.55 370.05 83.75 366.56 85.49
  C 359.07 89.21 356.32 95.11 358.31 103.18
  C 358.75 104.95 359.73 106.48 361.26 107.77"
/>
<path stroke="#80a7d1" vector-effect="non-scaling-stroke" d="
  M 428.95 63.24
  L 457.74 63.24
  C 458.04 63.24 458.29 62.99 458.28 62.69
  C 458.10 54.27 455.58 45.97 445.71 45.22
  C 434.91 44.39 429.03 52.93 428.49 62.76
  C 428.48 63.08 428.63 63.24 428.95 63.24"
/>
<path stroke="#b7b7b9" vector-effect="non-scaling-stroke" d="
  M 787.11 63.25
  L 816.21 63.19
  C 816.32 63.19 816.41 63.10 816.41 62.99
  L 816.40 61.43
  C 816.39 52.43 810.25 45.14 802.70 45.16
  L 800.54 45.16
  C 792.99 45.18 786.89 52.48 786.90 61.49
  L 786.91 63.05
  C 786.91 63.16 787.00 63.25 787.11 63.25"
/>
</g>
<g fill="#ffffff">
<path d="
  M 275.20 0.00
  L 246.77 3.94
  C 246.42 3.99 246.24 4.19 246.24 4.54
  L 246.24 8.26
  C 246.24 8.69 246.46 8.91 246.89 8.90
  C 249.45 8.87 251.56 9.24 253.23 10.01
  C 255.20 10.93 256.51 12.06 257.15 13.41
  C 258.33 15.89 258.93 18.54 258.94 21.35
  C 259.01 35.25 259.02 61.80 258.99 101.00
  C 258.99 102.99 258.62 104.96 258.37 106.93
  C 257.70 112.16 253.75 114.64 246.54 114.37
  C 246.35 114.36 246.26 114.45 246.26 114.64
  L 246.26 119.04
  C 246.26 119.19 246.38 119.32 246.53 119.32
  L 289.23 119.32
  C 289.75 119.32 290.01 119.06 290.01 118.54
  L 290.01 115.06
  C 290.01 114.61 289.79 114.39 289.34 114.40
  C 279.47 114.48 277.38 110.34 277.35 101.17
  C 277.32 89.66 277.29 83.61 277.28 83.04
  C 277.15 77.53 277.59 73.27 278.60 70.25
  C 281.15 62.58 285.40 56.45 291.35 51.87
  C 295.50 48.66 302.78 48.71 305.25 54.28
  C 307.45 59.25 307.58 65.37 307.65 71.05
  C 307.75 78.88 307.74 89.77 307.61 103.71
  C 307.54 111.92 303.41 114.34 295.49 114.45
  C 295.16 114.46 295.00 114.63 295.00 114.96
  L 295.00 118.79
  C 295.00 119.14 295.18 119.32 295.53 119.32
  L 338.21 119.32
  C 338.58 119.32 338.76 119.14 338.76 118.78
  L 338.76 114.94
  C 338.76 114.59 338.58 114.40 338.22 114.39
  C 332.87 114.24 327.96 113.56 326.72 107.52
  C 326.51 106.47 326.32 104.54 326.16 101.75
  C 325.94 97.89 325.92 84.22 326.09 60.75
  C 326.15 51.39 323.98 42.15 313.75 39.35
  C 306.77 37.44 300.19 37.79 294.00 40.38
  C 287.31 43.18 281.31 49.94 277.85 56.38
  C 277.47 57.09 277.28 57.04 277.28 56.23
  L 277.29 0.00
  L 510.14 0.00
  L 481.88 3.88
  C 481.28 3.97 480.98 4.31 480.98 4.91
  L 480.98 7.99
  C 480.98 8.58 481.27 8.88 481.86 8.89
  C 483.48 8.93 484.46 8.97 484.79 9.02
  C 488.65 9.52 491.27 11.33 492.66 14.44
  C 493.33 15.95 493.66 18.82 493.67 23.06
  C 493.68 64.13 493.72 90.44 493.79 102.00
  C 493.80 104.11 493.56 106.14 493.05 108.08
  C 491.57 113.74 486.64 114.33 481.51 114.44
  C 481.17 114.45 481.00 114.62 481.00 114.96
  L 481.00 118.79
  C 481.00 119.14 481.18 119.32 481.53 119.32
  L 524.47 119.32
  C 524.83 119.32 525.01 119.14 525.01 118.78
  L 525.01 114.99
  C 525.01 114.62 524.83 114.43 524.46 114.42
  C 518.38 114.21 513.95 113.60 512.68 106.81
  C 512.40 105.30 512.26 103.78 512.26 102.25
  C 512.33 68.16 512.35 34.08 512.30 0.00
  L 834.00 0.00
  L 834.00 62.41
  C 833.35 59.10 832.54 56.28 831.57 53.94
  C 827.08 43.11 816.27 38.38 804.99 38.21
  C 799.51 38.13 794.89 38.54 791.14 39.44
  C 779.84 42.16 771.98 49.61 768.80 60.82
  C 766.40 69.29 766.01 78.40 767.64 88.14
  C 769.67 100.30 776.05 110.85 786.97 116.28
  C 800.84 123.18 818.45 121.93 832.69 116.52
  C 832.89 116.44 832.99 116.29 832.99 116.08
  L 832.99 109.32
  C 832.99 109.16 832.84 109.06 832.69 109.11
  C 825.66 111.57 819.84 112.60 815.25 112.20
  C 803.12 111.14 794.82 104.79 790.33 93.14
  C 787.66 86.23 786.37 79.19 786.46 72.02
  C 786.46 71.68 786.63 71.51 786.97 71.51
  L 834.00 71.50
  L 834.00 155.00
  L 734.96 155.00
  C 743.82 154.15 751.91 151.39 759.23 146.72
  C 763.94 143.72 767.50 140.04 769.92 135.69
  C 772.39 131.25 773.29 126.64 772.61 121.85
  C 771.47 113.76 766.90 108.50 758.91 106.07
  C 755.14 104.92 751.17 104.33 747.01 104.28
  C 743.64 104.25 734.42 104.23 719.33 104.24
  C 710.65 104.24 709.78 98.26 714.25 92.21
  C 714.47 91.90 714.76 91.81 715.11 91.94
  C 720.58 93.89 727.13 94.49 734.74 93.72
  C 748.96 92.30 760.49 82.97 760.78 67.83
  C 760.83 65.14 760.79 63.22 760.65 62.07
  C 759.86 55.78 757.10 50.61 752.35 46.58
  C 752.09 46.36 752.03 46.09 752.18 45.77
  C 753.20 43.56 754.44 41.99 755.89 41.06
  C 756.51 40.66 757.31 40.63 757.96 40.98
  C 759.65 41.88 761.95 43.72 764.03 44.09
  C 770.29 45.22 775.52 41.50 775.95 35.01
  C 776.49 26.97 769.16 22.60 761.93 25.18
  C 754.59 27.80 750.06 35.94 747.27 42.13
  C 747.13 42.44 746.90 42.54 746.58 42.43
  C 746.07 42.25 745.02 41.81 743.41 41.11
  C 739.38 39.36 735.17 38.40 730.78 38.24
  C 717.04 37.72 702.58 42.48 697.98 56.74
  C 696.25 62.13 695.99 67.73 697.21 73.56
  C 698.46 79.53 701.90 84.43 707.53 88.27
  C 707.92 88.54 707.97 88.86 707.66 89.23
  C 704.36 93.18 700.89 97.44 699.21 102.44
  C 697.95 106.17 697.81 109.21 698.79 111.58
  C 699.49 113.27 698.93 114.07 697.10 113.98
  C 695.83 113.91 695.01 113.86 694.62 113.82
  C 692.71 113.63 691.37 112.70 690.60 111.04
  C 689.57 108.84 689.05 106.66 689.05 104.51
  C 689.00 80.00 688.96 66.76 688.94 64.81
  C 688.83 53.15 685.48 42.52 672.75 39.49
  C 666.70 38.05 659.80 37.80 652.04 38.73
  C 642.70 39.85 629.52 44.46 628.53 55.24
  C 628.18 59.03 629.40 61.82 632.19 63.61
  C 637.51 67.02 646.02 66.33 647.99 59.26
  C 648.44 57.65 649.11 55.16 650.00 51.79
  C 650.93 48.26 653.07 46.15 656.44 45.44
  C 664.88 43.67 669.48 49.24 670.20 57.04
  C 670.70 62.45 670.87 68.16 670.70 74.19
  C 670.69 74.53 670.51 74.70 670.17 74.70
  C 665.28 74.73 659.48 75.34 652.79 76.53
  C 641.04 78.63 627.07 84.49 625.42 97.83
  C 624.61 104.33 626.43 109.78 630.87 114.18
  C 636.66 119.92 645.04 122.02 653.08 120.54
  C 659.96 119.28 665.78 115.93 670.55 110.48
  C 670.77 110.23 671.19 110.34 671.26 110.67
  C 672.59 117.21 676.61 120.62 683.32 120.90
  C 689.47 121.16 695.44 120.34 701.23 118.43
  C 703.60 117.65 703.77 117.98 701.75 119.43
  C 699.73 120.87 697.70 123.03 695.65 125.91
  C 689.25 134.90 695.04 144.84 703.35 149.43
  C 709.04 152.57 715.38 154.43 722.37 155.00
  L 0.00 155.00
  L 0.00 119.31
  L 39.78 119.33
  C 40.33 119.33 40.60 119.06 40.60 118.51
  L 40.60 114.92
  C 40.60 114.35 40.31 114.02 39.74 113.95
  C 35.16 113.38 29.43 114.00 27.50 109.24
  C 26.74 107.37 26.36 105.20 26.36 102.75
  C 26.32 64.06 26.30 37.46 26.31 22.94
  C 26.31 21.90 26.49 21.87 26.84 22.85
  L 61.11 119.01
  C 61.18 119.22 61.33 119.32 61.54 119.32
  L 73.52 119.32
  C 73.81 119.32 74.06 119.14 74.16 118.87
  C 92.59 67.36 103.79 35.70 107.78 23.89
  C 108.02 23.18 108.15 22.79 108.18 22.74
  C 108.72 21.63 108.99 21.69 108.99 22.90
  C 109.02 62.53 109.02 88.73 108.98 101.50
  C 108.97 105.23 108.40 107.99 107.27 109.79
  C 105.93 111.94 103.99 113.15 101.44 113.40
  C 99.94 113.55 97.68 113.75 94.67 114.02
  C 94.52 114.03 94.44 114.12 94.44 114.27
  L 94.44 119.01
  C 94.44 119.18 94.58 119.32 94.76 119.32
  L 181.76 119.32
  C 182.14 119.32 182.33 119.13 182.33 118.75
  L 182.33 114.96
  C 182.33 114.61 182.15 114.43 181.80 114.42
  C 179.34 114.35 177.72 114.24 176.93 114.08
  C 172.74 113.25 170.40 110.71 169.91 106.46
  C 169.54 103.14 169.35 101.01 169.34 100.07
  C 169.32 81.40 169.32 60.92 169.33 38.65
  C 169.33 38.35 169.06 38.12 168.76 38.16
  L 138.46 42.30
  C 138.32 42.32 138.25 42.40 138.25 42.54
  L 138.25 47.04
  C 138.25 47.25 138.35 47.34 138.56 47.33
  C 146.77 46.88 150.90 50.53 150.95 58.28
  C 151.02 68.41 151.03 83.07 150.97 102.26
  C 150.97 104.88 150.49 108.93 149.06 110.80
  C 145.80 115.05 138.82 114.76 134.04 113.57
  C 130.41 112.66 128.49 110.10 127.94 106.56
  C 127.53 103.95 127.33 101.51 127.33 99.25
  C 127.28 55.55 127.33 30.72 127.49 24.75
  C 127.58 21.56 127.68 19.47 127.80 18.50
  C 128.80 10.66 134.71 10.14 141.30 10.37
  C 141.54 10.38 141.74 10.18 141.74 9.94
  L 141.74 5.20
  C 141.74 4.86 141.57 4.69 141.23 4.69
  L 104.01 4.69
  C 103.63 4.69 103.37 4.87 103.24 5.23
  L 70.81 96.05
  C 70.64 96.51 70.48 96.51 70.32 96.05
  L 37.95 5.21
  C 37.85 4.94 37.66 4.80 37.37 4.80
  L 0.00 4.74
  L 0.00 0.00
  L 275.20 0.00
  Z
  M 171.83 14.36
  C 171.83 8.13 166.78 3.08 160.55 3.08
  C 154.32 3.08 149.27 8.13 149.27 14.36
  C 149.27 20.59 154.32 25.64 160.55 25.64
  C 166.78 25.64 171.83 20.59 171.83 14.36
  Z
  M 572.67 68.95
  C 580.70 69.20 588.08 69.01 594.81 68.39
  C 598.98 68.00 603.27 67.01 607.67 65.40
  C 618.80 61.35 624.99 53.23 626.25 41.03
  C 627.55 28.58 623.75 16.39 612.63 10.35
  C 607.18 7.40 601.05 5.68 594.24 5.20
  C 592.59 5.09 590.10 4.97 586.75 4.85
  C 584.30 4.76 568.22 4.71 538.51 4.71
  C 538.16 4.71 537.99 4.89 537.99 5.24
  L 537.99 9.78
  C 537.99 10.09 538.26 10.34 538.57 10.32
  C 540.15 10.21 542.17 10.31 544.62 10.63
  C 551.04 11.47 552.43 16.42 552.44 22.01
  C 552.49 56.27 552.50 82.70 552.47 101.30
  C 552.46 107.26 551.33 112.80 544.26 113.53
  C 542.22 113.74 540.30 113.88 538.50 113.97
  C 538.15 113.99 537.98 114.17 537.98 114.52
  L 537.98 118.76
  C 537.98 119.11 538.16 119.29 538.51 119.29
  L 586.25 119.29
  C 586.62 119.29 586.80 119.11 586.80 118.74
  L 586.80 114.68
  C 586.80 114.33 586.54 114.03 586.19 114.00
  C 579.97 113.39 573.70 113.90 572.86 105.73
  C 572.50 102.29 572.32 100.04 572.32 98.99
  C 572.29 91.40 572.28 81.51 572.29 69.31
  C 572.29 69.11 572.46 68.94 572.67 68.95
  Z
  M 239.68 117.00
  C 240.11 116.81 240.32 116.49 240.32 116.03
  L 240.32 110.04
  C 240.32 109.70 239.99 109.45 239.66 109.54
  C 232.67 111.39 227.95 112.30 225.49 112.28
  C 214.66 112.18 206.91 107.33 202.23 97.73
  C 196.81 86.63 195.92 72.62 197.87 60.50
  C 199.28 51.75 203.07 44.46 212.95 45.21
  C 216.45 45.47 218.67 48.43 219.04 51.55
  C 219.85 58.27 220.98 65.60 228.95 65.99
  C 236.28 66.34 242.05 61.53 240.47 53.98
  C 238.44 44.23 226.69 39.49 217.76 38.52
  C 198.97 36.48 182.79 44.32 178.56 63.84
  C 176.82 71.85 176.76 80.34 178.39 89.31
  C 183.13 115.47 202.98 123.45 227.42 120.34
  C 231.67 119.80 235.76 118.69 239.68 117.00
  Z
  M 382.91 74.67
  C 375.18 74.84 367.77 75.84 360.66 77.65
  C 354.75 79.15 349.87 81.43 346.02 84.50
  C 335.58 92.80 335.11 107.54 345.51 115.82
  C 348.54 118.23 351.95 119.79 355.73 120.48
  C 366.20 122.40 376.45 118.49 383.31 110.50
  C 383.53 110.24 383.95 110.35 384.02 110.68
  C 385.33 117.09 389.21 120.48 395.67 120.86
  C 402.28 121.25 408.83 120.29 415.31 117.98
  C 415.77 117.82 416.00 117.49 416.00 117.00
  L 416.00 112.98
  C 416.00 112.59 415.60 112.32 415.24 112.46
  C 410.78 114.19 404.93 115.66 402.91 109.86
  C 402.11 107.57 401.71 105.21 401.72 102.76
  C 401.79 84.91 401.76 71.70 401.64 63.13
  C 401.59 59.77 401.10 56.48 400.15 53.26
  C 397.90 45.65 392.88 41.03 385.10 39.42
  C 374.98 37.33 365.16 37.81 355.63 40.86
  C 349.26 42.91 342.37 47.30 341.38 54.47
  C 340.30 62.32 346.40 66.41 353.53 65.42
  C 357.49 64.87 359.97 62.65 360.97 58.74
  C 361.88 55.16 362.54 52.65 362.94 51.21
  C 363.79 48.14 365.80 46.26 368.99 45.56
  C 374.02 44.45 377.78 45.58 380.27 48.93
  C 381.69 50.85 382.64 54.02 383.11 58.45
  C 383.52 62.32 383.68 65.67 383.61 68.51
  C 383.54 71.15 383.48 73.04 383.43 74.17
  C 383.42 74.50 383.24 74.66 382.91 74.67
  Z
  M 428.56 71.93
  C 428.57 71.72 428.73 71.56 428.94 71.56
  L 475.97 71.56
  C 476.32 71.56 476.51 71.38 476.53 71.03
  C 476.96 60.43 473.72 48.89 464.37 42.93
  C 457.30 38.42 448.69 37.84 440.07 38.38
  C 422.42 39.46 411.72 50.51 409.34 67.69
  C 407.85 78.48 408.83 91.15 413.69 100.69
  C 419.58 112.28 429.61 118.89 443.77 120.53
  C 454.30 121.75 464.64 120.40 474.81 116.49
  C 474.93 116.44 474.99 116.36 474.99 116.23
  L 474.99 109.30
  C 474.99 109.15 474.85 109.05 474.71 109.10
  C 468.30 111.43 462.50 112.45 457.29 112.15
  C 436.15 110.93 428.32 89.94 428.56 71.93
  Z"
/>
<path d="
  M 0.00 113.99
  L 0.00 10.28
  C 4.89 10.38 11.18 10.18 13.26 15.60
  C 13.89 17.22 14.20 19.30 14.21 21.83
  C 14.30 60.72 14.29 87.52 14.19 102.25
  C 14.15 107.10 12.95 112.15 7.78 113.32
  C 6.53 113.60 3.94 113.82 0.00 113.99
  Z"
/>
<path d="
  M 572.38 23.56
  C 572.41 21.09 572.75 19.04 573.38 17.40
  C 574.04 15.67 575.48 14.44 577.34 14.17
  C 581.77 13.54 586.48 13.67 591.47 14.56
  C 603.97 16.80 606.25 27.26 605.89 38.36
  C 605.74 43.28 604.83 47.29 603.18 50.39
  C 600.22 55.93 594.91 59.01 587.24 59.63
  C 580.71 60.15 575.93 60.36 572.90 60.25
  C 572.51 60.24 572.32 60.04 572.32 59.65
  C 572.25 43.72 572.27 31.69 572.38 23.56
  Z"
/>
<path d="
  M 428.95 63.24
  C 428.63 63.24 428.48 63.08 428.49 62.76
  C 429.03 52.93 434.91 44.39 445.71 45.22
  C 455.58 45.97 458.10 54.27 458.28 62.69
  C 458.29 62.99 458.04 63.24 457.74 63.24
  L 428.95 63.24
  Z"
/>
<path d="
  M 728.84 45.21
  C 740.40 45.32 742.25 57.65 742.17 66.38
  C 742.09 75.10 740.01 87.40 728.46 87.29
  C 716.90 87.19 715.05 74.86 715.12 66.13
  C 715.21 57.40 717.28 45.11 728.84 45.21
  Z"
/>
<path d="
  M 787.11 63.25
  C 787.00 63.25 786.91 63.16 786.91 63.05
  L 786.90 61.49
  C 786.89 52.48 792.99 45.18 800.54 45.16
  L 802.70 45.16
  C 810.25 45.14 816.39 52.43 816.40 61.43
  L 816.41 62.99
  C 816.41 63.10 816.32 63.19 816.21 63.19
  L 787.11 63.25
  Z"
/>
<path d="
  M 383.13 81.98
  C 383.17 82.01 383.19 82.04 383.20 82.05
  C 383.24 82.10 383.26 82.16 383.27 82.23
  C 383.82 89.61 383.52 95.17 382.37 98.90
  C 379.93 106.90 374.56 110.58 366.27 109.93
  C 364.46 109.78 362.79 109.06 361.26 107.77
  C 359.73 106.48 358.75 104.95 358.31 103.18
  C 356.32 95.11 359.07 89.21 366.56 85.49
  C 370.05 83.75 375.49 82.55 382.86 81.88
  C 382.93 81.87 382.99 81.89 383.05 81.92
  C 383.06 81.92 383.09 81.94 383.13 81.98
  Z"
/>
<path d="
  M 670.36 81.99
  C 670.39 82.01 670.41 82.04 670.44 82.07
  C 670.48 82.10 670.50 82.17 670.51 82.27
  C 670.97 87.81 670.85 92.60 670.16 96.64
  C 668.98 103.48 665.45 107.74 659.57 109.42
  C 655.02 110.72 651.32 110.17 648.49 107.76
  C 645.65 105.35 644.50 101.80 645.05 97.09
  C 645.75 91.02 649.38 86.84 655.94 84.57
  C 659.81 83.23 664.52 82.33 670.06 81.89
  C 670.16 81.88 670.23 81.89 670.27 81.92
  C 670.30 81.94 670.33 81.97 670.36 81.99
  Z"
/>
<path d="
  M 712.22 140.82
  C 706.09 135.08 705.23 128.72 709.65 121.74
  C 709.83 121.45 710.09 121.30 710.44 121.30
  C 726.83 121.27 737.68 121.28 742.99 121.32
  C 747.40 121.35 754.03 122.63 756.12 126.82
  C 757.61 129.80 757.22 132.86 754.93 135.99
  C 748.50 144.84 735.09 148.17 724.40 146.59
  C 719.65 145.90 715.59 143.97 712.22 140.82
  Z"
/>
</g>
<g fill="#014fa2">
<path d="
  M 277.29 0.00
  L 277.28 56.23
  C 277.28 57.04 277.47 57.09 277.85 56.38
  C 281.31 49.94 287.31 43.18 294.00 40.38
  C 300.19 37.79 306.77 37.44 313.75 39.35
  C 323.98 42.15 326.15 51.39 326.09 60.75
  C 325.92 84.22 325.94 97.89 326.16 101.75
  C 326.32 104.54 326.51 106.47 326.72 107.52
  C 327.96 113.56 332.87 114.24 338.22 114.39
  C 338.58 114.40 338.76 114.59 338.76 114.94
  L 338.76 118.78
  C 338.76 119.14 338.58 119.32 338.21 119.32
  L 295.53 119.32
  C 295.18 119.32 295.00 119.14 295.00 118.79
  L 295.00 114.96
  C 295.00 114.63 295.16 114.46 295.49 114.45
  C 303.41 114.34 307.54 111.92 307.61 103.71
  C 307.74 89.77 307.75 78.88 307.65 71.05
  C 307.58 65.37 307.45 59.25 305.25 54.28
  C 302.78 48.71 295.50 48.66 291.35 51.87
  C 285.40 56.45 281.15 62.58 278.60 70.25
  C 277.59 73.27 277.15 77.53 277.28 83.04
  C 277.29 83.61 277.32 89.66 277.35 101.17
  C 277.38 110.34 279.47 114.48 289.34 114.40
  C 289.79 114.39 290.01 114.61 290.01 115.06
  L 290.01 118.54
  C 290.01 119.06 289.75 119.32 289.23 119.32
  L 246.53 119.32
  C 246.38 119.32 246.26 119.19 246.26 119.04
  L 246.26 114.64
  C 246.26 114.45 246.35 114.36 246.54 114.37
  C 253.75 114.64 257.70 112.16 258.37 106.93
  C 258.62 104.96 258.99 102.99 258.99 101.00
  C 259.02 61.80 259.01 35.25 258.94 21.35
  C 258.93 18.54 258.33 15.89 257.15 13.41
  C 256.51 12.06 255.20 10.93 253.23 10.01
  C 251.56 9.24 249.45 8.87 246.89 8.90
  C 246.46 8.91 246.24 8.69 246.24 8.26
  L 246.24 4.54
  C 246.24 4.19 246.42 3.99 246.77 3.94
  L 275.20 0.00
  L 277.29 0.00
  Z"
/>
<path d="
  M 512.30 0.00
  C 512.35 34.08 512.33 68.16 512.26 102.25
  C 512.26 103.78 512.40 105.30 512.68 106.81
  C 513.95 113.60 518.38 114.21 524.46 114.42
  C 524.83 114.43 525.01 114.62 525.01 114.99
  L 525.01 118.78
  C 525.01 119.14 524.83 119.32 524.47 119.32
  L 481.53 119.32
  C 481.18 119.32 481.00 119.14 481.00 118.79
  L 481.00 114.96
  C 481.00 114.62 481.17 114.45 481.51 114.44
  C 486.64 114.33 491.57 113.74 493.05 108.08
  C 493.56 106.14 493.80 104.11 493.79 102.00
  C 493.72 90.44 493.68 64.13 493.67 23.06
  C 493.66 18.82 493.33 15.95 492.66 14.44
  C 491.27 11.33 488.65 9.52 484.79 9.02
  C 484.46 8.97 483.48 8.93 481.86 8.89
  C 481.27 8.88 480.98 8.58 480.98 7.99
  L 480.98 4.91
  C 480.98 4.31 481.28 3.97 481.88 3.88
  L 510.14 0.00
  L 512.30 0.00
  Z"
/>
<circle cx="160.55" cy="14.36" r="11.28"/>
<path d="
  M 0.00 119.31
  L 0.00 113.99
  C 3.94 113.82 6.53 113.60 7.78 113.32
  C 12.95 112.15 14.15 107.10 14.19 102.25
  C 14.29 87.52 14.30 60.72 14.21 21.83
  C 14.20 19.30 13.89 17.22 13.26 15.60
  C 11.18 10.18 4.89 10.38 0.00 10.28
  L 0.00 4.74
  L 37.37 4.80
  C 37.66 4.80 37.85 4.94 37.95 5.21
  L 70.32 96.05
  C 70.48 96.51 70.64 96.51 70.81 96.05
  L 103.24 5.23
  C 103.37 4.87 103.63 4.69 104.01 4.69
  L 141.23 4.69
  C 141.57 4.69 141.74 4.86 141.74 5.20
  L 141.74 9.94
  C 141.74 10.18 141.54 10.38 141.30 10.37
  C 134.71 10.14 128.80 10.66 127.80 18.50
  C 127.68 19.47 127.58 21.56 127.49 24.75
  C 127.33 30.72 127.28 55.55 127.33 99.25
  C 127.33 101.51 127.53 103.95 127.94 106.56
  C 128.49 110.10 130.41 112.66 134.04 113.57
  C 138.82 114.76 145.80 115.05 149.06 110.80
  C 150.49 108.93 150.97 104.88 150.97 102.26
  C 151.03 83.07 151.02 68.41 150.95 58.28
  C 150.90 50.53 146.77 46.88 138.56 47.33
  C 138.35 47.34 138.25 47.25 138.25 47.04
  L 138.25 42.54
  C 138.25 42.40 138.32 42.32 138.46 42.30
  L 168.76 38.16
  C 169.06 38.12 169.33 38.35 169.33 38.65
  C 169.32 60.92 169.32 81.40 169.34 100.07
  C 169.35 101.01 169.54 103.14 169.91 106.46
  C 170.40 110.71 172.74 113.25 176.93 114.08
  C 177.72 114.24 179.34 114.35 181.80 114.42
  C 182.15 114.43 182.33 114.61 182.33 114.96
  L 182.33 118.75
  C 182.33 119.13 182.14 119.32 181.76 119.32
  L 94.76 119.32
  C 94.58 119.32 94.44 119.18 94.44 119.01
  L 94.44 114.27
  C 94.44 114.12 94.52 114.03 94.67 114.02
  C 97.68 113.75 99.94 113.55 101.44 113.40
  C 103.99 113.15 105.93 111.94 107.27 109.79
  C 108.40 107.99 108.97 105.23 108.98 101.50
  C 109.02 88.73 109.02 62.53 108.99 22.90
  C 108.99 21.69 108.72 21.63 108.18 22.74
  C 108.15 22.79 108.02 23.18 107.78 23.89
  C 103.79 35.70 92.59 67.36 74.16 118.87
  C 74.06 119.14 73.81 119.32 73.52 119.32
  L 61.54 119.32
  C 61.33 119.32 61.18 119.22 61.11 119.01
  L 26.84 22.85
  C 26.49 21.87 26.31 21.90 26.31 22.94
  C 26.30 37.46 26.32 64.06 26.36 102.75
  C 26.36 105.20 26.74 107.37 27.50 109.24
  C 29.43 114.00 35.16 113.38 39.74 113.95
  C 40.31 114.02 40.60 114.35 40.60 114.92
  L 40.60 118.51
  C 40.60 119.06 40.33 119.33 39.78 119.33
  L 0.00 119.31
  Z"
/>
<path d="
  M 239.68 117.00
  C 235.76 118.69 231.67 119.80 227.42 120.34
  C 202.98 123.45 183.13 115.47 178.39 89.31
  C 176.76 80.34 176.82 71.85 178.56 63.84
  C 182.79 44.32 198.97 36.48 217.76 38.52
  C 226.69 39.49 238.44 44.23 240.47 53.98
  C 242.05 61.53 236.28 66.34 228.95 65.99
  C 220.98 65.60 219.85 58.27 219.04 51.55
  C 218.67 48.43 216.45 45.47 212.95 45.21
  C 203.07 44.46 199.28 51.75 197.87 60.50
  C 195.92 72.62 196.81 86.63 202.23 97.73
  C 206.91 107.33 214.66 112.18 225.49 112.28
  C 227.95 112.30 232.67 111.39 239.66 109.54
  C 239.99 109.45 240.32 109.70 240.32 110.04
  L 240.32 116.03
  C 240.32 116.49 240.11 116.81 239.68 117.00
  Z"
/>
<path d="
  M 383.43 74.17
  C 383.48 73.04 383.54 71.15 383.61 68.51
  C 383.68 65.67 383.52 62.32 383.11 58.45
  C 382.64 54.02 381.69 50.85 380.27 48.93
  C 377.78 45.58 374.02 44.45 368.99 45.56
  C 365.80 46.26 363.79 48.14 362.94 51.21
  C 362.54 52.65 361.88 55.16 360.97 58.74
  C 359.97 62.65 357.49 64.87 353.53 65.42
  C 346.40 66.41 340.30 62.32 341.38 54.47
  C 342.37 47.30 349.26 42.91 355.63 40.86
  C 365.16 37.81 374.98 37.33 385.10 39.42
  C 392.88 41.03 397.90 45.65 400.15 53.26
  C 401.10 56.48 401.59 59.77 401.64 63.13
  C 401.76 71.70 401.79 84.91 401.72 102.76
  C 401.71 105.21 402.11 107.57 402.91 109.86
  C 404.93 115.66 410.78 114.19 415.24 112.46
  C 415.60 112.32 416.00 112.59 416.00 112.98
  L 416.00 117.00
  C 416.00 117.49 415.77 117.82 415.31 117.98
  C 408.83 120.29 402.28 121.25 395.67 120.86
  C 389.21 120.48 385.33 117.09 384.02 110.68
  C 383.95 110.35 383.53 110.24 383.31 110.50
  C 376.45 118.49 366.20 122.40 355.73 120.48
  C 351.95 119.79 348.54 118.23 345.51 115.82
  C 335.11 107.54 335.58 92.80 346.02 84.50
  C 349.87 81.43 354.75 79.15 360.66 77.65
  C 367.77 75.84 375.18 74.84 382.91 74.67
  C 383.24 74.66 383.42 74.50 383.43 74.17
  Z
  M 361.26 107.77
  C 362.79 109.06 364.46 109.78 366.27 109.93
  C 374.56 110.58 379.93 106.90 382.37 98.90
  C 383.52 95.17 383.82 89.61 383.27 82.23
  C 383.26 82.16 383.24 82.10 383.20 82.05
  C 383.19 82.04 383.17 82.01 383.13 81.98
  C 383.09 81.94 383.06 81.92 383.05 81.92
  C 382.99 81.89 382.93 81.87 382.86 81.88
  C 375.49 82.55 370.05 83.75 366.56 85.49
  C 359.07 89.21 356.32 95.11 358.31 103.18
  C 358.75 104.95 359.73 106.48 361.26 107.77
  Z"
/>
<path d="
  M 428.56 71.93
  C 428.32 89.94 436.15 110.93 457.29 112.15
  C 462.50 112.45 468.30 111.43 474.71 109.10
  C 474.85 109.05 474.99 109.15 474.99 109.30
  L 474.99 116.23
  C 474.99 116.36 474.93 116.44 474.81 116.49
  C 464.64 120.40 454.30 121.75 443.77 120.53
  C 429.61 118.89 419.58 112.28 413.69 100.69
  C 408.83 91.15 407.85 78.48 409.34 67.69
  C 411.72 50.51 422.42 39.46 440.07 38.38
  C 448.69 37.84 457.30 38.42 464.37 42.93
  C 473.72 48.89 476.96 60.43 476.53 71.03
  C 476.51 71.38 476.32 71.56 475.97 71.56
  L 428.94 71.56
  C 428.73 71.56 428.57 71.72 428.56 71.93
  Z
  M 428.95 63.24
  L 457.74 63.24
  C 458.04 63.24 458.29 62.99 458.28 62.69
  C 458.10 54.27 455.58 45.97 445.71 45.22
  C 434.91 44.39 429.03 52.93 428.49 62.76
  C 428.48 63.08 428.63 63.24 428.95 63.24
  Z"
/>
</g>
<g fill="#6e6f72">
<path d="
  M 572.67 68.95
  C 572.46 68.94 572.29 69.11 572.29 69.31
  C 572.28 81.51 572.29 91.40 572.32 98.99
  C 572.32 100.04 572.50 102.29 572.86 105.73
  C 573.70 113.90 579.97 113.39 586.19 114.00
  C 586.54 114.03 586.80 114.33 586.80 114.68
  L 586.80 118.74
  C 586.80 119.11 586.62 119.29 586.25 119.29
  L 538.51 119.29
  C 538.16 119.29 537.98 119.11 537.98 118.76
  L 537.98 114.52
  C 537.98 114.17 538.15 113.99 538.50 113.97
  C 540.30 113.88 542.22 113.74 544.26 113.53
  C 551.33 112.80 552.46 107.26 552.47 101.30
  C 552.50 82.70 552.49 56.27 552.44 22.01
  C 552.43 16.42 551.04 11.47 544.62 10.63
  C 542.17 10.31 540.15 10.21 538.57 10.32
  C 538.26 10.34 537.99 10.09 537.99 9.78
  L 537.99 5.24
  C 537.99 4.89 538.16 4.71 538.51 4.71
  C 568.22 4.71 584.30 4.76 586.75 4.85
  C 590.10 4.97 592.59 5.09 594.24 5.20
  C 601.05 5.68 607.18 7.40 612.63 10.35
  C 623.75 16.39 627.55 28.58 626.25 41.03
  C 624.99 53.23 618.80 61.35 607.67 65.40
  C 603.27 67.01 598.98 68.00 594.81 68.39
  C 588.08 69.01 580.70 69.20 572.67 68.95
  Z
  M 572.38 23.56
  C 572.27 31.69 572.25 43.72 572.32 59.65
  C 572.32 60.04 572.51 60.24 572.90 60.25
  C 575.93 60.36 580.71 60.15 587.24 59.63
  C 594.91 59.01 600.22 55.93 603.18 50.39
  C 604.83 47.29 605.74 43.28 605.89 38.36
  C 606.25 27.26 603.97 16.80 591.47 14.56
  C 586.48 13.67 581.77 13.54 577.34 14.17
  C 575.48 14.44 574.04 15.67 573.38 17.40
  C 572.75 19.04 572.41 21.09 572.38 23.56
  Z"
/>
<path d="
  M 734.96 155.00
  L 722.37 155.00
  C 715.38 154.43 709.04 152.57 703.35 149.43
  C 695.04 144.84 689.25 134.90 695.65 125.91
  C 697.70 123.03 699.73 120.87 701.75 119.43
  C 703.77 117.98 703.60 117.65 701.23 118.43
  C 695.44 120.34 689.47 121.16 683.32 120.90
  C 676.61 120.62 672.59 117.21 671.26 110.67
  C 671.19 110.34 670.77 110.23 670.55 110.48
  C 665.78 115.93 659.96 119.28 653.08 120.54
  C 645.04 122.02 636.66 119.92 630.87 114.18
  C 626.43 109.78 624.61 104.33 625.42 97.83
  C 627.07 84.49 641.04 78.63 652.79 76.53
  C 659.48 75.34 665.28 74.73 670.17 74.70
  C 670.51 74.70 670.69 74.53 670.70 74.19
  C 670.87 68.16 670.70 62.45 670.20 57.04
  C 669.48 49.24 664.88 43.67 656.44 45.44
  C 653.07 46.15 650.93 48.26 650.00 51.79
  C 649.11 55.16 648.44 57.65 647.99 59.26
  C 646.02 66.33 637.51 67.02 632.19 63.61
  C 629.40 61.82 628.18 59.03 628.53 55.24
  C 629.52 44.46 642.70 39.85 652.04 38.73
  C 659.80 37.80 666.70 38.05 672.75 39.49
  C 685.48 42.52 688.83 53.15 688.94 64.81
  C 688.96 66.76 689.00 80.00 689.05 104.51
  C 689.05 106.66 689.57 108.84 690.60 111.04
  C 691.37 112.70 692.71 113.63 694.62 113.82
  C 695.01 113.86 695.83 113.91 697.10 113.98
  C 698.93 114.07 699.49 113.27 698.79 111.58
  C 697.81 109.21 697.95 106.17 699.21 102.44
  C 700.89 97.44 704.36 93.18 707.66 89.23
  C 707.97 88.86 707.92 88.54 707.53 88.27
  C 701.90 84.43 698.46 79.53 697.21 73.56
  C 695.99 67.73 696.25 62.13 697.98 56.74
  C 702.58 42.48 717.04 37.72 730.78 38.24
  C 735.17 38.40 739.38 39.36 743.41 41.11
  C 745.02 41.81 746.07 42.25 746.58 42.43
  C 746.90 42.54 747.13 42.44 747.27 42.13
  C 750.06 35.94 754.59 27.80 761.93 25.18
  C 769.16 22.60 776.49 26.97 775.95 35.01
  C 775.52 41.50 770.29 45.22 764.03 44.09
  C 761.95 43.72 759.65 41.88 757.96 40.98
  C 757.31 40.63 756.51 40.66 755.89 41.06
  C 754.44 41.99 753.20 43.56 752.18 45.77
  C 752.03 46.09 752.09 46.36 752.35 46.58
  C 757.10 50.61 759.86 55.78 760.65 62.07
  C 760.79 63.22 760.83 65.14 760.78 67.83
  C 760.49 82.97 748.96 92.30 734.74 93.72
  C 727.13 94.49 720.58 93.89 715.11 91.94
  C 714.76 91.81 714.47 91.90 714.25 92.21
  C 709.78 98.26 710.65 104.24 719.33 104.24
  C 734.42 104.23 743.64 104.25 747.01 104.28
  C 751.17 104.33 755.14 104.92 758.91 106.07
  C 766.90 108.50 771.47 113.76 772.61 121.85
  C 773.29 126.64 772.39 131.25 769.92 135.69
  C 767.50 140.04 763.94 143.72 759.23 146.72
  C 751.91 151.39 743.82 154.15 734.96 155.00
  Z
  M 715.12 66.13
  C 715.05 74.86 716.90 87.19 728.46 87.29
  C 740.01 87.40 742.09 75.10 742.17 66.38
  C 742.25 57.65 740.40 45.32 728.84 45.21
  C 717.28 45.11 715.21 57.40 715.12 66.13
  Z
  M 648.49 107.76
  C 651.32 110.17 655.02 110.72 659.57 109.42
  C 665.45 107.74 668.98 103.48 670.16 96.64
  C 670.85 92.60 670.97 87.81 670.51 82.27
  C 670.50 82.17 670.48 82.10 670.44 82.07
  C 670.41 82.04 670.39 82.01 670.36 81.99
  C 670.33 81.97 670.30 81.94 670.27 81.92
  C 670.23 81.89 670.16 81.88 670.06 81.89
  C 664.52 82.33 659.81 83.23 655.94 84.57
  C 649.38 86.84 645.75 91.02 645.05 97.09
  C 644.50 101.80 645.65 105.35 648.49 107.76
  Z
  M 712.22 140.82
  C 715.59 143.97 719.65 145.90 724.40 146.59
  C 735.09 148.17 748.50 144.84 754.93 135.99
  C 757.22 132.86 757.61 129.80 756.12 126.82
  C 754.03 122.63 747.40 121.35 742.99 121.32
  C 737.68 121.28 726.83 121.27 710.44 121.30
  C 710.09 121.30 709.83 121.45 709.65 121.74
  C 705.23 128.72 706.09 135.08 712.22 140.82
  Z"
/>
<path d="
  M 834.00 62.41
  L 834.00 71.50
  L 786.97 71.51
  C 786.63 71.51 786.46 71.68 786.46 72.02
  C 786.37 79.19 787.66 86.23 790.33 93.14
  C 794.82 104.79 803.12 111.14 815.25 112.20
  C 819.84 112.60 825.66 111.57 832.69 109.11
  C 832.84 109.06 832.99 109.16 832.99 109.32
  L 832.99 116.08
  C 832.99 116.29 832.89 116.44 832.69 116.52
  C 818.45 121.93 800.84 123.18 786.97 116.28
  C 776.05 110.85 769.67 100.30 767.64 88.14
  C 766.01 78.40 766.40 69.29 768.80 60.82
  C 771.98 49.61 779.84 42.16 791.14 39.44
  C 794.89 38.54 799.51 38.13 804.99 38.21
  C 816.27 38.38 827.08 43.11 831.57 53.94
  C 832.54 56.28 833.35 59.10 834.00 62.41
  Z
  M 787.11 63.25
  L 816.21 63.19
  C 816.32 63.19 816.41 63.10 816.41 62.99
  L 816.40 61.43
  C 816.39 52.43 810.25 45.14 802.70 45.16
  L 800.54 45.16
  C 792.99 45.18 786.89 52.48 786.90 61.49
  L 786.91 63.05
  C 786.91 63.16 787.00 63.25 787.11 63.25
  Z"
/>
</g>
</svg>
