<svg xmlns="http://www.w3.org/2000/svg" xml:space="preserve" fill-rule="evenodd" stroke-linejoin="round" stroke-miterlimit="2" clip-rule="evenodd" preserveAspectRatio="xMinYMin" viewBox="0 0 3475 646"><path fill="#014fa2" fill-rule="nonzero" d="m1155.38 0-.042 234.292q0 5.062 2.375.625c14.417-26.834 39.417-55 67.292-66.667 25.792-10.792 53.208-12.25 82.292-4.292 42.625 11.667 51.666 50.167 51.416 89.167-.708 97.792-.625 154.75.292 170.833.667 11.625 1.458 19.667 2.333 24.042 5.167 25.167 25.625 28 47.917 28.625 1.5.042 2.25.833 2.25 2.292v16c0 1.5-.75 2.25-2.292 2.25H1231.38c-1.458 0-2.208-.75-2.208-2.209V479c0-1.375.666-2.083 2.041-2.125 33-.458 50.209-10.542 50.5-44.75.542-58.083.584-103.458.167-136.083-.292-23.667-.833-49.167-10-69.875-10.292-23.209-40.625-23.417-57.917-10.042-24.791 19.083-42.5 44.625-53.125 76.583-4.208 12.584-6.041 30.334-5.5 53.292.042 2.375.167 27.583.292 75.542.125 38.208 8.833 55.458 49.958 55.125 1.875-.042 2.792.875 2.792 2.75v14.5q0 3.25-3.25 3.25h-177.917c-.625 0-1.125-.542-1.125-1.167v-18.333c0-.792.375-1.167 1.167-1.125 30.042 1.125 46.5-9.209 49.292-31 1.041-8.209 2.583-16.417 2.583-24.709.125-163.333.083-273.958-.208-331.875-.042-11.708-2.542-22.75-7.459-33.083-2.666-5.625-8.125-10.333-16.333-14.167-6.958-3.208-15.75-4.75-26.417-4.625-1.791.042-2.708-.875-2.708-2.666v-15.5c0-1.459.75-2.292 2.208-2.5L1146.672 0zm979.208 0c.209 142 .125 284-.166 426.042q0 9.562 1.75 19c5.291 28.291 23.75 30.833 49.083 31.708 1.542.042 2.292.833 2.292 2.375v15.792q0 2.25-2.25 2.25H2006.38c-1.458 0-2.208-.75-2.208-2.209V479c0-1.417.708-2.125 2.125-2.167 21.375-.458 41.916-2.916 48.083-26.5 2.125-8.083 3.125-16.541 3.083-25.333-.291-48.167-.458-157.792-.5-328.917-.041-17.666-1.416-29.625-4.208-35.916-5.792-12.959-16.708-20.5-32.792-22.584-1.375-.208-5.458-.375-12.208-.541-2.458-.042-3.667-1.292-3.667-3.75V20.458c0-2.5 1.25-3.916 3.75-4.291L2125.588 0z"/><circle cx="668.958" cy="59.833" r="47" fill="#014fa2"/><path fill="#014fa2" fill-rule="nonzero" d="M0 497.125v-22.167c16.417-.708 27.208-1.625 32.417-2.791 21.541-4.875 26.541-25.917 26.708-46.125.417-61.375.458-173.042.083-335.084C59.167 80.417 57.875 71.75 55.25 65 46.583 42.417 20.375 43.25 0 42.833V19.75l155.708.25c1.209 0 2 .583 2.417 1.708L293 400.208c.667 1.917 1.333 1.917 2.042 0L430.167 21.792c.541-1.5 1.625-2.25 3.208-2.25h155.083q2.125 0 2.125 2.125v19.75c0 1-.833 1.833-1.833 1.791-27.458-.958-52.083 1.209-56.25 33.875-.5 4.042-.917 12.75-1.292 26.042-.666 24.875-.875 128.333-.666 310.417 0 9.416.833 19.583 2.541 30.458 2.292 14.75 10.292 25.417 25.417 29.208 19.917 4.959 49 6.167 62.583-11.541 5.959-7.792 7.959-24.667 7.959-35.584.25-79.958.208-141.041-.084-183.25q-.312-48.437-51.625-45.625c-.875.042-1.291-.333-1.291-1.208v-18.75q0-.875.875-1L703.167 159q.145-.021.291-.021c1.135 0 2.072.928 2.084 2.063-.042 92.791-.042 178.125.041 255.916q.063 5.875 2.375 26.625 3.063 26.563 29.25 31.75c3.292.667 10.042 1.125 20.292 1.417 1.458.042 2.208.792 2.208 2.25v15.792q0 2.375-2.375 2.375h-362.5c-.75 0-1.333-.584-1.333-1.292v-19.75c0-.625.333-1 .958-1.042 12.542-1.125 21.959-1.958 28.209-2.583 10.625-1.042 18.708-6.083 24.291-15.042 4.709-7.5 7.084-19 7.125-34.541.167-53.209.167-162.375.042-327.5 0-5.042-1.125-5.292-3.375-.667-.125.208-.667 1.833-1.667 4.792C432.458 148.75 385.792 280.667 309 495.292a2.84 2.84 0 0 1-2.667 1.875h-49.916c-.875 0-1.5-.417-1.792-1.292L111.833 95.208c-1.458-4.083-2.208-3.958-2.208.375-.042 60.5.042 171.334.208 332.542 0 10.208 1.584 19.25 4.75 27.042 8.042 19.833 31.917 17.25 51 19.625 2.375.291 3.584 1.666 3.584 4.041v14.959c0 2.291-1.125 3.416-3.417 3.416zm998.667-9.625c-16.334 7.042-33.375 11.667-51.084 13.917-101.833 12.958-184.541-20.292-204.291-129.292C736.5 334.75 736.75 299.375 744 266c17.625-81.333 85.042-114 163.333-105.5 37.209 4.042 86.167 23.792 94.625 64.417 6.584 31.458-17.458 51.5-48 50.041-33.208-1.625-37.916-32.166-41.291-60.166-1.542-13-10.792-25.334-25.375-26.417-41.167-3.125-56.959 27.25-62.834 63.708-8.125 50.5-4.416 108.875 18.167 155.125 19.5 40 51.792 60.209 96.917 60.625 10.25.084 29.916-3.708 59.041-11.416 1.375-.375 2.75.666 2.75 2.083v24.958c0 1.917-.875 3.25-2.666 4.042m598.958-178.458c.208-4.709.458-12.584.75-23.584.292-11.833-.375-25.791-2.083-41.916-1.959-18.459-5.917-31.667-11.834-39.667-10.375-13.958-26.041-18.667-47-14.042-13.291 2.917-21.666 10.75-25.208 23.542-1.667 6-4.417 16.458-8.208 31.375-4.167 16.292-14.5 25.542-31 27.833-29.709 4.125-55.125-12.916-50.625-45.625 4.125-29.875 32.833-48.166 59.375-56.708 39.708-12.708 80.625-14.708 122.791-6 32.417 6.708 53.334 25.958 62.709 57.667 3.958 13.416 6 27.125 6.208 41.125.5 35.708.625 90.75.333 165.125a87.9 87.9 0 0 0 4.959 29.583c8.416 24.167 32.791 18.042 51.375 10.833 1.5-.583 3.166.542 3.166 2.167v16.75c0 2.042-.958 3.417-2.875 4.083-27 9.625-54.291 13.625-81.833 12-26.917-1.583-43.083-15.708-48.542-42.416a1.7 1.7 0 0 0-2.958-.75C1568.542 493.708 1525.833 510 1482.208 502c-15.75-2.875-29.958-9.375-42.583-19.417-43.333-34.5-41.375-95.916 2.125-130.5 16.042-12.791 36.375-22.291 61-28.541 29.625-7.542 60.5-11.709 92.708-12.417 1.375-.042 2.125-.708 2.167-2.083m-92.375 140q9.562 8.062 20.875 9c34.542 2.708 56.917-12.625 67.083-45.959 4.792-15.541 6.042-38.708 3.75-69.458a1.5 1.5 0 0 0-.291-.75c-.042-.042-.125-.167-.292-.292-.167-.166-.292-.25-.333-.25a1.25 1.25 0 0 0-.792-.166c-30.708 2.791-53.375 7.791-67.917 15.041-31.208 15.5-42.666 40.084-34.375 73.709 1.834 7.375 5.917 13.75 12.292 19.125"/><path fill="#014fa2" fill-rule="nonzero" d="M1785.67 299.708c-1 75.042 31.625 162.5 119.708 167.584 21.708 1.25 45.875-3 72.583-12.709a.865.865 0 0 1 1.167.834v28.875c0 .541-.25.875-.75 1.083-42.375 16.292-85.458 21.917-129.333 16.833-59-6.833-100.792-34.375-125.334-82.666-20.25-39.75-24.333-92.542-18.125-137.5 9.917-71.584 54.5-117.625 128.042-122.125 35.917-2.25 71.792.166 101.25 18.958 38.958 24.833 52.458 72.917 50.667 117.083-.084 1.459-.875 2.209-2.334 2.209h-195.958c-.875 0-1.542.666-1.583 1.541m1.625-36.208h119.958c1.25 0 2.292-1.042 2.25-2.292-.75-35.083-11.25-69.666-52.375-72.791-45-3.459-69.5 32.125-71.75 73.083-.042 1.333.583 2 1.917 2"/><path fill="#6e6f72" fill-rule="nonzero" d="m2386.12 287.292-.071-.002a1.52 1.52 0 0 0-1.512 1.502c-.042 50.833 0 92.041.125 123.666 0 4.375.75 13.75 2.25 28.084 3.5 34.041 29.625 31.916 55.541 34.458 1.459.125 2.542 1.375 2.542 2.833v16.917c0 1.542-.75 2.292-2.292 2.292h-198.916c-1.459 0-2.209-.75-2.209-2.209v-17.666c0-1.459.709-2.209 2.167-2.292 7.5-.375 15.5-.958 24-1.833 29.458-3.042 34.167-26.125 34.208-50.959q.188-116.25-.125-330.375c-.041-23.291-5.833-43.916-32.583-47.416-10.208-1.334-18.625-1.75-25.208-1.292a2.29 2.29 0 0 1-2.417-2.25V21.833c0-1.458.708-2.208 2.167-2.208 123.791 0 190.791.208 201 .583 13.958.5 24.333 1 31.208 1.459 28.375 2 53.917 9.166 76.625 21.458 46.333 25.167 62.167 75.958 56.75 127.833-5.25 50.834-31.042 84.667-77.417 101.542-18.333 6.708-36.208 10.833-53.583 12.458-28.042 2.584-58.792 3.375-92.25 2.334m-1.208-189.125q-.688 50.813-.25 150.375c0 1.625.791 2.458 2.416 2.5 12.625.458 32.542-.417 59.75-2.584 31.959-2.583 54.084-15.416 66.417-38.5 6.875-12.916 10.667-29.625 11.292-50.125 1.5-46.25-8-89.833-60.084-99.166q-31.187-5.563-58.875-1.625c-7.75 1.125-13.75 6.25-16.5 13.458-2.625 6.833-4.041 15.375-4.166 25.667m677.416 547.666h-52.458c-29.125-2.375-55.542-10.125-79.25-23.208-34.625-19.125-58.75-60.542-32.083-98 8.541-12 17-21 25.416-27 8.417-6.042 7.709-7.417-2.166-4.167-24.125 7.959-49 11.375-74.625 10.292q-41.938-1.75-50.25-42.625a1.723 1.723 0 0 0-2.959-.792c-19.875 22.709-44.125 36.667-72.791 41.917-33.5 6.167-68.417-2.583-92.542-26.5-18.5-18.333-26.083-41.042-22.708-68.125 6.875-55.583 65.083-80 114.041-88.75 27.875-4.958 52.042-7.5 72.417-7.625 1.417 0 2.167-.708 2.208-2.125.709-25.125 0-48.917-2.083-71.458-3-32.5-22.167-55.709-57.333-48.334-14.042 2.959-22.959 11.75-26.834 26.459q-5.562 21.061-8.375 31.125c-8.208 29.458-43.666 32.333-65.833 18.125q-17.437-11.188-15.25-34.875c4.125-44.917 59.042-64.125 97.958-68.792 32.334-3.875 61.084-2.833 86.292 3.167 53.042 12.625 67 56.916 67.458 105.5.084 8.125.25 63.291.459 165.416 0 8.959 2.166 18.042 6.458 27.209 3.208 6.916 8.792 10.791 16.75 11.583 1.625.167 5.042.375 10.333.667 7.625.375 9.959-2.959 7.042-10-4.083-9.875-3.5-22.542 1.75-38.084 7-20.833 21.458-38.583 35.208-55.041 1.292-1.542 1.084-2.875-.541-4-23.459-16-37.792-36.417-43-61.292-5.084-24.292-4-47.625 3.208-70.083 19.167-59.417 79.417-79.25 136.667-77.084 18.291.667 35.833 4.667 52.625 11.959 6.708 2.916 11.083 4.75 13.208 5.5q2 .687 2.875-1.25c11.625-25.792 30.5-59.709 61.083-70.625 30.125-10.75 60.667 7.458 58.417 40.958-1.792 27.042-23.583 42.542-49.667 37.833-8.666-1.541-18.25-9.208-25.291-12.958a8.53 8.53 0 0 0-8.625.333c-6.042 3.875-11.209 10.417-15.459 19.625-.625 1.334-.375 2.459.709 3.375 19.791 16.792 31.291 38.334 34.583 64.542.583 4.792.75 12.792.542 24-1.209 63.083-49.25 101.958-108.5 107.875-31.709 3.208-59 .708-81.792-7.417-1.458-.541-2.667-.166-3.583 1.125-18.625 25.209-15 50.125 21.166 50.125 62.875-.041 101.292.042 115.334.167 17.333.208 33.875 2.667 49.583 7.458 33.292 10.125 52.333 32.042 57.083 65.75 2.834 19.959-.916 39.167-11.208 57.667-10.083 18.125-24.917 33.458-44.542 45.958q-45.75 29.188-101.125 34.5m-82.666-370.291c-.292 36.375 7.416 87.75 55.583 88.166 48.125.459 56.792-50.791 57.125-87.125.333-36.375-7.375-87.75-55.542-88.208-48.166-.417-56.791 50.792-57.166 87.167M2702.037 449c11.791 10.042 27.208 12.333 46.166 6.917q36.75-10.5 44.125-53.25c2.875-16.834 3.375-36.792 1.459-59.875-.042-.417-.125-.709-.292-.834-.125-.125-.208-.25-.333-.333s-.25-.208-.375-.292q-.25-.187-.875-.125c-23.084 1.834-42.709 5.584-58.834 11.167-27.333 9.458-42.458 26.875-45.375 52.167-2.291 19.625 2.5 34.416 14.334 44.458m265.541 137.75c14.042 13.125 30.959 21.167 50.75 24.042 44.542 6.583 100.417-7.292 127.209-44.167 9.541-13.042 11.166-25.792 4.958-38.208-8.708-17.459-36.333-22.792-54.708-22.917-22.125-.167-67.334-.208-135.625-.083-1.459 0-2.542.625-3.292 1.833-18.417 29.083-14.833 55.583 10.708 79.5"/><path fill="#6e6f72" fill-rule="nonzero" d="M3475 260.042v37.875l-195.958.041q-2.125 0-2.125 2.125-.562 44.813 16.125 88c18.708 48.542 53.291 75 103.833 79.417 19.125 1.667 43.375-2.625 72.667-12.875.625-.208 1.25.208 1.25.875v28.167c0 .875-.417 1.5-1.25 1.833-59.334 22.542-132.709 27.75-190.5-1-45.5-22.625-72.084-66.583-80.542-117.25-6.792-40.583-5.167-78.542 4.833-113.833 13.25-46.709 46-77.75 93.084-89.084 15.625-3.75 34.875-5.458 57.708-5.125 47 .709 92.042 20.417 110.75 65.542 4.042 9.75 7.417 21.5 10.125 35.292m-195.375 3.5 121.25-.25a.84.84 0 0 0 .833-.834l-.041-6.5c-.042-37.5-25.625-67.875-57.084-67.791h-9c-31.458.083-56.875 30.5-56.833 68.041l.042 6.5c0 .459.375.834.833.834"/></svg>