<svg xmlns="http://www.w3.org/2000/svg" fill-rule="evenodd" stroke-linejoin="bevel" stroke-width=".501" overflow="visible" preserveAspectRatio="xMinYMin" viewBox="0 0 147 76.5"><g fill="none" stroke-linecap="round" stroke-miterlimit="79.84" font-family="Avalon" font-size="15.751" font-weight="bold"><path fill="#000" fill-rule="nonzero" d="M1.18 70.941a5.7 5.7 0 0 0 .43 2.181 5.5 5.5 0 0 0 1.176 1.766 5.5 5.5 0 0 0 1.758 1.18 5.6 5.6 0 0 0 2.168.432 5.5 5.5 0 0 0 2.145-.434 5.52 5.52 0 0 0 2.939-2.924 5.5 5.5 0 0 0 .434-2.138 5.46 5.46 0 0 0-1.618-3.886 5.54 5.54 0 0 0-3.9-1.61 5.5 5.5 0 0 0-2.142.435 5.7 5.7 0 0 0-1.76 1.173 5.6 5.6 0 0 0-1.192 1.73 5.2 5.2 0 0 0-.438 2.095m1.955.032q.005-.753.284-1.408t.771-1.156a3.6 3.6 0 0 1 1.139-.782 3.5 3.5 0 0 1 2.771.001 3.6 3.6 0 0 1 1.133.785q.489.503.763 1.166t.279 1.425a3.7 3.7 0 0 1-.279 1.425 3.7 3.7 0 0 1-.761 1.166 3.6 3.6 0 0 1-1.128.785 3.4 3.4 0 0 1-1.379.287 3.55 3.55 0 0 1-1.405-.287 3.6 3.6 0 0 1-1.143-.789 3.7 3.7 0 0 1-.765-1.175 3.8 3.8 0 0 1-.28-1.443m10.677 5.323h5.691v-1.832h-3.736v-2.512h3.577v-1.83h-3.577v-2.578h3.736v-1.832h-5.691zm8.498 0h1.955v-8.752h1.955v-1.832h-5.865v1.832h1.955zm5.045 0h1.955V65.712h-1.955zm4.164 0h1.955v-4.644l3.327 4.644h2.302l-3.989-5.386 3.989-5.198h-2.302l-3.327 4.581v-4.581h-1.955zm8.469 0h5.691v-1.832h-3.736v-2.512h3.578v-1.83h-3.578v-2.578h3.736v-1.832h-5.691zm7.283 0h1.955v-4.044l2.822 4.044h2.365l-2.854-3.918q.39-.093.679-.197a2.9 2.9 0 0 0 .977-.593q.34-.304.587-.721a3.8 3.8 0 0 0 .517-1.886 3.25 3.25 0 0 0-1.12-2.463 2.9 2.9 0 0 0-.706-.461 3.5 3.5 0 0 0-.874-.262 6.6 6.6 0 0 0-1.116-.083h-3.232zm1.955-5.529v-3.223h1.261q.571.004.991.199.42.197.652.555.23.357.234.841-.008.767-.503 1.193t-1.39.435zm8.861 3.616h1.42v-2.67h2.68v-1.422h-2.68v-2.685h-1.42v2.685h-2.664v1.422h2.664zm5.659 1.913h1.955V72.25h.678q.609.001 1.029-.019t.71-.074q.293-.052.52-.155.227-.099.452-.258.436-.304.749-.743a3.5 3.5 0 0 0 .483-.97q.168-.533.172-1.113a3.3 3.3 0 0 0-.368-1.549 3 3 0 0 0-1.052-1.135 2.6 2.6 0 0 0-1.013-.421 5 5 0 0 0-.693-.079 18 18 0 0 0-.957-.022h-2.665zm1.955-5.878v-2.874h.71q.385 0 .595.009t.344.036q.132.027.29.081.418.149.656.484t.243.78a1.4 1.4 0 0 1-.118.562 1.5 1.5 0 0 1-.317.466 1.3 1.3 0 0 1-.464.298 2.4 2.4 0 0 1-.542.12 7 7 0 0 1-.767.038zm4.287 5.878h2.16l1.166-2.735h3.752l1.12 2.735h2.16l-4.43-10.584h-1.53zm4.036-4.567 1.135-3.253 1.135 3.253zm7.281 4.567h1.955v-4.044l2.823 4.044h2.364l-2.854-3.918q.39-.093.679-.197.287-.105.52-.248a3.1 3.1 0 0 0 1.044-1.066 3.76 3.76 0 0 0 .517-1.886 3.3 3.3 0 0 0-.288-1.35 3.3 3.3 0 0 0-.832-1.113 2.8 2.8 0 0 0-.706-.461 3.5 3.5 0 0 0-.874-.262 6.6 6.6 0 0 0-1.116-.083h-3.232zm1.955-5.529v-3.223h1.261q.571.004.991.199.42.197.652.555.23.357.234.841-.008.767-.503 1.193t-1.39.435zm7.711 5.529h1.955v-8.752h1.954v-1.832h-5.864v1.832h1.955zm5.045 0h1.955v-7.693l4.429 7.693h2.192V65.712h-1.955v7.709l-4.398-7.709h-2.223zm10.531 0h5.692v-1.832h-3.737v-2.512h3.579v-1.83h-3.579v-2.578h3.737v-1.832h-5.692zm7.284 0h1.955v-4.044l2.822 4.044h2.364l-2.853-3.918q.39-.093.678-.197a2.9 2.9 0 0 0 .978-.593q.34-.304.587-.721a3.76 3.76 0 0 0 .516-1.886 3.3 3.3 0 0 0-.288-1.35 3.25 3.25 0 0 0-.831-1.113 2.9 2.9 0 0 0-.706-.461 3.5 3.5 0 0 0-.874-.262 6.6 6.6 0 0 0-1.116-.083h-3.232zm1.955-5.529v-3.223h1.261q.571.004.991.199.42.197.651.555.23.357.234.841-.008.767-.502 1.193-.495.427-1.39.435zm9.554 5.529h2.16l1.166-2.735h3.752l1.119 2.735h2.161l-4.431-10.584h-1.528zm4.035-4.567 1.136-3.253 1.135 3.253zm6.352-.726a5.4 5.4 0 0 0 .446 2.145 5.5 5.5 0 0 0 1.215 1.747q.779.751 1.804 1.174a5.8 5.8 0 0 0 2.21.431 5.7 5.7 0 0 0 1.758-.282 5.8 5.8 0 0 0 1.578-.8q.725-.519 1.254-1.239.518-.718.764-1.519a5.9 5.9 0 0 0 .244-1.752h-6.889v1.831h4.43a3.5 3.5 0 0 1-1.85 1.693 3.5 3.5 0 0 1-1.273.235 3.9 3.9 0 0 1-1.467-.28 3.7 3.7 0 0 1-1.187-.771 3.6 3.6 0 0 1-1.083-2.582q.002-.462.13-.938t.357-.908a3.35 3.35 0 0 1 1.71-1.564 3.7 3.7 0 0 1 1.43-.283q.579.002 1.108.176.528.175.969.504.442.327.762.787h2.333a4.2 4.2 0 0 0-.773-1.308 5.5 5.5 0 0 0-1.204-1.047 6 6 0 0 0-1.498-.694 5.7 5.7 0 0 0-1.65-.251 5.7 5.7 0 0 0-3.973 1.616 5.6 5.6 0 0 0-1.21 1.748 5.3 5.3 0 0 0-.445 2.131"/><path fill="#49b700" d="M17.337 54.537q-5.23-2.143-9.115-6.018-3.884-3.877-6.038-9.103Q.031 34.19 0 27.991q.037-5.898 2.227-10.969a27.7 27.7 0 0 1 6.106-8.888q3.91-3.82 9.107-5.959Q22.633.036 28.676 0q6.102.034 11.331 2.193 5.226 2.159 9.155 6.023 3.925 3.862 6.123 9.013 1.843 4.328 2.163 9.269h6.276V1.134h17.794q4.317-.007 7.411.402t5.333 1.307a14.9 14.9 0 0 1 3.995 2.356q3.066 2.542 4.733 6.295 1.664 3.749 1.685 8.195-.017 4.201-1.513 7.88-1.494 3.679-4.255 6.284a15.1 15.1 0 0 1-3.998 2.705q-2.23 1.043-5.139 1.53-2.906.488-6.707.482h-6.016v17.09H63.724V38.415h-7.997q-.208.558-.441 1.104-2.197 5.133-6.114 8.989-3.92 3.858-9.131 6.014t-11.284 2.192q-6.189-.032-11.42-2.177m19.107-12.248q3.296-2.102 5.221-5.693 1.926-3.593 1.969-8.117-.044-4.605-1.997-8.252-1.952-3.647-5.301-5.774t-7.579-2.174q-4.228.045-7.578 2.123t-5.301 5.631q-1.956 3.556-1.997 8.039.04 4.724 1.988 8.403 1.945 3.678 5.346 5.797 3.398 2.12 7.786 2.161 4.148-.045 7.443-2.144m50.235-16.344q1.553-.356 2.56-1.202a6.1 6.1 0 0 0 1.544-2.17 6.9 6.9 0 0 0 .57-2.722 6.9 6.9 0 0 0-.682-2.964q-.668-1.4-1.837-2.171-.958-.67-2.572-.989-1.612-.317-4.095-.315h-5.12v12.879h5.607q2.47.008 4.025-.346"/></g></svg>