<svg xmlns="http://www.w3.org/2000/svg" data-name="Ebene 1" preserveAspectRatio="xMinYMin" viewBox="0 0 536.11 89.94"><path fill="#919792" d="M.02 36.23V.04h36.24ZM5.67 5.65v17l17-17Zm84.29 84.29h-90V42.21L42.18.04h47.78ZM5.65 84.29h78.66V5.65H44.56L5.65 44.55Zm110.22-11.32V14.24h22.15a54 54 0 0 1 8.94.56 17.7 17.7 0 0 1 7.22 2.75 14.47 14.47 0 0 1 4.71 5.66 18.2 18.2 0 0 1 1.78 8 18.06 18.06 0 0 1-4.77 12.68q-4.77 5.19-17.23 5.19h-15.03v23.89Zm7.77-30.8h15.19q7.53 0 10.69-2.81a10 10 0 0 0 3.17-7.89 10.56 10.56 0 0 0-1.87-6.31 8.68 8.68 0 0 0-4.9-3.47 33.8 33.8 0 0 0-7.26-.52h-15Zm44.21 30.8V14.24h26q7.86 0 11.94 1.58a13.1 13.1 0 0 1 6.53 5.59 16.7 16.7 0 0 1 2.44 8.86 14.74 14.74 0 0 1-4 10.53q-4.05 4.29-12.5 5.45a20 20 0 0 1 4.69 2.93 40 40 0 0 1 6.45 7.86l10.21 16h-9.77l-7.78-12.22q-3.4-5.28-5.6-8.09a17.5 17.5 0 0 0-3.95-3.92 11.7 11.7 0 0 0-3.55-1.57 24 24 0 0 0-4.32-.28h-9v26.01Zm7.77-32.81h16.71a25.2 25.2 0 0 0 8.33-1.1 8.8 8.8 0 0 0 4.57-3.53 9.5 9.5 0 0 0 1.56-5.26 8.75 8.75 0 0 0-3-6.85q-3-2.68-9.56-2.69h-18.61Zm45.98 4.21q0-14.62 7.85-22.9t20.27-8.27a28.15 28.15 0 0 1 14.67 3.89 25.37 25.37 0 0 1 10 10.83 35.14 35.14 0 0 1 3.43 15.77 34.5 34.5 0 0 1-3.61 16A24.65 24.65 0 0 1 264 70.37a29.17 29.17 0 0 1-14.27 3.62 27.8 27.8 0 0 1-14.82-4 25.77 25.77 0 0 1-9.94-10.95 33.06 33.06 0 0 1-3.37-14.67m8 .12q0 10.62 5.71 16.72a19.92 19.92 0 0 0 28.77-.06q5.67-6.17 5.67-17.5a30 30 0 0 0-2.43-12.52 18.63 18.63 0 0 0-7.09-8.3 19.24 19.24 0 0 0-10.48-2.94 19.88 19.88 0 0 0-14.2 5.67q-5.93 5.67-5.94 18.93Zm70.98 28.48-22.75-58.73h8.41l15.26 42.67q1.85 5.13 3.09 9.61 1.36-4.8 3.16-9.61l15.87-42.67h7.93l-23 58.73Zm36.81 0V14.24h42.47v6.93h-34.68v18h32.49v6.87h-32.49v20h36v6.93Zm51.73 0V14.24h8l30.85 46.11V14.24h7.45v58.73h-8l-30.85-46.15v46.15Zm72.17 0v-51.8h-19.35v-6.93h46.55v6.93h-19.43v51.8Zm19.89 0 22.53-58.73h8.37l24 58.73h-8.86l-6.85-17.79h-24.51l-6.45 17.79Zm16.95-24.11h19.91l-6.16-16.27q-2.81-7.41-4.17-12.18a74 74 0 0 1-3.16 11.22Z"/></svg>