<svg xmlns="http://www.w3.org/2000/svg" xml:space="preserve" fill-rule="evenodd" stroke-linejoin="round" stroke-miterlimit="2" clip-rule="evenodd" preserveAspectRatio="xMinYMin" viewBox="0 0 667 117"><path fill-rule="nonzero" d="M78.667 52c0 6-1.334 11.333-4 15.333s-6 7.334-10 9.334-8 2.666-12.667 2.666-8.667-.666-12.667-2.666S32 72 30 67.333 26 58 26 52q0-10 4-16c2.667-4 6-7.333 9.333-9.333S47.333 24 52 24s8.667.667 12.667 2.667S72 31.333 74.667 36q4 7 4 16m26.666 64.667L88 91.333c3.333-3.333 6.667-6.666 10-10.666 5.333-8 8-17.334 8-28.667s-2.667-21.333-8-29.333-12-14-20-17.334C68.667 2 60.667 0 52 0S35.333 2 27.333 5.333s-14.666 9.334-20 17.334S0 40.667 0 52s2.667 20.667 8 28.667S20 94 28 98s16 6 24.667 6q7 0 14-2L76 116.667zm98-56V2H178v56q0 11-4 16c-2.667 3.333-6.667 5.333-12 5.333s-9.333-2-12-5.333q-4-5-4-16V2h-25.333v58.667c0 9.333 2 16.666 5.333 23.333s8 11.333 14.667 14.667c6 3.333 13.333 5.333 22 5.333s15.333-2 22-5.333c6-3.334 10.666-8 14.666-14.667 2.667-6 4-14 4-23.333M224 102h65.333V79.333h-40.666v-18H286V38.667h-37.333v-14H288V2h-64zm108-66.667q-2-1-2-4c0-2.666 1.333-4.666 3.333-6q3-2 10-2c4 0 8 .667 10.667 2 3.333 1.334 6 3.334 9.333 6l14-18c-4-4-9.333-7.333-14.666-9.333-5.334-2.667-12-4-19.334-4-8 0-14.666 1.333-20.666 4S312 10.667 309.333 15.333C306 20 304.667 26 304.667 32c0 7.333 1.333 13.333 4.666 17.333s6.667 7.334 11.334 9.334c4 2 10 3.333 16 5.333 4 .667 6.666 1.333 8.666 2s4 1.333 4.667 2.667c1.333 1.333 2 2.666 2 4.666 0 2.667-1.333 4.667-3.333 6s-5.334 2-9.334 2c-4.666 0-8.666-.666-12.666-2.666S318.667 74 314 70l-14.667 18.667C304.667 93.333 310 97.333 316 100s14 4 22.667 4c8 0 14.666-1.333 20.666-4S370 93.333 372.667 88.667C376 83.333 377.333 78 377.333 71.333c0-7.333-1.333-12.666-4.666-16.666S366 48 361.333 46s-10-3.333-16-5.333c-3.333-.667-6.666-1.334-8.666-2-1.334-1.334-3.334-2-4.667-3.334m106.667-10.666h26.666V2h-78v22.667h26v76.666h25.334zm78 43.333h-18L508 46zm12.666 34h28L510 .667h-3.333l-48 101.333H486l6-13.333h32zm97.334-52.667L659.333 2H630l-18 28.667L594 2h-30.667l34 49.333L562 102h29.333L612 70l21.333 32H664z"/></svg>