<svg xmlns="http://www.w3.org/2000/svg" preserveAspectRatio="xMinYMin" viewBox="0 0 283.5 61.6"><path fill="#fff" d="M125 10.8h3.9v3.5c1.1-2.4 3.6-4.1 6-4.1s1.9.1 2.8.3v3.8c-.8-.3-1.6-.4-2.4-.4-3.8 0-6.3 3.6-6.3 9.4v10.5h-4.2v-23zm129.6 12h-2.7c-2.3 0-8 .4-8 4.5s2.3 3.8 4.3 3.8c4.2 0 6.4-2.6 6.4-6.1v-2zM242 12.4c2.1-1.2 4.6-2.1 7.6-2.1 6.6 0 9.2 3.2 9.2 9.5v14.1H255V31c-1 1.4-3.2 3.5-7.1 3.5s-8.4-2.2-8.4-7.2 6.3-7.6 10.7-7.6h4.5c0-4-1.4-6-5.7-6s-5 .9-6.7 2.4l-.2-3.6zm-89.8 10.4h-2.7c-2.3 0-8 .4-8 4.5s2.3 3.8 4.3 3.8c4.2 0 6.4-2.6 6.4-6.1v-2zm-12.6-10.4c2.1-1.2 4.6-2.1 7.6-2.1 6.6 0 9.2 3.2 9.2 9.5v14.1h-3.8V31c-1 1.4-3.2 3.5-7.1 3.5s-8.4-2.2-8.4-7.2 6.3-7.6 10.7-7.6h4.5c0-4-1.4-6-5.7-6s-4.9.9-6.7 2.4l-.2-3.6zm20.3 21.4h4.2V23.2c0-5.6 2.2-9.5 7-9.5 3.7.2 4.9 2.9 4.9 8.2v11.9h4.2V20.1c0-6.2-2.6-9.9-8.6-9.9s-6.3 1.6-7.6 4.2v-3.6h-4.1zm47.6-.7c1.9 1 4.1 1.2 6.3 1.2 4.1 0 8-2.2 8-7.2 0-7.4-10-6-10-10.8s1.9-2.8 4.1-2.8 3.5.6 4.5 1.2l.4-3.7c-1.7-.5-3.3-.9-5.3-.9-4.6 0-8.1 2.3-8.1 7.1s10 6.1 10 10.3-2.4 3.3-4.3 3.3-3.6-.5-5.3-1.6l-.2 3.8zM238 10.8h-6.1V4.1l-4.2 1.4v5.3h-5.2v3.4h5.2v13.5c0 4.6 2.7 6.7 7.1 6.7s2.7-.4 3.6-.6v-3.6c-.6.4-1.6.8-2.9.8-1.9 0-3.6-1.5-3.6-4.1V14.3h6.1v-3.4zM272.5 31c4.8 0 6.8-4.8 6.8-8.6s-2.2-8.7-6.8-8.7-6.4 4.4-6.3 8.6c0 3.6 1.8 8.8 6.4 8.8zm6.9-.4c-1.1 1.7-3.7 3.8-7.8 3.8-6.9 0-9.9-6.2-9.9-12.5s3.2-11.6 9.9-11.6 6.3 1.6 7.6 3.7V0h4.2v33.8h-4zm-85.5.4c4.8 0 6.8-4.8 6.8-8.6s-2.2-8.7-6.8-8.7-6.4 4.4-6.3 8.6c0 3.6 1.8 8.8 6.4 8.8zm7-.4c-1.1 1.7-3.7 3.8-7.8 3.8-6.9 0-9.9-6.2-9.9-12.5s3.2-11.6 9.9-11.6 6.3 1.6 7.6 3.7V0h4.2v33.8h-4zM35.8 28.7c0-4.2-3.4-7.7-7.7-7.7H0V10.8h25.7c1.4 0 2.7.6 3.6 1.5l15.2 15.1c.9.9 1.5 2.2 1.5 3.6v25.7H35.8V28.6zm25.4 0c0-4.2 3.4-7.7 7.7-7.7H97V10.8H71.3c-1.4 0-2.7.6-3.6 1.5L52.5 27.4c-.9.9-1.5 2.2-1.5 3.6v25.7h10.2V28.6zM127 45.3v1.6c.4-.6.9-1 1.6-1.4.7-.3 1.4-.5 2.3-.5s1.9.3 2.7.8 1.3 1.2 1.7 2.1.6 1.9.6 3-.2 2.2-.5 3.1-.9 1.7-1.7 2.3c-.7.6-1.7.9-2.7.9-1.8 0-3.1-.6-3.8-1.8v6.3h-2.1V45.5h2zm6.7 5.7c0-1.4-.3-2.5-.9-3.2s-1.3-1.1-2.2-1.1-1.3.2-1.9.6-.9.9-1.2 1.6-.4 1.4-.4 2.1.1 1.4.4 2c.2.7.6 1.2 1.1 1.6s1.1.6 1.9.6 1.2-.2 1.7-.6.9-.9 1.1-1.6.4-1.4.4-2.2zm5.6-5.7v1.8c.3-.6.7-1.1 1.3-1.5s1.1-.6 1.8-.6.9 0 1.4.2v1.9c-.3-.1-.7-.2-1.2-.2-1 0-1.7.4-2.3 1.3s-.9 2-.9 3.4v5.2h-2.1V45.3zm4.3 5.8c0-1.2.2-2.2.7-3.1s1.2-1.6 2.1-2.1 1.9-.8 3.1-.8 2.1.2 3 .8q1.35.75 2.1 2.1c.75 1.35.8 2 .8 3.2s-.2 2.1-.7 3-1.2 1.7-2.1 2.2c-.9.6-1.9.8-3.1.8s-2.1-.3-3-.8-1.6-1.3-2.1-2.2-.8-1.9-.8-3zm9.4 0c0-.8-.1-1.5-.4-2.1-.3-.7-.7-1.2-1.3-1.6s-1.2-.6-1.9-.6-1.3.2-1.9.6-1 .9-1.3 1.6-.4 1.4-.4 2.1.1 1.5.4 2.1c.3.7.7 1.2 1.2 1.6s1.2.6 2 .6 1.4-.2 1.9-.6.9-.9 1.2-1.6.4-1.4.4-2.1zm2.1-4.1v-1.7h2.7v-1.1c0-1.6.3-2.7.9-3.5.6-.7 1.6-1.1 3-1.1s.9 0 1.4.1v1.7c-.3 0-.7-.1-1.1-.1-.8 0-1.3.2-1.6.6s-.5 1-.5 2v1.4h3.1V47h-3.1v9.8h-2.1V47zm13.8 10.1c-1.9 0-3.4-.5-4.4-1.6s-1.5-2.6-1.5-4.6.2-2.2.7-3c.4-.9 1.1-1.6 1.9-2 .8-.5 1.8-.7 2.8-.7 3.4 0 5.1 2.2 5.1 6.5h-8.2c0 .8.2 1.4.5 2 .7 1.1 1.9 1.8 3.3 1.8.6 0 1.2-.1 1.9-.3s1.2-.5 1.6-.8v2.1c-.8.3-1.4.5-1.9.6-.5 0-1.1.2-1.7.2zm-.6-10.3q-1.2 0-2.1.9c-.9.9-.9 1.3-1 2.3h5.9c0-1-.3-1.7-.8-2.3s-1.2-.9-2.1-.9zm9.2 8.6c.6 0 1.1-.1 1.5-.4s.6-.7.6-1.2-.1-.7-.4-1-.8-.6-1.6-1c-1.1-.5-1.9-1-2.3-1.5s-.6-1.1-.6-1.7c0-1.1.4-2 1.1-2.6.8-.6 1.7-.9 2.9-.9s.9 0 1.3.1c.4 0 .9.2 1.4.3l-.2 1.8c-.2-.1-.6-.3-1.1-.4s-.9-.2-1.2-.2c-.6 0-1.1.1-1.5.4s-.6.6-.6 1 .2.8.5 1.1.9.6 1.7 1c1 .4 1.7.9 2.1 1.4s.6 1.1.6 1.9c0 1.1-.4 1.9-1.1 2.6s-1.7 1-2.9 1-2.4-.2-3.1-.6v-1.9c.5.2.9.4 1.4.6s1 .2 1.3.2zm7.9 0c.6 0 1.1-.1 1.5-.4s.6-.7.6-1.2-.1-.7-.4-1-.8-.6-1.6-1c-1.1-.5-1.9-1-2.3-1.5s-.6-1.1-.6-1.7c0-1.1.4-2 1.1-2.6.8-.6 1.7-.9 2.9-.9s.9 0 1.3.1c.4 0 .9.2 1.4.3l-.2 1.8c-.2-.1-.6-.3-1.1-.4s-.9-.2-1.2-.2c-.6 0-1.1.1-1.5.4s-.6.6-.6 1 .2.8.5 1.1.9.6 1.7 1c1 .4 1.7.9 2.1 1.4s.6 1.1.6 1.9c0 1.1-.4 1.9-1.1 2.6s-1.7 1-2.9 1-2.4-.2-3.1-.6v-1.9c.5.2.9.4 1.4.6s1 .2 1.3.2zm7.8-10.1v11.5h-2.1V45.3zm1.5 5.8c0-1.2.2-2.2.7-3.1s1.2-1.6 2.1-2.1 1.9-.8 3.1-.8 2.1.2 3 .8q1.35.75 2.1 2.1c.75 1.35.8 2 .8 3.2s-.2 2.1-.7 3-1.2 1.7-2.1 2.2c-.9.6-1.9.8-3.1.8s-2.1-.3-3-.8-1.6-1.3-2.1-2.2-.8-1.9-.8-3zm9.4 0c0-.8-.1-1.5-.4-2.1-.3-.7-.7-1.2-1.3-1.6s-1.2-.6-1.9-.6-1.3.2-1.9.6-1 .9-1.3 1.6-.4 1.4-.4 2.1.1 1.5.4 2.1.7 1.2 1.2 1.6 1.2.6 2 .6 1.4-.2 1.9-.6.9-.9 1.2-1.6.4-1.4.4-2.1zm9.2-4.3c-1.1 0-1.9.4-2.5 1.3s-.9 2-.9 3.5v5.3h-2.1V45.4h2.1v1.8q.6-1.05 1.5-1.5c.7-.4 1.4-.5 2.2-.5 1.4 0 2.5.4 3.2 1.3.7.8 1.1 2 1.1 3.6V57h-2.1v-6.2c0-1.4-.2-2.4-.7-3-.4-.6-1.1-.9-1.9-.9zm13.7 8.5c-.4.6-.9 1-1.5 1.3s-1.3.4-2.1.4c-1.3 0-2.4-.3-3.1-.9s-1.1-1.5-1.1-2.7.5-2.1 1.5-2.8 2.3-1 4-1h2.1c0-1-.2-1.8-.7-2.3s-1.2-.7-2.2-.7-1.2 0-1.8.3c-.6.2-1.1.5-1.6.9V46c1.1-.7 2.4-1.1 3.7-1.1s2.7.4 3.5 1.2 1.1 2 1.1 3.6v7.1h-2v-1.5zm-1.6-4c-1.2 0-2.2.2-2.9.6s-1.1.9-1.1 1.7.2 1 .6 1.3.9.5 1.5.5c1 0 1.8-.3 2.3-.8.6-.6.9-1.3.9-2.2v-1h-1.4zm7.4-11.4v16.9h-2.1V39.9zm-40.7.3c-.8 0-1.4.6-1.4 1.4s.6 1.4 1.4 1.4 1.4-.6 1.4-1.4-.6-1.4-1.4-1.4"/></svg>