<?xml version="1.0" encoding="UTF-8"?>
<svg id="Ebene_1" data-name="Ebene 1" xmlns="http://www.w3.org/2000/svg" version="1.1" viewBox="0 0 283.5 61.6">
  <defs>
    <style>
      .cls-1 {
        fill: #fff;
        stroke-width: 0px;
      }
    </style>
  </defs>
  <path class="cls-1" d="M125,10.8h3.9v3.5h0c1.1-2.4,3.6-4.1,6-4.1s1.9.1,2.8.3v3.8c-.8-.3-1.6-.4-2.4-.4-3.8,0-6.3,3.6-6.3,9.4v10.5h-4.2V10.8h0ZM254.6,22.8c-.9,0-1.8,0-2.7,0-2.3,0-8,.4-8,4.5s2.3,3.8,4.3,3.8c4.2,0,6.4-2.6,6.4-6.1v-2ZM242,12.4c2.1-1.2,4.6-2.1,7.6-2.1,6.6,0,9.2,3.2,9.2,9.5v14.1h-3.8v-2.9h0c-1,1.4-3.2,3.5-7.1,3.5s-8.4-2.2-8.4-7.2,6.3-7.6,10.7-7.6,2.8,0,4.5,0c0-4-1.4-6-5.7-6s-5,.9-6.7,2.4l-.2-3.6h0ZM152.2,22.8c-.9,0-1.8,0-2.7,0-2.3,0-8,.4-8,4.5s2.3,3.8,4.3,3.8c4.2,0,6.4-2.6,6.4-6.1v-2ZM139.6,12.4c2.1-1.2,4.6-2.1,7.6-2.1,6.6,0,9.2,3.2,9.2,9.5v14.1h-3.8v-2.9h0c-1,1.4-3.2,3.5-7.1,3.5s-8.4-2.2-8.4-7.2,6.3-7.6,10.7-7.6,2.8,0,4.5,0c0-4-1.4-6-5.7-6s-4.9.9-6.7,2.4l-.2-3.6h0ZM159.9,33.8h4.2v-10.6c0-5.6,2.2-9.5,7-9.5,3.7.2,4.9,2.9,4.9,8.2v11.9h4.2v-13.7c0-6.2-2.6-9.9-8.6-9.9s-6.3,1.6-7.6,4.2h0v-3.6h-4.1v23h0ZM207.5,33.1c1.9,1,4.1,1.2,6.3,1.2,4.1,0,8-2.2,8-7.2,0-7.4-10-6-10-10.8s1.9-2.8,4.1-2.8,3.5.6,4.5,1.2l.4-3.7c-1.7-.5-3.3-.9-5.3-.9-4.6,0-8.1,2.3-8.1,7.1s10,6.1,10,10.3-2.4,3.3-4.3,3.3-3.6-.5-5.3-1.6l-.2,3.8h0ZM238,10.8h-6.1v-6.7l-4.2,1.4v5.3h-5.2v3.4h5.2v13.5c0,4.6,2.7,6.7,7.1,6.7s2.7-.4,3.6-.6v-3.6c-.6.4-1.6.8-2.9.8-1.9,0-3.6-1.5-3.6-4.1v-12.6h6.1v-3.4h0ZM272.5,31c4.8,0,6.8-4.8,6.8-8.6s-2.2-8.7-6.8-8.7-6.4,4.4-6.3,8.6c0,3.6,1.8,8.8,6.4,8.8h0ZM279.4,30.6h0c-1.1,1.7-3.7,3.8-7.8,3.8-6.9,0-9.9-6.2-9.9-12.5s3.2-11.6,9.9-11.6,6.3,1.6,7.6,3.7h0V0h4.2v33.8h-4v-3.2h0ZM193.9,31c4.8,0,6.8-4.8,6.8-8.6s-2.2-8.7-6.8-8.7-6.4,4.4-6.3,8.6c0,3.6,1.8,8.8,6.4,8.8h0ZM200.9,30.6h0c-1.1,1.7-3.7,3.8-7.8,3.8-6.9,0-9.9-6.2-9.9-12.5s3.2-11.6,9.9-11.6,6.3,1.6,7.6,3.7h0V0h4.2v33.8h-4v-3.2h0ZM35.8,28.7c0-4.2-3.4-7.7-7.7-7.7H0v-10.2h25.7c1.4,0,2.7.6,3.6,1.5l15.2,15.1c.9.9,1.5,2.2,1.5,3.6v25.7h-10.2v-28.1h0ZM61.2,28.7c0-4.2,3.4-7.7,7.7-7.7h28.1v-10.2h-25.7c-1.4,0-2.7.6-3.6,1.5l-15.2,15.1c-.9.9-1.5,2.2-1.5,3.6v25.7h10.2v-28.1h0ZM127,45.3v1.6h0c.4-.6.9-1,1.6-1.4.7-.3,1.4-.5,2.3-.5s1.9.3,2.7.8c.8.5,1.3,1.2,1.7,2.1.4.9.6,1.9.6,3s-.2,2.2-.5,3.1-.9,1.7-1.7,2.3c-.7.6-1.7.9-2.7.9-1.8,0-3.1-.6-3.8-1.8h0v6.3h-2.1v-16.2h2,0ZM133.7,51c0-1.4-.3-2.5-.9-3.2-.6-.7-1.3-1.1-2.2-1.1s-1.3.2-1.9.6-.9.9-1.2,1.6-.4,1.4-.4,2.1.1,1.4.4,2c.2.7.6,1.2,1.1,1.6s1.1.6,1.9.6,1.2-.2,1.7-.6.9-.9,1.1-1.6.4-1.4.4-2.2h0ZM139.3,45.3v1.8h0c.3-.6.7-1.1,1.3-1.5.6-.4,1.1-.6,1.8-.6s.9,0,1.4.2v1.9c-.3-.1-.7-.2-1.2-.2-1,0-1.7.4-2.3,1.3s-.9,2-.9,3.4v5.2h-2.1v-11.5h2ZM143.6,51.1c0-1.2.2-2.2.7-3.1.5-.9,1.2-1.6,2.1-2.1.9-.5,1.9-.8,3.1-.8s2.1.2,3,.8c.9.5,1.6,1.2,2.1,2.1.5.9.8,2,.8,3.2s-.2,2.1-.7,3c-.5.9-1.2,1.7-2.1,2.2-.9.6-1.9.8-3.1.8s-2.1-.3-3-.8c-.9-.5-1.6-1.3-2.1-2.2-.5-.9-.8-1.9-.8-3h0ZM153,51.1c0-.8-.1-1.5-.4-2.1-.3-.7-.7-1.2-1.3-1.6-.6-.4-1.2-.6-1.9-.6s-1.3.2-1.9.6-1,.9-1.3,1.6-.4,1.4-.4,2.1.1,1.5.4,2.1c.3.7.7,1.2,1.2,1.6s1.2.6,2,.6,1.4-.2,1.9-.6c.5-.4.9-.9,1.2-1.6.3-.7.4-1.4.4-2.1h0ZM155.1,47v-1.7h2.7v-1.1c0-1.6.3-2.7.9-3.5.6-.7,1.6-1.1,3-1.1s.9,0,1.4.1v1.7c-.3,0-.7-.1-1.1-.1-.8,0-1.3.2-1.6.6-.3.4-.5,1-.5,2v1.4h3.1v1.7h-3.1v9.8h-2.1v-9.8h-2.7ZM168.9,57.1c-1.9,0-3.4-.5-4.4-1.6s-1.5-2.6-1.5-4.6.2-2.2.7-3c.4-.9,1.1-1.6,1.9-2,.8-.5,1.8-.7,2.8-.7,3.4,0,5.1,2.2,5.1,6.5h-8.2c0,.8.2,1.4.5,2,.7,1.1,1.9,1.8,3.3,1.8.6,0,1.2-.1,1.9-.3.7-.2,1.2-.5,1.6-.8v2.1c-.8.3-1.4.5-1.9.6-.5,0-1.1.2-1.7.2h0ZM168.3,46.8c-.8,0-1.5.3-2.1.9s-.9,1.3-1,2.3h5.9c0-1-.3-1.7-.8-2.3s-1.2-.9-2.1-.9h0ZM177.5,55.4c.6,0,1.1-.1,1.5-.4.4-.3.6-.7.6-1.2s-.1-.7-.4-1-.8-.6-1.6-1c-1.1-.5-1.9-1-2.3-1.5-.4-.5-.6-1.1-.6-1.7,0-1.1.4-2,1.1-2.6.8-.6,1.7-.9,2.9-.9s.9,0,1.3.1c.4,0,.9.2,1.4.3l-.2,1.8c-.2-.1-.6-.3-1.1-.4s-.9-.2-1.2-.2c-.6,0-1.1.1-1.5.4s-.6.6-.6,1,.2.8.5,1.1.9.6,1.7,1c1,.4,1.7.9,2.1,1.4s.6,1.1.6,1.9c0,1.1-.4,1.9-1.1,2.6-.7.7-1.7,1-2.9,1s-2.4-.2-3.1-.6v-1.9c.5.2.9.4,1.4.6s1,.2,1.3.2h0ZM185.4,55.4c.6,0,1.1-.1,1.5-.4.4-.3.6-.7.6-1.2s-.1-.7-.4-1-.8-.6-1.6-1c-1.1-.5-1.9-1-2.3-1.5-.4-.5-.6-1.1-.6-1.7,0-1.1.4-2,1.1-2.6.8-.6,1.7-.9,2.9-.9s.9,0,1.3.1c.4,0,.9.2,1.4.3l-.2,1.8c-.2-.1-.6-.3-1.1-.4s-.9-.2-1.2-.2c-.6,0-1.1.1-1.5.4s-.6.6-.6,1,.2.8.5,1.1.9.6,1.7,1c1,.4,1.7.9,2.1,1.4s.6,1.1.6,1.9c0,1.1-.4,1.9-1.1,2.6-.7.7-1.7,1-2.9,1s-2.4-.2-3.1-.6v-1.9c.5.2.9.4,1.4.6s1,.2,1.3.2h0ZM193.2,45.3v11.5h-2.1v-11.5s2.1,0,2.1,0ZM194.7,51.1c0-1.2.2-2.2.7-3.1.5-.9,1.2-1.6,2.1-2.1.9-.5,1.9-.8,3.1-.8s2.1.2,3,.8c.9.5,1.6,1.2,2.1,2.1.5.9.8,2,.8,3.2s-.2,2.1-.7,3c-.5.9-1.2,1.7-2.1,2.2-.9.6-1.9.8-3.1.8s-2.1-.3-3-.8c-.9-.5-1.6-1.3-2.1-2.2-.5-.9-.8-1.9-.8-3h0ZM204.1,51.1c0-.8-.1-1.5-.4-2.1-.3-.7-.7-1.2-1.3-1.6-.6-.4-1.2-.6-1.9-.6s-1.3.2-1.9.6-1,.9-1.3,1.6-.4,1.4-.4,2.1.1,1.5.4,2.1.7,1.2,1.2,1.6,1.2.6,2,.6,1.4-.2,1.9-.6c.5-.4.9-.9,1.2-1.6.3-.7.4-1.4.4-2.1h0ZM213.3,46.8c-1.1,0-1.9.4-2.5,1.3s-.9,2-.9,3.5v5.3h-2.1v-11.5h2.1v1.8h0c.4-.7.9-1.2,1.5-1.5.7-.4,1.4-.5,2.2-.5,1.4,0,2.5.4,3.2,1.3.7.8,1.1,2,1.1,3.6v6.9h-2.1v-6.2c0-1.4-.2-2.4-.7-3-.4-.6-1.1-.9-1.9-.9h0ZM227,55.3c-.4.6-.9,1-1.5,1.3s-1.3.4-2.1.4c-1.3,0-2.4-.3-3.1-.9-.7-.6-1.1-1.5-1.1-2.7s.5-2.1,1.5-2.8c1-.7,2.3-1,4-1s1.5,0,2.1,0c0-1-.2-1.8-.7-2.3s-1.2-.7-2.2-.7-1.2,0-1.8.3c-.6.2-1.1.5-1.6.9v-1.8c1.1-.7,2.4-1.1,3.7-1.1s2.7.4,3.5,1.2c.8.8,1.1,2,1.1,3.6v5.1c0,.8,0,1.5,0,2h-2v-1.5h0ZM225.4,51.3c-1.2,0-2.2.2-2.9.6-.7.4-1.1.9-1.1,1.7s.2,1,.6,1.3.9.5,1.5.5c1,0,1.8-.3,2.3-.8.6-.6.9-1.3.9-2.2v-1c-.1,0-.3,0-.6,0-.3,0-.5,0-.8,0h0ZM232.8,39.9v16.9h-2.1v-16.9s2.1,0,2.1,0ZM192.1,40.2c-.8,0-1.4.6-1.4,1.4s.6,1.4,1.4,1.4,1.4-.6,1.4-1.4-.6-1.4-1.4-1.4Z"/>
  <metadata>
    <sfw xmlns="http://ns.adobe.com/SaveForWeb/1.0/">
      <slices/>
      <sliceSourceBounds x="23.01" y="18.26" width="283.46" height="61.58" bottomLeftOrigin="true"/>
    </sfw>
  </metadata>
</svg>
