<svg xmlns="http://www.w3.org/2000/svg" xml:space="preserve" fill-rule="evenodd" stroke-linejoin="round" stroke-miterlimit="2" clip-rule="evenodd" preserveAspectRatio="xMinYMin" viewBox="0 0 1182 257"><path fill="#0f1941" fill-rule="nonzero" d="M149.167 119.583c0-17.5-14.167-32.083-32.084-32.083H0V45h107.083c5.834 0 11.25 2.5 15 6.25l63.334 62.917c3.75 3.75 6.25 9.166 6.25 15V236.25h-42.5V119.167zm105.833 0c0-17.5 14.167-32.083 32.083-32.083h117.084V45H297.083c-5.833 0-11.25 2.5-15 6.25l-63.333 62.917c-3.75 3.75-6.25 9.166-6.25 15V236.25H255V119.167zm274.167 69.167v6.667c1.666-2.5 3.75-4.167 6.666-5.834 2.917-1.25 5.834-2.083 9.584-2.083s7.916 1.25 11.25 3.333 5.416 5 7.083 8.75q2.5 5.625 2.5 12.5c0 4.584-.833 9.167-2.083 12.917s-3.75 7.083-7.084 9.583c-2.916 2.5-7.083 3.75-11.25 3.75-7.5 0-12.916-2.5-15.833-7.5v26.25h-8.75v-67.5h8.333zm27.916 23.75c0-5.833-1.25-10.417-3.75-13.333s-5.416-4.584-9.166-4.584-5.417.834-7.917 2.5c-2.5 1.667-3.75 3.75-5 6.667s-1.667 5.833-1.667 8.75.417 5.833 1.667 8.333c.833 2.917 2.5 5 4.583 6.667s4.584 2.5 7.917 2.5 5-.833 7.083-2.5 3.75-3.75 4.584-6.667 1.666-5.833 1.666-9.166zm23.334-23.75v7.5c1.25-2.5 2.916-4.583 5.416-6.25s4.584-2.5 7.5-2.5 3.75 0 5.834.833v7.917a15.5 15.5 0 0 0-5-.833c-4.167 0-7.084 1.666-9.584 5.416s-3.75 8.334-3.75 14.167v21.667h-8.75V188.75zm17.916 24.167c0-5 .834-9.167 2.917-12.917q3.125-5.625 8.75-8.75c3.75-2.083 7.917-3.333 12.917-3.333s8.75.833 12.5 3.333q5.625 3.125 8.75 8.75c2.083 3.75 3.333 8.333 3.333 13.333s-.833 8.75-2.917 12.5-5 7.084-8.75 9.167c-3.75 2.5-7.916 3.333-12.916 3.333s-8.75-1.25-12.5-3.333-6.667-5.417-8.75-9.167-3.334-7.916-3.334-12.5zm39.167 0c0-3.334-.417-6.25-1.667-8.75-1.25-2.917-2.916-5-5.416-6.667s-5-2.5-7.917-2.5-5.417.833-7.917 2.5-4.166 3.75-5.416 6.667-1.667 5.833-1.667 8.75.417 6.25 1.667 8.75c1.25 2.916 2.916 5 5 6.666s5 2.5 8.333 2.5 5.833-.833 7.917-2.5c2.083-1.666 3.75-3.75 5-6.666s1.666-5.834 1.666-8.75zm8.75-17.084v-7.083h11.25v-4.583c0-6.667 1.25-11.25 3.75-14.584 2.5-2.916 6.667-4.583 12.5-4.583s3.75 0 5.833.417v7.083c-1.25 0-2.916-.417-4.583-.417-3.333 0-5.417.834-6.667 2.5-1.25 1.667-2.083 4.167-2.083 8.334v5.833h12.917v7.083H666.25v40.834h-8.75v-40.834zm57.5 42.084c-7.917 0-14.167-2.084-18.333-6.667-4.167-4.583-6.25-10.833-6.25-19.167 0-8.333.833-9.166 2.916-12.5 1.667-3.75 4.584-6.666 7.917-8.333 3.333-2.083 7.5-2.917 11.667-2.917 14.166 0 21.25 9.167 21.25 27.084H688.75c0 3.333.833 5.833 2.083 8.333 2.917 4.583 7.917 7.5 13.75 7.5 2.5 0 5-.417 7.917-1.25s5-2.083 6.667-3.333v8.75c-3.334 1.25-5.834 2.083-7.917 2.5-2.083 0-4.583.833-7.083.833zM701.25 195q-5 0-8.75 3.75c-2.5 2.5-3.75 5.417-4.167 9.583h24.584c0-4.166-1.25-7.083-3.334-9.583q-3.125-3.75-8.75-3.75zm38.333 35.833c2.5 0 4.584-.416 6.25-1.666q2.5-1.875 2.5-5c0-2.084-.416-2.917-1.666-4.167s-3.334-2.5-6.667-4.167c-4.583-2.083-7.917-4.166-9.583-6.25a11.3 11.3 0 0 1-2.5-7.083c0-4.583 1.666-8.333 4.583-10.833 3.333-2.5 7.083-3.75 12.083-3.75s3.75 0 5.417.416c1.667 0 3.75.834 5.833 1.25l-.833 7.5c-.833-.416-2.5-1.25-4.583-1.666-2.084-.417-3.75-.834-5-.834-2.5 0-4.584.417-6.25 1.667s-2.5 2.5-2.5 4.167.833 3.333 2.083 4.583 3.75 2.5 7.083 4.167c4.167 1.666 7.084 3.75 8.75 5.833s2.5 4.583 2.5 7.917c0 4.583-1.666 7.916-4.583 10.833s-7.083 4.167-12.083 4.167-10-.834-12.917-2.5V227.5c2.083.833 3.75 1.667 5.833 2.5s4.167.833 5.417.833zm32.917 0c2.5 0 4.583-.416 6.25-1.666q2.5-1.875 2.5-5c0-2.084-.417-2.917-1.667-4.167s-3.333-2.5-6.666-4.167c-4.584-2.083-7.917-4.166-9.584-6.25a11.32 11.32 0 0 1-2.5-7.083c0-4.583 1.667-8.333 4.584-10.833 3.333-2.5 7.083-3.75 12.083-3.75s3.75 0 5.417.416c1.666 0 3.75.834 5.833 1.25l-.833 7.5c-.834-.416-2.5-1.25-4.584-1.666-2.083-.417-3.75-.834-5-.834-2.5 0-4.583.417-6.25 1.667s-2.5 2.5-2.5 4.167.834 3.333 2.084 4.583 3.75 2.5 7.083 4.167c4.167 1.666 7.083 3.75 8.75 5.833s2.5 4.583 2.5 7.917c0 4.583-1.667 7.916-4.583 10.833s-7.084 4.167-12.084 4.167-10-.834-12.916-2.5V227.5c2.083.833 3.75 1.667 5.833 2.5s4.167.833 5.417.833zM805 188.75v47.917h-8.75V188.75zm6.25 24.167c0-5 .833-9.167 2.917-12.917q3.125-5.625 8.75-8.75c3.75-2.083 7.916-3.333 12.916-3.333s8.75.833 12.5 3.333q5.625 3.125 8.75 8.75c2.084 3.75 3.334 8.333 3.334 13.333s-.834 8.75-2.917 12.5-5 7.084-8.75 9.167c-3.75 2.5-7.917 3.333-12.917 3.333s-8.75-1.25-12.5-3.333-6.666-5.417-8.75-9.167-3.333-7.916-3.333-12.5zm39.167 0c0-3.334-.417-6.25-1.667-8.75-1.25-2.917-2.917-5-5.417-6.667s-5-2.5-7.916-2.5-5.417.833-7.917 2.5-4.167 3.75-5.417 6.667-1.666 5.833-1.666 8.75.416 6.25 1.666 8.75 2.917 5 5 6.666 5 2.5 8.334 2.5 5.833-.833 7.916-2.5c2.084-1.666 3.75-3.75 5-6.666s1.667-5.834 1.667-8.75zM888.75 195c-4.583 0-7.917 1.667-10.417 5.417s-3.75 8.333-3.75 14.583v22.083h-8.75v-47.916h8.75v7.5q2.5-4.375 6.25-6.25c2.917-1.667 5.834-2.084 9.167-2.084 5.833 0 10.417 1.667 13.333 5.417 2.917 3.333 4.584 8.333 4.584 15v28.75h-8.75v-25.833c0-5.834-.834-10-2.917-12.5-1.667-2.5-4.583-3.75-7.917-3.75zm57.083 35.417c-1.666 2.5-3.75 4.166-6.25 5.416s-5.416 1.667-8.75 1.667c-5.416 0-10-1.25-12.916-3.75s-4.584-6.25-4.584-11.25 2.084-8.75 6.25-11.667 9.584-4.166 16.667-4.166H945c0-4.167-.833-7.5-2.917-9.584s-5-2.916-9.166-2.916-5 0-7.5 1.25c-2.5.833-4.584 2.083-6.667 3.75v-7.5c4.583-2.917 10-4.584 15.417-4.584s11.25 1.667 14.583 5 4.583 8.334 4.583 15v29.584H945v-6.25zm-6.666-16.667c-5 0-9.167.833-12.084 2.5s-4.583 3.75-4.583 7.083.833 4.167 2.5 5.417a10.24 10.24 0 0 0 6.25 2.083c4.167 0 7.5-1.25 9.583-3.333 2.5-2.5 3.75-5.417 3.75-9.167v-4.166h-5.833zM970 166.25v70.417h-8.75V166.25zm-169.583 1.25c-3.334 0-5.834 2.5-5.834 5.833s2.5 5.834 5.834 5.834 5.833-2.5 5.833-5.834-2.5-5.833-5.833-5.833M520.833 45.065h16.456v14.866h.374a29.21 29.21 0 0 1 24.963-17.11 50 50 0 0 1 11.64 1.309v15.801a26.2 26.2 0 0 0-9.77-1.683c-15.801 0-26.132 15.053-26.132 39.128v43.616h-17.531zm539.657 58.575c0 14.445-9.35 25.431-26.646 25.431-8.041 0-17.811-5.516-17.811-15.707 0-17.063 23.654-18.699 33.191-18.699 3.739 0 7.479.374 11.266.374zm-51.423-36.79a44.5 44.5 0 0 1 27.768-9.958c17.624 0 23.608 8.602 23.608 25.151-6.919-.374-11.827-.374-18.699-.374-18.185 0-44.504 7.479-44.504 31.555 0 21.036 14.492 30.012 35.108 30.012a35.56 35.56 0 0 0 29.638-14.539h.374v12.201h15.707V82.323c0-26.179-11.032-39.595-38.38-39.595a61.25 61.25 0 0 0-31.742 8.975zm-375.104 36.79c0 14.445-9.349 25.431-26.646 25.431-8.087 0-17.811-5.516-17.811-15.707 0-17.063 23.655-18.699 33.191-18.699 3.74 0 7.48.374 11.266.374zm-51.422-36.79a44.5 44.5 0 0 1 28.048-9.958c17.624 0 23.655 8.602 23.655 25.151-6.919-.374-11.827-.374-18.699-.374-18.185 0-44.504 7.479-44.504 31.555 0 21.036 14.492 30.012 35.107 30.012a35.56 35.56 0 0 0 29.639-14.539h.374v12.201h15.567V82.323c0-26.179-11.033-39.595-38.38-39.595a61.25 61.25 0 0 0-31.509 8.975zm83.585-21.785h17.016v14.866h.374a34.59 34.59 0 0 1 31.462-17.39c24.823 0 35.809 15.333 35.809 41.091v57.266h-17.578V91.205c0-22.392-4.674-33.331-20.335-34.266-20.148 0-29.171 16.222-29.171 39.642v44.317h-17.577zM865.6 122.246a47 47 0 0 0 21.971 6.778c8.041 0 17.998-3.412 17.998-13.79 0-17.577-41.465-16.035-41.465-43.055 0-19.962 14.866-29.498 33.798-29.498a72.4 72.4 0 0 1 21.972 3.786l-1.496 15.287a51.4 51.4 0 0 0-18.699-4.908c-8.976 0-16.876 3.786-16.876 11.733 0 19.634 41.465 14.025 41.465 44.785 0 20.522-16.361 29.872-33.425 29.872A55.36 55.36 0 0 1 864.571 138zM991.492 59.23h-25.384v52.638c0 11.126 6.778 17.156 14.819 17.156a21.73 21.73 0 0 0 12.014-3.412v14.959a55.8 55.8 0 0 1-15.006 2.618c-18.185 0-29.405-8.555-29.405-27.768V59.323h-21.597V45.299h21.597V22.907l17.578-5.61v27.768h25.384zm117.248 33.424c-.374-17.577 7.152-35.715 26.272-35.715s28.329 18.325 28.329 36.276c0 16.035-8.274 35.903-28.048 35.903-19.027-.047-26.927-21.411-26.553-36.464m55.349 48.244h16.83V0h-17.578v58.061h-.374c-5.422-8.789-14.772-15.333-31.695-15.333-27.768 0-41.325 22.672-41.325 48.477s12.201 52.031 41.138 52.031a38.46 38.46 0 0 0 32.724-15.708h.374zM781.547 92.654c-.374-17.577 7.152-35.715 26.272-35.715s28.329 18.325 28.329 36.276c0 16.035-8.274 35.903-28.048 35.903-19.074-.047-26.974-21.411-26.553-36.464m55.349 48.291h16.783V0h-17.577v58.061h-.374c-5.423-8.789-14.773-15.333-31.695-15.333-27.769 0-41.326 22.672-41.326 48.477s12.202 52.031 41.139 52.031a38.46 38.46 0 0 0 32.723-15.708h.374z"/></svg>