<svg y="0px" xml:space="preserve" x="0px" width="181" viewBox="0 0 181 56" version="1.1" style="enable-background:new 0 0 181 56;" id="Ebene_1" height="56" xmlns:xlink="http://www.w3.org/1999/xlink" xmlns="http://www.w3.org/2000/svg">
<style type="text/css">
	.st0{fill:#565A5C;}
</style>
<g>
	<g>
		<rect y="10" x="22" width="2.7" height="2.7" class="st0"></rect>
		<rect y="10" x="26" width="2.7" height="2.7" class="st0"></rect>
		<rect y="10" x="30" width="2.7" height="2.7" class="st0"></rect>
		<rect y="10" x="34" width="2.7" height="2.7" class="st0"></rect>
		<rect y="26" x="18" width="2.7" height="2.7" class="st0"></rect>
		<rect y="26" x="22" width="2.7" height="2.7" class="st0"></rect>
		<rect y="26" x="26" width="2.7" height="2.7" class="st0"></rect>
		<rect y="26" x="30" width="2.7" height="2.7" class="st0"></rect>
		<rect y="30" x="26" width="2.7" height="2.7" class="st0"></rect>
		<rect y="30" x="30" width="2.7" height="2.7" class="st0"></rect>
		<rect y="26" x="34" width="2.7" height="2.7" class="st0"></rect>
		<rect y="26" x="38" width="2.7" height="2.7" class="st0"></rect>
		<rect y="30" x="22" width="2.7" height="2.7" class="st0"></rect>
		<rect y="30" x="34" width="2.7" height="2.7" class="st0"></rect>
		<rect y="34" x="18" width="2.7" height="2.7" class="st0"></rect>
		<rect y="34" x="22" width="2.7" height="2.7" class="st0"></rect>
		<rect y="34" x="34" width="2.7" height="2.7" class="st0"></rect>
		<rect y="34" x="38" width="2.7" height="2.7" class="st0"></rect>
		<rect y="14" x="18" width="2.7" height="2.7" class="st0"></rect>
		<rect y="14" x="22" width="2.7" height="2.7" class="st0"></rect>
		<rect y="14" x="26" width="2.7" height="2.7" class="st0"></rect>
		<rect y="14" x="30" width="2.7" height="2.7" class="st0"></rect>
		<rect y="14" x="34" width="2.7" height="2.7" class="st0"></rect>
		<rect y="14" x="38" width="2.7" height="2.7" class="st0"></rect>
		<rect y="18" x="10" width="2.7" height="2.7" class="st0"></rect>
		<rect y="18" x="14" width="2.7" height="2.7" class="st0"></rect>
		<rect y="22" x="14" width="2.7" height="2.7" class="st0"></rect>
		<rect y="18" x="42" width="2.7" height="2.7" class="st0"></rect>
		<rect y="18" x="46.1" width="2.7" height="2.7" class="st0"></rect>
		<rect y="22" x="42" width="2.7" height="2.7" class="st0"></rect>
		<rect y="34" x="38" width="2.7" height="2.7" class="st0"></rect>
		<rect y="38" x="42" width="2.7" height="2.7" class="st0"></rect>
		<rect y="38" x="38" width="2.7" height="2.7" class="st0"></rect>
		<rect y="42" x="42" width="2.7" height="2.7" class="st0"></rect>
		<rect y="38" x="14" width="2.7" height="2.7" class="st0"></rect>
		<rect y="38" x="18" width="2.7" height="2.7" class="st0"></rect>
		<rect y="42" x="38" width="2.7" height="2.7" class="st0"></rect>
		<rect y="42" x="14" width="2.7" height="2.7" class="st0"></rect>
		<rect y="42" x="18" width="2.7" height="2.7" class="st0"></rect>
	</g>
	<g>
		<path d="M125.5,31.8v-3.1c0-3.7,1.3-6.2,6.6-6.2h0.2c5.2,0,6.6,2.5,6.6,6.2v3.1c0,3.7-1.3,6.2-6.6,6.2H132    C126.8,38,125.5,35.5,125.5,31.8z M135.8,32.1v-3.8c0-2.6-0.7-3.6-3.7-3.6c-3,0-3.7,1-3.7,3.6v3.8c0,2.6,0.7,3.6,3.7,3.6    C135.1,35.7,135.8,34.7,135.8,32.1z" class="st0"></path>
		<path d="M157.7,31.8v-3.1c0-3.7,1.3-6.2,6.6-6.2h0.2c5.2,0,6.6,2.5,6.6,6.2v3.1c0,3.7-1.3,6.2-6.6,6.2h-0.2    C159,38,157.7,35.5,157.7,31.8z M168,32.1v-3.8c0-2.6-0.7-3.6-3.7-3.6c-3,0-3.7,1-3.7,3.6v3.8c0,2.6,0.7,3.6,3.7,3.6    C167.3,35.7,168,34.7,168,32.1z" class="st0"></path>
		<path d="M89.9,43c3.3-0.8,3.9-2.5,4.6-4.7l-6.4-15.5h3.2L96,34.7l4.1-11.9h3.2l-6.4,16.8c-1.1,3-2.1,4.7-6.3,5.7    L89.9,43z" class="st0"></path>
		<path d="M144.1,23.2c-0.7,0.1-1.3,0.3-2.4,0.5v14.1h3V25.4c7.1-1.1,7.3-0.6,7.3,4.4v7.9h3v-8.6    C155,25,155,20.9,144.1,23.2z" class="st0"></path>
		<path d="M65.6,23.2c-0.4,0.1-1.1,0.3-2.4,0.4v14.1h3V25.5c2.6-0.7,4.2-0.7,5.3-0.4l0.7-2.4    C70.6,22.4,68.8,22.3,65.6,23.2z" class="st0"></path>
		<path d="M118,29l-2.3-0.2c-1.9-0.2-2.3-0.4-2.3-1.9c0-1.5,0.5-2,2.5-2.1c1.6-0.1,3.7,0.1,5.5,0.3l0.7-2.3l0,0    c-1.9-0.2-4.4-0.4-6.5-0.4c-2.9,0.1-5,1.1-5.1,4.5v0.3c0,2.9,1.9,3.5,4.5,3.7l2.5,0.2c1.7,0.2,2.7,0.1,2.7,1.9    c0,1.9-0.9,2.4-3.4,2.4c-1.8,0-3.9-0.3-5.9-0.7l-0.7,2.3c1.8,0.4,4.2,0.8,6.9,0.8c4.5,0,6-2.1,6-4.3V33    C123.1,29.5,120.6,29.3,118,29z" class="st0"></path>
		<path d="M81.1,22.5c-1.9,0-4.2,0.2-6.8,0.7v0l0.7,2.3c1.3-0.3,4-0.6,5.5-0.6c2.7,0,3.1,0.8,3.1,2.7v1h-4.4    c-3.8,0-5.8,1.7-5.8,4.7v0.8c0,2.3,1.6,4,5,3.9c2.4,0,3.7-0.3,5.4-0.4c1-0.1,1.8-0.1,2.8,0V27.4C86.6,23.6,84.6,22.5,81.1,22.5z     M83.7,35.4c-0.8,0-2.3,0.3-4.9,0.2c-1.6,0-2.3-0.5-2.3-1.9v-0.4c0-1.8,0.9-2.5,3.3-2.5h3.9L83.7,35.4z" class="st0"></path>
	</g>
</g>
</svg>