<svg xmlns="http://www.w3.org/2000/svg" xml:space="preserve" fill-rule="evenodd" stroke-linejoin="round" stroke-miterlimit="2" clip-rule="evenodd" preserveAspectRatio="xMinYMin" viewBox="0 0 667 146"><path fill="#565a5c" fill-rule="nonzero" d="M49.659 0h11.173v11.154H49.659zm16.552 0h11.174v11.154H66.211zm16.553 0h11.174v11.154H82.764zm16.553 0h11.173v11.154H99.317zM33.106 66.1h11.173v11.154H33.106zm16.553 0h11.173v11.154H49.659zm16.552 0h11.174v11.154H66.211zm16.553 0h11.174v11.154H82.764zM66.211 82.625h11.174V93.78H66.211zm16.553 0h11.174V93.78H82.764zM99.317 66.1h11.173v11.154H99.317zm16.553 0h11.173v11.154H115.87zM49.659 82.625h11.173V93.78H49.659zm49.658 0h11.173V93.78H99.317zM33.106 99.15h11.173v11.155H33.106zm16.553 0h11.173v11.155H49.659zm49.658 0h11.173v11.155H99.317zm16.553 0h11.173v11.155H115.87zM33.106 16.525h11.173v11.154H33.106zm16.553 0h11.173v11.154H49.659zm16.552 0h11.174v11.154H66.211zm16.553 0h11.174v11.154H82.764zm16.553 0h11.173v11.154H99.317zm16.553 0h11.173v11.154H115.87zM0 33.05h11.173v11.154H0zm16.553 0h11.173v11.154H16.553zm0 16.525h11.173v11.154H16.553zm115.87-16.525h11.173v11.154h-11.173zm16.967 0h11.173v11.154H149.39zm-16.967 16.525h11.173v11.154h-11.173z"/><path fill="#565a5c" fill-rule="nonzero" d="M115.87 99.15h11.173v11.155H115.87zm16.553 16.525h11.173v11.155h-11.173zm-16.553 0h11.173v11.155H115.87zm16.553 16.525h11.173v11.155h-11.173zm-115.87-16.525h11.173v11.155H16.553zm16.553 0h11.173v11.155H33.106zM115.87 132.2h11.173v11.155H115.87zm-99.317 0h11.173v11.155H16.553zm16.553 0h11.173v11.155H33.106zm444.858-42.139V77.254c0-15.285 5.38-25.613 27.312-25.613h.828c21.519 0 27.312 10.328 27.312 25.613v12.807c0 15.286-5.38 25.614-27.312 25.614h-1.242c-21.518 0-26.898-10.328-26.898-25.614m42.624 1.24V75.602c0-10.741-2.897-14.873-15.312-14.873s-15.311 4.132-15.311 14.873v15.699c0 10.741 2.897 14.872 15.311 14.872s15.312-4.131 15.312-14.872m90.627-1.24V77.254c0-15.285 5.379-25.613 27.312-25.613h.827c21.519 0 27.313 10.328 27.313 25.613v12.807c0 15.286-5.38 25.614-27.313 25.614h-.827c-21.933 0-27.312-10.328-27.312-25.614m42.623 1.24V75.602c0-10.741-2.897-14.873-15.311-14.873s-15.312 4.132-15.312 14.873v15.699c0 10.741 2.897 14.872 15.312 14.872s15.311-4.131 15.311-14.872m-323.195 45.03c13.657-3.305 16.14-10.328 19.036-19.416L323.195 52.88h13.242l19.45 49.162 16.966-49.162h13.243l-26.485 69.405c-4.552 12.394-8.69 19.417-26.071 23.548zm224.292-81.798c-2.897.413-5.38 1.239-9.932 2.065v58.251h12.415V63.621c29.381-4.544 30.209-2.478 30.209 18.178v32.637h12.414V78.907c0-16.938 0-33.876-45.106-24.374m-324.85 0c-1.655.413-4.552 1.239-9.932 1.652v58.251h12.415V64.034c10.759-2.891 17.38-2.891 21.932-1.652l2.897-9.915c-6.621-1.239-14.07-1.653-27.312 2.066m216.842 23.961-9.518-.826c-7.862-.827-9.517-1.653-9.517-7.85s2.069-8.262 10.345-8.675c6.621-.414 15.312.413 22.76 1.239l2.897-9.502c-7.863-.826-18.208-1.652-26.898-1.652-12.001.413-20.691 4.544-21.105 18.59v1.24c0 11.98 7.862 14.459 18.622 15.285l10.345.826c7.035.827 11.173.414 11.173 7.85 0 7.849-3.724 9.915-14.069 9.915-7.449 0-16.14-1.239-24.416-2.892l-2.897 9.502c7.449 1.652 17.381 3.305 28.554 3.305 18.622 0 24.829-8.676 24.829-17.764v-2.066c0-14.46-10.345-15.286-21.105-16.525m-152.7-26.853c-7.862 0-17.38.826-28.14 2.892l2.897 9.501c5.38-1.239 16.553-2.478 22.76-2.478 11.173 0 12.829 3.305 12.829 11.154v4.131h-18.208c-15.726 0-24.002 7.023-24.002 19.417v3.305c0 9.502 6.621 16.525 20.691 16.112 9.932 0 15.311-1.239 22.346-1.652 4.139-.413 7.449-.413 11.587 0V71.884c0-15.699-8.276-20.243-22.76-20.243m10.76 53.293c-3.311 0-9.518 1.239-20.278.826-6.621 0-9.518-2.065-9.518-7.849v-1.653c0-7.436 3.725-10.328 13.657-10.328h16.139z"/></svg>