<svg xmlns="http://www.w3.org/2000/svg" preserveAspectRatio="xMinYMin" viewBox="0 0 181 56"><g fill="#565a5c"><path d="M22 10h2.7v2.7H22zm4 0h2.7v2.7H26zm4 0h2.7v2.7H30zm4 0h2.7v2.7H34zM18 26h2.7v2.7H18zm4 0h2.7v2.7H22zm4 0h2.7v2.7H26zm4 0h2.7v2.7H30zm-4 4h2.7v2.7H26zm4 0h2.7v2.7H30zm4-4h2.7v2.7H34zm4 0h2.7v2.7H38zm-16 4h2.7v2.7H22zm12 0h2.7v2.7H34zm-16 4h2.7v2.7H18zm4 0h2.7v2.7H22zm12 0h2.7v2.7H34zm4 0h2.7v2.7H38zM18 14h2.7v2.7H18zm4 0h2.7v2.7H22zm4 0h2.7v2.7H26zm4 0h2.7v2.7H30zm4 0h2.7v2.7H34zm4 0h2.7v2.7H38zm-28 4h2.7v2.7H10zm4 0h2.7v2.7H14zm0 4h2.7v2.7H14zm28-4h2.7v2.7H42zm4.1 0h2.7v2.7h-2.7zM42 22h2.7v2.7H42z"/><path d="M38 34h2.7v2.7H38zm4 4h2.7v2.7H42zm-4 0h2.7v2.7H38zm4 4h2.7v2.7H42zm-28-4h2.7v2.7H14zm4 0h2.7v2.7H18zm20 4h2.7v2.7H38zm-24 0h2.7v2.7H14zm4 0h2.7v2.7H18zm107.5-10.2v-3.1c0-3.7 1.3-6.2 6.6-6.2h.2c5.2 0 6.6 2.5 6.6 6.2v3.1c0 3.7-1.3 6.2-6.6 6.2h-.3c-5.2 0-6.5-2.5-6.5-6.2m10.3.3v-3.8c0-2.6-.7-3.6-3.7-3.6s-3.7 1-3.7 3.6v3.8c0 2.6.7 3.6 3.7 3.6s3.7-1 3.7-3.6m21.9-.3v-3.1c0-3.7 1.3-6.2 6.6-6.2h.2c5.2 0 6.6 2.5 6.6 6.2v3.1c0 3.7-1.3 6.2-6.6 6.2h-.2c-5.3 0-6.6-2.5-6.6-6.2m10.3.3v-3.8c0-2.6-.7-3.6-3.7-3.6s-3.7 1-3.7 3.6v3.8c0 2.6.7 3.6 3.7 3.6s3.7-1 3.7-3.6M89.9 43c3.3-.8 3.9-2.5 4.6-4.7l-6.4-15.5h3.2L96 34.7l4.1-11.9h3.2l-6.4 16.8c-1.1 3-2.1 4.7-6.3 5.7zm54.2-19.8c-.7.1-1.3.3-2.4.5v14.1h3V25.4c7.1-1.1 7.3-.6 7.3 4.4v7.9h3v-8.6c0-4.1 0-8.2-10.9-5.9m-78.5 0c-.4.1-1.1.3-2.4.4v14.1h3V25.5c2.6-.7 4.2-.7 5.3-.4l.7-2.4c-1.6-.3-3.4-.4-6.6.5M118 29l-2.3-.2c-1.9-.2-2.3-.4-2.3-1.9s.5-2 2.5-2.1c1.6-.1 3.7.1 5.5.3l.7-2.3c-1.9-.2-4.4-.4-6.5-.4-2.9.1-5 1.1-5.1 4.5v.3c0 2.9 1.9 3.5 4.5 3.7l2.5.2c1.7.2 2.7.1 2.7 1.9 0 1.9-.9 2.4-3.4 2.4-1.8 0-3.9-.3-5.9-.7l-.7 2.3c1.8.4 4.2.8 6.9.8 4.5 0 6-2.1 6-4.3V33c0-3.5-2.5-3.7-5.1-4m-36.9-6.5c-1.9 0-4.2.2-6.8.7l.7 2.3c1.3-.3 4-.6 5.5-.6 2.7 0 3.1.8 3.1 2.7v1h-4.4c-3.8 0-5.8 1.7-5.8 4.7v.8c0 2.3 1.6 4 5 3.9 2.4 0 3.7-.3 5.4-.4 1-.1 1.8-.1 2.8 0V27.4c0-3.8-2-4.9-5.5-4.9m2.6 12.9c-.8 0-2.3.3-4.9.2-1.6 0-2.3-.5-2.3-1.9v-.4c0-1.8.9-2.5 3.3-2.5h3.9z"/></g></svg>