<svg xmlns="http://www.w3.org/2000/svg" fill-rule="evenodd" stroke-linejoin="round" stroke-miterlimit="2" clip-rule="evenodd" preserveAspectRatio="xMinYMin" viewBox="0 0 250 67"><clipPath id="a"><path d="M0-28.985h250V95.653H0z"/></clipPath><g clip-path="url(#a)"><path fill="#02d34a" d="M53.14 6.685C53.14 2.992 56.121 0 59.811 0c3.673 0 6.663 2.992 6.663 6.685a6.67 6.67 0 0 1-6.663 6.669 6.665 6.665 0 0 1-6.671-6.669m.379 10.422-8.337 10.986-2.11 2.847 10.089 13.61a4.25 4.25 0 0 1 .845 2.582l-.068 17.996c0 .855-.692 1.539-1.538 1.539h-1.178a1.55 1.55 0 0 1-1.53-1.334l-2.195-16.218a2.22 2.22 0 0 0-.837-1.462l-11.558-9.19-5.475 3.343a4.86 4.86 0 0 1-2.401.692l-22.867.376a2.38 2.38 0 0 1-1.768-.752L.276 39.634c-.564-.598-.214-1.599.606-1.71l23.679-3.368L42.56 15.201l-14.548-2.745a2.5 2.5 0 0 1-1.136-.521l-2.349-1.898c-.512-.411-.222-1.231.436-1.231h8.38l15.273-.103a1.7 1.7 0 0 1 1.452.795l3.537 5.685a1.69 1.69 0 0 1-.086 1.924"/><path fill="#151f27" d="M101.866 24.173c0-3.374-2.621-5.452-6.037-5.452h-9.135v11.026h9.135c3.416 0 6.037-2.087 6.037-5.574m-.856 27.748-7.984-14.522h-6.332v14.522h-8.659V11.06h19.013c8.469 0 13.711 5.574 13.711 13.174 0 7.165-4.567 11.087-8.953 12.122l9.195 15.565zm16.205 0V11.06h28.754v7.661h-20.104v8.574h19.68v7.652h-19.68v9.313h20.104v7.661zm59.351-27.687c0-3.435-2.613-5.513-6.03-5.513h-9.143v10.965h9.143c3.417 0 6.03-2.087 6.03-5.452m-23.823 27.687V11.06h19.013c8.832 0 13.65 6 13.65 13.174 0 7.104-4.879 13.104-13.65 13.104h-10.363v14.583zm37.716 0V11.06h8.719v33.2h17.18v7.661zm35.346 0V35.199L210.21 11.06h9.868l10.053 16.357 10.051-16.357H250l-15.544 24.139v16.722z"/></g></svg>