<svg style="fill-rule:evenodd;clip-rule:evenodd;stroke-linejoin:round;stroke-miterlimit:2;" xml:space="preserve" xmlns:xlink="http://www.w3.org/1999/xlink" xmlns="http://www.w3.org/2000/svg" version="1.1" viewBox="0 0 250 67" height="100%" width="100%">
    <g>
        <clipPath id="_clip1">
            <rect height="124.638" width="250" y="-28.985" x="0"></rect>
        </clipPath>
        <g clip-path="url(#_clip1)">
            <path style="fill:#02d34a;" d="M53.14,6.685c-0,-3.693 2.981,-6.685 6.671,-6.685c3.673,-0 6.663,2.992 6.663,6.685c0,3.685 -2.99,6.669 -6.663,6.669c-3.69,-0 -6.671,-2.984 -6.671,-6.669Zm0.379,10.422l-8.337,10.986l-2.11,2.847l10.089,13.61c0.555,0.744 0.854,1.65 0.845,2.582l-0.068,17.996c0,0.855 -0.692,1.539 -1.538,1.539l-1.178,-0c-0.769,-0 -1.427,-0.573 -1.53,-1.334l-2.195,-16.218c-0.077,-0.581 -0.376,-1.103 -0.837,-1.462l-11.558,-9.19l-5.475,3.343c-0.726,0.436 -1.555,0.675 -2.401,0.692l-22.867,0.376c-0.667,0.009 -1.316,-0.265 -1.768,-0.752l-2.315,-2.488c-0.564,-0.598 -0.214,-1.599 0.606,-1.71l23.679,-3.368l17.999,-19.355l-14.548,-2.745c-0.418,-0.077 -0.811,-0.256 -1.136,-0.521l-2.349,-1.898c-0.512,-0.411 -0.222,-1.231 0.436,-1.231l8.38,-0l15.273,-0.103c0.59,-0.008 1.136,0.299 1.452,0.795l3.537,5.685c0.376,0.599 0.342,1.368 -0.086,1.924Z"></path>
            <path style="fill:#151f27;" d="M101.866,24.173c0,-3.374 -2.621,-5.452 -6.037,-5.452l-9.135,-0l-0,11.026l9.135,-0c3.416,-0 6.037,-2.087 6.037,-5.574Zm-0.856,27.748l-7.984,-14.522l-6.332,0l-0,14.522l-8.659,-0l-0,-40.861l19.013,0c8.469,0 13.711,5.574 13.711,13.174c-0,7.165 -4.567,11.087 -8.953,12.122l9.195,15.565l-9.991,-0Z"></path>
            <path style="fill:#151f27;" d="M117.215,51.921l0,-40.861l28.754,0l-0,7.661l-20.104,-0l0,8.574l19.68,-0l0,7.652l-19.68,-0l0,9.313l20.104,-0l-0,7.661l-28.754,-0Z"></path>
            <path style="fill:#151f27;" d="M176.566,24.234c-0,-3.435 -2.613,-5.513 -6.03,-5.513l-9.143,-0l-0,10.965l9.143,-0c3.417,-0 6.03,-2.087 6.03,-5.452Zm-23.823,27.687l-0,-40.861l19.013,0c8.832,0 13.65,6 13.65,13.174c0,7.104 -4.879,13.104 -13.65,13.104l-10.363,0l-0,14.583l-8.65,-0Z"></path>
            <path style="fill:#151f27;" d="M190.459,51.921l-0,-40.861l8.719,0l0,33.2l17.18,-0l-0,7.661l-25.899,-0Z"></path>
            <path style="fill:#151f27;" d="M225.805,51.921l-0,-16.722l-15.595,-24.139l9.868,0l10.053,16.357l10.051,-16.357l9.818,0l-15.544,24.139l-0,16.722l-8.651,-0Z"></path>
        </g>
    </g>
</svg>
