<svg viewBox="0 0 255 185" id="Ebene_1" xmlns="http://www.w3.org/2000/svg"><defs><style>.cls-1{fill:#5b48ee;}</style></defs><path d="M124.07,32.25V59.13h7.21v-13a7.33,7.33,0,0,1,7.57-7.74,11.25,11.25,0,0,1,1.74.16V32a12.31,12.31,0,0,0-2.37-.16c-3.21,0-5.47,2-6.84,5h-.1V32.25ZM155.51,60c8.78,0,14-5.89,14-14.36s-5.26-14.25-13.94-14.25c-8.84,0-14.1,5.94-14.1,14.36S146.77,60,155.51,60Zm.05-5.52c-4.42,0-6.68-3.42-6.68-8.78s2.26-8.74,6.68-8.74,6.63,3.37,6.63,8.74S159.92,54.45,155.56,54.45ZM186.17,60c8.79,0,14.05-5.89,14.05-14.36S195,31.36,186.28,31.36c-8.84,0-14.1,5.94-14.1,14.36S177.44,60,186.17,60Zm.05-5.52c-4.41,0-6.68-3.42-6.68-8.78s2.27-8.74,6.68-8.74,6.63,3.37,6.63,8.74S190.59,54.45,186.22,54.45Zm17.62,4.68h7.21V43.25c0-3.9,2-5.89,5.1-5.89,3.32,0,4.16,1.73,4.16,5.62V59.13h7.2V43.25c0-3.9,2-5.89,5.05-5.89,3.37,0,4.16,1.73,4.16,5.62V59.13H244V40.77c0-6-3-9.36-8.42-9.36-4.31,0-6.78,2.05-8.94,4.74h-.11a7.07,7.07,0,0,0-7.1-4.74,9.5,9.5,0,0,0-8.25,4.53h-.11V32.25h-7.21Zm-72.46,42.33a9.9,9.9,0,0,0,8,3.68c7.05,0,11.83-5.42,11.83-14.25s-4.78-14.26-11.83-14.26a10.23,10.23,0,0,0-8,3.68h-.1V77.47h-7.21v36.19h7.21v-12.2Zm6.21-19.25c4,0,6.21,3.42,6.21,8.68s-2.16,8.73-6.21,8.73c-3.84,0-6.15-3.16-6.15-8.73S133.75,82.21,137.59,82.21Zm17.25-4.74v26.88h7.21v-13a7.33,7.33,0,0,1,7.57-7.74,11.36,11.36,0,0,1,1.74.16V77.26A12.37,12.37,0,0,0,169,77.1c-3.21,0-5.47,2-6.84,5h-.1V77.47ZM174.51,66.9v6.79H182V66.9Zm.11,10.57v26.88h7.2V77.47Zm29.8,9.94h7.31c-.63-6.26-5.31-10.83-12.78-10.83-8.15,0-13.47,5.94-13.47,14.31s5.32,14.3,13.63,14.3c7.41,0,12.25-4.57,12.62-10.94h-7.31c-.21,2.68-1.42,5.37-5.37,5.37-4.31,0-6.15-3.69-6.15-8.73s1.89-8.74,6.15-8.74C203,82.15,204.21,85,204.42,87.41Zm23.51,17.78c7.36,0,11.62-3.68,13.09-9h-7.31c-.52,1.52-2,3.52-5.63,3.52-3.94,0-6.57-2.84-6.62-6.84h19.83V91.31c0-9.31-4.58-14.73-13.36-14.73S214.2,82.79,214.2,90.89C214.2,99.25,219.25,105.19,227.93,105.19ZM227.87,82c3.74,0,6.1,2.31,6.1,6H221.46C221.77,84.26,224.24,82,227.87,82Zm-87.49,65.83c0,4.89-1.74,6.94-5.95,6.94-3.47,0-4.89-1.47-5.41-3.31h-7.37c.79,4.52,4.68,8.68,12.78,8.68s13.15-3.37,13.15-12.41V123.64h-7.2v2.84h-.11a9.39,9.39,0,0,0-7.68-3.69c-6.83,0-11.52,5.16-11.52,13.21s4.69,13.2,11.52,13.2a9.13,9.13,0,0,0,7.68-3.68h.11Zm-6-19.46c3.84,0,5.89,2.73,5.89,7.63s-2.05,7.68-5.89,7.68c-4,0-5.89-3.05-5.89-7.68S130.33,128.37,134.38,128.37Zm30.57,23c7.37,0,11.63-3.68,13.1-9h-7.31c-.53,1.52-2,3.52-5.63,3.52-3.94,0-6.57-2.84-6.62-6.84h19.82v-1.52c0-9.31-4.57-14.73-13.36-14.73s-13.72,6.21-13.72,14.31C151.23,145.41,156.28,151.35,165,151.35Zm0-23.19c3.74,0,6.1,2.31,6.1,6.05H158.49C158.8,130.42,161.27,128.16,164.9,128.16Zm17.17,22.35h7.2V134.63c0-3.89,2.27-5.89,5.9-5.89,3.2,0,4.68,1.73,4.68,5.63v16.14h7.2V132.16c0-6.16-3.68-9.37-8.83-9.37-4.68,0-7.42,2.21-8.84,4.53h-.11v-3.68h-7.2Zm29.79-37.45v6.79h7.47v-6.79Zm.1,10.58v26.87h7.21V123.64Zm24.6,27.71c7.36,0,11.62-3.68,13.1-9h-7.32c-.52,1.52-2,3.52-5.62,3.52-3.95,0-6.58-2.84-6.63-6.84h19.83v-1.52c0-9.31-4.58-14.73-13.36-14.73s-13.73,6.21-13.73,14.31C222.83,145.41,227.88,151.35,236.56,151.35Zm-.05-23.19c3.73,0,6.1,2.31,6.1,6.05H230.09C230.4,130.42,232.88,128.16,236.51,128.16Z" class="cls-1"></path><path d="M87.46,81.25c-.62-8.58-3.41-14.71-8.31-18.24-3.71-3.22-8.8-3.73-13.72-4.21l-.86-.09a33.56,33.56,0,0,0,1.85-13.24c2.9-4.43,4.33-13.54,1-20.07-3.58-6.94-7.19-8.95-10.67-10.9l-1.14-.64a21.58,21.58,0,0,1-6.29-5.59,30.26,30.26,0,0,1-2.21-3.8L44,7.58c-2.79,2.79-6.65,5.66-12.5,9.31C24,21.54,16.6,27.09,15.16,39.06c-1.13,9.38,5.75,15,12.46,17.24a22.8,22.8,0,0,0,1.86,3.16c-6.85,1.76-15.81,4.21-19.73,9.73C4.81,76.15,5,87.7,5.14,91.07c.35,7.1,2.44,14.8,5.2,19.15h0a11,11,0,0,0,6.1,4.66c1.86,6.09,5.89,11,9.13,15.34,3.59,4.86,6.62,9.55,7.37,15.9a50.66,50.66,0,0,1-1.67,18.51,51.06,51.06,0,0,1-2,6.09c-.77,1.93-4.45,9.8-4.45,9.8s9.53-3.75,10.27-4.11a66.39,66.39,0,0,0,6-3.33,85.36,85.36,0,0,0,17.93-15c12-13.22,18.25-32.92,20-47.93.44-.13.88-.28,1.31-.44C84.53,108.06,89.13,101.77,87.46,81.25Zm-57.2,89.94h0Zm0,0Zm3-119s-1.31-4.34.21-7c2.32-4,8.53-7.42,12.24-9.45.75-.41,1.41-.77,2-1.1,2.08.8,6.63,3.24,8.31,5.12a16.84,16.84,0,0,1,3.39,5.26,5.26,5.26,0,0,1,.33,1.54,26.21,26.21,0,0,1-3.09,13.3c-1.68,2.87-3.84,4.62-6.42,5.21-3,.67-8-1.79-12.2-6A19.34,19.34,0,0,1,33.25,52.21ZM21.88,39.87c1.09-9,6.6-13.14,13.16-17.23a92.14,92.14,0,0,0,11-7.76,28.75,28.75,0,0,0,6.4,5l1,.56c3.08,1.72,5.31,3,8,8.1a14.24,14.24,0,0,1,1,8.39c-.39-.53-.83-1.07-1.33-1.63A29,29,0,0,0,53.57,30c-3.07-1.61-4.75-2.29-6.29-2.29s-3.73,1.56-4.82,2.16c-4.62,2.52-11.59,6.33-14.87,12a14.24,14.24,0,0,0-2,6A8.17,8.17,0,0,1,21.88,39.87ZM54.07,153.54a78.2,78.2,0,0,1-16.49,13.79l0,0,.27-1a57.29,57.29,0,0,0,1.86-21c-1-8.22-5-14.12-8.66-19.14-2.86-3.88-5.39-7.06-7-10.52A64.69,64.69,0,0,0,48.17,110l4.74.37c6,.48,11.53.92,16.23.92,1,0,2,0,3-.08C70.21,125,64.39,142.2,54.07,153.54Zm23.86-50.12a14.27,14.27,0,0,1-2.82.74c-5,.82-12.73.2-21.66-.51l-1-.08a75.43,75.43,0,0,1,5.89-5.67c3.15-2.65,6-4.37,8.7-5a3,3,0,0,0,2.44-2.77V88.58A2.2,2.2,0,0,0,67,86.3a19.69,19.69,0,0,0-6,2s-.48,0-.67,0a188,188,0,0,0-22.43-.68,34.4,34.4,0,0,0-14.1,3.48A2.3,2.3,0,0,0,23,94.37l.82,1.28a2.7,2.7,0,0,0,3.48.87,28.64,28.64,0,0,1,11-2.5,122.17,122.17,0,0,1,14.31.28,146.42,146.42,0,0,0-10.45,10.93,59.89,59.89,0,0,1-19.78,3.7,14.1,14.1,0,0,1-3.53-.37,4.3,4.3,0,0,1-2.82-2c-1.82-2.86-3.83-9.23-4.16-15.85-.36-7.42.93-14.18,3.37-17.62,2.63-3.7,11.41-6,16.66-7.29,1-.24,1.81-.46,2.6-.68C37.4,67.72,43.06,72,49.07,72a11.84,11.84,0,0,0,2.63-.29,16.29,16.29,0,0,0,9.55-6.55c1.19.15,2.37.27,3.52.39,4.26.42,7.94.78,10,2.64l.32.25c3.25,2.29,5.13,6.76,5.61,13.34C81.93,96.79,79.32,102.86,77.93,103.42Z" class="cls-1"></path></svg>