<svg xmlns="http://www.w3.org/2000/svg" preserveAspectRatio="xMinYMin" viewBox="0 0 255 185"><path fill="#5b48ee" d="M124.07 32.25v26.88h7.21v-13a7.33 7.33 0 0 1 7.57-7.74 11 11 0 0 1 1.74.16V32a12.3 12.3 0 0 0-2.37-.16c-3.21 0-5.47 2-6.84 5h-.1v-4.59zM155.51 60c8.78 0 14-5.89 14-14.36s-5.26-14.25-13.94-14.25c-8.84 0-14.1 5.94-14.1 14.36S146.77 60 155.51 60m.05-5.52c-4.42 0-6.68-3.42-6.68-8.78s2.26-8.74 6.68-8.74 6.63 3.37 6.63 8.74-2.27 8.75-6.63 8.75zM186.17 60c8.79 0 14.05-5.89 14.05-14.36S195 31.36 186.28 31.36c-8.84 0-14.1 5.94-14.1 14.36S177.44 60 186.17 60m.05-5.52c-4.41 0-6.68-3.42-6.68-8.78s2.27-8.74 6.68-8.74 6.63 3.37 6.63 8.74-2.26 8.75-6.63 8.75zm17.62 4.68h7.21V43.25c0-3.9 2-5.89 5.1-5.89 3.32 0 4.16 1.73 4.16 5.62v16.15h7.2V43.25c0-3.9 2-5.89 5.05-5.89 3.37 0 4.16 1.73 4.16 5.62v16.15H244V40.77c0-6-3-9.36-8.42-9.36-4.31 0-6.78 2.05-8.94 4.74h-.11a7.07 7.07 0 0 0-7.1-4.74 9.5 9.5 0 0 0-8.25 4.53h-.11v-3.69h-7.21zm-72.46 42.33a9.9 9.9 0 0 0 8 3.68c7.05 0 11.83-5.42 11.83-14.25s-4.78-14.26-11.83-14.26a10.23 10.23 0 0 0-8 3.68h-.1v-2.87h-7.21v36.19h7.21v-12.2zm6.21-19.25c4 0 6.21 3.42 6.21 8.68s-2.16 8.73-6.21 8.73c-3.84 0-6.15-3.16-6.15-8.73s2.31-8.71 6.15-8.71zm17.25-4.74v26.88h7.21v-13a7.33 7.33 0 0 1 7.57-7.74 11.4 11.4 0 0 1 1.74.16v-6.54a12.4 12.4 0 0 0-2.36-.16c-3.21 0-5.47 2-6.84 5h-.1v-4.63zm19.67-10.6v6.79H182V66.9zm.11 10.57v26.88h7.2V77.47zm29.8 9.94h7.31c-.63-6.26-5.31-10.83-12.78-10.83-8.15 0-13.47 5.94-13.47 14.31s5.32 14.3 13.63 14.3c7.41 0 12.25-4.57 12.62-10.94h-7.31c-.21 2.68-1.42 5.37-5.37 5.37-4.31 0-6.15-3.69-6.15-8.73s1.89-8.74 6.15-8.74c3.95 0 5.16 2.85 5.37 5.26m23.51 17.78c7.36 0 11.62-3.68 13.09-9h-7.31c-.52 1.52-2 3.52-5.63 3.52-3.94 0-6.57-2.84-6.62-6.84h19.83v-1.56c0-9.31-4.58-14.73-13.36-14.73s-13.73 6.21-13.73 14.31c0 8.36 5.05 14.3 13.73 14.3M227.87 82c3.74 0 6.1 2.31 6.1 6h-12.51c.31-3.74 2.78-6 6.41-6m-87.49 65.83c0 4.89-1.74 6.94-5.95 6.94-3.47 0-4.89-1.47-5.41-3.31h-7.37c.79 4.52 4.68 8.68 12.78 8.68s13.15-3.37 13.15-12.41v-24.09h-7.2v2.84h-.11a9.39 9.39 0 0 0-7.68-3.69c-6.83 0-11.52 5.16-11.52 13.21s4.69 13.2 11.52 13.2a9.13 9.13 0 0 0 7.68-3.68h.11zm-6-19.46c3.84 0 5.89 2.73 5.89 7.63s-2.05 7.68-5.89 7.68c-4 0-5.89-3.05-5.89-7.68s1.84-7.63 5.89-7.63m30.57 23c7.37 0 11.63-3.68 13.1-9h-7.31c-.53 1.52-2 3.52-5.63 3.52-3.94 0-6.57-2.84-6.62-6.84h19.82v-1.52c0-9.31-4.57-14.73-13.36-14.73s-13.72 6.21-13.72 14.31c0 8.3 5.05 14.24 13.77 14.24zm0-23.19c3.74 0 6.1 2.31 6.1 6.05h-12.56c.31-3.81 2.78-6.07 6.41-6.07zm17.17 22.35h7.2v-15.9c0-3.89 2.27-5.89 5.9-5.89 3.2 0 4.68 1.73 4.68 5.63v16.14h7.2v-18.35c0-6.16-3.68-9.37-8.83-9.37-4.68 0-7.42 2.21-8.84 4.53h-.11v-3.68h-7.2zm29.79-37.45v6.79h7.47v-6.79zm.1 10.58v26.87h7.21v-26.89zm24.6 27.71c7.36 0 11.62-3.68 13.1-9h-7.32c-.52 1.52-2 3.52-5.62 3.52-3.95 0-6.58-2.84-6.63-6.84h19.83v-1.52c0-9.31-4.58-14.73-13.36-14.73s-13.73 6.21-13.73 14.31c-.05 8.3 5 14.24 13.68 14.24zm-.05-23.19c3.73 0 6.1 2.31 6.1 6.05h-12.57c.31-3.81 2.79-6.07 6.42-6.07zM87.46 81.25c-.62-8.58-3.41-14.71-8.31-18.24-3.71-3.22-8.8-3.73-13.72-4.21l-.86-.09a33.6 33.6 0 0 0 1.85-13.24c2.9-4.43 4.33-13.54 1-20.07-3.58-6.94-7.19-8.95-10.67-10.9l-1.14-.64a21.6 21.6 0 0 1-6.29-5.59 30 30 0 0 1-2.21-3.8L44 7.58c-2.79 2.79-6.65 5.66-12.5 9.31-7.5 4.65-14.9 10.2-16.34 22.17-1.13 9.38 5.75 15 12.46 17.24a23 23 0 0 0 1.86 3.16c-6.85 1.76-15.81 4.21-19.73 9.73C4.81 76.15 5 87.7 5.14 91.07c.35 7.1 2.44 14.8 5.2 19.15a11 11 0 0 0 6.1 4.66c1.86 6.09 5.89 11 9.13 15.34 3.59 4.86 6.62 9.55 7.37 15.9a50.7 50.7 0 0 1-1.67 18.51 51 51 0 0 1-2 6.09c-.77 1.93-4.45 9.8-4.45 9.8s9.53-3.75 10.27-4.11a66 66 0 0 0 6-3.33 85.4 85.4 0 0 0 17.93-15c12-13.22 18.25-32.92 20-47.93.44-.13.88-.28 1.31-.44 4.2-1.65 8.8-7.94 7.13-28.46m-54.2-29.06s-1.31-4.34.21-7c2.32-4 8.53-7.42 12.24-9.45.75-.41 1.41-.77 2-1.1 2.08.8 6.63 3.24 8.31 5.12a16.8 16.8 0 0 1 3.39 5.26 5.3 5.3 0 0 1 .33 1.54 26.2 26.2 0 0 1-3.09 13.3c-1.68 2.87-3.84 4.62-6.42 5.21-3 .67-8-1.79-12.2-6a19.3 19.3 0 0 1-4.78-6.86zM21.88 39.87c1.09-9 6.6-13.14 13.16-17.23a92 92 0 0 0 11-7.76 28.8 28.8 0 0 0 6.4 5l1 .56c3.08 1.72 5.31 3 8 8.1a14.24 14.24 0 0 1 1 8.39c-.39-.53-.83-1.07-1.33-1.63a29 29 0 0 0-7.54-5.3c-3.07-1.61-4.75-2.29-6.29-2.29s-3.73 1.56-4.82 2.16c-4.62 2.52-11.59 6.33-14.87 12a14.24 14.24 0 0 0-2 6 8.17 8.17 0 0 1-3.71-8m32.19 113.67a78.2 78.2 0 0 1-16.49 13.79l.27-1a57.3 57.3 0 0 0 1.86-21c-1-8.22-5-14.12-8.66-19.14-2.86-3.88-5.39-7.06-7-10.52A64.7 64.7 0 0 0 48.17 110l4.74.37c6 .48 11.53.92 16.23.92 1 0 2 0 3-.08-1.93 13.79-7.75 30.99-18.07 42.33m23.86-50.12a14.3 14.3 0 0 1-2.82.74c-5 .82-12.73.2-21.66-.51l-1-.08a75 75 0 0 1 5.89-5.67c3.15-2.65 6-4.37 8.7-5a3 3 0 0 0 2.44-2.77v-1.55A2.2 2.2 0 0 0 67 86.3a19.7 19.7 0 0 0-6 2h-.67a188 188 0 0 0-22.43-.68 34.4 34.4 0 0 0-14.1 3.48 2.3 2.3 0 0 0-.8 3.27l.82 1.28a2.7 2.7 0 0 0 3.48.87 28.6 28.6 0 0 1 11-2.5 122 122 0 0 1 14.31.28 146 146 0 0 0-10.45 10.93 59.9 59.9 0 0 1-19.78 3.7 14 14 0 0 1-3.53-.37 4.3 4.3 0 0 1-2.82-2c-1.82-2.86-3.83-9.23-4.16-15.85-.36-7.42.93-14.18 3.37-17.62 2.63-3.7 11.41-6 16.66-7.29 1-.24 1.81-.46 2.6-.68 2.9 2.6 8.56 6.88 14.57 6.88a12 12 0 0 0 2.63-.29 16.3 16.3 0 0 0 9.55-6.55c1.19.15 2.37.27 3.52.39 4.26.42 7.94.78 10 2.64l.32.25c3.25 2.29 5.13 6.76 5.61 13.34 1.23 15.01-1.38 21.08-2.77 21.64"/></svg>