<svg xmlns="http://www.w3.org/2000/svg" xml:space="preserve" fill-rule="evenodd" stroke-linejoin="round" stroke-miterlimit="2" clip-rule="evenodd" preserveAspectRatio="xMinYMin" viewBox="0 0 1042 750"><path fill="#5b48ee" fill-rule="nonzero" d="M506.116 118.17v114.342h30.67v-55.3a30 30 0 0 1-.05-1.762c0-17.105 14.075-31.18 31.18-31.18q.535 0 1.071.018a47 47 0 0 1 7.401.681v-27.862a52.3 52.3 0 0 0-10.081-.681c-13.655 0-23.268 8.507-29.096 21.269h-.425V118.17zm133.739 118.042c37.348 0 59.553-25.054 59.553-61.084s-22.375-60.616-59.298-60.616c-37.603 0-59.978 25.267-59.978 61.084s22.545 60.616 59.723 60.616m.212-23.481c-18.801 0-28.415-14.547-28.415-37.348s9.614-37.178 28.415-37.178c18.802 0 28.203 14.335 28.203 37.178s-9.656 37.221-28.203 37.221zm130.209 23.481c37.39 0 59.765-25.054 59.765-61.084s-22.205-60.744-59.297-60.744c-37.604 0-59.979 25.268-59.979 61.084s22.375 60.744 59.511 60.744m.212-23.481c-18.759 0-28.415-14.547-28.415-37.348s9.656-37.178 28.415-37.178 28.203 14.335 28.203 37.178-9.614 37.221-28.203 37.221zm74.952 19.908h30.67v-67.677c0-16.59 8.507-25.055 21.694-25.055 14.122 0 17.696 7.359 17.696 23.906v68.699h30.627v-67.55c0-16.59 8.507-25.055 21.481-25.055 14.336 0 17.696 7.359 17.696 23.906v68.699h30.968v-78.1c0-25.523-12.762-39.815-35.817-39.815-18.334 0-28.841 8.72-38.029 20.163h-.468c-4.402-12.689-16.795-20.962-30.202-20.163a40.45 40.45 0 0 0-35.093 19.269h-.468V118.17h-30.67zM537.211 412.702a42.14 42.14 0 0 0 34.03 15.653c29.989 0 50.323-23.055 50.323-60.616s-20.334-60.659-50.323-60.659a43.54 43.54 0 0 0-34.03 15.654h-.425v-12.208h-30.67V464.47h30.67v-51.896zm26.416-81.886c17.015 0 26.416 14.548 26.416 36.923s-9.188 37.136-26.416 37.136c-16.334 0-26.161-13.442-26.161-37.136 0-23.693 9.827-37.05 26.161-37.05zm73.378-20.163v114.342h30.669v-55.299a31 31 0 0 1-.049-1.763c0-17.105 14.075-31.18 31.18-31.18q.535 0 1.071.019c2.481.037 4.955.264 7.401.68v-27.819a52.7 52.7 0 0 0-10.039-.681c-13.654 0-23.268 8.507-29.096 21.269h-.425v-19.695zm83.672-45.09v28.884h31.86v-28.884zm.467 44.963v114.341h30.628V310.526zm126.763 42.282h31.095c-2.68-26.628-22.587-46.068-54.363-46.068-34.668 0-57.299 25.267-57.299 60.872 0 35.604 22.631 60.829 57.979 60.829 31.521 0 52.109-19.44 53.683-46.537h-31.095c-.893 11.4-6.04 22.843-22.843 22.843-18.334 0-26.16-15.696-26.16-37.135 0-21.44 8.039-37.178 26.16-37.178 16.803 0 21.95 12.123 22.843 22.374m100.006 75.633c31.308 0 49.429-15.654 55.682-38.284H972.5c-2.212 6.465-8.507 14.973-23.949 14.973-16.759 0-27.947-12.081-28.16-29.096h84.353v-6.636c0-39.603-19.482-62.658-56.831-62.658-37.348 0-58.404 26.416-58.404 60.872 0 35.561 21.482 60.829 58.404 60.829m-.255-98.646c15.909 0 25.948 9.827 25.948 25.523h-53.215c1.319-15.909 11.826-25.523 27.267-25.523M575.495 609.822c0 20.801-7.401 29.521-25.31 29.521-14.76 0-20.801-6.253-23.013-14.08h-31.35c3.36 19.227 19.908 36.923 54.363 36.923 34.456 0 55.937-14.336 55.937-52.79V506.923h-30.627v12.08h-.468a39.97 39.97 0 0 0-32.669-15.696c-29.053 0-49.003 21.95-49.003 56.192s19.95 56.15 49.003 56.15a38.87 38.87 0 0 0 32.669-15.654h.468zm-25.523-82.779c16.335 0 25.055 11.613 25.055 32.456s-8.72 32.669-25.055 32.669c-17.015 0-25.054-12.974-25.054-32.669s7.827-32.456 25.054-32.456M680.01 624.88c31.351 0 49.472-15.654 55.725-38.284H704.64c-2.255 6.466-8.508 14.973-23.949 14.973-16.76 0-27.947-12.08-28.16-29.096h84.31v-6.465c0-39.603-19.44-62.658-56.831-62.658-37.39 0-58.361 26.416-58.361 60.871 0 35.307 21.481 60.574 58.574 60.574zm0-98.645c15.91 0 25.948 9.826 25.948 25.735h-53.427c1.319-16.207 11.826-25.82 27.267-25.82zm73.038 95.072h30.627v-67.635c0-16.547 9.656-25.055 25.097-25.055 13.612 0 19.908 7.359 19.908 23.949v68.656h30.627v-78.057c0-26.203-15.654-39.858-37.561-39.858-19.907 0-31.563 9.401-37.603 19.27h-.468v-15.654h-30.627zm126.72-159.304v28.883h31.776v-28.883zm.425 45.005v114.299h30.67V506.923zM984.836 624.88c31.308 0 49.429-15.654 55.725-38.284h-31.138c-2.212 6.466-8.508 14.973-23.906 14.973-16.803 0-27.99-12.08-28.203-29.096h84.353v-6.465c0-39.603-19.483-62.658-56.831-62.658s-58.404 26.416-58.404 60.871c-.213 35.307 21.269 60.574 58.191 60.574zm-.213-98.645c15.867 0 25.949 9.826 25.949 25.735h-53.47c1.318-16.207 11.868-25.82 27.309-25.82zm-634.238-199.63c-2.637-36.497-14.505-62.573-35.349-77.589-15.781-13.697-37.433-15.866-58.362-17.908l-3.658-.383a142.9 142.9 0 0 0 7.87-56.32c12.336-18.844 18.419-57.596 4.253-85.373-15.228-29.522-30.584-38.072-45.387-46.367l-4.85-2.722a91.9 91.9 0 0 1-26.756-23.779A127.6 127.6 0 0 1 178.745 0l-13.229 13.229c-11.868 11.868-28.288 24.077-53.172 39.603-31.904 19.78-63.382 43.388-69.507 94.306-4.807 39.901 24.459 63.807 53.002 73.335a98 98 0 0 0 7.912 13.442c-29.138 7.487-67.252 17.909-83.927 41.39C-1.19 304.911-.381 354.042.214 368.377c1.489 30.202 10.379 62.956 22.12 81.46a46.8 46.8 0 0 0 25.948 19.823c7.912 25.905 25.055 46.791 38.837 65.253 15.271 20.673 28.16 40.623 31.35 67.635a215.7 215.7 0 0 1-7.104 78.737 217 217 0 0 1-8.507 25.906c-3.276 8.209-18.93 41.687-18.93 41.687s40.539-15.952 43.687-17.483a281 281 0 0 0 25.522-14.165 363.3 363.3 0 0 0 76.271-63.807c51.045-56.235 77.631-140.034 85.075-203.884a86 86 0 0 0 5.573-1.871c17.866-7.019 37.433-33.775 30.329-121.063M119.83 202.99s-5.572-18.461.894-29.776c9.868-17.015 36.284-31.563 52.066-40.198 3.19-1.744 5.998-3.276 8.507-4.68 8.848 3.404 28.203 13.783 35.349 21.78a71.5 71.5 0 0 1 14.421 22.375 22.6 22.6 0 0 1 1.403 6.551 111.46 111.46 0 0 1-13.144 56.575c-7.146 12.208-16.334 19.652-27.309 22.162-12.761 2.85-34.03-7.614-51.896-25.523a82.1 82.1 0 0 1-20.333-29.181zm-48.408-52.406c4.637-38.284 28.075-55.895 55.98-73.293a391.5 391.5 0 0 0 46.792-33.009 122.5 122.5 0 0 0 27.224 21.269l4.254 2.382c13.101 7.316 22.587 12.761 34.03 34.455a60.6 60.6 0 0 1 4.254 35.69 95 95 0 0 0-5.658-6.934 123.4 123.4 0 0 0-32.073-22.545c-13.06-6.849-20.206-9.741-26.757-9.741-6.55 0-15.866 6.636-20.503 9.188-19.652 10.719-49.301 26.926-63.254 51.045a60.6 60.6 0 0 0-8.507 25.523c-11.436-7.274-17.617-20.602-15.782-34.03m136.929 483.527a332.6 332.6 0 0 1-70.144 58.659l1.148-4.253a243.7 243.7 0 0 0 7.912-89.33c-4.254-34.966-21.269-60.063-36.837-81.417-12.166-16.505-22.928-30.032-29.777-44.75a275.2 275.2 0 0 0 102.601-24.119l20.163 1.574c25.523 2.042 49.046 3.914 69.039 3.914 4.254 0 8.507 0 12.761-.341-8.21 58.66-32.967 131.825-76.866 180.063m101.496-213.2a60.8 60.8 0 0 1-11.996 3.148c-21.269 3.488-54.151.851-92.137-2.169l-4.254-.341a319 319 0 0 1 25.055-24.118c13.4-11.273 25.523-18.589 37.008-21.269 5.734-1.079 10.033-5.959 10.379-11.783v-6.594a10 10 0 0 0 .01-.417c0-5.134-4.225-9.359-9.359-9.359q-.602 0-1.2.078a83.8 83.8 0 0 0-25.523 8.507h-2.85a800 800 0 0 0-95.412-2.892 146.3 146.3 0 0 0-59.978 14.803 9.783 9.783 0 0 0-3.403 13.91l3.488 5.445c3.267 4.783 9.669 6.383 14.803 3.7a121.7 121.7 0 0 1 46.791-10.634 519 519 0 0 1 60.872 1.191 621 621 0 0 0-44.452 46.494 254.8 254.8 0 0 1-84.14 15.739 59.6 59.6 0 0 1-15.016-1.574 18.3 18.3 0 0 1-11.995-8.508c-7.742-12.166-16.292-39.262-17.696-67.422-1.531-31.563 3.956-60.319 14.335-74.952 11.188-15.739 48.536-25.522 70.868-31.01 4.254-1.021 7.7-1.957 11.06-2.892 12.336 11.059 36.412 29.266 61.978 29.266a51 51 0 0 0 11.187-1.234 69.36 69.36 0 0 0 40.624-27.862c5.062.638 10.081 1.148 14.973 1.659 18.121 1.786 33.775 3.318 42.538 11.23l1.361 1.063c13.825 9.741 21.822 28.756 23.864 56.746 5.232 63.849-5.871 89.669-11.783 92.051"/></svg>