<svg xmlns="http://www.w3.org/2000/svg" preserveAspectRatio="xMinYMin" viewBox="0 0 125 30"><path fill="currentColor" d="m64.099 5.86-2.151-1.809-6.179 7.382V1.798h-2.808v9.635l-6.178-7.382-2.152 1.81 6.179 7.38-9.459-1.69-.489 2.773 9.46 1.69-8.336 4.818 1.404 2.44 8.318-4.818-3.285 9.055 2.64.964 3.285-9.055 3.286 9.055 2.634-.964-3.28-9.055 8.313 4.818 1.404-2.44-8.313-4.818 9.459-1.69-.489-2.772-9.458 1.69zm-51.978 15.4a5.93 5.93 0 0 1-3.1.722 5.7 5.7 0 0 1-3.494-.998 3.38 3.38 0 0 1-1.466-2.564H.001a6.1 6.1 0 0 0 2.555 5.044q2.477 1.814 6.504 1.82a11.5 11.5 0 0 0 4.291-.761 6.87 6.87 0 0 0 3.005-2.198 5.3 5.3 0 0 0 1.096-3.307 5 5 0 0 0-1.056-3.348 6.04 6.04 0 0 0-2.809-1.803 21.8 21.8 0 0 0-4.336-.84c-1.275-.157-2.196-.298-2.769-.41a3.3 3.3 0 0 1-1.426-.632 1.62 1.62 0 0 1-.562-1.352 2.16 2.16 0 0 1 1.123-1.916 5.56 5.56 0 0 1 2.966-.704 5.04 5.04 0 0 1 3.044.879 3.15 3.15 0 0 1 1.37 2.254h4.095a5.98 5.98 0 0 0-2.555-4.74q-2.36-1.69-6.15-1.69a10.3 10.3 0 0 0-4.118.784 6.7 6.7 0 0 0-2.847 2.214 5.4 5.4 0 0 0-1.034 3.268 4.52 4.52 0 0 0 1.034 3.116 6 6 0 0 0 2.73 1.69 25 25 0 0 0 4.313.84c1.275.158 2.219.31 2.808.451a3.1 3.1 0 0 1 1.466.727 1.97 1.97 0 0 1 .562 1.527 2.19 2.19 0 0 1-1.18 1.927M19.34 4.987h3.668l.51 2.975a7.75 7.75 0 0 1 2.86-2.42 7.7 7.7 0 0 1 3.656-.792 9.6 9.6 0 0 1 4.881 1.234 8.56 8.56 0 0 1 3.37 3.561 11.7 11.7 0 0 1 1.214 5.466 11.5 11.5 0 0 1-1.214 5.387 8.77 8.77 0 0 1-3.37 3.6 9.35 9.35 0 0 1-4.88 1.274 8.55 8.55 0 0 1-3.865-.822 6.84 6.84 0 0 1-2.612-2.254V30H19.34zm4.179 9.945a7.3 7.3 0 0 0 1.6 4.897 5.28 5.28 0 0 0 4.213 1.882 5.31 5.31 0 0 0 4.235-1.882 7.1 7.1 0 0 0 1.623-4.818 7 7 0 0 0-1.623-4.817 5.8 5.8 0 0 0-4.212-1.824 5.78 5.78 0 0 0-4.213 1.824 6.94 6.94 0 0 0-1.623 4.738M74.687 0h-4.258v19.592c0 1.854.438 3.23 1.309 4.114.87.884 2.246 1.33 4.162 1.33h3.589v-3.72h-2.73a2.14 2.14 0 0 1-1.6-.49 2.36 2.36 0 0 1-.472-1.662V8.706h4.802v-3.72h-4.802zm15.98 8.706v-3.72h-4.842V0h-4.219v19.592c0 1.854.427 3.23 1.287 4.114s2.246 1.33 4.14 1.33h4.06v-3.72h-3.201a2.16 2.16 0 0 1-1.601-.49 2.36 2.36 0 0 1-.466-1.662V8.706zm19.282.563a10.06 10.06 0 0 1 1.303 5.072q0 .807-.113 1.606h-15.07v.191a6.2 6.2 0 0 0 1.64 4.147 5.24 5.24 0 0 0 3.932 1.527 5.6 5.6 0 0 0 3.275-.918 4.35 4.35 0 0 0 1.758-2.603h4.218a8.13 8.13 0 0 1-2.949 5.015 9.2 9.2 0 0 1-5.993 1.955 11.14 11.14 0 0 1-5.448-1.273 8.9 8.9 0 0 1-3.589-3.584 10.94 10.94 0 0 1-1.27-5.365 11.5 11.5 0 0 1 1.23-5.426 8.8 8.8 0 0 1 3.438-3.6 9.9 9.9 0 0 1 5.055-1.274 10.7 10.7 0 0 1 5.095 1.172 8.7 8.7 0 0 1 3.488 3.341zm-2.989 3.567a5.08 5.08 0 0 0-1.735-3.426 5.53 5.53 0 0 0-3.69-1.234 5.33 5.33 0 0 0-3.573 1.274 4.92 4.92 0 0 0-1.735 3.38zm10.616 2.153c-.06-1.53.35-3.04 1.174-4.328q1.173-1.69 3.786-1.69h1.876V5.026h-.938a7.2 7.2 0 0 0-3.668.8 6.3 6.3 0 0 0-2.247 2.215l-.466-3.015h-3.746v20.05h4.212z"/></svg>