<svg xmlns="http://www.w3.org/2000/svg" xml:space="preserve" fill-rule="evenodd" stroke-linejoin="round" stroke-miterlimit="2" clip-rule="evenodd" preserveAspectRatio="xMinYMin" viewBox="0 0 517 125"><path fill-rule="nonzero" d="m267.079 24.417-8.962-7.538-25.746 30.759V7.492h-11.7v40.146l-25.742-30.759-8.966 7.542 25.745 30.75-39.412-7.042-2.038 11.554 39.417 7.042L174.942 86.8l5.85 10.167 34.658-20.075-13.687 37.729 11 4.016 13.687-37.729 13.692 37.729 10.975-4.016-13.667-37.729 34.638 20.075 5.85-10.167L243.3 66.725l39.413-7.042-2.038-11.55-39.408 7.042zM50.504 88.583a24.7 24.7 0 0 1-12.916 3.009 23.76 23.76 0 0 1-14.559-4.159 14.1 14.1 0 0 1-6.108-10.683H.004A25.44 25.44 0 0 0 10.65 97.767q10.321 7.558 27.1 7.583a47.9 47.9 0 0 0 17.879-3.171 28.6 28.6 0 0 0 12.521-9.158 22.1 22.1 0 0 0 4.567-13.779 20.84 20.84 0 0 0-4.4-13.95 25.17 25.17 0 0 0-11.704-7.513 91 91 0 0 0-18.067-3.5c-5.313-.654-9.15-1.241-11.538-1.708a13.8 13.8 0 0 1-5.941-2.633 6.76 6.76 0 0 1-2.342-5.634 9.01 9.01 0 0 1 4.679-7.983 23.17 23.17 0 0 1 12.359-2.933 21 21 0 0 1 12.683 3.662 13.13 13.13 0 0 1 5.708 9.392h17.063a24.94 24.94 0 0 0-10.646-19.75q-9.833-7.042-25.625-7.042a42.9 42.9 0 0 0-17.158 3.267 27.9 27.9 0 0 0-11.863 9.225 22.5 22.5 0 0 0-4.308 13.616 18.84 18.84 0 0 0 4.308 12.984A25 25 0 0 0 17.3 65.783a104 104 0 0 0 17.971 3.5c5.312.659 9.246 1.292 11.7 1.88a12.9 12.9 0 0 1 6.108 3.029 8.2 8.2 0 0 1 2.342 6.362 9.13 9.13 0 0 1-4.917 8.029m30.079-67.804h15.284l2.125 12.396a32.3 32.3 0 0 1 11.916-10.083 32.1 32.1 0 0 1 15.234-3.3 40 40 0 0 1 20.337 5.141 35.67 35.67 0 0 1 14.042 14.838 48.76 48.76 0 0 1 5.058 22.775 47.9 47.9 0 0 1-5.058 22.446 36.55 36.55 0 0 1-14.042 15 38.97 38.97 0 0 1-20.333 5.308 35.6 35.6 0 0 1-16.104-3.425 28.5 28.5 0 0 1-10.884-9.392V125H80.583zm17.413 41.438a30.43 30.43 0 0 0 6.667 20.404 22.01 22.01 0 0 0 17.554 7.842 22.14 22.14 0 0 0 17.646-7.842 29.6 29.6 0 0 0 6.762-20.075 29.18 29.18 0 0 0-6.762-20.071 24.18 24.18 0 0 0-17.55-7.6 24.1 24.1 0 0 0-17.555 7.6 28.93 28.93 0 0 0-6.762 19.742M311.196 0h-17.742v81.633c0 7.725 1.825 13.459 5.454 17.142 3.625 3.683 9.359 5.542 17.342 5.542h14.954v-15.5h-11.375a8.92 8.92 0 0 1-6.666-2.042 9.84 9.84 0 0 1-1.967-6.925V36.275h20.008v-15.5h-20.008zm66.583 36.275v-15.5h-20.175V0h-17.579v81.633c0 7.725 1.779 13.459 5.363 17.142 3.583 3.683 9.358 5.542 17.25 5.542h16.916v-15.5h-13.337a9 9 0 0 1-6.671-2.042 9.84 9.84 0 0 1-1.942-6.925V36.275zm80.342 2.346a41.9 41.9 0 0 1 5.429 21.133q0 3.362-.471 6.692h-62.791v.796a25.84 25.84 0 0 0 6.833 17.279 21.84 21.84 0 0 0 16.383 6.362 23.33 23.33 0 0 0 13.646-3.825 18.13 18.13 0 0 0 7.325-10.845h17.575a33.88 33.88 0 0 1-12.287 20.895 38.34 38.34 0 0 1-24.971 8.146 46.4 46.4 0 0 1-22.7-5.304 37.1 37.1 0 0 1-14.954-14.933 45.57 45.57 0 0 1-5.292-22.354 47.9 47.9 0 0 1 5.125-22.609 36.67 36.67 0 0 1 14.325-15 41.25 41.25 0 0 1 21.062-5.308 44.6 44.6 0 0 1 21.23 4.883 36.26 36.26 0 0 1 14.533 13.921zm-12.454 14.862a21.18 21.18 0 0 0-7.229-14.275 23.05 23.05 0 0 0-15.376-5.141 22.2 22.2 0 0 0-14.887 5.308 20.5 20.5 0 0 0-7.229 14.083zm44.233 8.971a31.2 31.2 0 0 1 4.892-18.033q4.887-7.042 15.775-7.042h7.816V20.942h-3.908a30 30 0 0 0-15.283 3.333 26.25 26.25 0 0 0-9.363 9.229l-1.941-12.562h-15.609v83.541h17.55z"/></svg>