<svg style="fill-rule:evenodd;clip-rule:evenodd;stroke-linejoin:round;stroke-miterlimit:2;" xml:space="preserve" xmlns:xlink="http://www.w3.org/1999/xlink" xmlns="http://www.w3.org/2000/svg" version="1.1" viewBox="0 0 4267 1067" height="100%" width="100%">
    <path style="fill-rule:nonzero;" d="M1010.45,0c-28.541,-0 -156.59,1.477 -156.59,1.477l-0,215.681l-539.203,0c0.001,-0 -127.104,0 -180.226,90.114c-36.755,55.899 -31.969,109.14 -31.023,116.704c-0.946,7.681 -4.314,60.981 32.5,116.704c53.241,90.172 178.749,90.113 178.749,90.113l283.635,0c46.091,-0 53.005,35.159 53.182,50.227c-0.177,15.009 -7.268,48.75 -53.182,48.75l-598.293,0c-0,28.955 0,158.068 0,158.068l592.384,-0c-0,-0 125.982,0.472 178.75,-90.114c36.695,-55.604 33.209,-109.199 32.5,-116.704c0.472,-7.918 4.372,-62.695 -32.5,-118.181c-52.887,-90.527 -178.75,-90.113 -178.75,-90.113l-283.635,1.477c-45.854,0.118 -52.709,-35.218 -53.182,-50.227c0.355,-15.128 7.032,-48.573 53.182,-48.75c46.978,0.177 539.203,-0 539.203,-0l5.909,-0l-0,302.84c0,-0.001 -0.355,127.399 90.113,180.226c53.419,35.1 104.709,33.032 115.227,32.5l168.408,0l0,-156.59l-169.885,-0c-16.014,-1.123 -46.859,-10.046 -47.273,-53.182c0.413,-24.818 -0.177,-171.717 0,-305.794l215.681,-1.477c0,-28.718 -1.477,-156.591 -1.477,-156.591l-214.204,0l0,-217.158Zm1422.61,5.909l1.478,378.18l-0,527.385l156.59,-0l0,-192.045l88.636,-112.272l174.318,307.271l180.226,0l-14.772,-25.113c-0,-0.001 -157.477,-278.554 -227.5,-403.294l221.59,-265.908l-203.862,-0l-218.636,261.476l0,-474.203c0.001,0 -129.409,-1.477 -158.068,-1.477Zm907.043,208.295c-193.108,-0.001 -350.113,157.063 -350.113,350.112c0.119,190.035 151.213,343.672 339.772,348.635l227.499,0l-0,-150.681l-233.408,-0c-75.872,-1.477 -143,-60.391 -168.409,-137.386l528.862,0c3.664,-20.327 5.909,-40.536 5.909,-62.045c-0.236,-193.05 -156.709,-348.635 -350.112,-348.635Zm415.112,7.386l1.477,672.157l158.068,-0l-0,-514.089l132.954,-0c53.299,-0.001 60.981,38.468 62.045,54.659l-0,90.113l156.59,-0l0,-97.5c0.827,-10.814 2.6,-61.572 -32.5,-115.227c-53.181,-90.113 -180.226,-90.113 -180.226,-90.113l-298.408,0Zm-2465.56,1.477l2.954,672.157l156.59,-0l0,-515.566l132.955,-0c53.831,0.176 60.922,40.004 62.045,56.136l-0,90.113l156.59,0l0,-97.499c0.65,-10.873 2.659,-61.75 -32.5,-115.227c-53.122,-90.173 -180.226,-90.114 -180.226,-90.114l-298.408,0Zm512.611,1.478l184.659,627.838l5.909,16.25c3.545,14.418 4.313,36.282 -22.159,38.409l-195,0l0,158.068l199.432,-0c10.695,0.768 62.045,1.477 115.226,-33.977c75.696,-45.028 100.809,-149.618 109.318,-178.75c10.046,-34.804 183.181,-627.838 183.181,-627.838l-153.635,-0l-135.909,478.634l-137.386,-478.634l-153.636,-0Zm1537.84,144.772c82.313,-0.001 152.513,50.759 181.703,122.613l-363.407,0c28.895,-71.913 99.568,-122.613 181.704,-122.613Z"></path>
</svg>
