<svg xmlns="http://www.w3.org/2000/svg" fill-rule="evenodd" stroke-linejoin="round" stroke-miterlimit="2" clip-rule="evenodd" preserveAspectRatio="xMinYMin" viewBox="0 0 4267 1067"><path fill-rule="nonzero" d="M1010.45 0c-28.541 0-156.59 1.477-156.59 1.477v215.681H314.657c.001 0-127.104 0-180.226 90.114-36.755 55.899-31.969 109.14-31.023 116.704-.946 7.681-4.314 60.981 32.5 116.704 53.241 90.172 178.749 90.113 178.749 90.113h283.635c46.091 0 53.005 35.159 53.182 50.227-.177 15.009-7.268 48.75-53.182 48.75H-.001v158.068h592.384s125.982.472 178.75-90.114c36.695-55.604 33.209-109.199 32.5-116.704.472-7.918 4.372-62.695-32.5-118.181-52.887-90.527-178.75-90.113-178.75-90.113l-283.635 1.477c-45.854.118-52.709-35.218-53.182-50.227.355-15.128 7.032-48.573 53.182-48.75 46.978.177 539.203 0 539.203 0h5.909v302.84c0-.001-.355 127.399 90.113 180.226 53.419 35.1 104.709 33.032 115.227 32.5h168.408v-156.59h-169.885c-16.014-1.123-46.859-10.046-47.273-53.182.413-24.818-.177-171.717 0-305.794l215.681-1.477c0-28.718-1.477-156.591-1.477-156.591H1010.45zm1422.61 5.909 1.478 378.18v527.385h156.59V719.429l88.636-112.272 174.318 307.271h180.226l-14.772-25.113c0-.001-157.477-278.554-227.5-403.294l221.59-265.908h-203.862l-218.636 261.476V7.386c.001 0-129.409-1.477-158.068-1.477m907.043 208.295c-193.108-.001-350.113 157.063-350.113 350.112.119 190.035 151.213 343.672 339.772 348.635h227.499V762.27h-233.408c-75.872-1.477-143-60.391-168.409-137.386h528.862c3.664-20.327 5.909-40.536 5.909-62.045-.236-193.05-156.709-348.635-350.112-348.635m415.112 7.386 1.477 672.157h158.068V379.658h132.954c53.299-.001 60.981 38.468 62.045 54.659v90.113h156.59v-97.5c.827-10.814 2.6-61.572-32.5-115.227-53.181-90.113-180.226-90.113-180.226-90.113zm-2465.56 1.477 2.954 672.157h156.59V379.658h132.955c53.831.176 60.922 40.004 62.045 56.136v90.113h156.59v-97.499c.65-10.873 2.659-61.75-32.5-115.227-53.122-90.173-180.226-90.114-180.226-90.114zm512.611 1.478 184.659 627.838 5.909 16.25c3.545 14.418 4.313 36.282-22.159 38.409h-195v158.068h199.432c10.695.768 62.045 1.477 115.226-33.977 75.696-45.028 100.809-149.618 109.318-178.75 10.046-34.804 183.181-627.838 183.181-627.838h-153.635l-135.909 478.634-137.386-478.634zm1537.84 144.772c82.313-.001 152.513 50.759 181.703 122.613h-363.407c28.895-71.913 99.568-122.613 181.704-122.613"/></svg>