<svg xmlns="http://www.w3.org/2000/svg" xml:space="preserve" fill-rule="evenodd" stroke-linejoin="round" stroke-miterlimit="2" clip-rule="evenodd" preserveAspectRatio="xMinYMin" viewBox="0 0 1859 230"><path fill="#a7a6a6" fill-rule="nonzero" d="M336.46 37.534c-17.991-12.582-35.435-17.14-52.394-13.554-19.328 4.072-29.6 15.438-30.877 34.037-.911 13.555 6.261 24.617 21.639 33.309 5.531 3.1 16.654 8.813 33.43 17.14 33.186 16.472 52.211 40.846 39.022 79.625-17.749 52.029-88.803 48.564-127.278 24.008-.729-.425-.851-1.033-.425-1.762l11.609-17.749c.487-.79 1.52-.972 2.31-.425 9.786 6.747 20.544 11.366 32.214 13.797 23.948 5.045 41.028-1.945 51.3-20.848 9.178-16.897 6.018-31.789-9.482-44.735q-8.57-7.203-41.757-22.246c-27.23-12.4-40.906-31.424-40.967-57.014-.243-68.622 81.752-70.263 123.813-43.884 1.884 1.216 2.249 2.735 1.033 4.619l-9.847 15.074a2.365 2.365 0 0 1-3.343.608M467.324 106.4 535.46 2.037c.608-.911 1.763-1.154 2.614-.668l21.456 12.582c.972.608 1.276 1.884.607 2.796l-81.812 114.33a1.7 1.7 0 0 0-.365 1.094l-1.762 90.383c-.061 1.033-.912 1.884-1.945 1.884h-24.252c-1.094 0-2.006-.912-1.945-2.006l1.945-90.321a1.7 1.7 0 0 0-.365-1.095L373.841 16.382c-.608-.973-.304-2.249.73-2.796L396.817 1.43a1.895 1.895 0 0 1 2.613.668l64.611 104.241c.73 1.216 2.492 1.276 3.283.061m227.688-69.048c-25.467-17.931-70.385-24.617-81.994 12.642-5.41 17.323 1.701 31.121 21.334 41.514 27.96 14.77 43.094 22.854 45.465 24.252 49.476 29.662 35.679 99.743-21.031 111.352-28.263 5.775-55.007.791-80.171-14.891-.79-.486-.912-1.094-.425-1.824l11.609-17.809c.486-.79 1.519-.972 2.31-.486 15.438 10.333 30.634 15.378 45.586 15.196 28.567-.304 48.808-22.672 39.994-50.51-6.868-21.699-34.463-29.236-49.719-36.408-27.534-12.947-46.134-30.817-44.371-63.578.79-15.803 6.261-28.385 16.411-37.806 28.811-26.744 75.795-20.909 107.219-1.885 1.581.973 2.067 3.1 1.034 4.681l-9.725 14.891c-.912 1.398-2.128 1.641-3.526.669M810.68 5.684q41.575.274 80.779.547c1.641 0 2.492.851 2.492 2.492v18.478c0 1.641-.79 2.492-2.431 2.492h-64.003c-2.371 0-3.526 1.155-3.526 3.526v187.329c0 2.067-1.033 3.221-3.039 3.525-2.492.304-6.382.487-11.609.426-5.288 0-9.118-.243-11.67-.547-2.006-.304-2.979-1.52-2.979-3.586l2.371-187.33c0-2.31-1.155-3.525-3.526-3.525l-64.003-.851c-1.58 0-2.37-.851-2.37-2.492l.243-18.478c0-1.641.851-2.492 2.492-2.492 26.136.122 53.062.304 80.779.486m223.98 109.286c0 2.857-.243 5.714-.669 8.449q-.546 3.282-3.829 3.282h-75.126c-2.492 0-3.769 1.276-3.769 3.768v67.347c0 2.066 1.034 3.1 3.161 3.1h81.265c1.52 0 2.31.79 2.31 2.309v19.146c0 1.216-.608 1.824-1.884 1.824H926.833c-2.492 0-3.769-1.216-3.708-3.708.183-45.343.365-80.657.426-105.882.121-25.224.182-60.538.304-105.882 0-2.492 1.215-3.707 3.707-3.707l109.286.79c1.276 0 1.884.608 1.884 1.823l-.121 19.147c0 1.519-.79 2.309-2.31 2.309l-81.265-.607c-2.128 0-3.161 1.033-3.222 3.099l-.425 67.347c0 2.492 1.215 3.768 3.708 3.768l75.126.547q3.282 0 3.829 3.282c.426 2.796.608 5.592.608 8.449m174.99 70.264c.851 0 1.458-.486 1.823-1.398 17.323-45.769 39.508-103.998 66.556-174.626q1.095-2.918 4.194-2.918h23.705q3.009 0 3.465 2.918l34.767 214.073c.243 1.398-.73 2.735-2.188 2.979l-22.854 3.707c-1.338.243-2.128-.304-2.31-1.702l-26.136-178.212c-.669-4.437-1.763-4.498-3.282-.304l-62.91 170.675c-.668 1.824-2.005 2.918-3.89 3.222-3.464.608-7.172.912-11.244.851-4.073 0-7.841-.365-11.245-1.033q-2.827-.547-3.829-3.283l-60.296-171.647c-1.458-4.194-2.552-4.134-3.282.303l-28.871 177.787c-.243 1.337-1.034 1.884-2.31 1.641l-22.793-4.072c-1.459-.243-2.431-1.58-2.188-2.978l38.11-213.527c.365-1.945 1.519-2.917 3.525-2.857l23.705.365c2.067 0 3.404 1.033 4.133 2.978 25.893 71.054 47.167 129.587 63.821 175.66.365.912.973 1.398 1.824 1.398m286.95-70.264q-.092 5.927-.365 8.388c-.304 2.249-1.52 3.343-3.769 3.343h-75.491c-2.492 0-3.768 1.216-3.768 3.708v67.346c0 2.127 1.033 3.161 3.161 3.161h81.265c1.519 0 2.31.79 2.31 2.309v19.146c0 1.216-.608 1.824-1.885 1.824h-109.407c-2.37 0-3.586-1.216-3.586-3.586.243-62.423.365-97.737.425-106.004 0-8.266.122-43.58.304-106.003 0-2.371 1.216-3.586 3.647-3.586l109.407.79q1.824 0 1.824 1.823l-.122 19.147c0 1.519-.79 2.309-2.309 2.309l-81.266-.607c-2.127 0-3.16 1.033-3.16 3.16l-.487 67.346c0 2.492 1.216 3.708 3.708 3.708l75.491.547c2.249 0 3.526 1.155 3.769 3.404.182 1.58.304 4.376.304 8.327m90.02 83.818c-1.154.912-.486 2.735.973 2.735h93.786c1.763 0 2.675.912 2.675 2.675v16.836q0 3.465-3.465 3.465h-130.073c-2.857 0-4.498-1.398-4.984-4.255l-1.824-11.427c-.303-1.702.244-3.1 1.581-4.194 36.59-29.844 64.915-56.588 84.912-80.232 18.538-21.881 35.436-61.815 8.692-84.851-22.125-19.086-56.163-9.604-76.342 8.874a.88.88 0 0 1-1.277 0l-13.919-13.919c-.972-.973-.911-2.492.061-3.404 20.788-19.085 45.283-27.534 73.485-25.285 32.579 2.614 56.831 19.389 61.208 53.245 4.801 37.259-19.876 69.777-45.283 94.698-15.378 15.134-32.153 30.148-50.206 45.039m239.36-27.716-1.337 51.117c-.061 1.216-1.033 2.188-2.249 2.188l-21.517.061c-1.276 0-2.309-1.033-2.249-2.31l.973-50.692c.061-1.276-.973-2.309-2.249-2.309h-94.273c-1.033 0-1.884-.669-2.188-1.641l-4.862-16.533q-.274-1.094.364-2.006l101.81-139.19a2.33 2.33 0 0 1 1.823-.912l25.346-.182a2.31 2.31 0 0 1 2.31 2.309l-1.58 134.571a2.31 2.31 0 0 0 2.309 2.31l27.474-.243c1.215 0 2.249 1.033 2.249 2.249l.121 17.201c0 1.276-1.033 2.31-2.309 2.249l-27.656-.426c-1.277-.06-2.249.912-2.31 2.189m-100.837-26.562c-.972 1.398.061 3.343 1.763 3.343l70.264-.182c1.154 0 2.066-.912 2.127-2.067l2.796-104.788c.061-2.127-2.675-2.978-3.89-1.276z"/><path fill="#7a4a39" fill-rule="nonzero" d="M0 229.124v-70.836l91.658-.167c1.374 0 2.04-.708 2.04-2.082V95.281c0-.875.708-1.583 1.583-1.583h69.087c1.374 0 2.082.708 2.082 2.083.292 31.774.333 63.548.083 95.239-.125 11.077-1.54 18.531-4.331 22.321-3.331 4.539-7.037 8.745-11.16 12.535-2.415 2.207-7.496 3.331-15.283 3.29A16341 16341 0 0 0 0 229.124"/><path fill="#004a94" fill-rule="nonzero" d="m166.367 0-.042 68.795q0 2-1.999 1.999H74.959a2.063 2.063 0 0 0-2.082 2.083v62.424c0 1.374-.667 2.04-2.041 1.998L0 135.467V28.234C1.707 15.45 10.827 6.038 27.443 0z"/></svg>