<svg xmlns="http://www.w3.org/2000/svg" xml:space="preserve" fill-rule="evenodd" stroke-linejoin="round" stroke-miterlimit="2" clip-rule="evenodd" preserveAspectRatio="xMinYMin" viewBox="0 0 567 105"><path fill-rule="nonzero" d="M465.679 54.22H440.15a3.6 3.6 0 0 0-.872-.107 3.64 3.64 0 0 0-3.616 3.854q-.002.058-.002.117a3.68 3.68 0 0 0 3.664 3.665q.376 0 .744-.076h20.999v28.823a54.35 54.35 0 0 1-24.705 5.188c-24.253 0-39.159-17.541-39.159-42.864 0-24.129 14.123-45.047 37.47-45.047a38.96 38.96 0 0 1 25.283 10.294 5.1 5.1 0 0 0 3.376 1.771 3.84 3.84 0 0 0 3.253-3.542 4.7 4.7 0 0 0-2.1-3.623A45.56 45.56 0 0 0 434.262.32c-27.424 0-44.141 23.635-44.141 52.129 0 30.1 17.747 50.647 46.405 50.647 9.306 0 21.659-1.647 29.153-6.176a4.79 4.79 0 0 0 2.471-5.065V56.979q.037-.208.037-.418a2.36 2.36 0 0 0-2.508-2.341M353.515 1.555s-28.288 38.953-34.671 47.847a9.15 9.15 0 0 0-2.594 7v42.494a4.1 4.1 0 0 0-.164 1.153c0 2.259 1.858 4.118 4.117 4.118s4.118-1.859 4.118-4.118c0-.39-.056-.778-.165-1.153V57.967a6 6 0 0 1 1.071-4.118l34.711-47.641c.17-.457.256-.941.256-1.429 0-2.259-1.858-4.118-4.117-4.118-.93 0-1.834.316-2.562.894m-83.094.371a3.8 3.8 0 0 0-2.429-1.112h-66.418a6.5 6.5 0 0 0-4.117 1.03 3.05 3.05 0 0 0-1.153 2.552 3.05 3.05 0 0 0 1.112 2.595 6.68 6.68 0 0 0 4.117.947h58.676l-63.74 87.993a5.9 5.9 0 0 0-1.483 3.253 2.92 2.92 0 0 0 1.277 2.347 4.85 4.85 0 0 0 2.841.947h66.747a6.58 6.58 0 0 0 4.117-.988 3.378 3.378 0 0 0 0-5.147 6.6 6.6 0 0 0-4.117-.988H205.98l64.318-87.87h.247-.247a5.35 5.35 0 0 0 1.317-3.047 3.5 3.5 0 0 0-1.194-2.512M564.955.691a4.13 4.13 0 0 0-5.517.864c-1.326 1.673-28.289 38.953-34.671 47.847a9.15 9.15 0 0 0-2.553 7.041v42.453a4.1 4.1 0 0 0-.164 1.153c0 2.259 1.858 4.118 4.117 4.118s4.118-1.859 4.118-4.118c0-.39-.056-.778-.165-1.153V57.967a6 6 0 0 1 1.071-3.871l34.67-47.847a4.135 4.135 0 0 0-.906-5.6zM49.593 48.908 33.41 46.479c-13.258-2.018-21.864-9.389-21.864-18.077 0-15.029 12.106-20.588 25.694-20.588h.37c12.353 0 27.218 6.63 27.218 20.382a4 4 0 0 0-.041.551 3.724 3.724 0 0 0 3.706 3.706 3.723 3.723 0 0 0 3.664-4.257c0-15.276-12.353-26.352-34.505-27.547C19.452.32 4.381 9.708 4.381 28.279c0 14.823 14.782 23.47 28.082 25.529l16.141 2.471c9.1 1.482 19.559 7.041 19.559 18.035 0 14.906-16.47 21.041-29.976 21.041-15.894 0-30.759-8.565-30.759-23.347q.048-.288.048-.581a3.56 3.56 0 0 0-3.541-3.541q-.085 0-.172.004A3.56 3.56 0 0 0 0 71.425q0 .42.099.83c0 16.018 13.835 30.512 38.129 30.512 27.547 0 37.059-17.377 37.059-28.371.082-14.617-12.93-23.429-25.694-25.488m106.44-47.353s-28.288 38.953-34.67 47.847a9.14 9.14 0 0 0-2.759 7v42.494a4.1 4.1 0 0 0-.165 1.153c0 2.259 1.859 4.118 4.118 4.118s4.118-1.859 4.118-4.118c0-.39-.056-.778-.165-1.153V57.967a6 6 0 0 1 1.235-4.118l34.671-47.641c.158-.444.239-.912.239-1.384 0-2.259-1.858-4.118-4.117-4.118-.905 0-1.786.299-2.505.849"/></svg>